<svg width="88" height="73" viewBox="0 0 88 73" fill="none" xmlns="http://www.w3.org/2000/svg">
<path d="M63.1801 18.5539H61.325V17.3962H56.2623V18.5539H53.218V17.5889C53.218 14.8689 51.004 12.6558 48.2829 12.6558H40.7201C37.9975 12.6558 35.785 14.8689 35.785 17.5889V18.5539H32.7377V17.3962H27.675V18.5539H25.8199C23.7113 18.5539 22 20.2645 22 22.3739V48.6645C22 50.7738 23.7113 52.4844 25.8199 52.4844H36.7326L38.0049 45.5871L37.7291 52.4844L39.6376 58.304V41.3596H32.4381L44.5 25.0539L56.5634 41.3596H49.3609V58.304L51.2709 52.4844L50.9951 45.5871L52.2674 52.4844H63.1801C65.2887 52.4844 67 50.7738 67 48.6645V22.3739C67 20.2645 65.2887 18.5539 63.1801 18.5539ZM50.9892 18.5539H38.0138V17.5889C38.0138 16.0962 39.2268 14.8837 40.7201 14.8837H48.2829C49.7747 14.8837 50.9892 16.0962 50.9892 17.5889V18.5539Z" fill="white"/>
<path d="M43.0706 51.8232H40.7188V54.1742H43.0706V51.8232Z" fill="white"/>
<path d="M47.9182 54.1743H44.7344V57.3569H47.9182V54.1743Z" fill="white"/>
<path d="M46.5092 59.8235H44.9878V61.3443H46.5092V59.8235Z" fill="white"/>
<path d="M43.7394 57.3569H41.478V59.6175H43.7394V57.3569Z" fill="white"/>
</svg>
