<svg width="24" height="24" viewBox="0 0 24 24" fill="none" xmlns="http://www.w3.org/2000/svg">
<path d="M19.4002 14.855C18.5941 14.6817 17.9565 15.0559 17.3919 15.3827C16.8137 15.7195 15.7142 16.6114 15.084 16.3832C11.8573 15.0546 8.82256 12.2304 7.50887 8.99085C7.27733 8.34717 8.16509 7.2407 8.4994 6.65565C8.8238 6.08931 9.19029 5.44564 9.02314 4.63356C8.87208 3.9038 6.91826 1.41766 6.22737 0.737812C5.77172 0.288735 5.30493 0.0417427 4.82576 0.00182478C3.02424 -0.0755163 1.01222 2.32829 0.659343 2.90336C-0.224706 4.12959 -0.219753 5.76124 0.674201 7.73967C2.82861 13.0537 10.977 21.0735 16.311 23.3089C17.2953 23.7692 18.1955 24 19.004 24C19.7952 24 20.4997 23.7792 21.1051 23.3414C21.562 23.0781 24.0644 20.9662 23.9987 19.1163C23.9591 18.6448 23.7127 18.1732 23.2695 17.7167C22.5947 17.0193 20.1245 15.0072 19.4002 14.855Z" fill="white"/>
</svg>
