<svg width="86" height="67" viewBox="0 0 86 67" fill="none" xmlns="http://www.w3.org/2000/svg">
<path d="M69.599 0H15.669C7.00902 0 -0.000976562 7.01 -0.000976562 15.67V39.6C-0.000976562 48.25 7.00902 55.27 15.669 55.27H57.799V64.25C57.799 65.59 58.879 66.67 60.219 66.67C61.019 66.67 61.759 66.28 62.209 65.63C63.469 63.79 66.039 59.72 67.479 55.27H69.599C78.249 55.27 85.269 48.26 85.269 39.6V15.67C85.269 7.01 78.249 0 69.599 0Z" fill="#2484FE"/>
<path d="M32.1189 21.71C32.7789 19.3 34.2989 17.45 35.3789 16.38C36.0089 15.76 36.0389 14.76 35.4489 14.11L35.2689 13.91C34.7789 13.37 33.9689 13.21 33.3189 13.55C20.3889 20.34 20.5489 29.54 20.6789 31.1C20.6689 31.27 20.6489 31.44 20.6489 31.62C20.6489 37.16 25.1389 41.65 30.6789 41.65C36.2189 41.65 40.7089 37.16 40.7089 31.62C40.7089 26.58 36.9789 22.41 32.1189 21.71Z" fill="white"/>
<path d="M56.0188 21.71C56.6788 19.3 58.1988 17.45 59.2788 16.38C59.9088 15.76 59.9388 14.76 59.3488 14.11L59.1688 13.91C58.6788 13.37 57.8688 13.21 57.2188 13.55C44.2888 20.34 44.4488 29.54 44.5788 31.1C44.5688 31.27 44.5488 31.44 44.5488 31.62C44.5488 37.16 49.0388 41.65 54.5788 41.65C60.1188 41.65 64.6088 37.16 64.6088 31.62C64.6088 26.58 60.8688 22.41 56.0188 21.71Z" fill="white"/>
</svg>
