<svg width="88" height="73" viewBox="0 0 88 73" fill="none" xmlns="http://www.w3.org/2000/svg">
<path fill-rule="evenodd" clip-rule="evenodd" d="M62.8609 43.515C59.731 43.515 56.5998 42.9591 53.7217 41.8474C53.7217 44.1834 55.2798 47.3789 62.8609 47.3789C70.4433 47.3789 72.0001 44.182 72.0001 41.8474C69.1233 42.9591 65.9921 43.515 62.8609 43.515Z" fill="white"/>
<path fill-rule="evenodd" clip-rule="evenodd" d="M25.1392 47.3789C32.7216 47.3789 34.2784 44.182 34.2784 41.8474C31.4003 42.9591 28.2704 43.515 25.1392 43.515C22.0093 43.515 18.8781 42.9591 16 41.8474C16 44.1834 17.5581 47.3789 25.1392 47.3789Z" fill="white"/>
<path fill-rule="evenodd" clip-rule="evenodd" d="M41.0918 52.3625C40.2631 52.3625 39.5908 53.0309 39.5908 53.8539C39.5908 54.6782 40.2631 55.3452 41.0918 55.3452H46.9079C47.7366 55.3452 48.4089 54.6768 48.4089 53.8539C48.4089 53.0309 47.7366 52.3625 46.9079 52.3625H41.0918Z" fill="white"/>
<path fill-rule="evenodd" clip-rule="evenodd" d="M54.632 56.3784H33.3707C32.5433 56.3784 31.8711 57.0468 31.8711 57.8698C31.8711 58.6927 32.5433 59.3611 33.3707 59.3611H54.632C55.4594 59.3611 56.1316 58.6927 56.1316 57.8698C56.1316 57.0468 55.4594 56.3784 54.632 56.3784Z" fill="white"/>
<path fill-rule="evenodd" clip-rule="evenodd" d="M43.9997 20.5849C45.83 20.5849 47.3119 19.1112 47.3119 17.2918C47.3119 15.4737 45.8286 14 43.9997 14C42.1708 14 40.6875 15.4737 40.6875 17.2918C40.6889 19.1099 42.1708 20.5849 43.9997 20.5849Z" fill="white"/>
<path fill-rule="evenodd" clip-rule="evenodd" d="M37.2341 24.4597C38.1132 24.4773 38.9474 24.5736 39.7326 24.7621C40.2388 23.8808 40.9695 23.0674 41.9248 22.3203C40.4837 21.7794 38.8916 21.5204 37.294 21.4879C31.5813 21.374 25.8088 26.0365 23.9023 25.082L23.9417 24.9397C25.8741 25.3816 26.5491 22.4898 24.6344 22.0383C22.0638 21.4323 19.9328 24.1642 21.2419 26.4961C21.7454 27.3922 22.4762 27.8071 23.4559 28.0539L23.4314 28.1027C21.4188 31.9381 17.2289 39.99 18.3311 38.4119L24.233 30.4427C24.233 32.174 24.4833 38.1 24.7283 40.7397C24.8848 42.4209 25.3951 42.4276 25.5516 40.7397C25.7952 38.1 26.0469 32.174 26.0469 30.4427L31.9487 38.4119C33.051 39.99 28.8611 31.9368 26.8484 28.1027L26.6987 27.8207C29.9388 26.8499 33.3885 24.3838 37.2341 24.4597Z" fill="white"/>
<path fill-rule="evenodd" clip-rule="evenodd" d="M43.9997 27.7407C44.4107 28.6057 44.4311 29.4124 44.1902 30.4767C44.1371 30.7058 44.0745 30.9417 43.9997 31.1803C43.6173 29.9493 43.4717 28.8552 43.9997 27.7407ZM43.9997 23.3847C42.8348 24.2402 41.9748 25.1878 41.4196 26.2264C41.4182 26.2277 41.4182 26.2291 41.4169 26.2318C41.0209 26.9829 40.7977 27.7353 40.7093 28.4878C40.7011 28.5651 40.6929 28.6423 40.6875 28.7196C40.6684 28.9542 40.6616 29.1887 40.6657 29.4219C40.7038 31.2874 41.4632 33.1597 42.3504 35.0456C40.2861 39.5711 36.7112 48.7388 43.4268 51.4056L44.5549 51.4124C48.3339 49.8885 48.8932 46.3567 48.225 42.6202C47.9052 40.8279 47.2915 38.9949 46.6465 37.3721C45.981 38.8404 45.3918 40.1961 44.8788 41.4394C44.8679 41.6238 46.6546 46.6455 43.9983 48.3646C41.3067 46.6225 42.9859 41.4312 43.9983 38.8187L44.0011 38.8268C44.8611 36.72 46.6397 33.1936 47.1078 31.1288C47.5745 29.0599 47.3418 27.2906 46.1743 25.5498C47.5051 24.8326 49.0537 24.4937 50.7656 24.4598C54.6113 24.3839 58.0609 26.85 61.301 27.8207L61.1513 28.1027C59.1387 31.9382 54.9488 39.9901 56.051 38.412L61.9528 30.4428C61.9528 32.1741 62.2032 38.1001 62.4482 40.7398C62.6047 42.4209 63.1163 42.4277 63.2715 40.7398C63.5164 38.1001 63.7668 32.1741 63.7668 30.4428L69.6686 38.412C70.7709 39.9901 66.581 31.9368 64.5683 28.1027L64.5425 28.0526C65.5209 27.7774 66.2203 27.4533 66.7579 26.4962C68.067 24.1642 65.9359 21.431 63.3654 22.0384C61.4507 22.4899 62.1243 25.3831 64.058 24.9397C64.254 24.895 64.2526 25.2841 63.1 25.1743C60.5063 24.9235 55.9422 21.3849 50.7071 21.4893C48.289 21.5381 45.8871 22.1048 43.9997 23.3847Z" fill="white"/>
</svg>
