<svg width="88" height="73" viewBox="0 0 88 73" fill="none" xmlns="http://www.w3.org/2000/svg">
<path d="M41.3754 23.8731C49.3539 28.1158 58.0524 32.7423 63.1506 37.7276C63.4818 35.7229 63.6926 33.633 63.823 31.5756C58.8904 27.8222 51.898 24.1039 45.7811 20.8498C42.1507 18.923 39.0772 17.267 36.5933 15.7817C34.2324 16.705 31.7034 17.0538 29.4277 17.0287C29.7489 17.2545 30.0926 17.4928 30.4865 17.7488C33.3116 19.5853 37.2281 21.6703 41.3754 23.8731Z" fill="white"/>
<path d="M62.8198 36.7568C57.5911 31.9571 49.1159 27.4485 41.6015 23.4543C37.5571 21.3041 33.7309 19.2693 30.9385 17.4704C32.913 17.3525 34.8274 16.9586 36.5485 16.3113C39.1001 17.8267 42.2664 19.5253 45.5582 21.274C51.5997 24.4855 58.4341 28.1209 63.3316 31.8041C63.2137 33.5654 63.0431 35.2263 62.8198 36.7568Z" fill="white"/>
<path d="M27.8502 38.784C26.558 38.0966 25.3362 37.4442 24.1846 36.822C24.4982 38.9797 24.9398 41.0622 25.5494 42.9263C35.0559 48.0019 45.0365 53.6095 48.4311 59.6987C49.5426 58.7905 50.7695 57.7317 52.0315 56.555C50.1498 50.6439 37.8383 44.0955 27.8502 38.784Z" fill="white"/>
<path d="M48.5585 58.9735C44.9356 53.0975 35.4342 47.6656 25.9428 42.595C25.4887 41.1649 25.1048 39.5215 24.8037 37.6975C25.7019 38.1817 26.6428 38.681 27.6238 39.2029C37.3184 44.3588 49.3463 50.7541 51.4739 56.4143C50.5456 57.2774 49.5671 58.1355 48.5585 58.9735Z" fill="white"/>
<path d="M39.8054 26.8288C31.2499 22.2801 25.7703 19.2568 23.8685 16.374C23.7958 17.2045 23.5901 19.7235 23.5098 23.0453C23.8159 23.2586 24.142 23.4819 24.5108 23.7253C27.3334 25.5643 31.2499 27.6468 35.3972 29.8521C45.1646 35.0457 56.0133 40.8188 60.0101 47.1163C60.1707 46.8528 60.3262 46.5894 60.4767 46.3234C61.2269 44.9887 61.8266 43.408 62.3008 41.6844C58.1685 36.5987 48.1703 31.2797 39.8054 26.8288Z" fill="white"/>
<path d="M59.9851 46.218C55.6145 40.0585 45.0142 34.4209 35.6232 29.428C31.4859 27.2302 27.5794 25.1528 24.7719 23.3238C24.4909 23.1406 24.235 22.9675 23.9941 22.7994C24.0518 20.6241 24.1597 18.8227 24.2475 17.6284C26.6837 20.3155 31.8371 23.1356 39.5798 27.2503C47.6185 31.5255 57.5991 36.832 61.774 41.7922C61.2973 43.4682 60.7203 44.9108 60.0604 46.085C60.0353 46.1302 60.0102 46.1753 59.9851 46.218Z" fill="white"/>
<path d="M33.8263 32.8077C29.6138 30.5672 26.1464 28.6955 23.4844 27.0295C23.507 28.8661 23.5822 30.8105 23.7353 32.7675C25.5166 33.751 27.4385 34.7747 29.4206 35.8285C39.6722 41.2804 51.1231 47.3697 54.5804 54.0334C55.727 52.8317 56.8485 51.5471 57.8797 50.2023C55.6116 44.3915 43.6037 38.0062 33.8263 32.8077Z" fill="white"/>
<path d="M54.6812 53.228C50.8124 46.662 39.5848 40.6907 29.6443 35.4068C27.9156 34.4886 25.9637 33.4499 24.1923 32.4739C24.0844 31.0212 24.0117 29.4857 23.9766 27.895C26.6034 29.4907 29.9052 31.262 33.6034 33.2291C43.0998 38.2796 54.8819 44.5445 57.3331 50.1294C56.5378 51.1505 55.6471 52.1893 54.6812 53.228Z" fill="white"/>
<path d="M28.1006 48.1123C33.6705 56.5424 43.7389 63.2338 43.7389 63.2338C43.7389 63.2338 44.5217 62.7144 45.7636 61.7861C43.6963 57.2775 35.9712 52.4503 28.1006 48.1123Z" fill="white"/>
<path d="M43.7388 62.6541C42.246 61.6254 34.7592 56.2939 29.7012 49.5498C36.104 53.1602 43.0288 57.5734 45.1589 61.6355C44.5141 62.1122 44.0198 62.4609 43.7388 62.6541Z" fill="white"/>
<path d="M47.3522 17.8969C53.0526 20.9277 59.1217 24.1567 63.9841 27.5714C64.097 21.2363 63.5802 16.0728 63.5802 16.0728C59.1845 17.8768 47.8942 17.8693 43.7393 9.38647C42.8035 11.2983 41.5013 12.7761 40.001 13.9026C42.2164 15.1646 44.7379 16.5069 47.3522 17.8969Z" fill="white"/>
<path d="M63.5169 26.6682C58.7599 23.4216 53.0797 20.4008 47.5775 17.4753C45.2894 16.2585 42.9334 15.0065 40.8535 13.8374C42.0152 12.8614 42.9811 11.7123 43.7388 10.4026C46.3406 14.871 51.5266 17.5105 57.809 17.5105C59.7736 17.5105 61.6804 17.232 63.1581 16.7402C63.2811 18.1979 63.5571 22.0768 63.5169 26.6682Z" fill="white"/>
<path d="M36.5485 17.7815C39.1001 19.2969 42.2664 20.9955 45.5582 22.7442C51.5546 25.9331 58.3338 29.541 63.2262 33.1966C63.2664 32.7399 63.3015 32.2758 63.3316 31.8041C58.4341 28.1209 51.5972 24.488 45.5582 21.274C42.2664 19.5253 39.1001 17.8267 36.5485 16.3113C34.8274 16.9561 32.913 17.35 30.9385 17.4704C31.5607 17.8719 32.2406 18.2858 32.9557 18.7073C34.2102 18.5066 35.422 18.203 36.5485 17.7815Z" fill="white"/>
<path d="M27.6238 40.6756C36.7363 45.5204 47.9062 51.4616 50.9847 56.8584C51.1478 56.7103 51.3159 56.5648 51.4739 56.4168C49.3463 50.7566 37.3184 44.3612 27.6238 39.2053C26.6428 38.6835 25.7019 38.1817 24.8037 37.7C24.8965 38.2645 25.0019 38.8064 25.1098 39.3333C25.9177 39.7673 26.7532 40.2114 27.6238 40.6756Z" fill="white"/>
<path d="M24.2475 19.0987C26.6837 21.7858 31.8371 24.6058 39.5798 28.723C47.4127 32.8879 57.0848 38.0313 61.4353 42.8811C61.5532 42.5298 61.6661 42.171 61.7715 41.7947C57.6016 36.8345 47.621 31.5255 39.5798 27.2503C31.8371 23.1356 26.6837 20.3155 24.2475 17.6284C24.1597 18.8227 24.0518 20.6241 23.9941 22.7994C24.0092 22.8094 24.0268 22.822 24.0418 22.832C24.102 21.299 24.1798 20.0195 24.2475 19.0987Z" fill="white"/>
<path d="M33.6034 34.6993C42.6006 39.4839 53.645 45.3599 56.8665 50.714C57.0245 50.5183 57.1826 50.3226 57.3331 50.1294C54.8819 44.5445 43.0998 38.2796 33.6034 33.2291C29.9077 31.262 26.6059 29.4907 23.9766 27.895C23.9866 28.4018 24.0042 28.8986 24.0217 29.3929C26.6436 30.981 29.9278 32.7448 33.6034 34.6993Z" fill="white"/>
<path d="M44.5316 62.0945C44.7223 61.9565 44.9255 61.811 45.1589 61.6379C43.0262 57.5759 36.104 53.1626 29.7012 49.5522C30.4212 50.5107 31.189 51.4415 31.9843 52.3347C37.1377 55.358 42.2234 58.8078 44.5316 62.0945Z" fill="white"/>
<path d="M43.7388 11.8704C46.3406 16.3388 51.5266 18.9783 57.809 18.9783C59.7736 18.9783 61.6804 18.6998 63.1581 18.208C63.2635 19.4826 63.4893 22.6087 63.5169 26.4449C63.547 21.9489 63.2761 18.1704 63.1581 16.7378C61.6829 17.2295 59.7761 17.508 57.809 17.508C51.5241 17.508 46.3381 14.8686 43.7388 10.4001C42.9811 11.7098 42.0152 12.8589 40.8535 13.8349C41.1722 14.013 41.5058 14.1987 41.837 14.3794C42.5671 13.6242 43.2069 12.7887 43.7388 11.8704Z" fill="white"/>
</svg>
