<svg width="88" height="73" viewBox="0 0 88 73" fill="none" xmlns="http://www.w3.org/2000/svg">
<g clip-path="url(#clip0)">
<path fill-rule="evenodd" clip-rule="evenodd" d="M39.3429 56.5004L40.2841 56.1397C48.3592 52.4747 52.2672 43.1318 49.0351 34.7764C45.7946 26.398 36.5593 22.0808 28.0842 24.8024L27.2103 25.1378C27.1198 25.1714 27.0293 25.1986 26.9366 25.2175C18.3878 28.6477 14.1576 38.2863 17.4824 46.8807C20.805 55.4667 30.4214 59.7901 39.0671 56.6366C39.1534 56.5821 39.2461 56.536 39.3429 56.5004ZM53.3074 37.9277L70.5882 31.298C71.4536 30.9667 72.4349 31.3986 72.7697 32.2624C73.1023 33.1242 72.6686 34.1034 71.8011 34.4346L53.5074 41.4523C53.3811 45.436 52.0651 49.2814 49.7805 52.4977L60.4349 48.4113C61.3003 48.08 62.2837 48.5119 62.6164 49.3758C62.949 50.2375 62.5153 51.2167 61.6478 51.5479L40.8737 59.5175C40.7621 59.5616 40.6526 59.6077 40.5389 59.6496C30.1014 63.6543 18.3794 58.4734 14.3576 48.08C10.3359 37.6866 15.5389 26.0143 25.9765 22.0096L25.987 22.0054L25.9954 22.0012L51.7745 12.111C52.6399 11.7797 53.6211 12.2117 53.9559 13.0755C54.2886 13.9372 53.8549 14.9164 52.9874 15.2477L37.6395 21.1352C41.478 21.9844 45.0239 23.9364 47.7928 26.7754L59.9949 22.0955C60.8603 21.7642 61.8436 22.1962 62.1763 23.06C62.509 23.9218 62.0752 24.9009 61.2077 25.2322L50.0332 29.52C50.8775 30.7633 51.5934 32.1199 52.1577 33.5792C52.7136 35.0112 53.0926 36.4684 53.3074 37.9277Z" fill="white"/>
<path fill-rule="evenodd" clip-rule="evenodd" d="M64.9099 26.3372L72.707 23.3473C73.5724 23.0161 74.5536 23.448 74.8884 24.3118C75.2211 25.1736 74.7874 26.1527 73.9198 26.484L66.1227 29.4739C65.2573 29.8052 64.2761 29.3733 63.9413 28.5094C63.6086 27.6456 64.0445 26.6685 64.9099 26.3372Z" fill="white"/>
<path fill-rule="evenodd" clip-rule="evenodd" d="M57.2981 42.9766L65.0952 39.9867C65.9606 39.6555 66.9439 40.0874 67.2766 40.9512C67.6114 41.813 67.1755 42.7921 66.308 43.1234L58.5109 46.1133C57.6455 46.4446 56.6643 46.0127 56.3295 45.1488C55.9968 44.2871 56.4327 43.3079 57.2981 42.9766Z" fill="white"/>
<path fill-rule="evenodd" clip-rule="evenodd" d="M52.5984 17.9127L60.3955 14.9228C61.2609 14.5915 62.2442 15.0234 62.5769 15.8873C62.9096 16.749 62.4758 17.7282 61.6083 18.0594L53.8112 21.0494C52.9458 21.3806 51.9625 20.9487 51.6298 20.0849C51.2971 19.2231 51.733 18.2461 52.5984 17.9127Z" fill="white"/>
<path fill-rule="evenodd" clip-rule="evenodd" d="M21.9193 35.8165C22.2119 35.1623 22.9889 34.8646 23.6459 35.1539L32.5927 39.1083L34.8709 33.9944C35.1636 33.3403 35.9406 33.0425 36.5975 33.3319C37.2545 33.6233 37.5535 34.397 37.2629 35.0512L34.4582 41.3434C34.1908 41.943 33.517 42.2429 32.9001 42.0667C32.8201 42.0479 32.74 42.0227 32.6621 41.9871L22.5846 37.5337C21.9277 37.2443 21.6287 36.4706 21.9193 35.8165Z" fill="white"/>
<path fill-rule="evenodd" clip-rule="evenodd" d="M32.1589 37.9845C33.736 37.3807 35.5069 38.1627 36.1133 39.7311C36.7197 41.3015 35.9343 43.0648 34.3593 43.6687C32.7822 44.2725 31.0114 43.4905 30.405 41.9221C29.7964 40.3517 30.5839 38.5905 32.1589 37.9845Z" fill="white"/>
<path fill-rule="evenodd" clip-rule="evenodd" d="M48.0354 45.4885C46.6604 49.8014 43.403 53.4769 38.8317 55.2298C30.843 58.2952 21.8731 54.3303 18.7946 46.3754C17.2681 42.4294 17.4786 38.2423 19.0536 34.6506C18.0261 37.8754 18.0492 41.4565 19.3653 44.8595C22.4437 52.8144 31.4136 56.7772 39.4023 53.7139C43.4283 52.1707 46.4351 49.1347 48.0354 45.4885Z" fill="white"/>
</g>
<defs>
<clipPath id="clip0">
<rect width="62" height="49" fill="white" transform="translate(13 12)"/>
</clipPath>
</defs>
</svg>
