<svg width="30" height="30" viewBox="0 0 30 30" fill="none" xmlns="http://www.w3.org/2000/svg">
<path d="M14.7993 0C6.62258 0 0 6.63027 0 14.8046C0 17.5667 0.758393 20.1526 2.07757 22.3645L0.213632 29.8923L7.63199 27.7552C9.75763 28.936 12.2037 29.6091 14.8047 29.6091C22.9814 29.6091 29.604 22.9789 29.604 14.8046C29.5987 6.63027 22.9707 0 14.7993 0ZM14.9649 27.1568C12.38 27.1568 9.98194 26.3554 8.00585 24.9931L3.78128 26.2112L4.86012 21.8569C3.48754 19.8694 2.67574 17.4652 2.67574 14.8687C2.67574 8.07813 8.17675 2.57517 14.9649 2.57517C21.753 2.57517 27.2541 8.07813 27.2541 14.8687C27.2541 21.6485 21.753 27.1568 14.9649 27.1568Z" fill="url(#paint0_radial)"/>
<path d="M11.0556 13.6344C11.2265 13.4367 11.3974 13.2391 11.5683 13.0414C11.8567 12.7048 12.2893 12.3842 12.3107 11.9034C12.332 11.4386 12.1664 10.9791 12.0062 10.5624C11.8994 10.2952 11.7926 10.0228 11.6911 9.75029C11.5042 9.25877 11.2639 8.56956 10.9915 8.28106C10.623 7.89104 9.99275 7.80556 9.49605 8.04598C9.49605 8.04598 6.59066 9.44042 7.48791 12.2346C7.48791 12.2346 9.21833 20.1097 17.9345 21.7339C17.9345 21.7339 21.0589 22.1827 21.8974 20.2807C22.079 19.8693 22.2018 19.2923 22.1698 18.8489C22.1377 18.4161 21.8333 18.1276 21.4808 17.9246C21.0215 17.6628 20.6156 17.417 20.0922 17.1552C19.6382 16.9309 19.1148 16.5996 18.5914 16.7439C18.2069 16.8507 17.9345 17.198 17.6728 17.4758C17.3363 17.8338 16.9892 18.1864 16.6474 18.5443C16.642 18.5497 12.2305 16.9309 11.0556 13.6344Z" fill="url(#paint1_radial)"/>
<defs>
<radialGradient id="paint0_radial" cx="0" cy="0" r="1" gradientUnits="userSpaceOnUse" gradientTransform="translate(8.93301 30.7289) scale(31.9832 31.9945)">
<stop offset="0.2194" stop-color="#E7E7E7"/>
<stop offset="0.8827" stop-color="#FCFCFC"/>
</radialGradient>
<radialGradient id="paint1_radial" cx="0" cy="0" r="1" gradientUnits="userSpaceOnUse" gradientTransform="translate(9.27099 24.0266) scale(14.3081 14.3131)">
<stop offset="0.2194" stop-color="#E7E7E7"/>
<stop offset="0.8827" stop-color="white"/>
</radialGradient>
</defs>
</svg>
