<svg width="58" height="53" viewBox="0 0 58 53" fill="none" xmlns="http://www.w3.org/2000/svg">
<path d="M21.9385 47.6321V52.0002H24.772V47.6321H21.9385ZM56.7445 41.4542L35.0354 3.51479C33.7738 1.31511 31.5175 0 29.0006 0C26.4836 0 24.2258 1.31511 22.9658 3.51479L1.25508 41.4542C-0.0049491 43.6555 -0.0049491 46.2841 1.25508 48.4854C2.51356 50.6866 4.76827 52.0002 7.28989 52.0002H16.003V47.6321H7.28989C5.91502 47.6321 5.23225 46.7021 5.00259 46.3014C4.77293 45.9006 4.31516 44.8391 5.00259 43.6367L26.7133 5.69882C27.4007 4.49956 28.5413 4.36805 29.0006 4.36805C29.4584 4.36805 30.6005 4.49956 31.2879 5.69882L52.997 43.6383C53.6845 44.8406 53.2267 45.9021 52.997 46.3029C52.7674 46.7037 52.0862 47.6337 50.7097 47.6337H39.4781V52.0017H50.7097C53.2298 52.0017 55.4861 50.6882 56.7445 48.4869C58.0046 46.2841 58.0046 43.6555 56.7445 41.4542ZM30.7091 52.0002H33.5426V47.6321H30.7091V52.0002Z" fill="white"/>
<path d="M21.9384 32.3816H16.0029V46.9105H21.9384V32.3816Z" fill="white"/>
<path d="M30.7089 29.0859H24.7734V46.9104H30.7089V29.0859Z" fill="white"/>
<path d="M39.478 23.9899H33.5425V46.9104H39.478V23.9899Z" fill="white"/>
</svg>
