<svg width="54" height="45" viewBox="0 0 54 45" fill="none" xmlns="http://www.w3.org/2000/svg">
<g clip-path="url(#clip0)">
<path d="M42.7045 45H49.6275C52.0324 45 54.0729 43.0308 54.0729 40.551V13.0551C54.0729 10.6483 52.1053 8.60616 49.6275 8.60616H40.3725V5.90762C40.3725 2.62561 37.749 0 34.4696 0H19.5304C16.251 0 13.6275 2.62561 13.6275 5.90762V8.67909H4.44534C2.04049 8.67909 0 10.6483 0 13.128V40.624C0 43.0308 1.96761 45.0729 4.44534 45.0729H14.7935H42.7045V45ZM22.5182 43.7601H21.7895V9.91896H22.5182V43.7601ZM30.17 43.7601H23.83V9.91896H30.17V43.7601ZM32.2105 43.7601H31.4818V9.91896H32.2105V43.7601ZM18 5.90762C18 5.10535 18.6559 4.44895 19.4575 4.44895H34.4696C35.2713 4.44895 35.9271 5.10535 35.9271 5.90762V8.67909H32.1377H31.4089H30.0972H23.7571H22.4453H21.7166H17.9271V5.90762H18Z" fill="white"/>
</g>
<defs>
<clipPath id="clip0">
<rect width="54" height="45" fill="white"/>
</clipPath>
</defs>
</svg>
