<svg width="46" height="53" viewBox="0 0 46 53" fill="none" xmlns="http://www.w3.org/2000/svg">
<path d="M43.1821 6.17176L41.8874 4.55167C39.5265 1.62009 36.0993 0 32.3675 0C29.5497 0 26.8079 1.00291 24.5993 2.77729L14.6225 11.1863C11.8046 13.5779 10.1291 17.0495 10.1291 20.7525C10.1291 22.2955 10.4338 23.8384 10.9669 25.3042C11.043 25.6128 11.043 25.9214 10.8146 26.1528C10.5861 26.3843 10.3576 26.4614 10.053 26.4614C9.8245 26.3843 9.59603 26.3843 9.36755 26.3843C8.60596 26.3843 7.84437 26.6929 7.2351 27.1557L4.49338 29.4702C1.59934 31.7846 0 35.2562 0 39.0364C0 41.8908 0.990066 44.6681 2.74172 46.9054L4.03642 48.5255C6.39735 51.3799 9.8245 53.0771 13.4801 53.0771C16.298 53.0771 19.0397 52.0742 21.2483 50.2999L31.3013 41.968C34.1192 39.5764 35.7947 36.1048 35.7947 32.3246C35.7947 30.7817 35.4901 29.2387 34.957 27.7729C34.8808 27.4643 34.8808 27.1558 35.1093 26.9243C35.3377 26.6929 35.6424 26.6157 35.8709 26.6157C36.0993 26.6929 36.3278 26.6929 36.5563 26.6929C37.3179 26.6929 38.0795 26.3843 38.6887 25.9214L41.4305 23.607C41.7351 23.3755 42.0397 23.067 42.3444 22.7584C44.6291 20.444 45.9238 17.2809 45.9238 14.0408C46 11.1863 45.0099 8.33188 43.1821 6.17176ZM28.3311 35.0247C28.0265 35.6419 27.5695 36.1048 27.0364 36.5677L16.9834 44.8996C15.9934 45.7482 14.7748 46.1339 13.5563 46.1339C11.8808 46.1339 10.3576 45.3624 9.29139 44.1281L7.99669 42.508C7.15894 41.5051 6.77814 40.2707 6.77814 39.0364C6.77814 37.3392 7.53973 35.7962 8.75828 34.7162L11.5 32.4017C12.1093 31.9389 12.4901 31.1674 12.6424 30.3959C12.7185 30.0873 12.947 29.8559 13.2517 29.7787C13.5563 29.7016 13.8609 29.7787 14.0894 30.0873L14.1656 30.1645C16.5265 33.0189 19.9536 34.7162 23.6854 34.7162C24.3709 34.7162 25.0563 34.639 25.7417 34.5619C26.2748 34.4847 26.7318 34.2533 27.1887 33.9447C27.4934 33.7132 27.9503 33.7132 28.1788 34.0218C28.4834 34.2533 28.5596 34.7162 28.3311 35.0247ZM24.5993 25.69C24.7517 25.69 24.8278 25.7671 24.904 25.7671C25.0563 25.8442 25.2086 25.9214 25.3609 26.0757L25.5132 26.23C25.8179 26.4614 25.894 26.8472 25.8179 27.1557C25.7417 27.4643 25.4371 27.6958 25.0563 27.7729C24.904 27.7729 24.6755 27.7729 24.5232 27.8501C24.2185 27.9272 23.9139 27.9272 23.6093 27.9272C22.3907 27.9272 21.2483 27.5415 20.2583 26.77C19.9536 26.5386 19.8775 26.1528 19.9536 25.8442C20.0298 25.5357 20.3344 25.3042 20.7152 25.3042C20.8675 25.3042 21.096 25.3042 21.2483 25.2271C21.7815 25.1499 22.3146 25.1499 22.8477 25.2271C23.1523 25.2271 23.457 25.3042 23.7616 25.4585H23.9139C24.0662 25.5357 24.1424 25.5357 24.2947 25.6128C24.2947 25.6128 24.2947 25.6128 24.3709 25.6128L24.5993 25.69ZM37.1656 18.2838L34.4238 20.5983C33.8146 21.0611 33.4338 21.8326 33.2815 22.6041C33.2053 22.9127 32.9768 23.1441 32.6722 23.2213C32.596 23.2213 32.5199 23.2213 32.4437 23.2213C32.2152 23.2213 31.9868 23.1441 31.8344 22.9127L31.7583 22.8355C31.5298 22.6041 31.3013 22.2955 30.9967 21.9869L30.8444 21.8326C30.5397 21.524 30.3113 21.2926 30.0066 21.0611L29.9305 20.984C29.9305 20.984 29.9305 20.984 29.8543 20.984C29.5497 20.7525 29.3212 20.5983 29.0166 20.3668L28.9404 20.2897C28.6358 20.0582 28.255 19.9039 27.9503 19.6725H27.8742C27.1887 19.2868 26.4271 18.9782 25.5894 18.8239C23.8377 18.361 22.0099 18.2838 20.3344 18.5924C19.8013 18.6696 19.3444 18.901 18.8874 19.2096C18.5828 19.441 18.1258 19.441 17.8974 19.1325C17.5927 18.901 17.5166 18.4381 17.745 18.1295C18.0497 17.5124 18.5066 17.0495 19.0397 16.5866L28.9404 8.10044C29.9305 7.25182 31.149 6.86608 32.3675 6.86608C34.043 6.86608 35.5662 7.63755 36.5563 8.87191L37.851 10.492C38.6887 11.4949 39.0695 12.7293 39.0695 13.9636C39.1457 15.6608 38.4603 17.2809 37.1656 18.2838Z" fill="white"/>
</svg>
