<svg width="62" height="35" viewBox="0 0 62 35" fill="none" xmlns="http://www.w3.org/2000/svg">
<path d="M34.4863 35H27.6648C27.6648 25.6616 34.0315 18.0694 41.8384 18.0694H47.8262C51.7675 18.0694 55.1782 13.4382 55.1782 7.9718V0H61.9998V7.9718C61.9998 17.3102 55.633 24.9024 47.8262 24.9024H41.8384C37.8213 24.9024 34.4863 29.5336 34.4863 35Z" fill="white"/>
<path d="M34.2592 35H27.4377C27.4377 29.5336 24.1027 24.9024 20.0856 24.9024H14.0978C6.36675 24.9024 0 17.3102 0 7.9718V0H6.82152V7.9718C6.82152 13.4382 10.1565 18.0694 14.1736 18.0694H20.1614C27.9682 18.0694 34.2592 25.6616 34.2592 35Z" fill="white"/>
<path d="M19.6311 5.61822C21.1799 5.61822 22.4355 4.36054 22.4355 2.80911C22.4355 1.25768 21.1799 0 19.6311 0C18.0822 0 16.8267 1.25768 16.8267 2.80911C16.8267 4.36054 18.0822 5.61822 19.6311 5.61822Z" fill="white"/>
<path d="M33.8044 2.80911C33.8044 4.40347 32.5158 5.61822 31 5.61822C29.4083 5.61822 28.1956 4.32755 28.1956 2.80911C28.1956 1.21475 29.4841 0 31 0C32.5158 0 33.8044 1.29067 33.8044 2.80911Z" fill="white"/>
<path d="M42.2932 5.61822C43.842 5.61822 45.0976 4.36054 45.0976 2.80911C45.0976 1.25768 43.842 0 42.2932 0C40.7443 0 39.4888 1.25768 39.4888 2.80911C39.4888 4.36054 40.7443 5.61822 42.2932 5.61822Z" fill="white"/>
</svg>
