<svg width="59" height="59" viewBox="0 0 59 59" fill="none" xmlns="http://www.w3.org/2000/svg">
<path d="M29.7604 0.52124C13.6373 0.52124 0.520996 13.6375 0.520996 29.7607C0.520996 45.8838 13.6373 59.0001 29.7604 59.0001C45.8836 59.0001 58.9999 45.8838 58.9999 29.7607C58.9999 13.6375 45.8836 0.52124 29.7604 0.52124ZM29.7604 51.6115C17.7121 51.6115 7.90966 41.809 7.90966 29.7607C7.90966 17.7124 17.7121 7.9099 29.7604 7.9099C41.8087 7.9099 51.6112 17.7124 51.6112 29.7607C51.6112 41.809 41.8087 51.6115 29.7604 51.6115Z" fill="white"/>
<path d="M35.9568 34.6236C34.6192 35.9612 32.4626 36.8259 30.4635 36.8259C23.5974 36.8259 23.0168 31.2206 23.0023 29.5036C22.9836 27.3386 23.7405 25.3209 25.0801 23.9709C26.3907 22.65 28.2011 21.9801 30.4635 21.9801C32.5082 21.9801 34.3663 22.6976 35.6997 24.002L37.0206 25.2939L43.1671 19.3569L41.7819 17.9903C38.6609 14.9129 34.7478 13.2871 30.4635 13.2871C25.7188 13.2871 21.6606 14.8465 18.7283 17.7974C15.7961 20.7463 14.1268 25.0244 14.1516 29.5326C14.1745 33.7651 15.5659 37.6409 18.0668 40.4487C20.9783 43.7169 25.2668 45.4463 30.4656 45.4463C35.0547 45.4463 39.0902 43.86 42.1323 40.8593L43.4865 39.5238L37.3089 33.2778L35.9568 34.6236Z" fill="white"/>
</svg>
