<svg width="50" height="54" viewBox="0 0 50 54" fill="none" xmlns="http://www.w3.org/2000/svg">
<path d="M4.18507 25.305H5.62079C3.30737 25.305 1.43571 27.1912 1.43571 29.5225C1.43571 31.8539 3.30737 33.7401 5.62079 33.7401H15.229C11.4101 41.4663 9.50942 53.4627 18.5538 52.9883C20.193 36.7216 26.738 37.8814 32.1728 30.9752C33.7538 30.946 37.0205 30.9752 37.0205 30.9752V3.40329H33.8352C31.2776 1.20668 28.0342 0 24.6745 0H21.9658H21.9426H7.80632C5.49291 0 3.62125 1.88616 3.62125 4.21751C3.62125 6.54885 5.49291 8.43501 7.80632 8.43501H5.62079C3.30737 8.43501 1.43571 10.3212 1.43571 12.6525C1.43571 14.9839 3.30737 16.87 5.62079 16.87H4.18507C1.87166 16.87 0 18.7562 0 21.0875C0 23.413 1.87166 25.305 4.18507 25.305Z" fill="white"/>
<path d="M49.9998 32.2639V2.24341H39.9673V32.258H49.9998V32.2639ZM44.9836 3.83669C46.0415 3.83669 46.9017 4.70362 46.9017 5.76971C46.9017 6.8358 46.0415 7.70274 44.9836 7.70274C43.9257 7.70274 43.0654 6.8358 43.0654 5.76971C43.0654 4.70362 43.9257 3.83669 44.9836 3.83669Z" fill="white"/>
</svg>
