<svg width="54" height="50" viewBox="0 0 54 50" fill="none" xmlns="http://www.w3.org/2000/svg">
<path d="M7.57521 25.8444C5.45244 22.3743 4.91481 17.9415 6.13623 13.9875C7.23163 10.4444 9.64337 7.62534 12.7591 6.25188C14.3283 5.55836 16.1032 5.1925 17.8925 5.1925C21.629 5.1925 24.843 6.73913 26.9985 9.46142C29.154 6.73913 32.3705 5.1925 36.107 5.1925C36.8328 5.1925 37.5561 5.25532 38.2659 5.37331L34.9024 9.33325C33.0249 9.60233 30.2461 10.6329 28.8718 14.2431L27.0002 17.9993L25.1277 14.2439C23.4099 9.73221 19.4945 9.24581 17.8925 9.24581C16.6694 9.24581 15.4161 9.50217 14.3627 9.9665C12.2853 10.8824 10.7237 12.7406 9.96511 15.1963C9.08307 18.0451 9.46697 21.2292 10.9874 23.7138C12.0534 25.4582 14.1476 27.9479 16.5216 30.548L13.8662 33.6115C11.2159 30.7177 8.81762 27.8766 7.57521 25.8444ZM45.3289 9.3307L42.6509 12.429C43.2389 13.2287 43.7127 14.1531 44.0344 15.1946C44.9139 18.0434 44.5326 21.2275 43.0121 23.7129C40.2492 28.2289 30.6039 37.7505 27.0002 41.2428C25.8132 40.0926 23.9702 38.2879 21.9348 36.2251L19.3088 39.3065C22.632 42.6697 25.3739 45.2757 25.6276 45.5168L27.0002 46.8181L28.372 45.5168C28.9566 44.9625 42.7433 31.8595 46.4243 25.8436C48.5471 22.3734 49.0847 17.9407 47.8633 13.9858C47.3173 12.2262 46.4478 10.6456 45.3289 9.3307Z" fill="white"/>
<path opacity="0.2" d="M16.2649 30.2637C16.3514 30.3588 16.4346 30.4521 16.5219 30.5472L13.8666 33.6107C11.2163 30.7178 8.81797 27.8767 7.57556 25.8445C6.1643 23.5382 5.45867 20.8065 5.49815 18.0724C5.55863 20.6104 6.26342 23.1222 7.57556 25.2656C8.81797 27.2978 11.2163 30.1389 13.8666 33.0318L16.2649 30.2637ZM44.4859 18.1046C44.5279 16.9315 44.3851 15.7473 44.0348 14.6158C43.7551 13.7109 43.3561 12.9002 42.8705 12.177L42.6521 12.43C43.2401 13.2296 43.7139 14.154 44.0356 15.1956C44.3263 16.1403 44.4666 17.1233 44.4859 18.1046ZM46.4239 25.2656C42.7428 31.2823 28.9562 44.3836 28.3715 44.9388L26.9997 46.2401L25.6271 44.9388C25.381 44.7045 22.776 42.2284 19.5738 38.9968L19.3083 39.3083C22.6315 42.6715 25.3734 45.2775 25.6271 45.5186L26.9997 46.8199L28.3715 45.5186C28.9562 44.9642 42.7428 31.8612 46.4239 25.8454C47.8351 23.539 48.5408 20.8074 48.4996 18.0732C48.4391 20.6104 47.7343 23.1214 46.4239 25.2656ZM25.1281 14.2431L27.0006 17.9985L28.8722 14.2423C30.2465 10.6321 33.0253 9.60158 34.9028 9.33249L38.2663 5.37255C38.1184 5.34794 37.9697 5.3369 37.8219 5.31653L34.9028 8.75356C33.0253 9.0218 30.2465 10.0523 28.8722 13.6634L27.0006 17.4187L25.1281 13.6634C23.4102 9.15168 19.4948 8.66528 17.8929 8.66528C16.6698 8.66528 15.4165 8.92079 14.3631 9.38596C12.2856 10.3019 10.724 12.1592 9.96546 14.6158C9.61517 15.7473 9.47236 16.9315 9.51436 18.1038C9.53369 17.1225 9.67229 16.1403 9.96546 15.1947C10.724 12.739 12.2856 10.8808 14.3631 9.96489C15.4165 9.50056 16.6698 9.24421 17.8929 9.24421C19.4948 9.24505 23.4094 9.73145 25.1281 14.2431Z" fill="white"/>
<path d="M5.72568 3.38016L0.626666 3.03892V0H17.3442V3.03892L11.5337 3.24434L12.5627 4.45906C12.3981 4.52443 12.2309 4.58894 12.0696 4.66024C10.8449 5.20097 9.71837 5.93778 8.71285 6.82993L5.72568 3.38016ZM48.859 46.3681L40.0688 36.2234C39.0499 37.31 38.0192 38.3838 37.0178 39.4083L43.0485 46.504L37.3228 46.7085V49.7127H53.9992V46.7085L48.859 46.3681ZM26.9987 27.6228L32.1431 33.6743C33.1344 32.6557 34.1508 31.5929 35.1387 30.5335L29.9254 24.5159L48.1886 3.38016L53.2876 3.03892V0H36.6129V3.03892L42.3386 3.24434L26.9156 21.4091L18.0902 10.986C18.0221 10.9843 17.9549 10.9817 17.8919 10.9817C16.899 10.9817 15.8909 11.1863 15.0509 11.5572C14.5267 11.7881 14.0496 12.1073 13.6136 12.4901L24.0301 24.5159L5.09901 46.3681L0 46.7085V49.7127H16.6764V46.7085L10.9079 46.504L26.9987 27.6228Z" fill="white"/>
<path opacity="0.2" d="M41.8615 3.22648L36.6138 3.03803V2.45911L42.3395 2.66368L41.8615 3.22648ZM17.3442 2.45996L11.5337 2.66453L12.0108 3.22733L17.3442 3.03888V2.45996ZM53.2876 3.03888V2.45996L48.1886 2.8012L29.9254 23.937L30.1774 24.2256L48.1886 3.38012L53.2876 3.03888ZM13.9076 12.249C13.8085 12.3263 13.7094 12.4061 13.6145 12.4901L23.7814 24.2256L24.0309 23.9361L13.9076 12.249ZM32.1431 33.0945L26.9987 27.0429L10.907 45.925L11.3858 45.942L26.9987 27.6227L32.1431 33.6742C33.1344 32.6556 34.1508 31.5928 35.1387 30.5335L34.8783 30.2313C33.9719 31.1981 33.047 32.165 32.1431 33.0945ZM43.0485 45.925L37.2799 39.1375C37.1934 39.2266 37.1044 39.32 37.0178 39.4083L42.5713 45.9428L43.0485 45.925ZM8.71369 6.82904C9.71837 5.93689 10.8449 5.20008 12.0705 4.65935C12.2318 4.58805 12.3989 4.52354 12.5636 4.45817L12.199 4.0278C12.157 4.04563 12.1125 4.06175 12.0705 4.08043C10.8457 4.62031 9.71921 5.35796 8.71369 6.25012L5.72568 2.8012L0.626666 2.45996V3.03888L5.72568 3.38012L8.71369 6.82904ZM37.3236 49.7135H54V49.1345H37.3236V49.7135ZM0 49.7135H16.6764V49.1345H0V49.7135Z" fill="white"/>
</svg>
