<svg width="45" height="48" viewBox="0 0 45 48" fill="none" xmlns="http://www.w3.org/2000/svg">
<path fill-rule="evenodd" clip-rule="evenodd" d="M7.00639 0H37.9936C41.8615 0 45 3.18356 45 7.10696V33.3601C45 37.2835 41.8615 40.4671 37.9936 40.4671H33.3747V21.9038H38.6129L38.856 19.079L39.2538 14.7296H33.662V14.7072V11.8375C33.662 10.4475 34.5903 10.1112 35.2312 10.1112H39.1875V3.96828L33.7283 3.94586C27.6723 3.94586 26.2799 8.51942 26.2799 11.4564V14.7072H22.7656V19.0566V21.9038H26.302V40.4671H11.8026L0 48V7.10696C0 3.18356 3.13851 0 7.00639 0Z" fill="white"/>
</svg>
