<svg width="46" height="56" viewBox="0 0 46 56" fill="none" xmlns="http://www.w3.org/2000/svg">
<path d="M2.80599 25.0175C2.80599 25.0175 3.23706 27.7341 6.89705 27.7341C8.26344 27.7341 9.23944 27.3274 9.90637 26.8719C10.9637 28.4335 12.2894 29.621 13.4606 30.475C15.3069 35.0297 18.5765 37.7543 22.7245 37.7543C26.8562 37.7543 30.1258 35.0459 31.9721 30.5157C33.1514 29.6617 34.5015 28.4579 35.567 26.8801C36.2339 27.3355 37.2018 27.7341 38.5519 27.7341C42.2119 27.7341 42.643 25.0175 42.643 25.0175C42.643 25.0175 40.203 24.4075 40.203 21.9676C40.203 16.7785 45.449 16.8436 45.449 8.18159C45.449 -2.36732 34.1599 -1.70039 31.6549 4.4484L31.6711 4.59479C27.9867 1.69934 23.7493 1.5692 22.7326 2.79733C21.7159 1.5692 17.4622 1.69934 13.7616 4.61919L13.786 4.4484C11.289 -1.70039 0 -2.36732 0 8.18159C0 16.8436 5.24599 16.7866 5.24599 21.9676C5.24599 24.4157 2.80599 25.0175 2.80599 25.0175ZM11.655 17.9985C11.7364 17.966 11.8177 17.9578 11.8909 17.9497C11.9072 17.9497 11.9153 17.9497 11.9316 17.9497C11.9885 18.3076 12.0536 18.6898 12.1268 19.0965H13.1353C13.1353 19.0965 13.6396 14.1514 15.193 13.33C14.5505 14.9322 15.25 19.0965 15.25 19.0965H20.4959L21.5939 15.8757L22.2039 18.8037H28.5479C28.5479 18.8037 28.7269 15.8106 28.1819 12.8257C28.1819 12.8257 30.1339 17.0306 30.0119 18.6817L32.5739 19.0965H33.5824C33.5824 19.0965 33.68 18.6736 33.7776 17.966C33.8264 17.9741 33.8752 17.9904 33.9322 18.0066C35.3962 18.4946 35.4206 20.8126 34.6072 25.0826C34.1518 27.4738 33.4035 27.8235 32.8748 27.7341C32.517 27.669 32.2649 27.4006 32.2649 27.4006L32.2892 26.9777C32.1998 27.3681 32.1103 27.7585 32.0046 28.1245C32.0046 28.1326 32.0046 28.1326 32.0046 28.1407C31.9233 28.4335 31.8338 28.7101 31.7443 28.9866C31.7199 29.0761 31.6955 29.1655 31.663 29.2469C31.5735 29.5071 31.4759 29.7593 31.3783 30.0033C31.3458 30.0927 31.3133 30.1903 31.2726 30.2798C31.1831 30.4913 31.0855 30.6946 30.9961 30.8979C30.9391 31.0199 30.8903 31.1419 30.8253 31.2639C28.9871 34.9727 26.0917 37.0386 22.7245 37.0386C19.341 37.0386 16.4293 34.9483 14.5912 31.1989C14.0462 30.0927 13.607 28.8321 13.2654 27.4494C13.2573 27.4575 13.2492 27.4657 13.241 27.4738C13.2166 27.4901 13.1922 27.5145 13.1597 27.5389C13.1516 27.5389 13.1516 27.547 13.1434 27.547C13.0052 27.6365 12.8018 27.7422 12.566 27.7422C12.0536 27.7422 11.3948 27.2542 10.98 25.0745C10.1666 20.8045 10.191 18.4865 11.655 17.9985Z" fill="white"/>
<path d="M39.0967 45.9446L32.7934 42.4391C32.9072 42.2032 32.9723 42.0487 32.9723 42.0487L28.9463 38.3318L22.8463 42.431C22.8301 42.3984 22.6837 42.3984 22.6593 42.431L16.5593 38.3318L12.5333 42.0487C12.5333 42.0487 12.5984 42.2032 12.7122 42.4391L6.40891 45.9446C5.61998 46.3838 5.01811 47.0995 4.72532 47.9454L2.00879 55.8184H22.7325H22.7569H43.4805L40.764 47.9454C40.4794 47.0995 39.8856 46.3838 39.0967 45.9446ZM17.5597 46.034C15.6728 46.034 14.0868 43.6022 13.4117 42.2358L16.6244 39.2671L21.7158 42.6912C20.3006 44.8791 18.8691 46.034 17.5597 46.034ZM27.9459 46.034C26.6446 46.034 25.2131 44.8791 23.7817 42.6912L28.8731 39.2671L32.0858 42.2358C31.4188 43.6022 29.841 46.034 27.9459 46.034Z" fill="white"/>
</svg>
