<svg width="45" height="45" viewBox="0 0 45 45" fill="none" xmlns="http://www.w3.org/2000/svg">
<path d="M22.4993 17.6206C19.7885 17.6206 17.6199 19.7892 17.6199 22.5C17.6199 23.0422 17.7554 23.7199 17.891 24.1265L9.0809 32.9366C10.3008 33.6143 11.2495 34.5631 11.9272 35.7829L20.7373 26.9729C21.2795 27.1084 21.8216 27.2439 22.3638 27.2439C25.0746 27.2439 27.2432 25.0753 27.2432 22.3645C27.2432 19.6537 25.2101 17.6206 22.4993 17.6206Z" fill="white"/>
<path d="M22.4996 9.75888C24.5327 9.75888 26.1592 8.53901 26.9724 6.91253H32.1229C31.9874 6.23484 31.8518 5.55714 31.8518 4.87944C31.8518 4.20174 31.9874 3.52404 32.1229 2.84634H26.9724C26.1592 1.21987 24.5327 0 22.4996 0C19.7888 0 17.6202 2.16864 17.6202 4.87944C17.6202 7.59023 19.7888 9.75888 22.4996 9.75888ZM9.35225 38.0867C8.53902 36.4602 6.91253 35.2403 4.87944 35.2403C2.16864 35.2403 0 37.409 0 40.1198C0 42.8306 2.16864 44.9992 4.87944 44.9992C6.91253 44.9992 8.53902 43.7793 9.35225 42.1529H14.5028C14.3672 41.4752 14.2317 40.7975 14.2317 40.1198C14.2317 39.4421 14.3672 38.7644 14.5028 38.0867H9.35225ZM4.87944 27.379C7.59023 27.379 9.75888 25.2104 9.75888 22.4996C9.75888 19.7888 7.59023 17.6202 4.87944 17.6202C2.16864 17.6202 0 19.7888 0 22.4996C0 25.2104 2.16864 27.379 4.87944 27.379ZM26.7013 15.4515C27.9212 16.1292 28.87 17.078 29.5477 18.2979L38.3577 9.48778C38.8999 9.62332 39.4421 9.75888 39.9842 9.75888C42.695 9.75888 44.8637 7.59023 44.8637 4.87944C44.8637 2.16864 42.695 0 39.9842 0C37.2734 0 35.1048 2.16864 35.1048 4.87944C35.1048 5.4216 35.2403 6.09929 35.3759 6.50591L26.7013 15.4515ZM40.1198 35.2403C37.409 35.2403 35.2403 37.409 35.2403 40.1198C35.2403 42.8306 37.409 44.9992 40.1198 44.9992C42.8306 44.9992 44.9992 42.8306 44.9992 40.1198C44.9992 37.409 42.8306 35.2403 40.1198 35.2403ZM9.35225 2.84634C8.53902 1.21987 6.91253 0 4.87944 0C2.16864 0 0 2.16864 0 4.87944C0 7.59023 2.16864 9.75888 4.87944 9.75888C6.91253 9.75888 8.53902 8.53901 9.35225 6.91253H14.5028C14.3672 6.23484 14.2317 5.55714 14.2317 4.87944C14.2317 4.20174 14.3672 3.52404 14.5028 2.84634H9.35225ZM40.1198 17.6202C37.409 17.6202 35.2403 19.7888 35.2403 22.4996C35.2403 25.2104 37.409 27.379 40.1198 27.379C42.8306 27.379 44.9992 25.2104 44.9992 22.4996C44.9992 19.7888 42.8306 17.6202 40.1198 17.6202ZM26.9724 38.0867C26.1592 36.4602 24.5327 35.2403 22.4996 35.2403C19.7888 35.2403 17.6202 37.409 17.6202 40.1198C17.6202 42.8306 19.7888 44.9992 22.4996 44.9992C24.5327 44.9992 26.1592 43.7793 26.9724 42.1529H32.1229C31.9874 41.4752 31.8518 40.7975 31.8518 40.1198C31.8518 39.4421 31.9874 38.7644 32.1229 38.0867H26.9724Z" fill="white"/>
</svg>
