<svg width="39" height="59" viewBox="0 0 39 59" fill="none" xmlns="http://www.w3.org/2000/svg">
<path d="M19.4994 0C11.6994 0 5.39941 6.3 5.39941 14.1V18.75H11.3994V14.1C11.3994 9.6 14.9994 6 19.4994 6C23.9994 6 27.5994 9.6 27.5994 14.1V18.75H33.5994V14.1C33.5994 6.3 27.2994 0 19.4994 0Z" fill="white"/>
<path d="M36 22.5H3C1.35 22.5 0 23.85 0 25.5V55.5C0 57.15 1.35 58.5 3 58.5H36C37.65 58.5 39 57.15 39 55.5V25.5C39 23.85 37.65 22.5 36 22.5ZM23.4 49.5H15.6C14.55 49.5 13.8 48.3 14.25 47.4L16.65 42.15C16.95 41.55 16.8 40.8 16.2 40.35C15.15 39.45 14.4 38.1 14.4 36.6C14.4 32.85 18.45 30 22.5 32.55C22.95 32.85 23.25 33.15 23.55 33.6C25.2 36.3 24.45 38.85 22.65 40.35C22.05 40.8 21.9 41.55 22.2 42.15L24.6 47.4C25.2 48.3 24.45 49.5 23.4 49.5Z" fill="white"/>
</svg>
