<svg width="56" height="14" viewBox="0 0 56 14" fill="none" xmlns="http://www.w3.org/2000/svg">
<g clip-path="url(#clip0)">
<path d="M12.1 7L15.3 8.7L13 12.4L9.7 10.4L9.8 14H5.4L5.5 10.4L2.2 12.4L0 8.7L3.2 7L0 5.3L2.3 1.6L5.6 3.6L5.4 0H9.8V3.6L13.1 1.6L15.4 5.3L12.1 7Z" fill="white"/>
</g>
<g clip-path="url(#clip1)">
<path d="M32.1 7L35.3 8.7L33 12.4L29.7 10.4L29.8 14H25.4L25.5 10.4L22.2 12.4L20 8.7L23.2 7L20 5.3L22.3 1.6L25.6 3.6L25.4 0H29.8V3.6L33.1 1.6L35.4 5.3L32.1 7Z" fill="white"/>
</g>
<g clip-path="url(#clip2)">
<path d="M52.1 7L55.3 8.7L53 12.4L49.7 10.4L49.8 14H45.4L45.5 10.4L42.2 12.4L40 8.7L43.2 7L40 5.3L42.3 1.6L45.6 3.6L45.4 0H49.8V3.6L53.1 1.6L55.4 5.3L52.1 7Z" fill="white"/>
</g>
<defs>
<clipPath id="clip0">
<rect width="15.3" height="13.9" fill="white"/>
</clipPath>
<clipPath id="clip1">
<rect width="15.3" height="13.9" fill="white" transform="translate(20)"/>
</clipPath>
<clipPath id="clip2">
<rect width="15.3" height="13.9" fill="white" transform="translate(40)"/>
</clipPath>
</defs>
</svg>
