<svg width="59" height="33" viewBox="0 0 59 33" fill="none" xmlns="http://www.w3.org/2000/svg">
<path d="M57.4872 0H1.51282C0.605128 0 0 0.605128 0 1.51282V22.6923C0 23.6 0.605128 24.2051 1.51282 24.2051H57.4872C58.3949 24.2051 59 23.6 59 22.6923V1.51282C59 0.605128 58.3949 0 57.4872 0ZM18.6077 14.3718L16.9436 17.2462L13.4641 14.6744L13.918 18.1538H10.8923L11.3462 14.6744L7.86668 17.2462L6.20257 14.3718L10.1359 12.7077L6.20257 11.0436L7.86668 8.16923L11.1949 10.741L10.741 7.41282H13.7667L13.3128 10.741L16.641 8.16923L18.3051 11.0436L14.3718 12.7077L18.6077 14.3718ZM35.7026 14.3718L34.0385 17.2462L30.559 14.6744L31.0128 18.1538H27.9872L28.441 14.6744L24.9615 17.2462L23.2974 14.3718L27.2308 12.7077L23.2974 11.0436L24.9615 8.16923L28.2898 10.741L27.8359 7.41282H30.8615L30.4077 10.741L33.7359 8.16923L35.4 11.0436L31.4666 12.7077L35.7026 14.3718ZM52.6461 14.3718L50.9821 17.2462L47.5026 14.6744L47.9564 18.1538H44.9308L45.3846 14.6744L41.9051 17.2462L40.241 14.3718L44.1744 12.7077L40.241 11.0436L41.9051 8.16923L45.2333 10.741L44.7795 7.41282H47.8051L47.3513 10.741L50.6795 8.16923L52.3436 11.0436L48.4103 12.7077L52.6461 14.3718Z" fill="white"/>
<path d="M55.673 28.1384H3.48067C2.27042 28.1384 1.21144 29.1974 1.21144 30.4077C1.21144 31.6179 2.27042 32.6769 3.48067 32.6769H55.673C56.8832 32.6769 57.9422 31.6179 57.9422 30.4077C57.9422 29.1974 56.8832 28.1384 55.673 28.1384Z" fill="white"/>
</svg>
