<svg width="63" height="60" viewBox="0 0 63 60" fill="none" xmlns="http://www.w3.org/2000/svg">
<path d="M52.2384 25.3806C46.9802 22.8042 38.7461 18.6936 35.1936 16.2799C31.8145 13.9891 27.047 9.09185 24.1343 5.95435C23.5487 3.94325 22.5552 2.58491 21.1402 2.15733C17.1522 0.952334 11.6175 7.88635 8.59004 17.9059C5.56253 27.9254 6.33135 36.7641 10.3193 37.9691C11.7344 38.3967 13.3138 37.8158 14.9151 36.4655C19.0778 35.4659 25.7595 34.0282 29.906 34.0113C32.0758 34.032 35.571 34.3121 39.1754 34.6958L41.2037 36.5785C40.3743 38.162 38.2294 42.2404 37.3114 45.2785C36.159 49.0924 35.668 55.3636 35.6485 55.4282L35.6542 55.6416L40.6069 57.1381L40.7299 56.9636C40.7494 56.899 43.8133 51.4052 44.9657 47.5914C45.5907 45.5228 45.9861 42.8205 46.2895 40.6548L48.4367 35.8717C48.6492 35.8653 48.9065 35.9431 49.119 35.9367L49.1385 35.8721C49.6531 36.0276 51.313 34.4834 52.3482 31.0573C53.28 27.7411 52.8173 25.5555 52.2384 25.3806ZM10.6904 36.7409C7.86025 35.8858 6.8685 28.2495 9.87647 18.2946C12.8844 8.3397 17.9194 2.59502 20.7495 3.45017C22.8721 4.09154 23.9457 8.43695 23.1584 14.7596L17.359 14.2066L17.3199 14.3358C15.7371 13.9987 14.0611 16.5256 13.2212 19.3053C12.3813 22.0849 12.3776 25.1171 13.8822 25.7129L13.8432 25.8422L18.9785 28.5931C16.1971 34.3133 12.813 37.3823 10.6904 36.7409ZM19.5621 27.3585L15.6994 25.2743C16.739 24.3892 17.6718 22.6958 18.2383 20.8212C18.8047 18.9466 18.9852 16.9553 18.5902 15.7073L22.9607 16.1108C22.6263 17.9144 22.1885 19.8279 21.583 21.8319C20.958 23.9004 20.3272 25.7556 19.5621 27.3585ZM46.3656 37.1506L42.5706 36.0039L41.4152 34.9493C43.3139 35.1703 45.2769 35.4107 46.963 35.638L46.3656 37.1506Z" fill="white"/>
<path d="M56.9314 27.504C56.8671 27.4846 55.7679 26.9408 54.1094 26.1575C54.3619 27.6447 54.1171 29.6165 53.5507 31.4911C52.9842 33.3657 52.0962 35.1432 51.0623 36.2417C52.9415 36.5273 54.0935 36.6638 54.1579 36.6832C55.38 37.0525 56.7459 34.8551 57.41 32.6572C58.0741 30.4594 58.1535 27.8733 56.9314 27.504Z" fill="white"/>
</svg>
