<svg width="83" height="81" viewBox="0 0 83 81" fill="none" xmlns="http://www.w3.org/2000/svg">
<path d="M28.656 7.32275L27.0684 15.5622L20.6891 14.509L20.0292 19.9702L30.6035 21.4191L32.653 9.00649L28.656 7.32275Z" fill="white"/>
<path d="M40.2636 10.343L39.1566 18.711L45.3978 20.6043L44.3088 25.9771L34.0521 22.5299L36.0401 10.0898L40.2636 10.343Z" fill="white"/>
<path d="M35.3295 39.9772L36.6343 32.2585L42.8826 34.1161L44.2863 28.8451L33.8813 26.0652L31.2477 37.7118L35.3295 39.9772Z" fill="white"/>
<path d="M23.3697 36.558L24.5844 28.9545L18.2165 27.8071L18.6032 22.2972L29.1093 24.4966L27.8265 37.0967L23.3697 36.558Z" fill="white"/>
<path d="M46.5001 49.5261L58.487 56.7589L45.5632 76.5982L71.1796 54.4646L61.5208 46.9093L73.0937 32.1143L59.4907 24.9572L46.5001 49.5261Z" fill="white"/>
</svg>
