<svg width="48" height="54" viewBox="0 0 48 54" fill="none" xmlns="http://www.w3.org/2000/svg">
<path d="M15.3342 43.7371L9.49872 37.9016H6.64883C5.83458 37.9016 5.29174 38.4444 5.29174 39.2587V44.687C5.29174 44.8228 5.29174 44.8228 5.29174 44.8228C2.30615 45.5013 -0.00088501 48.2155 -0.00088501 51.4725V52.8296C-0.00088501 53.2367 0.270532 53.5081 0.677658 53.5081H21.7125V45.5013H19.6769C18.0484 45.5013 16.4198 44.8228 15.3342 43.7371ZM41.9331 44.8228V44.687V39.2587C41.9331 38.4444 41.3902 37.9016 40.576 37.9016H37.7261L31.8906 43.7371C30.805 44.8228 29.1765 45.5013 27.548 45.5013H25.648V53.5081H46.4115C46.8186 53.5081 47.09 53.2367 47.09 52.8296V51.4725C47.2257 48.2155 44.9187 45.5013 41.9331 44.8228Z" fill="white"/>
<path d="M43.9692 17.5454H3.25664C2.17097 17.5454 1.22101 18.4954 1.22101 19.581C1.22101 20.6667 2.17097 21.6167 3.25664 21.6167H5.56368C5.42797 22.0238 5.29227 22.4309 5.29227 22.838V25.8236C5.29227 27.1807 6.37793 28.4021 7.87072 28.4021H9.36353V30.7091C9.36353 32.2019 9.90636 33.559 10.992 34.509L17.7775 41.2944C18.3203 41.8372 18.9988 42.1087 19.6774 42.1087H27.6842C28.3627 42.1087 29.0413 41.8372 29.5841 41.2944L36.3695 34.509C37.4552 33.4233 37.9981 32.0662 37.9981 30.7091V28.4021H39.4908C40.8479 28.4021 42.0693 27.3164 42.0693 25.8236V22.838C42.0693 22.4309 41.9336 22.0238 41.7979 21.6167H44.1049C45.1906 21.6167 46.1406 20.6667 46.1406 19.581C46.1406 18.4954 45.0549 17.5454 43.9692 17.5454ZM16.149 29.7592C13.8419 29.7592 12.0777 27.995 12.0777 25.6879C12.0777 23.3809 13.8419 21.6167 16.149 21.6167C18.456 21.6167 20.2202 23.3809 20.2202 25.6879C20.2202 27.8593 18.456 29.7592 16.149 29.7592ZM31.0769 29.7592C28.7699 29.7592 27.0056 27.995 27.0056 25.6879C27.0056 23.3809 28.7699 21.6167 31.0769 21.6167C33.384 21.6167 35.1482 23.3809 35.1482 25.6879C35.1482 27.8593 33.384 29.7592 31.0769 29.7592ZM35.2839 4.24595C35.0125 2.61745 33.9268 1.39607 32.5697 0.581817C31.2126 -0.0967259 29.4484 -0.232434 27.9556 0.446109C25.2414 1.66749 22.1201 1.66749 19.406 0.446109C17.9132 -0.232434 16.2847 -0.0967259 14.7919 0.581817C13.4348 1.26036 12.3491 2.61745 12.0777 4.11024L9.90635 13.3384H37.4552L35.2839 4.24595Z" fill="white"/>
</svg>
