<svg width="63" height="65" viewBox="0 0 63 65" fill="none" xmlns="http://www.w3.org/2000/svg">
<path fill-rule="evenodd" clip-rule="evenodd" d="M33.4335 34.9677C33.4211 34.9801 33.4024 34.9926 33.3836 35.0051C33.3649 35.0175 33.3462 35.03 33.3337 35.0425C33.3213 35.055 33.3088 35.0612 33.2963 35.0675C33.2838 35.0737 33.2714 35.0799 33.2589 35.0924C30.215 37.288 27.0214 33.5206 27.0214 33.5206C24.9755 30.9507 21.5574 28.2062 16.1183 27.6074C16.1183 27.6074 17.3907 37.288 22.2809 39.8828C24.2021 40.9057 25.8238 40.781 27.0464 40.3069C27.1961 40.282 27.4206 40.1822 27.7699 39.9576C27.8198 39.9327 27.8697 39.9077 27.9446 39.8578C29.0923 39.2091 29.6911 39.1343 29.741 39.1343C31.3627 38.9846 32.7349 39.758 32.7349 39.758C33.6331 40.3069 34.9056 40.7311 36.702 40.6063C42.2159 40.1822 43.9874 31.9487 43.9874 31.9487C38.6231 32.1483 35.3547 33.5954 33.4335 34.9677ZM28.8428 37.6373C28.8428 37.6373 24.8009 31.7741 18.6133 30.6513C18.6133 30.6513 19.7859 36.9137 23.728 38.6852C27.6701 40.4566 28.8428 37.6373 28.8428 37.6373ZM41.6422 33.82C35.6791 34.2691 31.8119 37.6872 31.8119 37.6872C31.8119 37.6872 32.7849 39.6583 36.0035 39.3339C39.222 39.0096 41.6422 33.82 41.6422 33.82Z" fill="white"/>
<path d="M31.5375 33.2711C26.5974 33.82 7.90986 26.5097 0.000732422 18.1016C0.000732422 18.1016 11.6773 23.4907 16.4926 20.846C18.813 19.5736 23.1293 3.70544 23.1293 3.70544C23.1293 3.70544 24.4766 -0.436252 27.3958 0.0377966C28.9676 0.287296 31.5375 5.70143 32.9347 6.99883C34.3319 8.29623 36.0035 6.40003 37.0264 6.17548C38.0494 5.95093 41.1432 14.0098 43.6881 20.7462C43.6881 20.7462 48.9775 23.9398 62.3007 18.6006C62.3007 18.6255 44.4366 31.824 31.5375 33.2711Z" fill="white"/>
<path d="M31.5375 33.2711C26.5974 33.82 7.90986 26.5097 0.000732422 18.1016C0.000732422 18.1016 11.6773 23.4907 16.4926 20.846C18.813 19.5736 23.1293 3.70544 23.1293 3.70544C23.1293 3.70544 24.4766 -0.436252 27.3958 0.0377966C28.9676 0.287296 31.5375 5.70143 32.9347 6.99883C34.3319 8.29623 36.0035 6.40003 37.0264 6.17548C38.0494 5.95093 41.1432 14.0098 43.6881 20.7462C43.6881 20.7462 48.9775 23.9398 62.3007 18.6006C62.3007 18.6255 44.4366 31.824 31.5375 33.2711Z" fill="white"/>
<path d="M17.5408 36.6892C17.5408 36.6892 21.2833 40.5066 23.7284 41.9786C26.1984 43.4507 28.1445 40.6563 30.2153 40.6313C32.2862 40.6064 35.3301 43.0764 36.7023 43.2511C38.0746 43.4507 42.4159 38.6603 43.4887 36.29C43.4887 36.29 39.2223 50.4117 30.5147 56.4246C30.5397 56.4246 24.427 54.8029 17.5408 36.6892Z" fill="white"/>
<path d="M17.5408 36.6892C17.5408 36.6892 21.2833 40.5066 23.7284 41.9786C26.1984 43.4507 28.1445 40.6563 30.2153 40.6313C32.2862 40.6064 35.3301 43.0764 36.7023 43.2511C38.0746 43.4507 42.4159 38.6603 43.4887 36.29C43.4887 36.29 39.2223 50.4117 30.5147 56.4246C30.5397 56.4246 24.427 54.8029 17.5408 36.6892Z" fill="white"/>
<path d="M13.5737 34.0696C13.5737 34.0696 6.33818 36.1904 1.32324 44.2492L11.9519 52.3829C11.9519 52.3829 8.00983 54.7032 6.73738 57.2481L20.6095 64.2091L10.0557 56.6992C10.0557 56.6992 11.4779 54.1793 16.5427 51.8839L5.61463 43.6504C5.61463 43.6504 7.93498 39.0846 14.9958 36.5646L14.2972 33.7952C13.6735 34.0197 13.5737 34.0696 13.5737 34.0696Z" fill="white"/>
<path d="M13.5737 34.0696C13.5737 34.0696 6.33818 36.1904 1.32324 44.2492L11.9519 52.3829C11.9519 52.3829 8.00983 54.7032 6.73738 57.2481L20.6095 64.2091L10.0557 56.6992C10.0557 56.6992 11.4779 54.1793 16.5427 51.8839L5.61463 43.6504C5.61463 43.6504 7.93498 39.0846 14.9958 36.5646L14.2972 33.7952C13.6735 34.0197 13.5737 34.0696 13.5737 34.0696Z" fill="white"/>
<path d="M46.308 34.0696C46.308 34.0696 53.5435 36.1904 58.5584 44.2492L47.9297 52.3829C47.9297 52.3829 51.8718 54.7032 53.1443 57.2481L39.2721 64.2091L49.8259 56.6992C49.8259 56.6992 48.4038 54.1793 43.3389 51.8839L54.267 43.6504C54.267 43.6504 51.9467 39.0846 44.8858 36.5646L45.5844 33.7952C46.2082 34.0197 46.308 34.0696 46.308 34.0696Z" fill="white"/>
<path d="M46.308 34.0696C46.308 34.0696 53.5435 36.1904 58.5584 44.2492L47.9297 52.3829C47.9297 52.3829 51.8718 54.7032 53.1443 57.2481L39.2721 64.2091L49.8259 56.6992C49.8259 56.6992 48.4038 54.1793 43.3389 51.8839L54.267 43.6504C54.267 43.6504 51.9467 39.0846 44.8858 36.5646L45.5844 33.7952C46.2082 34.0197 46.308 34.0696 46.308 34.0696Z" fill="white"/>
</svg>
