<svg width="66" height="48" viewBox="0 0 66 48" fill="none" xmlns="http://www.w3.org/2000/svg">
<path d="M33.0207 24.5775C44.3801 24.5775 53.5887 20.9989 53.5887 16.5846C53.5887 12.1702 44.3801 8.59167 33.0207 8.59167C21.6613 8.59167 12.4526 12.1702 12.4526 16.5846C12.4526 20.9989 21.6613 24.5775 33.0207 24.5775Z" fill="white"/>
<path d="M33.021 7.28994C38.6202 7.28994 43.1593 5.65803 43.1593 3.64497C43.1593 1.63191 38.6202 0 33.021 0C27.4219 0 22.8828 1.63191 22.8828 3.64497C22.8828 5.65803 27.4219 7.28994 33.021 7.28994Z" fill="white"/>
<path d="M43.1384 3.51477H33.0158H22.8906L21.292 17.0532L33.0158 19.3964L44.737 17.0532L43.1384 3.51477Z" fill="white"/>
<path d="M33.0207 24.5775C44.3801 24.5775 53.5887 20.9989 53.5887 16.5846C53.5887 12.1702 44.3801 8.59167 33.0207 8.59167C21.6613 8.59167 12.4526 12.1702 12.4526 16.5846C12.4526 20.9989 21.6613 24.5775 33.0207 24.5775Z" fill="white"/>
<path d="M33.021 7.28994C38.6202 7.28994 43.1593 5.65803 43.1593 3.64497C43.1593 1.63191 38.6202 0 33.021 0C27.4219 0 22.8828 1.63191 22.8828 3.64497C22.8828 5.65803 27.4219 7.28994 33.021 7.28994Z" fill="white"/>
<path d="M43.1384 3.51477H33.0158H22.8906L21.292 17.0532L33.0158 19.3964L44.737 17.0532L43.1384 3.51477Z" fill="white"/>
<path d="M32.9348 25.3845C32.9348 25.3845 25.1242 25.1242 20.9585 23.8224C20.9585 23.8224 22.2603 27.9881 23.8224 29.2898C25.3845 30.5916 30.0709 30.3313 30.3313 30.3313C30.5916 30.3313 31.6331 27.4674 32.9348 27.4674C34.2366 27.4674 35.278 30.3313 35.5384 30.3313C35.7987 30.3313 40.4851 30.5916 42.0473 29.2898C43.6094 27.9881 44.9112 23.8224 44.9112 23.8224C40.7455 25.1242 32.9348 25.3845 32.9348 25.3845Z" fill="white"/>
<path d="M32.9348 25.3845C32.9348 25.3845 25.1242 25.1242 20.9585 23.8224C20.9585 23.8224 22.2603 27.9881 23.8224 29.2898C25.3845 30.5916 30.0709 30.3313 30.3313 30.3313C30.5916 30.3313 31.6331 27.4674 32.9348 27.4674C34.2366 27.4674 35.278 30.3313 35.5384 30.3313C35.7987 30.3313 40.4851 30.5916 42.0473 29.2898C43.6094 27.9881 44.9112 23.8224 44.9112 23.8224C40.7455 25.1242 32.9348 25.3845 32.9348 25.3845Z" fill="white"/>
<path d="M28.2487 45.091C28.2487 45.091 17.2773 34.9241 13.5412 21.6278C13.5412 21.6278 11.2058 24.234 10.2737 27.3634C9.33906 30.4903 18.678 40.9201 28.2487 45.091Z" fill="white"/>
<path d="M17.2251 37.6837L2.33538 41.2376L0 47.7751H6.53751L7.46959 42.6383L19.8443 38.9048L17.2251 37.6837Z" fill="white"/>
<path d="M37.7515 45.0909C37.7515 45.0909 48.7228 34.924 52.4589 21.6277C52.4589 21.6277 54.7943 24.2338 55.7264 27.3633C56.661 30.4902 47.3221 40.92 37.7515 45.0909Z" fill="white"/>
<path d="M48.7749 37.6837L63.6646 41.2376L66 47.7751H59.4625L58.5304 42.6383L46.1558 38.9048L48.7749 37.6837Z" fill="white"/>
<path opacity="0.3" d="M31.1982 4.77232C31.1982 4.77232 31.1175 4.77232 30.9821 4.76971C30.3911 4.7567 28.7379 4.69161 27.8579 4.33752L26.3452 20.2582C26.3452 20.2582 27.6808 20.9898 30.1334 21.094L31.1982 4.77232Z" fill="white"/>
<path opacity="0.3" d="M26.21 29.8652C26.21 29.8652 24.7937 29.6752 23.8668 28.8134C22.94 27.9516 21.7397 24.4733 21.7397 24.4733C21.7397 24.4733 24.0829 25.0799 25.5149 25.2335C25.5149 25.2335 25.0801 27.371 26.21 29.8652Z" fill="white"/>
<path opacity="0.53" d="M42.7138 4.15015L44.4009 19.0216C44.4009 19.0216 44.0754 19.3679 43.7526 19.3991L42.292 4.15275H42.7138V4.15015Z" fill="white"/>
<path d="M41.6465 29.2899C41.6465 29.2899 43.0342 28.4542 44.5729 24.239L43.5184 24.5775C43.5184 24.5775 43.219 27.4179 41.6465 29.2899Z" fill="white"/>
<path opacity="0.3" d="M20.9587 40.0557C20.9587 40.0557 15.2569 35.5619 11.1694 26.7645C11.1694 26.7645 10.8361 27.1993 10.6825 28.2329C10.5289 29.2639 14.5149 35.8509 20.9587 40.0557Z" fill="white"/>
<path opacity="0.3" d="M17.2431 38.0951L2.60595 41.5578L0.52832 47.4314H2.30394L3.8114 42.1618L17.8159 38.5767L17.2431 38.0951Z" fill="white"/>
</svg>
