<svg width="38" height="48" viewBox="0 0 38 48" fill="none" xmlns="http://www.w3.org/2000/svg">
<path d="M29.6304 25.7312C29.4954 25.867 29.3604 25.9349 29.2255 26.0707C29.0905 26.2064 28.9555 26.2743 28.8205 26.4101C28.5505 26.6138 28.2805 26.8175 27.943 27.0212L22.0034 39.3776L20.7885 32.2489L22.5434 29.3974C22.3409 29.4653 22.1384 29.4653 21.8684 29.5332C21.3285 29.6011 20.721 29.669 20.181 29.7369C19.8436 29.7369 19.5736 29.8048 19.2361 29.8048C18.0212 29.8048 16.8063 29.669 15.6588 29.3974L17.4812 32.3168L16.3338 39.5813L9.71923 26.478C9.38176 26.2064 9.11177 26.0028 8.84179 25.7312H8.7743C-0.135119 33.4709 -0.000127367 46.9816 -0.000127367 47.5247V47.9999H37.9999V47.5247C37.3924 31.9094 31.1828 26.7496 29.6304 25.7312Z" fill="white"/>
<path d="M19.3037 0C11.4067 0 4.99463 6.44979 4.99463 14.3253C4.99463 22.2687 11.4067 28.6506 19.2362 28.6506C27.1332 28.6506 33.4778 22.2009 33.4778 14.3253C33.5453 6.44979 27.1332 0 19.3037 0Z" fill="white"/>
</svg>
