<svg width="601" height="779" viewBox="0 0 601 779" fill="none" xmlns="http://www.w3.org/2000/svg">
<path d="M662.1 45.4065C650.391 39.4645 638.405 34.628 626.246 30.8279H626.384C626.384 30.8279 421.447 -41.7197 187.287 37.5299H187.425C122.037 56.6686 63.5572 102.892 29.5334 170.085C-4.45591 237.243 -7.11564 311.691 16.1656 375.705C90.7418 610.656 269.704 732.846 270.74 733.572C280.964 741.068 291.914 747.84 303.589 753.747C398.822 801.939 512.154 778.793 586.592 704.415C586.592 704.415 710.045 589.168 781.443 339.811C816.676 224.599 768.697 99.368 662.1 45.4065Z" fill="url(#paint0_linear)"/>
<defs>
<linearGradient id="paint0_linear" x1="0.950684" y1="0.482178" x2="926.802" y2="223.828" gradientUnits="userSpaceOnUse">
<stop stop-color="#237EFD"/>
<stop offset="1" stop-color="#26D4FF"/>
</linearGradient>
</defs>
</svg>
