<svg width="116" height="114" viewBox="0 0 116 114" fill="none" xmlns="http://www.w3.org/2000/svg">
<path opacity="0.8" d="M96.1404 6.53261C94.4376 5.66856 92.6947 4.96527 90.9266 4.41268H90.9467C90.9467 4.41268 61.1459 -6.13674 27.0958 5.38725H27.1159C17.6076 8.17029 9.10386 14.8918 4.15632 24.6625C-0.786193 34.4283 -1.17295 45.254 2.21247 54.5626C13.0569 88.7277 39.0804 106.496 39.2311 106.601C40.7179 107.692 42.3101 108.676 44.0079 109.535C57.8559 116.543 74.336 113.177 85.1603 102.362C85.1603 102.362 103.112 85.603 113.494 49.3432C118.618 32.5897 111.641 14.3794 96.1404 6.53261Z" fill="url(#paint0_linear)"/>
<defs>
<linearGradient id="paint0_linear" x1="0" y1="0" x2="134.632" y2="32.4776" gradientUnits="userSpaceOnUse">
<stop stop-color="#237EFD"/>
<stop offset="1" stop-color="#26D4FF"/>
</linearGradient>
</defs>
</svg>
