<svg width="14" height="31" viewBox="0 0 14 31" fill="none" xmlns="http://www.w3.org/2000/svg">
<path d="M13.0947 13.3535L13.1465 14.3887L12.9912 15.3721L13.0947 17.4424V20.0303L12.8359 24.2744L12.9395 27.2246L13.043 28.3115C13.043 28.5876 13.0257 28.7946 12.9912 28.9326C12.5771 29.3467 12.4046 29.5882 12.4736 29.6572C12.1976 29.7952 11.9733 29.8643 11.8008 29.8643H11.6973C11.6283 29.8643 11.5592 29.8988 11.4902 29.9678C11.4557 30.0368 11.404 30.1058 11.335 30.1748C11.1279 30.2438 10.8864 30.2783 10.6104 30.2783C10.3688 30.2783 10.0755 30.2093 9.73047 30.0713C9.52344 29.7607 9.41992 29.3812 9.41992 28.9326L9.52344 27.7422L9.41992 25.1025C9.41992 24.792 9.47168 24.4124 9.5752 23.9639C9.67871 23.5153 9.73047 22.8252 9.73047 21.8936L9.62695 17.7529L9.73047 16.459V11.1797L9.52344 9.16113L9.73047 7.45312V6.78027C9.73047 6.57324 9.69596 6.36621 9.62695 6.15918H9.5752C9.36816 6.15918 9.19564 6.24544 9.05762 6.41797C8.9541 6.55599 8.83333 6.65951 8.69531 6.72852C8.5918 6.79753 8.40202 6.91829 8.12598 7.09082C7.84994 7.26335 7.55664 7.43587 7.24609 7.6084C6.97005 7.78092 6.71126 7.9362 6.46973 8.07422C6.22819 8.21224 6.09017 8.31575 6.05566 8.38477C5.57259 8.38477 5.10677 8.48828 4.6582 8.69531C4.24414 8.90234 3.79557 9.00586 3.3125 9.00586C3.17448 9.07487 3.01921 9.12663 2.84668 9.16113C2.70866 9.19564 2.58789 9.26465 2.48438 9.36816C2.34635 9.33366 1.94954 9.31641 1.29395 9.31641C0.638346 9.31641 0.224284 9.23014 0.0517578 9.05762L0 8.54004C0 8.264 0.172526 8.07422 0.517578 7.9707C0.897135 7.83268 1.17318 7.76367 1.3457 7.76367L2.17383 7.86719C2.48438 7.86719 3.07096 7.74642 3.93359 7.50488C5.86589 6.9528 7.55664 5.95215 9.00586 4.50293L9.52344 3.98535C9.903 3.60579 10.0928 3.17448 10.0928 2.69141C10.1618 0.897135 10.5586 0 11.2832 0C11.8008 0 12.1458 0.258789 12.3184 0.776367C12.4909 1.25944 12.5944 1.62174 12.6289 1.86328C12.6979 2.07031 12.7497 2.24284 12.7842 2.38086C12.8532 2.51888 12.8877 2.63965 12.8877 2.74316L12.6807 4.03711L12.7324 5.43457C12.7324 5.50358 12.7669 5.74512 12.8359 6.15918C12.9049 6.57324 12.9395 7.17708 12.9395 7.9707C12.9395 8.72982 12.9567 9.50618 12.9912 10.2998L13.0947 13.3535Z" fill="white"/>
</svg>
