<svg width="19" height="34" viewBox="0 0 19 34" fill="none" xmlns="http://www.w3.org/2000/svg">
<path d="M11.8525 32.918H11.1797C11.1107 32.918 11.0417 32.8662 10.9727 32.7627C10.7311 32.9352 10.4033 33.0732 9.98926 33.1768C9.88574 33.0732 9.74772 33.0215 9.5752 33.0215L8.9541 33.0732C8.78158 33.0732 8.64355 33.0215 8.54004 32.918L7.34961 33.3838H7.24609C7.14258 33.4183 6.93555 33.3493 6.625 33.1768C6.45247 33.2458 6.27995 33.3148 6.10742 33.3838C5.9349 33.4528 5.76237 33.4873 5.58984 33.4873H5.53809L5.43457 33.6943C5.08952 33.8324 4.52018 33.9014 3.72656 33.9014L3.10547 33.7979V33.6426L3.00195 33.0215C3.00195 32.849 3.08822 32.6074 3.26074 32.2969L3.6748 31.624C3.84733 31.3825 4.05436 31.1237 4.2959 30.8477C4.53744 30.4681 4.74447 30.0885 4.91699 29.709C5.08952 29.3294 5.33105 29.0016 5.6416 28.7256C5.6416 28.07 6.14193 27.0693 7.14258 25.7236L7.34961 25.6201C7.83268 24.654 8.10872 23.9121 8.17773 23.3945C8.31575 23.3255 8.40202 23.222 8.43652 23.084C8.47103 22.946 8.54004 22.8424 8.64355 22.7734V22.6699C8.64355 22.1868 8.79883 21.7555 9.10938 21.376C9.41992 20.9964 9.6097 20.6686 9.67871 20.3926C9.74772 20.082 9.76497 19.8405 9.73047 19.668C9.73047 19.4954 9.73047 19.3057 9.73047 19.0986C9.73047 18.8916 9.79948 18.6328 9.9375 18.3223C10.11 18.0117 10.1963 17.7357 10.1963 17.4941C10.2308 17.2526 10.2826 17.0628 10.3516 16.9248C10.4551 16.7523 10.5586 16.5625 10.6621 16.3555C10.8001 16.1139 10.8519 15.9242 10.8174 15.7861C10.8174 15.6481 10.8346 15.5101 10.8691 15.3721C10.9727 15.3376 11.0417 15.2513 11.0762 15.1133C11.2487 15.0098 11.4385 14.0436 11.6455 12.2148C11.8525 10.3861 11.9561 9.40267 11.9561 9.26465L11.8525 8.33301V6.78027C11.8525 5.6071 11.7145 4.84798 11.4385 4.50293L11.2314 4.39941C11.1969 4.3304 11.1969 4.26139 11.2314 4.19238C11.266 4.08887 11.2832 4.0026 11.2832 3.93359C11.2832 3.83008 11.2142 3.69206 11.0762 3.51953C10.9382 3.34701 10.7656 3.12272 10.5586 2.84668C10.3516 2.57064 10.0928 2.27734 9.78223 1.9668L9.41992 2.01855C9.2474 2.01855 9.05762 1.98405 8.85059 1.91504C8.67806 1.81152 8.50553 1.74251 8.33301 1.70801C8.2985 1.56999 8.22949 1.50098 8.12598 1.50098C8.02246 1.46647 8.00521 1.32845 8.07422 1.08691H7.9707C7.76367 1.08691 7.6429 1.19043 7.6084 1.39746C7.57389 1.56999 7.48763 1.70801 7.34961 1.81152C7.00456 1.91504 6.625 2.03581 6.21094 2.17383C5.79688 2.27734 5.50358 2.50163 5.33105 2.84668C5.05501 2.84668 4.79622 2.93294 4.55469 3.10547C4.31315 3.27799 4.19238 3.50228 4.19238 3.77832V3.83008L3.98535 3.93359C3.91634 4.10612 3.84733 4.26139 3.77832 4.39941C3.74382 4.53744 3.6748 4.67546 3.57129 4.81348C3.50228 4.91699 3.39876 5.00326 3.26074 5.07227C3.12272 5.10677 3.07096 5.21029 3.10547 5.38281C3.00195 5.45182 2.82943 5.48633 2.58789 5.48633C2.55339 5.76237 2.44987 6.05566 2.27734 6.36621C2.10482 6.64225 2.01855 6.93555 2.01855 7.24609L2.12207 7.66016L1.91504 8.85059C1.91504 9.40267 2.01855 9.903 2.22559 10.3516L1.91504 11.3867L2.22559 12.4219C2.53613 12.5944 2.81217 12.7324 3.05371 12.8359C3.32975 12.9395 3.46777 13.181 3.46777 13.5605C3.70931 13.4915 4.03711 13.2845 4.45117 12.9395C4.86523 12.5944 5.15853 12.4219 5.33105 12.4219C5.43457 12.0768 5.48633 11.6283 5.48633 11.0762C5.48633 10.5241 5.33105 10.0238 5.02051 9.5752C5.05501 9.50618 5.07227 9.40267 5.07227 9.26465L5.02051 8.48828V8.33301C5.40006 8.05697 5.71061 7.91895 5.95215 7.91895C6.22819 7.91895 6.59049 8.14323 7.03906 8.5918V8.79883C7.03906 8.86784 7.07357 8.93685 7.14258 9.00586C7.34961 9.07487 7.43587 9.17839 7.40137 9.31641C7.36686 9.45443 7.34961 9.5752 7.34961 9.67871C7.34961 9.78223 7.38411 9.88574 7.45312 9.98926C7.55664 10.0583 7.62565 10.1618 7.66016 10.2998C7.69466 10.4378 7.69466 10.5931 7.66016 10.7656C7.66016 10.9036 7.66016 11.0589 7.66016 11.2314V11.542C7.66016 11.5765 7.62565 11.5938 7.55664 11.5938C7.52214 11.5938 7.45312 11.6628 7.34961 11.8008C7.2806 11.9043 7.26335 12.0251 7.29785 12.1631C7.33236 12.2666 7.3151 12.3529 7.24609 12.4219C7.03906 12.5254 6.86654 12.6807 6.72852 12.8877C6.59049 13.0602 6.41797 13.181 6.21094 13.25C6.00391 13.526 5.84863 13.7848 5.74512 14.0264C5.36556 14.1989 4.986 14.3542 4.60645 14.4922C4.22689 14.5957 3.84733 14.7165 3.46777 14.8545C3.29525 14.7165 3.13997 14.5612 3.00195 14.3887L2.48438 13.9229C2.38086 13.9574 2.19108 13.9746 1.91504 13.9746C1.639 13.9746 1.38021 13.9229 1.13867 13.8193C1.00065 13.7158 0.931641 13.5088 0.931641 13.1982C0.931641 12.8877 0.845378 12.5944 0.672852 12.3184C0.603841 12.0423 0.586589 11.7835 0.621094 11.542C0.655599 11.266 0.638346 11.0417 0.569336 10.8691C0.534831 10.6621 0.483073 10.5241 0.414062 10.4551C0.345052 10.2826 0.310547 10.041 0.310547 9.73047V9.26465C0.310547 8.78158 0.207031 8.47103 0 8.33301C0.310547 7.71191 0.431315 7.2806 0.362305 7.03906C0.569336 6.90104 0.741862 6.65951 0.879883 6.31445C1.0179 5.9349 1.08691 5.69336 1.08691 5.58984C1.08691 5.48633 1.06966 5.38281 1.03516 5.2793C1.03516 5.14128 1.13867 4.84798 1.3457 4.39941L1.44922 3.83008L1.65625 3.72656C1.72526 3.55404 1.82878 3.41602 1.9668 3.3125C2.10482 3.20898 2.22559 3.10547 2.3291 3.00195C2.43262 2.89844 2.50163 2.79492 2.53613 2.69141C2.57064 2.55339 2.60514 2.44987 2.63965 2.38086C2.70866 2.31185 2.76042 2.27734 2.79492 2.27734C2.86393 2.27734 2.91569 2.24284 2.9502 2.17383C3.01921 2.10482 3.03646 2.03581 3.00195 1.9668C3.00195 1.89779 3.01921 1.84603 3.05371 1.81152C3.12272 1.74251 3.19173 1.72526 3.26074 1.75977C3.32975 1.79427 3.39876 1.77702 3.46777 1.70801C3.53678 1.639 3.55404 1.58724 3.51953 1.55273C3.45052 1.41471 3.53678 1.32845 3.77832 1.29395C4.01986 1.22493 4.19238 1.15592 4.2959 1.08691L4.39941 0.931641H4.60645L6.21094 0.207031H6.78027L7.45312 0C7.52214 0 7.55664 0.0172526 7.55664 0.0517578C7.55664 0.086263 7.59115 0.103516 7.66016 0.103516H9.10938L9.5752 0C9.74772 0 9.95475 0.103516 10.1963 0.310547C10.4723 0.517578 10.8174 0.586589 11.2314 0.517578C11.2314 0.655599 11.2832 0.724609 11.3867 0.724609C11.4902 0.690104 11.5765 0.690104 11.6455 0.724609C11.68 0.759115 11.68 0.79362 11.6455 0.828125C11.6455 0.828125 11.68 0.86263 11.749 0.931641C12.1976 1.13867 12.5944 1.48372 12.9395 1.9668L13.4053 2.63965L13.7676 3.05371C13.8711 3.22624 13.9229 3.34701 13.9229 3.41602C13.9229 3.48503 13.9746 3.58854 14.0781 3.72656C14.2161 3.86458 14.2852 4.0026 14.2852 4.14062C14.2852 4.27865 14.3197 4.39941 14.3887 4.50293L14.5957 4.60645C14.6302 4.70996 14.6302 4.83073 14.5957 4.96875C14.5957 5.10677 14.613 5.24479 14.6475 5.38281C14.7165 5.52083 14.7682 5.62435 14.8027 5.69336C14.8717 5.72786 14.9062 5.83138 14.9062 6.00391L14.8545 6.83203L14.958 7.86719L14.8545 8.5918L14.958 9.16113L14.751 9.88574L14.8545 10.4033L14.6475 11.2314L14.6992 11.6455C14.6992 11.8525 14.5957 12.1631 14.3887 12.5771C14.3887 14.0264 14.0609 15.5101 13.4053 17.0283C13.1982 17.5114 12.974 17.8737 12.7324 18.1152C12.6289 18.9089 12.4564 19.4264 12.2148 19.668V20.3408C12.2148 20.4443 12.1113 20.6514 11.9043 20.9619C11.7318 21.2725 11.611 21.514 11.542 21.6865C11.473 21.8245 11.4385 21.9626 11.4385 22.1006C11.4385 22.2386 11.3867 22.4284 11.2832 22.6699C11.2142 22.877 11.0417 23.1875 10.7656 23.6016C10.4896 23.9811 10.3688 24.3262 10.4033 24.6367C10.2308 24.8092 10.0928 24.9128 9.98926 24.9473V24.999C9.98926 25.2406 9.86849 25.6029 9.62695 26.0859C9.38542 26.569 9.23014 26.8451 9.16113 26.9141C9.12663 26.9486 9.09212 26.9658 9.05762 26.9658C9.02311 26.9658 8.9541 27.0003 8.85059 27.0693C8.74707 27.2074 8.67806 27.3626 8.64355 27.5352C8.60905 27.6732 8.48828 27.7594 8.28125 27.7939C8.21224 28.415 7.9707 28.8636 7.55664 29.1396V29.2432C7.59115 29.5192 7.52214 29.7262 7.34961 29.8643C7.17708 29.9678 7.07357 30.1403 7.03906 30.3818C6.76302 30.5889 6.53874 30.8132 6.36621 31.0547C6.19369 31.2962 6.00391 31.5205 5.79688 31.7275C5.9349 31.8656 6.09017 31.9346 6.2627 31.9346L7.24609 31.7275L7.86719 31.7793C8.35026 31.7793 8.83333 31.7103 9.31641 31.5723C9.83398 31.4342 10.3171 31.3307 10.7656 31.2617C11.2487 31.1927 11.749 31.1755 12.2666 31.21C12.8187 31.21 13.2845 31.0892 13.6641 30.8477C13.8021 30.9167 14.2161 30.9512 14.9062 30.9512C15.6309 30.9512 16.5625 30.7614 17.7012 30.3818C17.8737 30.5889 18.029 30.7269 18.167 30.7959C18.305 30.8649 18.374 31.0374 18.374 31.3135C18.374 31.555 18.2188 31.7793 17.9082 31.9863C17.6322 32.1934 17.3734 32.2969 17.1318 32.2969C16.9248 32.2969 16.7523 32.2451 16.6143 32.1416C16.2692 32.2796 15.8896 32.3486 15.4756 32.3486L14.2334 32.2451C13.9574 32.2451 13.6986 32.3314 13.457 32.5039C13.25 32.6419 12.974 32.6937 12.6289 32.6592C12.2839 32.6247 12.0251 32.7109 11.8525 32.918Z" fill="white"/>
</svg>
