<svg width="17" height="33" viewBox="0 0 17 33" fill="none" xmlns="http://www.w3.org/2000/svg">
<path d="M0 26.5L0.362305 24.7402C0.362305 24.4987 0.39681 24.2399 0.46582 23.9639L0.672852 23.7568C0.741862 23.4808 0.86263 23.222 1.03516 22.9805C1.24219 22.7044 1.39746 22.4284 1.50098 22.1523C1.98405 21.8418 2.67415 21.6003 3.57129 21.4277C4.50293 21.2552 5.19303 21.1689 5.6416 21.1689C6.09017 21.1689 6.41797 21.2207 6.625 21.3242C6.93555 21.4277 7.3151 21.79 7.76367 22.4111C8.24675 22.9977 8.48828 23.3945 8.48828 23.6016C8.48828 23.7741 8.45378 23.8949 8.38477 23.9639C8.35026 23.9984 8.2985 24.0846 8.22949 24.2227V24.3262L8.12598 24.792C7.95345 24.8265 7.81543 24.8955 7.71191 24.999C7.6084 25.1025 7.48763 25.2061 7.34961 25.3096H7.19434C6.9873 25.3441 6.79753 25.2923 6.625 25.1543C6.48698 25.0163 6.33171 24.8955 6.15918 24.792V24.7402C6.15918 24.3952 6.07292 24.1191 5.90039 23.9121C5.76237 23.6706 5.69336 23.3945 5.69336 23.084H5.58984C5.45182 23.084 5.38281 23.0495 5.38281 22.9805C5.38281 22.9115 5.3138 22.877 5.17578 22.877C5.03776 22.877 4.81348 22.9805 4.50293 23.1875L4.34766 23.1357C4.0026 23.1357 3.72656 23.2393 3.51953 23.4463C3.48503 23.4118 3.43327 23.3945 3.36426 23.3945L2.69141 23.4463C2.51888 23.5843 2.36361 23.7396 2.22559 23.9121C2.08757 24.0846 1.94954 24.2572 1.81152 24.4297C1.74251 24.6367 1.69076 24.8955 1.65625 25.2061C1.65625 25.4821 1.56999 25.7064 1.39746 25.8789C1.46647 26.1549 1.50098 26.3792 1.50098 26.5518C1.50098 26.7243 1.43197 26.9831 1.29395 27.3281C1.32845 27.5007 1.38021 27.6214 1.44922 27.6904C1.55273 27.7594 1.639 27.8457 1.70801 27.9492C1.81152 28.0182 1.86328 28.1217 1.86328 28.2598C1.89779 28.3633 2.0013 28.415 2.17383 28.415V28.6738C2.17383 28.9499 2.41536 29.3122 2.89844 29.7607C3.38151 30.1748 3.79557 30.3818 4.14062 30.3818V30.4854C4.14062 30.5889 4.19238 30.6406 4.2959 30.6406C4.43392 30.6406 4.48568 30.7269 4.45117 30.8994C4.6582 30.7614 4.88249 30.6924 5.12402 30.6924L6.46973 30.8477C6.78027 30.8477 7.05631 30.7786 7.29785 30.6406C7.53939 30.5026 7.81543 30.4163 8.12598 30.3818C8.40202 30.0713 8.67806 29.7952 8.9541 29.5537C9.26465 29.2777 9.50618 28.9499 9.67871 28.5703C10.3343 27.4316 10.8174 26.2412 11.1279 24.999C11.266 24.723 11.335 24.5332 11.335 24.4297L11.2314 24.0674L11.4385 22.7734C11.4385 22.1523 11.3867 21.583 11.2832 21.0654C11.2142 20.5133 11.1624 19.9268 11.1279 19.3057C11.0244 18.9951 10.8691 18.7191 10.6621 18.4775V18.3223C10.6621 17.6322 10.5068 17.0801 10.1963 16.666C9.92025 16.2174 9.78223 15.9069 9.78223 15.7344C9.5752 15.5273 9.41992 15.2686 9.31641 14.958C9.21289 14.6475 9.07487 14.3714 8.90234 14.1299H8.69531V13.9229C8.55729 13.7848 8.40202 13.7158 8.22949 13.7158C8.09147 13.6813 7.95345 13.6296 7.81543 13.5605C7.71191 13.4915 7.6429 13.4398 7.6084 13.4053C7.57389 13.3363 7.52214 13.2845 7.45312 13.25C7.38411 13.181 7.3151 13.1465 7.24609 13.1465C7.17708 13.1465 7.10807 13.0947 7.03906 12.9912V12.9395L6.31445 13.1982C6.07292 13.1982 5.58984 13.5088 4.86523 14.1299C4.14062 14.751 3.60579 15.165 3.26074 15.3721C2.88118 15.165 2.69141 14.889 2.69141 14.5439C2.69141 14.1644 2.72591 13.9401 2.79492 13.8711C2.89844 13.7676 3.01921 13.6296 3.15723 13.457C3.29525 13.25 3.36426 13.0775 3.36426 12.9395C3.39876 12.7669 3.45052 12.6462 3.51953 12.5771C3.86458 12.0941 4.34766 11.68 4.96875 11.335C5.58984 10.9554 6.03841 10.5413 6.31445 10.0928C6.625 9.6097 7.00456 9.29915 7.45312 9.16113C7.52214 8.9541 7.62565 8.79883 7.76367 8.69531C7.90169 8.5918 8.00521 8.48828 8.07422 8.38477C8.14323 8.24675 8.16048 8.16048 8.12598 8.12598C8.12598 8.09147 8.16048 8.03971 8.22949 7.9707L8.69531 7.6084C8.69531 7.53939 8.74707 7.38411 8.85059 7.14258C8.9541 6.90104 9.02311 6.76302 9.05762 6.72852C9.12663 6.65951 9.17839 6.64225 9.21289 6.67676C9.2819 6.67676 9.35091 6.65951 9.41992 6.625C9.45443 6.55599 9.45443 6.50423 9.41992 6.46973C9.41992 6.43522 9.45443 6.40072 9.52344 6.36621C9.59245 6.2972 9.64421 6.24544 9.67871 6.21094C9.74772 6.17643 9.81673 6.12467 9.88574 6.05566C9.98926 5.98665 10.0238 5.9349 9.98926 5.90039C9.98926 5.86589 10.0065 5.81413 10.041 5.74512L10.248 5.6416C10.3171 5.57259 10.3516 5.52083 10.3516 5.48633C10.3516 5.41732 10.4033 5.29655 10.5068 5.12402C10.6449 4.9515 10.8519 4.77897 11.1279 4.60645C11.542 4.3304 11.7835 4.01986 11.8525 3.6748C11.9561 3.29525 12.1631 3.00195 12.4736 2.79492C12.8187 2.55339 13.0257 2.27734 13.0947 1.9668C12.9222 1.75977 12.6979 1.65625 12.4219 1.65625L10.6104 1.9668C10.4033 1.9668 10.2135 1.91504 10.041 1.81152C9.86849 1.70801 9.66146 1.6735 9.41992 1.70801C9.17839 1.74251 8.93685 1.75977 8.69531 1.75977C8.45378 1.75977 8.264 1.69076 8.12598 1.55273C7.81543 1.69076 7.45312 1.75977 7.03906 1.75977C6.625 1.75977 6.36621 1.6735 6.2627 1.50098C6.19369 1.56999 6.10742 1.60449 6.00391 1.60449H5.69336C4.79622 1.60449 4.17513 1.50098 3.83008 1.29395C3.51953 1.05241 3.36426 0.845378 3.36426 0.672852C3.36426 0.39681 3.57129 0.258789 3.98535 0.258789C4.39941 0.224284 4.6582 0.207031 4.76172 0.207031H7.81543C8.02246 0.138021 8.21224 0.103516 8.38477 0.103516L9.00586 0.310547L10.041 0.207031L11.4902 0.310547H13.5605L15.165 0H15.8379C16.1139 0.103516 16.39 0.39681 16.666 0.879883C16.5625 1.08691 16.4245 1.22493 16.252 1.29395C16.1139 1.36296 15.9759 1.44922 15.8379 1.55273C15.7344 1.75977 15.6309 1.9668 15.5273 2.17383C15.4238 2.38086 15.3031 2.55339 15.165 2.69141C15.0615 2.79492 14.9408 2.86393 14.8027 2.89844C14.6992 2.89844 14.5957 2.93294 14.4922 3.00195C14.4232 3.07096 14.3542 3.15723 14.2852 3.26074C14.2507 3.36426 14.1471 3.38151 13.9746 3.3125C13.9056 3.38151 13.8711 3.48503 13.8711 3.62305C13.8711 3.76107 13.7503 3.95085 13.5088 4.19238C13.2673 4.43392 12.9912 4.77897 12.6807 5.22754C12.3701 5.6416 11.9733 6.07292 11.4902 6.52148C11.0072 6.97005 10.6276 7.48763 10.3516 8.07422C10.179 8.24675 9.98926 8.41927 9.78223 8.5918C9.5752 8.76432 9.40267 8.9196 9.26465 9.05762C9.16113 9.19564 9.10938 9.29915 9.10938 9.36816C9.10938 9.40267 9.05762 9.48893 8.9541 9.62695C8.85059 9.73047 8.72982 9.83398 8.5918 9.9375C8.48828 10.0065 8.40202 10.1445 8.33301 10.3516C7.95345 10.4551 7.69466 10.6966 7.55664 11.0762C7.69466 11.3177 7.91895 11.473 8.22949 11.542C8.54004 11.5765 8.79883 11.6283 9.00586 11.6973H9.05762C9.16113 11.6628 9.21289 11.7145 9.21289 11.8525C9.2474 11.9906 9.31641 12.0596 9.41992 12.0596C9.59245 12.0941 9.76497 12.1113 9.9375 12.1113C10.3171 12.1803 10.5413 12.3011 10.6104 12.4736C10.6794 12.6117 10.7829 12.6634 10.9209 12.6289C11.0589 12.5944 11.1797 12.6289 11.2832 12.7324C11.4212 12.8014 11.5247 12.9395 11.5938 13.1465C11.6973 13.3535 11.8698 13.4743 12.1113 13.5088C12.1803 13.7848 12.3011 13.9746 12.4736 14.0781C12.6462 14.1816 12.8187 14.3197 12.9912 14.4922C13.0947 14.7682 13.1982 15.0788 13.3018 15.4238C13.4398 15.7344 13.6296 15.9759 13.8711 16.1484C14.0436 17.1836 14.2334 17.8392 14.4404 18.1152C14.6475 18.3913 14.7682 18.5811 14.8027 18.6846C14.8372 18.7536 14.8372 18.8398 14.8027 18.9434C14.8027 19.0469 14.8027 19.1331 14.8027 19.2021L15.0098 19.8232L14.9062 20.4443L15.0098 20.9102L14.9062 21.3242L14.958 21.8418L14.9062 22.3594L15.0098 22.9287C15.0098 23.1702 14.9408 23.3945 14.8027 23.6016C14.6992 23.7741 14.682 24.0156 14.751 24.3262C14.3369 24.7057 14.0436 25.1715 13.8711 25.7236C13.7331 26.2757 13.5088 26.776 13.1982 27.2246V27.3799C13.1982 27.863 12.8359 28.3978 12.1113 28.9844C11.9388 29.1224 11.818 29.2949 11.749 29.502H11.6973C11.5247 29.4329 11.3695 29.5537 11.2314 29.8643H11.0244L10.4551 30.6924C10.3861 30.6924 10.1445 30.7786 9.73047 30.9512C9.31641 31.1237 8.97135 31.348 8.69531 31.624H8.5918C8.48828 31.624 8.41927 31.6585 8.38477 31.7275C8.35026 31.762 8.264 31.762 8.12598 31.7275C8.05697 31.8656 7.9362 31.9518 7.76367 31.9863C7.59115 32.0208 7.48763 32.1243 7.45312 32.2969H6.2627C5.91764 32.2969 5.57259 32.2106 5.22754 32.0381C5.02051 32.1416 4.76172 32.1934 4.45117 32.1934C4.17513 32.1934 3.86458 32.1243 3.51953 31.9863C3.20898 31.8483 2.86393 31.762 2.48438 31.7275C2.24284 31.417 2.07031 31.1237 1.9668 30.8477C1.86328 30.5371 1.74251 30.3646 1.60449 30.3301C1.50098 30.2956 1.39746 30.2438 1.29395 30.1748C1.29395 29.7952 1.05241 29.502 0.569336 29.2949V29.1914C0.569336 28.8809 0.46582 28.5876 0.258789 28.3115C0.086263 28.001 0 27.6732 0 27.3281V26.5Z" fill="white"/>
</svg>
