<svg width="19" height="39" viewBox="0 0 19 39" fill="none" xmlns="http://www.w3.org/2000/svg">
<path d="M13.9746 18.167C13.9746 19.2712 14.1126 21.0654 14.3887 23.5498V25.5684C14.6647 25.6374 14.9753 25.6719 15.3203 25.6719C15.6654 25.6719 16.0967 25.5684 16.6143 25.3613C17.1663 25.1198 17.7357 24.999 18.3223 24.999L18.8916 25.5684C18.8916 25.8444 18.7881 26.0514 18.5811 26.1895C18.4085 26.3275 18.2878 26.5173 18.2188 26.7588C16.9421 27.2074 15.8034 27.4316 14.8027 27.4316C14.6302 27.6732 14.5439 28.001 14.5439 28.415L14.5957 30.5889C14.5957 30.7269 14.6475 30.8132 14.751 30.8477C14.8545 30.8822 14.9062 30.9857 14.9062 31.1582L14.6992 31.9863L14.8027 32.2969C14.8027 32.2969 14.7337 32.7972 14.5957 33.7979L14.6992 35.8682L14.5439 37.0586C14.5439 37.1966 14.5612 37.3001 14.5957 37.3691C14.3887 37.5417 14.2507 37.8005 14.1816 38.1455C14.1471 38.4906 14.0436 38.6976 13.8711 38.7666C13.6986 38.8701 13.4398 38.9046 13.0947 38.8701C12.7842 38.8356 12.5081 38.8529 12.2666 38.9219C12.0596 38.7839 11.9215 38.6286 11.8525 38.4561C11.7835 38.318 11.6628 38.1973 11.4902 38.0938V37.9902L11.5938 37.4727L11.4385 37.0586L11.4902 35.1436L11.6455 32.2451C11.6455 32.0036 11.6283 31.7793 11.5938 31.5723C11.5592 31.3652 11.5247 31.1582 11.4902 30.9512L11.542 30.2783L11.335 28.415C11.1969 28.3115 11.0417 28.2598 10.8691 28.2598C10.6966 28.2598 10.5413 28.208 10.4033 28.1045L9.83398 28.415C9.73047 28.484 9.54069 28.5876 9.26465 28.7256L8.69531 28.5186C8.48828 28.5186 8.17773 28.7256 7.76367 29.1396C7.52214 29.0361 7.33236 28.9844 7.19434 28.9844L6.21094 29.1396C5.9694 29.1396 5.77962 29.0534 5.6416 28.8809L4.91699 29.3467H4.60645C4.19238 29.3467 3.93359 29.4502 3.83008 29.6572L3.15723 29.4502C3.08822 29.4502 3.01921 29.502 2.9502 29.6055C2.88118 29.709 2.79492 29.7435 2.69141 29.709C2.6224 29.6745 2.50163 29.6572 2.3291 29.6572C2.19108 29.6572 1.94954 29.7607 1.60449 29.9678C1.29395 30.1403 0.983398 30.2266 0.672852 30.2266C0.224284 30.2266 0 30.0023 0 29.5537C0 28.6911 0.103516 28.07 0.310547 27.6904C0.552083 27.3109 0.79362 26.8623 1.03516 26.3447C1.3112 25.7926 1.639 24.9645 2.01855 23.8604C2.39811 22.7217 2.6224 22.0833 2.69141 21.9453C2.79492 21.8073 2.91569 21.583 3.05371 21.2725C3.19173 20.9274 3.36426 20.4616 3.57129 19.875C3.77832 19.2884 3.9681 18.8571 4.14062 18.5811C4.31315 18.2705 4.43392 18.0807 4.50293 18.0117C4.57194 17.9082 4.64095 17.8047 4.70996 17.7012C4.77897 17.5632 4.81348 17.4251 4.81348 17.2871C4.81348 17.1491 4.83073 17.0283 4.86523 16.9248C4.93424 16.7868 5.00326 16.597 5.07227 16.3555C5.17578 16.1139 5.29655 15.7516 5.43457 15.2686C5.6071 14.751 5.74512 14.4922 5.84863 14.4922V13.6123C5.95215 13.4053 6.09017 13.2155 6.2627 13.043C6.43522 12.8359 6.55599 12.5944 6.625 12.3184C6.69401 12.2493 6.71126 12.1631 6.67676 12.0596C6.67676 11.9561 6.69401 11.8525 6.72852 11.749L7.24609 10.8174C7.3151 10.6449 7.34961 10.4723 7.34961 10.2998C7.38411 10.0928 7.48763 9.92025 7.66016 9.78223C7.66016 9.36816 7.79818 8.60905 8.07422 7.50488C8.38477 6.36621 8.55729 5.74512 8.5918 5.6416L8.79883 5.53809V5.33105C9.04036 4.77897 9.21289 4.17513 9.31641 3.51953C9.45443 2.86393 9.73047 2.34635 10.1445 1.9668V1.81152C10.1445 1.46647 10.248 1.08691 10.4551 0.672852C10.6621 0.224284 10.9554 0 11.335 0C11.7145 0 11.9906 0.189779 12.1631 0.569336C12.3701 0.914388 12.4736 1.3112 12.4736 1.75977C12.4736 2.17383 12.3874 2.67415 12.2148 3.26074C11.8008 4.43392 11.611 5.15853 11.6455 5.43457C11.68 5.67611 11.611 5.90039 11.4385 6.10742C11.3005 6.27995 11.1969 6.46973 11.1279 6.67676C11.0589 6.88379 10.9554 7.45312 10.8174 8.38477C10.7139 9.31641 10.5241 9.92025 10.248 10.1963L10.2998 10.4551C10.2998 10.5931 10.2653 10.7311 10.1963 10.8691C10.1273 10.9727 10.0583 11.1107 9.98926 11.2832C9.92025 11.4212 9.86849 11.5938 9.83398 11.8008C9.79948 11.9733 9.74772 12.1286 9.67871 12.2666C9.64421 12.3701 9.59245 12.4391 9.52344 12.4736C9.48893 12.5081 9.41992 12.5944 9.31641 12.7324C9.2474 12.8359 9.19564 12.9912 9.16113 13.1982C9.16113 13.4053 9.07487 13.5951 8.90234 13.7676C8.83333 13.9401 8.79883 14.1126 8.79883 14.2852C8.79883 14.4232 8.72982 14.5957 8.5918 14.8027C8.45378 14.9753 8.41927 15.234 8.48828 15.5791C8.35026 15.6481 8.264 15.7689 8.22949 15.9414C8.19499 16.1139 8.10872 16.2347 7.9707 16.3037C7.9362 16.5452 7.90169 16.7868 7.86719 17.0283C7.86719 17.2699 7.81543 17.5286 7.71191 17.8047C7.6429 18.0462 7.52214 18.2533 7.34961 18.4258C7.21159 18.5638 7.17708 18.8053 7.24609 19.1504C7.00456 19.2194 6.86654 19.3919 6.83203 19.668C6.83203 19.9095 6.69401 20.0648 6.41797 20.1338L6.46973 20.2373C6.46973 20.4443 6.41797 20.6169 6.31445 20.7549C6.24544 20.8584 6.22819 21.0137 6.2627 21.2207C6.09017 21.2897 5.98665 21.4277 5.95215 21.6348C5.91764 21.8418 5.81413 21.9971 5.6416 22.1006C5.57259 22.6872 5.43457 23.1357 5.22754 23.4463C5.05501 23.7568 4.93424 23.9811 4.86523 24.1191C4.83073 24.2227 4.83073 24.3779 4.86523 24.585C4.89974 24.792 4.88249 24.9818 4.81348 25.1543L4.60645 25.3613C4.50293 25.7064 4.36491 26.0342 4.19238 26.3447C4.05436 26.6553 3.95085 27.0176 3.88184 27.4316C3.98535 27.5697 4.20964 27.6387 4.55469 27.6387C4.89974 27.6387 5.26204 27.5697 5.6416 27.4316C6.02116 27.2936 6.36621 27.1901 6.67676 27.1211C6.9873 27.0521 7.24609 27.0348 7.45312 27.0693C7.69466 27.1038 7.90169 27.0866 8.07422 27.0176C8.28125 26.9141 8.47103 26.8278 8.64355 26.7588C8.81608 26.6898 9.02311 26.6208 9.26465 26.5518C9.50618 26.4827 9.85124 26.4482 10.2998 26.4482C10.7484 26.4137 11.0244 26.3102 11.1279 26.1377C11.266 25.9307 11.335 25.7581 11.335 25.6201V25.1543C11.335 24.3262 11.3522 23.4808 11.3867 22.6182C11.4212 21.7555 11.404 20.8929 11.335 20.0303C11.266 19.8923 11.2314 19.7715 11.2314 19.668L11.335 19.3574L11.1797 17.5459L11.4385 16.0449L11.335 15.4756V14.751C11.335 14.5439 11.3695 14.3197 11.4385 14.0781L11.5938 13.0947L11.4385 11.6455L11.6455 10.9209L11.4902 10.2998L11.5938 9.78223C11.5938 9.19564 11.6628 8.72982 11.8008 8.38477C11.9388 8.35026 12.0596 8.31575 12.1631 8.28125C12.3011 8.21224 12.4909 8.17773 12.7324 8.17773C13.0085 8.17773 13.2155 8.33301 13.3535 8.64355C13.7331 9.6097 13.9056 10.1445 13.8711 10.248C13.8711 10.3516 13.8711 10.4551 13.8711 10.5586L14.1299 12.1631L14.0264 12.5254L14.1299 13.457L14.0264 14.8545L14.1299 15.6826L13.9746 16.7178L14.0264 17.4941L13.9746 18.167Z" fill="white"/>
</svg>
