<svg width="15" height="33" viewBox="0 0 15 33" fill="none" xmlns="http://www.w3.org/2000/svg">
<path d="M1.60449 30.7441V30.4336L1.39746 30.3301C1.29395 29.8815 1.15592 29.5882 0.983398 29.4502C0.845378 29.2777 0.724609 29.1224 0.621094 28.9844C0.552083 28.8118 0.517578 28.6738 0.517578 28.5703C0.552083 28.4323 0.500326 28.277 0.362305 28.1045C0.224284 27.932 0.155273 27.7767 0.155273 27.6387L0.258789 27.2246L0.155273 26.707C0.155273 26.431 0.258789 26.1204 0.46582 25.7754C0.672852 25.3958 0.810872 25.068 0.879883 24.792C1.08691 24.585 1.27669 24.4124 1.44922 24.2744C1.62174 24.1019 1.75977 23.9121 1.86328 23.7051C2.31185 23.6016 2.74316 23.498 3.15723 23.3945C3.57129 23.2565 4.0026 23.1875 4.45117 23.1875L4.91699 23.2393C5.08952 23.4118 5.21029 23.5326 5.2793 23.6016C5.34831 23.6361 5.40006 23.6878 5.43457 23.7568C5.50358 23.7913 5.6071 23.9466 5.74512 24.2227C5.88314 24.4642 5.9694 24.6195 6.00391 24.6885C6.03841 24.723 6.05566 24.8783 6.05566 25.1543C6.05566 25.3958 5.79688 25.8271 5.2793 26.4482C4.76172 26.4482 4.38216 26.362 4.14062 26.1895V26.0859C4.14062 25.7409 3.93359 25.5684 3.51953 25.5684C3.13997 25.5684 2.79492 25.6719 2.48438 25.8789C2.17383 26.0859 2.01855 26.3102 2.01855 26.5518L2.07031 27.3281C2.07031 27.5352 2.03581 27.6904 1.9668 27.7939C2.13932 28.139 2.2946 28.484 2.43262 28.8291C2.57064 29.1742 2.74316 29.5192 2.9502 29.8643C3.32975 29.9678 3.6748 30.1058 3.98535 30.2783C4.2959 30.4163 4.76172 30.4854 5.38281 30.4854C6.00391 30.4854 6.78027 30.2783 7.71191 29.8643C7.91895 29.7262 8.12598 29.5537 8.33301 29.3467C8.54004 29.1051 8.76432 28.9499 9.00586 28.8809C9.2474 28.4668 9.55794 28.139 9.9375 27.8975C9.9375 27.5179 10.041 27.1901 10.248 26.9141C10.4896 26.6035 10.6104 26.3275 10.6104 26.0859C10.6104 25.8099 10.6449 25.6201 10.7139 25.5166C10.8174 25.4131 10.8864 25.3096 10.9209 25.2061C10.9554 25.1025 10.9554 24.999 10.9209 24.8955C10.9209 24.792 10.9209 24.6712 10.9209 24.5332L11.0244 23.8086L10.8174 23.2393L10.9209 22.6699L10.6621 21.8936L10.7656 21.4277C10.7656 21.1517 10.6621 20.8066 10.4551 20.3926L10.248 20.2891C10.179 20.151 10.1618 20.013 10.1963 19.875C10.2308 19.7025 10.2135 19.5645 10.1445 19.4609C10.0755 19.3229 10.0065 19.2021 9.9375 19.0986C9.59245 18.6846 9.38542 18.3568 9.31641 18.1152C8.97135 17.2181 8.50553 16.597 7.91895 16.252C7.36686 15.8724 6.91829 15.6826 6.57324 15.6826C6.2627 15.6826 6.02116 15.8206 5.84863 16.0967H5.6416L4.81348 16.5107L4.70996 16.7178H4.45117C4.34766 16.7178 4.24414 16.8213 4.14062 17.0283C3.86458 17.2354 3.72656 17.4079 3.72656 17.5459C3.72656 17.6839 3.60579 17.9255 3.36426 18.2705C3.15723 18.5811 3.01921 18.8571 2.9502 19.0986C2.88118 19.3057 2.84668 19.5645 2.84668 19.875C2.84668 20.1855 2.82943 20.3926 2.79492 20.4961C2.58789 20.6686 2.41536 20.8239 2.27734 20.9619C2.17383 21.0999 1.98405 21.2035 1.70801 21.2725C1.53548 21.445 1.3457 21.5312 1.13867 21.5312C0.79362 21.5312 0.534831 21.3242 0.362305 20.9102C0.224284 20.4616 0.155273 20.0475 0.155273 19.668L0.362305 18.7881V18.6328C0.293294 18.6328 0.258789 18.6156 0.258789 18.5811L0.362305 18.167L0.310547 17.3906C0.310547 17.1836 0.362305 17.0628 0.46582 17.0283C0.327799 16.7868 0.258789 16.5107 0.258789 16.2002L0.46582 14.1816L0.362305 12.2148L0.46582 11.749L0.362305 11.1797L0.46582 10.7139L0.362305 9.31641V8.17773L0 1.9668C0 1.41471 0.0517578 0.879883 0.155273 0.362305C0.39681 0.120768 0.724609 0 1.13867 0C1.55273 0 1.89779 0.0517578 2.17383 0.155273C2.48438 0.224284 2.82943 0.293294 3.20898 0.362305C3.58854 0.39681 3.9681 0.414062 4.34766 0.414062C4.76172 0.379557 5.21029 0.362305 5.69336 0.362305L6.2627 0.46582L6.78027 0.362305L6.93555 0.46582C7.10807 0.293294 7.50488 0.207031 8.12598 0.207031H9.10938L9.62695 0.362305C9.73047 0.362305 9.83398 0.327799 9.9375 0.258789C10.041 0.189779 10.1963 0.138021 10.4033 0.103516C10.6104 0.0345052 10.8691 0.0172526 11.1797 0.0517578C11.4902 0.086263 11.818 0.0690104 12.1631 0C12.1976 0.241536 12.3184 0.39681 12.5254 0.46582C12.7324 0.500326 12.8359 0.690104 12.8359 1.03516C12.8359 1.3457 12.7497 1.70801 12.5771 2.12207C12.1976 2.43262 11.7318 2.57064 11.1797 2.53613C10.6621 2.46712 10.179 2.43262 9.73047 2.43262H9.62695L9.47168 2.69141C9.40267 2.72591 9.31641 2.74316 9.21289 2.74316C9.14388 2.70866 9.07487 2.69141 9.00586 2.69141L7.91895 3.00195L7.19434 2.89844L5.84863 3.20898L4.39941 2.9502H3.72656C3.55404 2.9502 3.41602 2.93294 3.3125 2.89844C3.07096 3.00195 2.9502 3.39876 2.9502 4.08887V4.2959H3.00195L3.05371 4.34766L2.9502 4.91699L3.3125 7.50488V8.43652L3.26074 12.5254V13.6123C3.26074 13.9574 3.27799 14.3197 3.3125 14.6992H3.57129C3.95085 14.6992 4.31315 14.5957 4.6582 14.3887C5.03776 14.1816 5.41732 14.0781 5.79688 14.0781H5.84863L5.95215 13.8711C6.02116 13.8366 6.09017 13.8366 6.15918 13.8711C6.2627 13.8711 6.36621 13.8711 6.46973 13.8711C6.57324 13.8711 6.64225 13.8538 6.67676 13.8193C6.74577 13.6813 6.9528 13.6123 7.29785 13.6123H7.76367C8.45378 13.6123 9.33366 14.1126 10.4033 15.1133C10.6794 15.3548 10.9554 15.5446 11.2314 15.6826C11.404 16.1312 11.6628 16.528 12.0078 16.873C12.3529 17.1836 12.5944 17.4769 12.7324 17.7529C12.9049 17.9945 13.0085 18.1842 13.043 18.3223C13.0775 18.4258 13.112 18.5293 13.1465 18.6328C13.2155 18.7018 13.2673 18.7536 13.3018 18.7881C13.3708 18.8226 13.4225 18.8743 13.457 18.9434C13.526 19.0124 13.5433 19.0814 13.5088 19.1504C13.5088 19.2194 13.526 19.3057 13.5605 19.4092C13.6296 19.4782 13.7158 19.5472 13.8193 19.6162C14.0264 19.8232 14.1126 20.1338 14.0781 20.5479C14.0781 20.9619 14.1299 21.307 14.2334 21.583C14.3714 21.8245 14.4404 22.0143 14.4404 22.1523C14.4404 22.2904 14.4059 22.4284 14.3369 22.5664C14.3024 22.7044 14.2507 22.877 14.1816 23.084C14.1471 23.291 14.1471 23.5671 14.1816 23.9121C14.2161 24.2227 14.1989 24.5332 14.1299 24.8438C14.0609 25.1198 13.9746 25.3613 13.8711 25.5684C13.7676 25.7409 13.6813 25.9134 13.6123 26.0859C13.5433 26.224 13.5088 26.3447 13.5088 26.4482C13.5088 26.5173 13.4743 26.6208 13.4053 26.7588C13.3708 26.8623 13.2673 26.9658 13.0947 27.0693C12.9567 27.1383 12.8532 27.2419 12.7842 27.3799C12.7152 27.4834 12.6807 27.5869 12.6807 27.6904C12.6807 27.7594 12.6117 27.9147 12.4736 28.1562C12.3701 28.3633 12.1458 28.6048 11.8008 28.8809C11.4902 29.1224 11.2314 29.4157 11.0244 29.7607C10.9209 29.7952 10.8001 29.8298 10.6621 29.8643C10.5586 29.8643 10.4551 29.8988 10.3516 29.9678C10.248 29.9333 10.1963 29.9678 10.1963 30.0713C10.2308 30.1403 10.2135 30.2093 10.1445 30.2783C10.0755 30.3128 10.0065 30.3301 9.9375 30.3301C9.86849 30.2956 9.76497 30.3301 9.62695 30.4336C9.48893 30.5026 9.36816 30.6234 9.26465 30.7959C9.19564 30.9339 9.07487 31.1064 8.90234 31.3135C8.55729 31.348 8.22949 31.4688 7.91895 31.6758C7.6429 31.8483 7.36686 31.9346 7.09082 31.9346H6.52148C6.38346 31.9346 6.2627 32.0208 6.15918 32.1934C6.05566 32.3314 5.6071 32.4004 4.81348 32.4004C4.01986 32.4004 3.34701 32.2279 2.79492 31.8828C2.72591 31.8483 2.67415 31.8138 2.63965 31.7793C2.60514 31.7103 2.55339 31.6585 2.48438 31.624C2.41536 31.555 2.34635 31.5378 2.27734 31.5723C2.20833 31.5723 2.13932 31.555 2.07031 31.5205C2.03581 31.486 2.0013 31.417 1.9668 31.3135C1.9668 31.1755 1.93229 31.0892 1.86328 31.0547C1.82878 30.9857 1.77702 30.9339 1.70801 30.8994C1.639 30.8649 1.60449 30.8132 1.60449 30.7441Z" fill="white"/>
</svg>
