<svg width="4" height="19" viewBox="0 0 4 19" fill="none" xmlns="http://www.w3.org/2000/svg">
<path d="M0 2C0 0.895431 0.895431 0 2 0C3.10457 0 4 0.895431 4 2C4 3.10457 3.10457 4 2 4C0.895431 4 0 3.10457 0 2Z" fill="#51C5FE"/>
<path d="M0 10C0 8.89543 0.895431 8 2 8C3.10457 8 4 8.89543 4 10C4 11.1046 3.10457 12 2 12C0.895431 12 0 11.1046 0 10Z" fill="#51C5FE"/>
<path d="M0 17C0 15.8954 0.895431 15 2 15C3.10457 15 4 15.8954 4 17C4 18.1046 3.10457 19 2 19C0.895431 19 0 18.1046 0 17Z" fill="#51C5FE"/>
</svg>
