<svg width="70" height="69" viewBox="0 0 70 69" fill="none" xmlns="http://www.w3.org/2000/svg">
<path opacity="0.8" d="M58.4404 3.98164C57.4054 3.455 56.3459 3.02634 55.2712 2.68954H55.2834C55.2834 2.68954 37.1685 -3.74035 16.4706 3.28353H16.4828C10.7031 4.9798 5.53393 9.07656 2.52649 15.0319C-0.4779 20.9841 -0.712999 27.5824 1.34488 33.256C7.93682 54.0796 23.7556 64.9094 23.8472 64.9737C24.751 65.6381 25.7189 66.2382 26.7509 66.7618C35.1687 71.0331 45.1863 68.9817 51.7661 62.3895C51.7661 62.3895 62.6783 52.1752 68.9894 30.0747C72.1037 19.8635 67.8627 8.76425 58.4404 3.98164Z" fill="url(#paint0_linear)"/>
<defs>
<linearGradient id="paint0_linear" x1="0" y1="0" x2="81.8621" y2="19.6948" gradientUnits="userSpaceOnUse">
<stop stop-color="#237EFD"/>
<stop offset="1" stop-color="#26D4FF"/>
</linearGradient>
</defs>
</svg>
