<svg class="why-2" xmlns="http://www.w3.org/2000/svg" xmlns:xlink="http://www.w3.org/1999/xlink" viewBox="0 0 390 394"><defs><mask id="mask" x="0" y="0" width="390.75" height="471.01" maskUnits="userSpaceOnUse"><g transform="translate(14.55 -0.74)"><g id="mask0"><path d="M12,269.91c24.72,92.77,89.69,124.85,198.65,124.85S378.5,334.36,369,286.23s-39.88-34.3-23.74-138.06S280.31.74,198.86.74-44,59.61,12,269.91Z" style="fill:#f7f7f7"/></g></g></mask></defs><g style="mask:url(#mask)"><path d="M12,269.91c24.72,92.77,89.69,124.85,198.65,124.85S378.5,334.36,369,286.23s-39.88-34.3-23.74-138.06S280.31.74,198.86.74-44,59.61,12,269.91Z" transform="translate(14.55 -0.74)" style="fill:#f7f7f7"/><path d="M151.16,188.38v3.43c-4,19.78-46.7,34.12-90.07,26.37A30.43,30.43,0,0,1,62.33,215c12.76-27.48,83.92-27.46,88.59-27.43C151,187.85,151.09,188.11,151.16,188.38Z" transform="translate(14.55 -0.74)" style="fill:#08d586"/><path d="M151.16,188.38v3.43c-4,19.78-46.7,34.12-90.07,26.37A30.43,30.43,0,0,1,62.33,215c12.76-27.48,83.92-27.46,88.59-27.43C151,187.85,151.09,188.11,151.16,188.38Z" transform="translate(14.55 -0.74)" style="fill:#193084;opacity:0.4099999964237213;isolation:isolate"/><path d="M91.8,218.52l-10.4,4.14s-22.74-1.31-28-20a20,20,0,0,1-.7-7.59c0-.13,0-.27,0-.4l.06-.42v0c1.7-10.78,12.77-16.69,16.14-18,4.16-1.65,21-5.88,29.48,8.59a21.61,21.61,0,0,1,2.19,5.07C104.83,204.48,91.8,218.52,91.8,218.52Z" transform="translate(14.55 -0.74)" style="fill:#2484fe"/><path d="M84.06,221.89c-4.15-4-9.67-9.81-9.69-13.24a2.36,2.36,0,0,1,.7-1.78,3.12,3.12,0,0,1,1.55-.89,3.82,3.82,0,0,1,1.24-2.91,3.33,3.33,0,0,1,3.16-.84,4.55,4.55,0,0,1,.84-1,2.68,2.68,0,0,1,3.75-.28,4.93,4.93,0,0,1,.56.56,4.26,4.26,0,0,1,1.1-.58,1.79,1.79,0,0,1,1.94.45c2.78,2.75,2,15.79,1.23,18.07l-.79-.26c.81-2.45,1.34-14.89-1-17.22a1,1,0,0,0-1.08-.25,3.1,3.1,0,0,0-.89.45c1,1.66,1.43,4,.73,5.33a1,1,0,0,1-1.15.67c-.89-.2-1.51-1.7-1.59-3.05a4.26,4.26,0,0,1,.92-3,3.54,3.54,0,0,0-.48-.47,1.91,1.91,0,0,0-2.67.25,3.52,3.52,0,0,0-.61.69l.32.19a4.52,4.52,0,0,1,2,4.82c-.27.84-.81,1-1.1,1-.82,0-1.75-.87-2.28-2.16a4.72,4.72,0,0,1-.11-3.38,2.5,2.5,0,0,0-2.24.7,3,3,0,0,0-.94,2.23,3.41,3.41,0,0,1,1.82.81c1.28,1.06,2.11,3,1.29,4.21a1,1,0,0,1-1,.47c-1.11-.17-2.19-1.93-2.65-3.51a6.65,6.65,0,0,1-.23-1.09,2.24,2.24,0,0,0-1,.63,1.51,1.51,0,0,0-.44,1.2c0,3.48,7.1,10.38,9.43,12.65Zm-6.54-15.12a7.21,7.21,0,0,0,.19.9c.48,1.7,1.48,2.84,2,2.92.07,0,.13,0,.21-.12.48-.71-.07-2.23-1.14-3.11A2.81,2.81,0,0,0,77.52,206.77Zm8.55-4a3.69,3.69,0,0,0-.58,2.29,2.83,2.83,0,0,0,.93,2.28c.07,0,.17-.11.24-.24C87.16,206.19,86.89,204.23,86.07,202.79Zm-4.64.5a4,4,0,0,0,.1,2.78c.44,1.08,1.14,1.65,1.47,1.64.16,0,.27-.23.33-.41a3.73,3.73,0,0,0-1.66-3.86A1.4,1.4,0,0,0,81.43,203.29Z" transform="translate(14.55 -0.74)" style="fill:#fff"/><path d="M92.71,233.06l-1.23.48a4.93,4.93,0,0,1-6.42-2.77l-3.25-8.16,10.43-4.15,3.25,8.17A5,5,0,0,1,92.71,233.06Z" transform="translate(14.55 -0.74)" style="fill:#122023"/><path d="M96.57,226.15l-12.63,5a.47.47,0,0,1-.62-.27l-.51-1.29a.47.47,0,0,1,.27-.62l12.63-5a.47.47,0,0,1,.62.27l.51,1.3A.46.46,0,0,1,96.57,226.15Z" transform="translate(14.55 -0.74)" style="fill:#0b1416"/><path d="M95,222.19l-12.63,5a.47.47,0,0,1-.62-.27l-.52-1.29a.47.47,0,0,1,.27-.62l12.63-5a.47.47,0,0,1,.62.26l.52,1.3A.49.49,0,0,1,95,222.19Z" transform="translate(14.55 -0.74)" style="fill:#0b1416"/><g style="opacity:0.23000000417232513"><g style="opacity:0.23000000417232513"><path d="M92.22,218.46l-10.4,4.14s-22.74-1.31-28-20a20,20,0,0,1-.7-7.59c-1.62,15.72,30.39,21.54,32.92,13.88,2.48-7.47,14.09-9.9,15-19.11C105.26,204.4,92.22,218.46,92.22,218.46Z" transform="translate(14.55 -0.74)" style="fill:#08d586;opacity:0.23000000417232513;isolation:isolate"/></g></g><path d="M122.86,217.49l-9.81-4s-14.66-15.8-6-32a18.69,18.69,0,0,1,4.5-5.64l.3-.24.31-.24h0c8.22-6.24,19.66-3,22.83-1.74,3.92,1.61,18.15,9.72,14.48,25.19a20.13,20.13,0,0,1-1.82,4.89C141,216.46,122.86,217.49,122.86,217.49Z" transform="translate(14.55 -0.74)" style="fill:#2484fe"/><path d="M115.37,214.73c-.19-5.48-.17-13,2.07-15.39a2.25,2.25,0,0,1,1.66-.75,3,3,0,0,1,1.64.42,3.63,3.63,0,0,1,2.75-1.18,3.17,3.17,0,0,1,2.71,1.5,4.51,4.51,0,0,1,1.23-.12,2.55,2.55,0,0,1,2.74,2.27,4.44,4.44,0,0,1,0,.74,4,4,0,0,1,1.12.33,1.71,1.71,0,0,1,1,1.59c.1,3.69-9,12.06-11,13.13l-.37-.7c2.15-1.15,10.67-9.29,10.59-12.41a.93.93,0,0,0-.58-.89,3,3,0,0,0-.9-.27c-.39,1.79-1.67,3.69-3,4.12a1,1,0,0,1-1.22-.3c-.48-.73.09-2.17.92-3.13a4,4,0,0,1,2.63-1.48,3.16,3.16,0,0,0,0-.62c-.14-1-.81-1.54-2-1.59a3.49,3.49,0,0,0-.87.07,1.89,1.89,0,0,1,.09.34,4.27,4.27,0,0,1-1.79,4.6,1.14,1.14,0,0,1-1.41,0c-.57-.51-.62-1.73-.13-3a4.45,4.45,0,0,1,2.14-2.38,2.39,2.39,0,0,0-2-1,2.81,2.81,0,0,0-2.1.89,3.16,3.16,0,0,1,.72,1.76c.18,1.56-.54,3.43-1.89,3.72a1,1,0,0,1-1-.35c-.65-.84-.23-2.76.49-4.13a7.67,7.67,0,0,1,.55-.9,2.3,2.3,0,0,0-1.1-.24,1.54,1.54,0,0,0-1.1.52c-2.27,2.38-2,11.75-1.85,14.82Zm5.44-14.62a6.12,6.12,0,0,0-.47.75c-.77,1.47-.84,2.91-.55,3.29,0,0,.08.09.21.06.8-.17,1.42-1.57,1.27-2.87A2.65,2.65,0,0,0,120.81,200.11Zm8.45,2.9a3.53,3.53,0,0,0-1.9,1.18,2.67,2.67,0,0,0-.86,2.17s.19,0,.32,0C127.78,206,128.88,204.52,129.26,203Zm-3.5-2.7a3.8,3.8,0,0,0-1.75,2,2.26,2.26,0,0,0-.08,2.08c.12.13.34,0,.5-.06a3.55,3.55,0,0,0,1.39-3.73A.82.82,0,0,0,125.76,200.31Z" transform="translate(14.55 -0.74)" style="fill:#fff"/><path d="M114,228l-1.16-.47a4.7,4.7,0,0,1-2.57-6.11l3.14-7.7,9.83,4-3.13,7.7A4.69,4.69,0,0,1,114,228Z" transform="translate(14.55 -0.74)" style="fill:#122023"/><path d="M121.08,225.82,109.22,221a.48.48,0,0,1-.26-.63l.48-1.17a.47.47,0,0,1,.62-.26l11.87,4.84a.48.48,0,0,1,.26.63l-.48,1.18A.49.49,0,0,1,121.08,225.82Z" transform="translate(14.55 -0.74)" style="fill:#0b1416"/><path d="M122.62,222.08l-11.87-4.84a.48.48,0,0,1-.26-.63l.48-1.18a.48.48,0,0,1,.63-.26L123.46,220a.47.47,0,0,1,.26.62l-.48,1.18A.47.47,0,0,1,122.62,222.08Z" transform="translate(14.55 -0.74)" style="fill:#0b1416"/><g style="opacity:0.23000000417232513"><g style="opacity:0.23000000417232513"><path d="M123.18,217.73l-9.8-4s-14.66-15.8-6-32a18.87,18.87,0,0,1,4.51-5.64c-11.41,9.66,6.62,34.62,13.37,31.05,6.59-3.47,16.1,2.48,22.75-3.2C141.3,216.69,123.18,217.73,123.18,217.73Z" transform="translate(14.55 -0.74)" style="fill:#08d586;opacity:0.23000000417232513;isolation:isolate"/></g></g><path d="M151.16,187.59v.79c-.07-.27-.15-.53-.24-.79Z" transform="translate(14.55 -0.74)" style="fill:#08d586"/><path d="M151.16,191.81V245.5L87,297.24s-35.95-48.82-25.95-79.06C104.46,225.93,147.19,211.59,151.16,191.81Z" transform="translate(14.55 -0.74)" style="fill:#08d586"/><path d="M151.16,191.81v-3.43A7.92,7.92,0,0,1,151.16,191.81Z" transform="translate(14.55 -0.74)" style="fill:#193084;opacity:0.4099999964237213;isolation:isolate"/><path d="M104.17,396.52l2.31-43.07c-7.08,3-12.34,3.2-16.28,1.63-12.37-4.92-11.65-27.44-12.74-37.24-1.44-12.94,4.6-40.5,10.34-57.45,4.13-12.18,4.69-19.31,9.17-26.21h0a39.28,39.28,0,0,1,7.49-8.25,97.25,97.25,0,0,1,7.81-5.9,312,312,0,0,1,29.38-17.35l39-5.47,22.71,9.15,45.05,152.33,3.86,24.51,3,19.07Z" transform="translate(14.55 -0.74)" style="fill:#1639d0"/><path d="M111.83,290.47,99.7,299.74s1-47.37-2.74-65.55h0a39.08,39.08,0,0,1,7.5-8.25,96.73,96.73,0,0,1,7.79-5.9C120.11,246.36,111.83,290.47,111.83,290.47Z" transform="translate(14.55 -0.74)" style="fill:#192d33"/><path d="M104.46,135.39c-11.31-16-6.94-29.18,0-35.75s7.29-21.89,43-21.16,45.23,19,43.78,36.11-16.05,33.59-16.05,33.59l-26.63,6.17Z" transform="translate(14.55 -0.74)" style="fill:#192d33"/><path d="M180.71,150.81v46.4l-25.42,21-13.64-15.5V182l29.13-32.79Z" transform="translate(14.55 -0.74)" style="fill:#f7b998"/><path d="M180.71,162.39c-3.44,14.72-39.06,35.36-39.06,35.36V174.1l33.58-25.93h5.48Z" transform="translate(14.55 -0.74)" style="fill:#eaa178"/><path d="M104.46,133.19s3.28,32.83,11.3,39.41,19.34,15.68,26.63,15,29.55-16.05,32.83-22.62a36,36,0,0,0,3.29-14.22s5.46,1.82,7.29-6.2,1.45-14.59-3.29-15.32-7.66,12-7.66,12l-2.19-26.63-13.86-5.83-28.08,5.83-26.26,7.66v10.94Z" transform="translate(14.55 -0.74)" style="fill:#f7b998"/><path d="M99.71,116.05c4.75,17.14,27.36,16,33.92,12.4s-2.55-6.93-2.55-6.93,15.68,6.93,25.54,4,0-11.3,0-11.3,14.59,16.77,22.25,6.19,3.65-19,3.65-19L151.88,91.6,115.39,104Z" transform="translate(14.55 -0.74)" style="fill:#192d33"/><path d="M177.84,141.12c1.75-5.61,2.46-6.14,4.74-5.44s1.53,9.17-2.37,10.19S177.84,141.12,177.84,141.12Z" transform="translate(14.55 -0.74)" style="fill:#eaa178"/><path d="M151.16,132v6.5" transform="translate(14.55 -0.74)" style="fill:none;stroke:#192d33;stroke-linecap:round;stroke-miterlimit:10"/><path d="M126.22,136.31v6.5" transform="translate(14.55 -0.74)" style="fill:none;stroke:#192d33;stroke-linecap:round;stroke-miterlimit:10"/><path d="M136.76,146c-.35,5-4.74,8.65-4.39,11.11s5.09,1.94,6.5,1.06" transform="translate(14.55 -0.74)" style="fill:none;stroke:#c66f58;stroke-linecap:round;stroke-miterlimit:10"/><path d="M140.62,166.58c4.74,0,10.89-2.46,12.64-5.62" transform="translate(14.55 -0.74)" style="fill:none;stroke:#c66f58;stroke-linecap:round;stroke-miterlimit:10"/><path d="M180.71,197.21,183.57,230l-28.28-11.78Z" transform="translate(14.55 -0.74)" style="fill:#ced9ea"/><path d="M141.64,202.67l-9.29,24.7,22.94-9.2Z" transform="translate(14.55 -0.74)" style="fill:#ced9ea"/><path d="M156.44,276.4l9.39-14h-18.5v15Z" transform="translate(14.55 -0.74)" style="fill:#1533a0"/><path d="M195.45,148.17,119.62,334.69,241,370.19l60.75-183.56Z" transform="translate(14.55 -0.74)" style="fill:#ced9ea"/><path d="M205.42,152.43,129.59,339l110.32,32.26a11.89,11.89,0,0,0,14.64-7.68l53.5-161.66A11.88,11.88,0,0,0,300.81,187Z" transform="translate(14.55 -0.74)" style="fill:#08d586"/><path d="M104.17,396.52l2.31-43.07c-7.08,3-12.34,3.2-16.28,1.63l9.51-22s30.67-39.11,32.64-42.09,20.92-28.54,20.92-28.54l24.28-20,13.88,7.19c-5.11,17.69-19.71,15.1-25.13,27.79s-14.73,47.25-5.11,60.43c9.3,12.75,78.64,32.51,83.22,33.8-4-1-57.16-14.35-79.2-5.17C142.29,376,189.9,390.85,219.13,385a116.7,116.7,0,0,1,33.21-1.83l3,19.07Z" transform="translate(14.55 -0.74)" style="fill:#193084;opacity:0.4099999964237213;isolation:isolate"/><path d="M212.87,219.31c-10.55,24.46-7,60.81,0,71.65,0,0,41.06-10.58,53.39-53.24Z" transform="translate(14.55 -0.74)" style="fill:#fff"/><path d="M146.94,248.48c10.19-9.6,15.07-19.08,18.89-24s12.38-5.81,18-4.89,13,10,15.13,10.33,2.44,7.2-4.89,3.94c0,0,8.46,4.69,6.21,7.43s-8.91-1.83-8.91-1.83,6.67,6.37,4.22,9-8.82,0-8.82,0,3.72,3.24,0,6-9.27-4.29-9.27-4.29-1.87,14.31-27.51,20.6S146.94,248.48,146.94,248.48Z" transform="translate(14.55 -0.74)" style="fill:#f7b998"/><path d="M156.44,276.4s-30.36,63.48-50,77.05c-29.3,12.35-27.58-22.68-29-35.61l69.48-69.36S144.24,272.48,156.44,276.4Z" transform="translate(14.55 -0.74)" style="fill:#1639d0"/><path d="M269.46,318.51a172,172,0,0,0,21.43-30.93c3.31-5.88,2.57-17.26,2.57-20.57s-6.61-7.59-8.45-11.88-6.61,3.8-1.46,12.61c0,0-5.87-8.43-7.43-3.7s3,9.57,3,9.57-4.33-5.61-6.34.46,3,8.36,3,8.36-3.31-.49-3.68,3.8,5.93,6.25,5.93,6.25Z" transform="translate(14.55 -0.74)" style="fill:#f7b998"/><path d="M229.33,262l-5.74-2.24s-8.68-9.08-3.77-18.59a11.1,11.1,0,0,1,2.57-3.32l.17-.14.18-.15h0c4.74-3.71,11.43-1.93,13.29-1.21,2.3.9,10.66,5.51,8.66,14.55a11.61,11.61,0,0,1-1,2.87C239.87,261.22,229.33,262,229.33,262Z" transform="translate(14.55 -0.74)" style="fill:#2484fe"/><path d="M225,260.43c-.16-3.19-.21-7.59,1.07-9a1.33,1.33,0,0,1,1-.46,1.75,1.75,0,0,1,1,.23,2.07,2.07,0,0,1,1.58-.71,1.86,1.86,0,0,1,1.6.86,2.32,2.32,0,0,1,.7-.08,1.48,1.48,0,0,1,1.62,1.29,2.13,2.13,0,0,1,0,.44,2.32,2.32,0,0,1,.66.18,1,1,0,0,1,.61.92c.09,2.15-5.14,7.1-6.29,7.74l-.22-.4c1.24-.69,6.13-5.5,6.06-7.32a.54.54,0,0,0-.33-.51,1.94,1.94,0,0,0-.53-.15,3.34,3.34,0,0,1-1.72,2.42.55.55,0,0,1-.7-.16c-.29-.42,0-1.25.51-1.83A2.31,2.31,0,0,1,233,253a1.51,1.51,0,0,0,0-.37c-.09-.59-.49-.88-1.18-.9a2,2,0,0,0-.5.05.59.59,0,0,1,.06.2,2.48,2.48,0,0,1-1,2.7.67.67,0,0,1-.82,0,1.62,1.62,0,0,1-.1-1.72,2.52,2.52,0,0,1,1.23-1.4,1.38,1.38,0,0,0-1.17-.56,1.62,1.62,0,0,0-1.21.54,1.87,1.87,0,0,1,.43,1c.11.91-.28,2-1.07,2.19a.55.55,0,0,1-.6-.2c-.38-.48-.16-1.6.25-2.41a4.52,4.52,0,0,1,.32-.52,1.26,1.26,0,0,0-.65-.13.87.87,0,0,0-.63.31c-1.3,1.4-1,6.85-.94,8.64Zm3.05-8.55a3.19,3.19,0,0,0-.56,2.36s.05,0,.13,0c.46-.11.81-.93.71-1.69A1.67,1.67,0,0,0,228,251.88Zm4.94,1.61a2,2,0,0,0-1.1.71c-.46.56-.57,1.13-.47,1.27s.11,0,.18,0A2.94,2.94,0,0,0,232.94,253.49ZM230.89,252a2.17,2.17,0,0,0-1,1.16,1.34,1.34,0,0,0,0,1.22c.07.07.2,0,.29,0a2.09,2.09,0,0,0,.79-2.19S230.9,252,230.89,252Z" transform="translate(14.55 -0.74)" style="fill:#fff"/><path d="M224.23,268.18l-.68-.26a2.74,2.74,0,0,1-1.55-3.54l1.76-4.52,5.76,2.26-1.76,4.51A2.7,2.7,0,0,1,224.23,268.18Z" transform="translate(14.55 -0.74)" style="fill:#122023"/><path d="M228.19,266.78l-6.59-2.57a.47.47,0,0,1-.27-.62l.12-.32a.47.47,0,0,1,.62-.27l6.58,2.57a.47.47,0,0,1,.27.62l-.12.32A.46.46,0,0,1,228.19,266.78Z" transform="translate(14.55 -0.74)" style="fill:#0b1416"/><path d="M229,264.59,222.46,262a.47.47,0,0,1-.27-.62l.12-.32a.47.47,0,0,1,.62-.27l6.58,2.57a.47.47,0,0,1,.27.62l-.12.32A.48.48,0,0,1,229,264.59Z" transform="translate(14.55 -0.74)" style="fill:#0b1416"/><g style="opacity:0.23000000417232513"><g style="opacity:0.23000000417232513"><path d="M229.53,262.13l-5.75-2.24s-8.67-9.08-3.76-18.6a11.18,11.18,0,0,1,2.57-3.31c-6.57,5.73,4.15,20.11,8.06,18s9.4,1.31,13.23-2.06C240.06,261.36,229.53,262.13,229.53,262.13Z" transform="translate(14.55 -0.74)" style="fill:#08d586;opacity:0.23000000417232513;isolation:isolate"/></g></g></g><path d="M236.24,104.43h81.17S316,93,301.72,91.6,289.85,98,289.85,98s-4.72-19.57-26-19.57-17.32,13.16-17.32,13.16S232.23,88.69,236.24,104.43Z" transform="translate(14.55 -0.74)" style="fill:#ced9ea"/><path d="M.71,73.07H81.88S80.43,61.59,66.19,60.24s-11.87,6.42-11.87,6.42-4.72-19.58-26-19.57S11,60.25,11,60.25-3.3,57.32.71,73.07Z" transform="translate(14.55 -0.74)" style="fill:#ced9ea"/><path d="M179.62,50.89c5.31,0,12.14-6.84,12.14-12.15,0,5.31,6.84,12.15,12.15,12.15-5.31,0-12.15,6.83-12.15,12.14C191.76,57.71,184.94,50.89,179.62,50.89Z" transform="translate(14.55 -0.74)" style="fill:#08d586"/><path d="M47.58,123.67a8.51,8.51,0,1,0-8.51-8.51A8.51,8.51,0,0,0,47.58,123.67Z" transform="translate(14.55 -0.74)" style="fill:#08d586"/><path d="M281.41,142c3.71,0,8.5-4.78,8.5-8.51,0,3.72,4.79,8.51,8.51,8.51-3.71,0-8.51,4.78-8.51,8.51C289.91,146.8,285.13,142,281.41,142Z" transform="translate(14.55 -0.74)" style="fill:#08d586"/><path d="M261.34,128.78c1.86,0,4.26-2.39,4.26-4.25,0,1.86,2.39,4.25,4.25,4.25-1.86,0-4.25,2.39-4.25,4.26C265.6,131.17,263.2,128.78,261.34,128.78Z" transform="translate(14.55 -0.74)" style="fill:#08d586"/></svg>