<svg class="why-3" xmlns="http://www.w3.org/2000/svg" xmlns:xlink="http://www.w3.org/1999/xlink" viewBox="0 0 261.29 257.96"><defs><mask id="mask" x="-0.44" y="-8.41" width="261.74" height="266.37" maskUnits="userSpaceOnUse"><g transform="translate(-1 -8.41)"><g id="mask0"><path d="M14.42,218.75c.53,1.21,1.08,2.44,1.68,3.68C42.56,277.57,144.63,269.81,188.72,247a253.54,253.54,0,0,0,44.12-28.7c35.49-29.24,39-59.1,10.16-121C208.53,23.1,171.28-19.38,128,8.73s-84.6,38.5-107,60C-.89,89.76-8.36,166.26,14.42,218.75Z" style="fill:#f7f7f7"/></g></g></mask></defs><path d="M14.42,218.75c.53,1.21,1.08,2.44,1.68,3.68C42.56,277.57,144.63,269.81,188.72,247a253.54,253.54,0,0,0,44.12-28.7c35.49-29.24,39-59.1,10.16-121C208.53,23.1,144-9.72,100.74,18.39S62.9,85.73,40.5,107.23C18.61,128.26-8.36,166.26,14.42,218.75Z" transform="translate(-1 -8.41)" style="fill:#f7f7f7"/><g style="mask:url(#mask)"><path d="M45.24,190.22a21.24,21.24,0,0,1,13.21-1.61c2.4.4,4.9,1.11,6.53,2.91s1.93,5,.06,6.51a6.26,6.26,0,0,1-4.12,1.05c-3.49,0-7.36-.66-10.15,1.44-1.59,1.2-2.65,3.19-4.55,3.78a4.49,4.49,0,0,1-5-2.2,7.67,7.67,0,0,1-.56-5.67A8.74,8.74,0,0,1,45.24,190.22Z" transform="translate(-1 -8.41)" style="fill:#2484fe"/><path d="M36,172.45c2.45,3.51,7.23,2.34,9.44.21s3.15-5.25,4-8.21c1.94-6.76,3.91-13.86,2.46-20.75a11.56,11.56,0,0,0-2.65-5.65,6.06,6.06,0,0,0-5.71-1.9c-2.41.64-3.91,3-5,5.24a49.52,49.52,0,0,0-4.89,21.22C33.71,166,34.11,169.63,36,172.45Z" transform="translate(-1 -8.41)" style="fill:#2484fe"/><path d="M29.29,177.48c2.66-3.16,3.17-7.78,2-11.75a22.75,22.75,0,0,0-7-10.1,37.67,37.67,0,0,0-12.46-7.35,13.21,13.21,0,0,0-5.61-1,5.9,5.9,0,0,0-4.7,2.85c-1.31,2.5-.05,5.54,1.31,8a95.24,95.24,0,0,0,8.19,12.46c2.45,3.16,5.26,6.28,9,7.71s7.62,1.26,9.61-1.34" transform="translate(-1 -8.41)" style="fill:#2484fe"/><path d="M35.87,225.38a7.24,7.24,0,0,0,.22-1.59c.11-1.16.26-2.62.43-4.35a61.65,61.65,0,0,1,1-6.38,49.43,49.43,0,0,1,2.32-7.54,27.61,27.61,0,0,1,3.84-6.81,14.38,14.38,0,0,1,4.86-4.05,13.57,13.57,0,0,1,4.1-1.27,6.93,6.93,0,0,0,1.59-.23,8.37,8.37,0,0,0-1.61,0,12.7,12.7,0,0,0-4.28,1.11,14.51,14.51,0,0,0-5.12,4.08,26.92,26.92,0,0,0-4,7,45,45,0,0,0-2.3,7.65,56,56,0,0,0-.85,6.46c-.13,1.85-.19,3.35-.21,4.38A8,8,0,0,0,35.87,225.38Z" transform="translate(-1 -8.41)" style="fill:#263238"/><path d="M36.17,222a3.33,3.33,0,0,0,0-.74c0-.55,0-1.25,0-2.12,0-1.83,0-4.49.09-7.77.16-6.56.73-13.62,1.82-23.57,1-9.37,2.41-20.26,3.88-27.35.32-1.6.63-3.06.93-4.32s.52-2.37.76-3.26l.49-2a3.06,3.06,0,0,0,.13-.73,3.43,3.43,0,0,0-.26.69c-.16.54-.36,1.2-.62,2s-.55,2-.87,3.24-.68,2.71-1,4.31a242,242,0,0,0-4.08,25.37c-1.09,10-1.58,19.06-1.62,25.64,0,3.29,0,6,.11,7.79.06.87.1,1.56.13,2.12A4.08,4.08,0,0,0,36.17,222Z" transform="translate(-1 -8.41)" style="fill:#263238"/><path d="M36.22,204.51a16.22,16.22,0,0,0,0-2.21c-.08-1.41-.27-3.47-.67-6a80.79,80.79,0,0,0-2-8.73,71.51,71.51,0,0,0-3.64-10.33,54.84,54.84,0,0,0-10.72-16.67,25.07,25.07,0,0,0-2.52-2.35c-.39-.33-.72-.65-1.07-.91l-1-.67a13.67,13.67,0,0,0-1.86-1.19,67.69,67.69,0,0,1,6.1,5.44,58.18,58.18,0,0,1,10.44,16.63A83.25,83.25,0,0,1,33,187.76c1,3.21,1.59,6.16,2.07,8.64s.72,4.51.88,5.92A12.17,12.17,0,0,0,36.22,204.51Z" transform="translate(-1 -8.41)" style="fill:#263238"/><path d="M19.29,235.43,21,259.48h30.9l1.76-24.05Z" transform="translate(-1 -8.41)" style="fill:#263238"/><path d="M57.38,225.94H16.29v9.48H57.38Z" transform="translate(-1 -8.41)" style="fill:#263238"/><path d="M16.29,258.56v2.62H56.7v-2.62Z" transform="translate(-1 -8.41)" style="fill:#455a64"/><path d="M20.12,265.81l-1.89-4.63h37L53,265.81Z" transform="translate(-1 -8.41)" style="fill:#455a64"/><path d="M53.12,243.28s0,.08-.14.22l-.47.61-1.79,2.29-.09.11-.08-.11-4.42-6.12h.25L42,246.44l-.13.22-.16-.18-5.16-6.15h.3l-.28.36L32,246.48l-.15.19-.15-.2c-1.56-2.22-3-4.29-4.35-6.16h.25c-2.14,2.44-4,4.51-5.36,6.11l-.09.11-.07-.12c-.71-1.19-1.28-2.13-1.68-2.82l-.43-.76a1.56,1.56,0,0,1-.13-.26s.07.07.18.24l.48.72c.42.67,1,1.61,1.76,2.77h-.16l5.28-6.18.13-.16.12.16,4.4,6.14h-.3l4.61-5.8.28-.35.15-.18.15.18c1.81,2.16,3.54,4.24,5.15,6.15h-.29l4.4-6.14.13-.18.13.18c1.74,2.5,3.21,4.6,4.32,6.18h-.15l1.87-2.25.5-.58A.73.73,0,0,1,53.12,243.28Z" transform="translate(-1 -8.41)" style="fill:#e0e0e0"/><path d="M54.12,235.26c0,.11-7.74.19-17.28.19s-17.3-.08-17.3-.19,7.74-.19,17.3-.19S54.12,235.15,54.12,235.26Z" transform="translate(-1 -8.41)" style="fill:#455a64"/><path d="M55.69,261.44c0,.11-8.42.19-18.8.19s-18.8-.08-18.8-.19,8.42-.19,18.8-.19S55.69,261.34,55.69,261.44Z" transform="translate(-1 -8.41)" style="fill:#263238"/><path d="M105.54,266.37c-.35-1.39,9.82-52.66,9.82-52.66l54.42-7.78s22.09,13.45,22.78,24.58,5.83,35.85,5.83,35.85H145.72l-1.66-2.16-1.07,2Z" transform="translate(-1 -8.41)" style="fill:#263238"/><path d="M148.32,256.17a.62.62,0,0,1,0,.09,1.29,1.29,0,0,1-.06.26,2.26,2.26,0,0,1-.55.89,3.18,3.18,0,0,1-3.64.59,4.93,4.93,0,0,1-2-1.77,8.61,8.61,0,0,1-1.12-2.84c-.22-1-.35-2.16-.52-3.31s-.33-2.33-.5-3.55c-.65-4.84-1.24-9.23-1.68-12.46-.2-1.56-.35-2.84-.47-3.78-.05-.41-.08-.75-.12-1s0-.36,0-.36,0,.11.09.35.1.6.17,1c.14.93.34,2.21.57,3.77.46,3.22,1.08,7.6,1.78,12.44.17,1.22.33,2.4.49,3.55s.28,2.25.5,3.29a7.88,7.88,0,0,0,1.05,2.75,4.71,4.71,0,0,0,1.86,1.71,3.13,3.13,0,0,0,2,.26,3.08,3.08,0,0,0,1.41-.73A2.77,2.77,0,0,0,148.32,256.17Z" transform="translate(-1 -8.41)" style="fill:#455a64"/><path d="M143.76,225.34a1,1,0,0,1,.6-.09,2.13,2.13,0,0,1,1.44.78,2.41,2.41,0,0,1,.27,2.39,2.76,2.76,0,0,1-2.42,1.67,2.41,2.41,0,0,1-1.53-.43,2.6,2.6,0,0,1-.9-1.17,2.2,2.2,0,0,1-.11-1.33,2,2,0,0,1,.55-1,2.33,2.33,0,0,1,1.47-.72,1,1,0,0,1,.6.07s-.22,0-.58,0a2.35,2.35,0,0,0-1.32.75,1.94,1.94,0,0,0-.33,2.08,2.16,2.16,0,0,0,2.13,1.39,2.52,2.52,0,0,0,2.16-1.46,2.17,2.17,0,0,0-.18-2.14,2.05,2.05,0,0,0-1.27-.79C144,225.32,143.77,225.37,143.76,225.34Z" transform="translate(-1 -8.41)" style="fill:#455a64"/><path d="M179,81.09H150.3l-3.19,8.45-18.22,25L114.58,217.63,132.8,221a33.52,33.52,0,0,0,9.59.4l27.38-2.7.82-92,13.33-37Z" transform="translate(-1 -8.41)" style="fill:#f5f5f5"/><path d="M157.21,99.19s0,.11-.08.31-.14.51-.26.91c-.24.8-.58,2-1,3.46s-1,3.34-1.6,5.49-1.33,4.58-2,7.3-1.55,5.67-2.35,8.87-1.65,6.62-2.52,10.23c-1.69,7.23-3.41,15.2-5,23.61s-2.9,16.48-4,23.82c-.51,3.68-1,7.17-1.4,10.45s-.76,6.32-1.07,9.11-.55,5.32-.77,7.54-.39,4.13-.52,5.69-.25,2.77-.32,3.6c0,.41-.07.72-.09.94s0,.32,0,.32,0-.11,0-.32,0-.54,0-.94c.06-.84.15-2.06.25-3.6s.26-3.49.47-5.71.41-4.75.72-7.54.62-5.85,1-9.13.87-6.77,1.37-10.45c1.06-7.35,2.37-15.4,4-23.83s3.35-16.39,5.06-23.61c.88-3.61,1.7-7,2.55-10.23s1.63-6.17,2.38-8.87,1.47-5.14,2.09-7.28,1.18-4,1.66-5.48.83-2.64,1.08-3.45c.13-.39.22-.68.29-.9A2,2,0,0,1,157.21,99.19Z" transform="translate(-1 -8.41)" style="fill:#263238"/><path d="M122.87,209.47a24.43,24.43,0,0,0,.6,5.3,25.4,25.4,0,0,0,2,4.93,5.39,5.39,0,0,1-.92-1.29,14.38,14.38,0,0,1-1.91-7.36A5.13,5.13,0,0,1,122.87,209.47Z" transform="translate(-1 -8.41)" style="fill:#263238"/><path d="M124.47,220.09a3,3,0,0,1-1-.5,9.66,9.66,0,0,1-2.13-1.83,9.86,9.86,0,0,1-1.52-2.35,3.47,3.47,0,0,1-.36-1.11,19.45,19.45,0,0,0,2.13,3.25A20.46,20.46,0,0,0,124.47,220.09Z" transform="translate(-1 -8.41)" style="fill:#263238"/><path d="M146.65,210.39a5.82,5.82,0,0,1,.11,1.61,18.38,18.38,0,0,1-.51,3.86,16.91,16.91,0,0,1-1.35,3.66,5.77,5.77,0,0,1-.84,1.37,14,14,0,0,1,.64-1.47,24.72,24.72,0,0,0,1.24-3.63,23,23,0,0,0,.59-3.8A12.49,12.49,0,0,1,146.65,210.39Z" transform="translate(-1 -8.41)" style="fill:#263238"/><path d="M147.87,87.55S130.32,95,127.8,95.45s-11.37,2.69-11.37,2.69-6.8,12.16-6.17,19.12,5.37,56.85,5.37,56.85-7.73,43.11-7.9,46.27-6.79,33.33-5.52,33.17,7.1-6.63,7.1-6.63l19.27-106s5-24.32,8.85-32.22a202.63,202.63,0,0,1,10.44-18.16v-3Z" transform="translate(-1 -8.41)" style="fill:#263238"/><path d="M122.14,176.41a1.53,1.53,0,0,1,0-.25c0-.18,0-.42,0-.73,0-.66-.07-1.6-.13-2.81-.08-2.46-.22-6-.37-10.33s-.31-9.55-.44-15.33c-.06-2.88-.13-5.91-.13-9.05a42.68,42.68,0,0,1,1.59-9.61c1.38-5.34,3.12-10.34,4.78-15s3.36-8.85,4.92-12.57v0l0,0,4.88-4.08.11.19-3.59,1.41-.32.12.21-.27,4-5.11,1.08-1.35.29-.34a.59.59,0,0,1,.1-.11l-.08.12-.27.36c-.24.33-.6.79-1,1.38l-4,5.17-.11-.14,3.57-1.43.63-.25-.52.44-4.85,4.1,0,0c-1.54,3.71-3.2,8-4.87,12.57s-3.37,9.62-4.75,14.93a42.56,42.56,0,0,0-1.59,9.53c0,3.14,0,6.17.11,9.05.14,5.77.27,11,.37,15.33s.2,7.87.27,10.33c0,1.2,0,2.15.06,2.81,0,.31,0,.55,0,.73A.64.64,0,0,1,122.14,176.41Z" transform="translate(-1 -8.41)" style="fill:#455a64"/><path d="M116.43,98.14s-5.79,4.43-6.78,9.39-2.47,26-2.47,26-2.47,2.79-2.47,3.29-1.19,13.71-1.19,13.71L85,127.25,68.1,143.17S90,181.4,98.62,184.8c13.18,5.16,17.12-2.33,17.12-2.33l2-30.79Z" transform="translate(-1 -8.41)" style="fill:#263238"/><path d="M112.14,119.13s0,.06,0,.17,0,.3.08.5c.07.47.17,1.11.28,1.92.24,1.67.58,4.09,1,7.08.77,6,1.78,14.27,2.31,23.47.26,4.61.34,9,.29,13-.06,2-.08,3.9-.21,5.67-.06.89-.09,1.74-.16,2.56s-.14,1.61-.2,2.36c-.12,1.51-.31,2.86-.45,4.05-.08.6-.15,1.15-.22,1.66s-.15,1-.22,1.39c-.14.81-.25,1.45-.32,1.91,0,.2-.07.37-.1.5a1.37,1.37,0,0,1,0,.17s0-.06,0-.17,0-.3.07-.5c.06-.47.15-1.11.26-1.93.06-.42.13-.88.2-1.39s.11-1.07.18-1.66c.12-1.19.3-2.55.4-4,0-.75.11-1.54.18-2.36s.09-1.67.13-2.56c.11-1.77.13-3.67.18-5.66,0-4-.06-8.37-.31-13-.54-9.19-1.51-17.47-2.22-23.46-.36-3-.65-5.39-.86-7.09-.09-.82-.17-1.47-.22-1.93,0-.21,0-.37,0-.51A1.06,1.06,0,0,0,112.14,119.13Z" transform="translate(-1 -8.41)" style="fill:#455a64"/><path d="M108.75,168.86a3,3,0,0,1-.09-.75c0-.48-.08-1.18-.17-2a38.68,38.68,0,0,0-3.6-12.88c-.37-.78-.68-1.4-.91-1.83a3.54,3.54,0,0,1-.31-.68,3.6,3.6,0,0,1,.43.61c.26.41.6,1,1,1.79a33.88,33.88,0,0,1,3.62,13c0,.86.08,1.57.07,2A6.7,6.7,0,0,1,108.75,168.86Z" transform="translate(-1 -8.41)" style="fill:#455a64"/><path d="M110.84,164.23c-.06,0-.1-.91-.36-2.34a20.4,20.4,0,0,0-4.92-10c-1-1.08-1.67-1.66-1.63-1.7s.2.11.52.37a13.84,13.84,0,0,1,1.28,1.17A19,19,0,0,1,109,156.4a18.47,18.47,0,0,1,1.7,5.46,13.42,13.42,0,0,1,.15,1.72A2.84,2.84,0,0,1,110.84,164.23Z" transform="translate(-1 -8.41)" style="fill:#455a64"/><path d="M122.14,176.41a1.29,1.29,0,0,1,0,.19c0,.15-.05.33-.08.56-.08.51-.2,1.23-.36,2.15-.32,1.87-.79,4.56-1.36,7.86l-4.64,25.9c-1.84,10.11-3.51,19.25-4.73,25.89l-1.47,7.84c-.17.91-.31,1.62-.41,2.13l-.12.56a.5.5,0,0,1,0,.19,1.29,1.29,0,0,1,0-.19c0-.15,0-.33.08-.56.09-.51.21-1.23.36-2.14.32-1.88.79-4.56,1.36-7.87,1.2-6.65,2.83-15.8,4.64-25.91s3.52-19.24,4.73-25.89c.62-3.29,1.12-6,1.47-7.84.18-.91.31-1.62.41-2.13.06-.22.09-.41.12-.55S122.13,176.41,122.14,176.41Z" transform="translate(-1 -8.41)" style="fill:#455a64"/><path d="M180.61,84l-15.87,34.72s-8.23,22.51-8.85,25.3-8.84,38.33-8.84,38.33l5.43,52.62s.69,18.32,5.93,19.87,44.82-5.12,44.82-5.12l-6.52-43.93s-2.48-33.68-2.48-34.14,7.14-50.29,7.14-50.29l4.72-19.24-13.42-5.44Z" transform="translate(-1 -8.41)" style="fill:#263238"/><path d="M149.75,173.82a1,1,0,0,1,.09-.25c.08-.17.18-.41.31-.72.29-.63.71-1.55,1.25-2.71l4.68-9.93c4-8.37,9.52-19.92,15.63-32.67,4.69-9.73,9-18.76,12.6-26.11l.12.19h-5.75l.36-.22,5.34-3.33,0,.09c-.14-3.34-.24-6-.31-7.82,0-.89-.06-1.58-.07-2.07,0-.22,0-.4,0-.54v-.18a.5.5,0,0,1,0,.18c0,.14,0,.31,0,.53,0,.49.06,1.18.11,2.08.1,1.82.24,4.47.41,7.81v0l-.05,0-5.31,3.36-.06-.23h5.54l-.1.2c-3.53,7.36-7.87,16.39-12.54,26.14C159.78,153,150.53,172.2,149.75,173.82Z" transform="translate(-1 -8.41)" style="fill:#455a64"/><path d="M188.77,134.41a3.89,3.89,0,0,1-.75,0c-.47,0-1.16-.07-2-.11a54.33,54.33,0,0,0-6.62.1,53.76,53.76,0,0,0-6.55,1c-.83.17-1.5.32-2,.43a3.06,3.06,0,0,1-.73.13,3.12,3.12,0,0,1,.69-.26c.45-.14,1.11-.33,1.95-.53a42.3,42.3,0,0,1,6.57-1,44.59,44.59,0,0,1,6.66,0c.85.07,1.54.15,2,.22A2.66,2.66,0,0,1,188.77,134.41Z" transform="translate(-1 -8.41)" style="fill:#455a64"/><path d="M187.89,134.24c2.19.08-.38-6.64-1.38-9.89-.19-.61-.51-1.32-1.15-1.39a1.68,1.68,0,0,0-1.08.45c-4.27,3.17-7.84,7.46-11,11.71C173.24,135.12,183.32,134.07,187.89,134.24Z" transform="translate(-1 -8.41)" style="fill:#e0e0e0"/><path d="M154.89,184.8a9.15,9.15,0,0,1-3.06.79,8.8,8.8,0,0,1-3.17,0c0-.09,1.41-.12,3.12-.35S154.86,184.71,154.89,184.8Z" transform="translate(-1 -8.41)" style="fill:#455a64"/><path d="M195.88,205.93c0,.08-4.93.89-11,1.8s-11.09,1.56-11.11,1.47,4.94-.89,11.06-1.8S195.87,205.84,195.88,205.93Z" transform="translate(-1 -8.41)" style="fill:#455a64"/><path d="M172.24,247.72a.78.78,0,0,1-.09-.19c-.06-.15-.14-.33-.23-.56l-.87-2.16c-.37-.94-.82-2.09-1.31-3.44s-1.07-2.88-1.63-4.6-1.21-3.58-1.83-5.61-1.26-4.21-1.92-6.51c-1.26-4.61-2.52-9.72-3.61-15.11s-1.89-10.61-2.52-15.34c-.27-2.38-.56-4.63-.74-6.74s-.36-4.09-.48-5.89-.19-3.44-.26-4.87-.11-2.67-.12-3.68,0-1.77,0-2.33v-.6a1.66,1.66,0,0,1,0-.21.58.58,0,0,1,0,.21c0,.15,0,.35,0,.6,0,.56.06,1.33.1,2.33s.08,2.24.18,3.67.15,3.06.31,4.86.29,3.77.52,5.88.48,4.36.77,6.73c.63,4.73,1.45,9.91,2.53,15.31s2.34,10.5,3.58,15.1c.65,2.3,1.25,4.48,1.89,6.51s1.22,3.91,1.8,5.63,1.11,3.25,1.59,4.6.9,2.51,1.26,3.46L172,247c.08.24.15.42.2.57S172.24,247.71,172.24,247.72Z" transform="translate(-1 -8.41)" style="fill:#455a64"/><path d="M203.23,249.68l-.28,0-.82.13-3.17.45-11.65,1.62L170,254.27l-5,.67-2.58.35a9.52,9.52,0,0,1-2.68.14,5.72,5.72,0,0,1-4.33-3.2,6.77,6.77,0,0,1-.44-1.34c-.11-.46-.23-.91-.34-1.37-.23-.9-.47-1.81-.65-2.75a161.37,161.37,0,0,1-2.87-21.18c-.51-6.55-.87-12.45-1.29-17.39s-.88-8.94-1.25-11.7c-.18-1.37-.36-2.43-.46-3.16,0-.35-.09-.62-.11-.82a2.08,2.08,0,0,1,0-.29,2.52,2.52,0,0,1,.06.28c0,.2.09.47.15.82.12.72.32,1.78.52,3.15.41,2.75.91,6.75,1.36,11.69s.83,10.85,1.36,17.39a164.47,164.47,0,0,0,2.89,21.14c.18.92.42,1.84.64,2.74a18.1,18.1,0,0,0,.76,2.65,5.39,5.39,0,0,0,4.08,3,8.7,8.7,0,0,0,2.59-.14l2.59-.34,5-.66,17.3-2.27L199,250.19l3.17-.39.83-.09Z" transform="translate(-1 -8.41)" style="fill:#455a64"/><path d="M150.88,96.7l.68,8,7,2.85,8.09-7.86-5.35-3h-4l-3.53-1.25Z" transform="translate(-1 -8.41)" style="fill:#08d586"/><path d="M151.56,104.68s-21.41,55.72-24.41,81.94l8.72,19.31,9.31-13.7,13.56-85.88Z" transform="translate(-1 -8.41)" style="fill:#08d586"/><path d="M158.51,107.77A19.39,19.39,0,0,0,155.2,106a19,19,0,0,0-3.67-.82,8.53,8.53,0,0,1,7,2.63Z" transform="translate(-1 -8.41)" style="fill:#263238"/><path d="M161.61,96.73a8.15,8.15,0,0,1-1.18,1.33,25.64,25.64,0,0,1-3.3,2.74,26.78,26.78,0,0,1-3.7,2.19,7.36,7.36,0,0,1-1.65.66,13.61,13.61,0,0,1,1.55-.87,39.94,39.94,0,0,0,3.61-2.24,38.65,38.65,0,0,0,3.33-2.65A11.5,11.5,0,0,1,161.61,96.73Z" transform="translate(-1 -8.41)" style="fill:#263238"/><path d="M157.84,107.11a.86.86,0,0,1,0,.26q-.06.27-.15.75c-.14.67-.33,1.64-.59,2.88-.5,2.51-1.24,6.14-2.11,10.63-1.73,9-4,21.42-5.94,35.23-1,6.9-1.84,13.5-2.56,19.51-.36,3-.72,5.86-1.21,8.51a51.92,51.92,0,0,1-1.83,7.26,30.75,30.75,0,0,1-5.08,9.54,18.68,18.68,0,0,1-2.79,2.84s.06-.07.18-.19l.55-.53a24.94,24.94,0,0,0,1.95-2.2,31.09,31.09,0,0,0,5-9.53,53.22,53.22,0,0,0,1.79-7.24c.47-2.64.83-5.49,1.17-8.5.7-6,1.54-12.61,2.54-19.51,2-13.82,4.25-26.27,6-35.24.89-4.48,1.67-8.1,2.22-10.6.27-1.24.49-2.2.64-2.88.08-.31.14-.56.18-.74A1.24,1.24,0,0,1,157.84,107.11Z" transform="translate(-1 -8.41)" style="fill:#263238"/><path d="M151.54,139a14,14,0,0,1-1.1-1.85c-.65-1.16-1.57-2.75-2.62-4.47s-2.06-3.26-2.79-4.37a14.48,14.48,0,0,1-1.15-1.82,1.92,1.92,0,0,1,.39.43c.23.29.56.72.95,1.26.78,1.07,1.82,2.59,2.88,4.32s2,3.35,2.55,4.53c.3.59.53,1.08.69,1.42A2.58,2.58,0,0,1,151.54,139Z" transform="translate(-1 -8.41)" style="fill:#fafafa"/><path d="M147.55,163.32a4.18,4.18,0,0,1-.4-.73c-.26-.55-.59-1.23-1-2.05-.83-1.73-2-4.12-3.31-6.73s-2.56-5-3.47-6.66l-1.06-2a4.24,4.24,0,0,1-.36-.76,4.57,4.57,0,0,1,.46.69c.29.47.68,1.13,1.16,2,1,1.67,2.23,4,3.56,6.62s2.45,5,3.23,6.79c.39.88.7,1.59.9,2.09A4.44,4.44,0,0,1,147.55,163.32Z" transform="translate(-1 -8.41)" style="fill:#fafafa"/><path d="M144.9,184.85c-.07.05-3-4.5-6.43-10.15s-6.24-10.29-6.16-10.33,3,4.5,6.43,10.15S145,184.8,144.9,184.85Z" transform="translate(-1 -8.41)" style="fill:#fafafa"/><path d="M139.81,199.7c-.08.05-2.77-3.75-6-8.48s-5.81-8.62-5.74-8.67,2.77,3.74,6,8.48S139.88,199.65,139.81,199.7Z" transform="translate(-1 -8.41)" style="fill:#fafafa"/><path d="M154.27,123.88a7.48,7.48,0,0,1-1-1.14l-2.38-2.84c-.92-1.05-1.74-2-2.45-2.8a7.3,7.3,0,0,1-1-1.2,6.26,6.26,0,0,1,1.15,1c.67.68,1.58,1.64,2.52,2.75s1.76,2.14,2.32,2.91A7.59,7.59,0,0,1,154.27,123.88Z" transform="translate(-1 -8.41)" style="fill:#fafafa"/><path d="M152.64,108.83c-.09,0-.33-.36-.75-.71s-.83-.57-.81-.66.55,0,1,.41S152.72,108.81,152.64,108.83Z" transform="translate(-1 -8.41)" style="fill:#fafafa"/><path d="M153.52,110.88c-.07.06-.36-.12-.66-.42s-.48-.59-.42-.66.36.13.65.43S153.58,110.82,153.52,110.88Z" transform="translate(-1 -8.41)" style="fill:#fafafa"/><path d="M156.75,113.41a5.73,5.73,0,0,1-1.48-1.3,6.09,6.09,0,0,1-1.25-1.53,6.18,6.18,0,0,1,1.48,1.3A6.09,6.09,0,0,1,156.75,113.41Z" transform="translate(-1 -8.41)" style="fill:#fafafa"/><path d="M157,100.35c-.06.08-1.19-.9-2.78-1.78s-3-1.37-3-1.47a8.4,8.4,0,0,1,3.12,1.18A8.64,8.64,0,0,1,157,100.35Z" transform="translate(-1 -8.41)" style="fill:#fafafa"/><path d="M163,103c-.08.05-.74-.93-1.73-2s-1.92-1.77-1.86-1.85a6.29,6.29,0,0,1,2.1,1.62A6,6,0,0,1,163,103Z" transform="translate(-1 -8.41)" style="fill:#fafafa"/><path d="M151.57,112.84a23.41,23.41,0,0,1,1.21-3.73,23.42,23.42,0,0,1,1.51-3.61,23.14,23.14,0,0,1-1.21,3.72A23.2,23.2,0,0,1,151.57,112.84Z" transform="translate(-1 -8.41)" style="fill:#263238"/><path d="M152.39,117.67a9.69,9.69,0,0,1,.26-1.7c.21-1,.53-2.47.94-4s.82-3,1.15-4a8.79,8.79,0,0,1,.6-1.61A8.77,8.77,0,0,1,155,108l-1.06,4c-.38,1.51-.74,2.88-1,4A9.15,9.15,0,0,1,152.39,117.67Z" transform="translate(-1 -8.41)" style="fill:#263238"/><g style="opacity:0.30000001192092896"><g style="opacity:0.30000001192092896"><g style="opacity:0.30000001192092896"><path d="M152.21,105.28l0,.08c.39.1.62.22.65.62a2.89,2.89,0,0,1-.25,1.19l-1.26,3.5c-.11.3-.17.72.12.85s.54-.13.71-.37l1.47-2c-.23,1.13-.47,2.25-.7,3.37-.07.34-.11.75.16,1a.65.65,0,0,0,.77-.09,1.91,1.91,0,0,0,.41-.72l1-2.55a7,7,0,0,1,.86-1.73,2.53,2.53,0,0,1,1.57-1A9.39,9.39,0,0,0,152.21,105.28Z" transform="translate(-1 -8.41)" style="opacity:0.30000001192092896;isolation:isolate"/></g></g></g><path d="M147.87,89.6s0,.08,0,.22,0,.39.08.65c.06.61.14,1.44.25,2.48.21,2.18.5,5.24.85,8.93l-.27,0c.59-1.59,1.24-3.34,1.92-5.2l0-.06.06,0,2.85-1.26.06,0,.06,0,3.53,1.25h4l0,0,7.63,4.2-.19,0,7-8.85,2-2.51c.22-.27.41-.48.54-.65s.2-.22.21-.21l-.17.24-.5.69-1.94,2.56L169,101l-.08.1-.11-.07-7.64-4.17.07,0h-4l-3.54-1.26h.12L151,96.84l.08-.09c-.7,1.85-1.35,3.61-1.95,5.19l-.22.58-.05-.62c-.31-3.69-.55-6.75-.73-8.93-.07-1-.14-1.88-.18-2.49,0-.26,0-.48,0-.65A.68.68,0,0,1,147.87,89.6Z" transform="translate(-1 -8.41)" style="fill:#263238"/><path d="M105.54,266.37c-.35-1.39,9.82-52.66,9.82-52.66l54.42-7.78s22.09,13.45,22.78,24.58,5.83,35.85,5.83,35.85H145.72l-1.66-2.16-1.07,2Z" transform="translate(-1 -8.41)" style="fill:#263238"/><path d="M148.32,256.17a.62.62,0,0,1,0,.09,1.29,1.29,0,0,1-.06.26,2.26,2.26,0,0,1-.55.89,3.18,3.18,0,0,1-3.64.59,4.93,4.93,0,0,1-2-1.77,8.61,8.61,0,0,1-1.12-2.84c-.22-1-.35-2.16-.52-3.31s-.33-2.33-.5-3.55c-.65-4.84-1.24-9.23-1.68-12.46-.2-1.56-.35-2.84-.47-3.78-.05-.41-.08-.75-.12-1s0-.36,0-.36,0,.11.09.35.1.6.17,1c.14.93.34,2.21.57,3.77.46,3.22,1.08,7.6,1.78,12.44.17,1.22.33,2.4.49,3.55s.28,2.25.5,3.29a7.88,7.88,0,0,0,1.05,2.75,4.71,4.71,0,0,0,1.86,1.71,3.13,3.13,0,0,0,2,.26,3.08,3.08,0,0,0,1.41-.73A2.77,2.77,0,0,0,148.32,256.17Z" transform="translate(-1 -8.41)" style="fill:#455a64"/><path d="M143.76,225.34a1,1,0,0,1,.6-.09,2.13,2.13,0,0,1,1.44.78,2.41,2.41,0,0,1,.27,2.39,2.76,2.76,0,0,1-2.42,1.67,2.41,2.41,0,0,1-1.53-.43,2.6,2.6,0,0,1-.9-1.17,2.2,2.2,0,0,1-.11-1.33,2,2,0,0,1,.55-1,2.33,2.33,0,0,1,1.47-.72,1,1,0,0,1,.6.07s-.22,0-.58,0a2.35,2.35,0,0,0-1.32.75,1.94,1.94,0,0,0-.33,2.08,2.16,2.16,0,0,0,2.13,1.39,2.52,2.52,0,0,0,2.16-1.46,2.17,2.17,0,0,0-.18-2.14,2.05,2.05,0,0,0-1.27-.79C144,225.32,143.77,225.37,143.76,225.34Z" transform="translate(-1 -8.41)" style="fill:#455a64"/><path d="M179,81.09H150.3l-3.19,8.45-18.22,25L114.58,217.63,132.8,221a33.52,33.52,0,0,0,9.59.4l27.38-2.7.82-92,13.33-37Z" transform="translate(-1 -8.41)" style="fill:#f5f5f5"/><path d="M157.21,99.19s0,.11-.08.31-.14.51-.26.91c-.24.8-.58,2-1,3.46s-1,3.34-1.6,5.49-1.33,4.58-2,7.3-1.55,5.67-2.35,8.87-1.65,6.62-2.52,10.23c-1.69,7.23-3.41,15.2-5,23.61s-2.9,16.48-4,23.82c-.51,3.68-1,7.17-1.4,10.45s-.76,6.32-1.07,9.11-.55,5.32-.77,7.54-.39,4.13-.52,5.69-.25,2.77-.32,3.6c0,.41-.07.72-.09.94s0,.32,0,.32,0-.11,0-.32,0-.54,0-.94c.06-.84.15-2.06.25-3.6s.26-3.49.47-5.71.41-4.75.72-7.54.62-5.85,1-9.13.87-6.77,1.37-10.45c1.06-7.35,2.37-15.4,4-23.83s3.35-16.39,5.06-23.61c.88-3.61,1.7-7,2.55-10.23s1.63-6.17,2.38-8.87,1.47-5.14,2.09-7.28,1.18-4,1.66-5.48.83-2.64,1.08-3.45c.13-.39.22-.68.29-.9A2,2,0,0,1,157.21,99.19Z" transform="translate(-1 -8.41)" style="fill:#263238"/><path d="M122.87,209.47a24.43,24.43,0,0,0,.6,5.3,25.4,25.4,0,0,0,2,4.93,5.39,5.39,0,0,1-.92-1.29,14.38,14.38,0,0,1-1.91-7.36A5.13,5.13,0,0,1,122.87,209.47Z" transform="translate(-1 -8.41)" style="fill:#263238"/><path d="M124.47,220.09a3,3,0,0,1-1-.5,9.66,9.66,0,0,1-2.13-1.83,9.86,9.86,0,0,1-1.52-2.35,3.47,3.47,0,0,1-.36-1.11,19.45,19.45,0,0,0,2.13,3.25A20.46,20.46,0,0,0,124.47,220.09Z" transform="translate(-1 -8.41)" style="fill:#263238"/><path d="M146.65,210.39a5.82,5.82,0,0,1,.11,1.61,18.38,18.38,0,0,1-.51,3.86,16.91,16.91,0,0,1-1.35,3.66,5.77,5.77,0,0,1-.84,1.37,14,14,0,0,1,.64-1.47,24.72,24.72,0,0,0,1.24-3.63,23,23,0,0,0,.59-3.8A12.49,12.49,0,0,1,146.65,210.39Z" transform="translate(-1 -8.41)" style="fill:#263238"/><path d="M147.87,87.55S130.32,95,127.8,95.45s-11.37,2.69-11.37,2.69-6.8,12.16-6.17,19.12,5.37,56.85,5.37,56.85-7.73,43.11-7.9,46.27-6.79,33.33-5.52,33.17,7.1-6.63,7.1-6.63l19.27-106s5-24.32,8.85-32.22a202.63,202.63,0,0,1,10.44-18.16v-3Z" transform="translate(-1 -8.41)" style="fill:#263238"/><path d="M122.14,176.41a1.53,1.53,0,0,1,0-.25c0-.18,0-.42,0-.73,0-.66-.07-1.6-.13-2.81-.08-2.46-.22-6-.37-10.33s-.31-9.55-.44-15.33c-.06-2.88-.13-5.91-.13-9.05a42.68,42.68,0,0,1,1.59-9.61c1.38-5.34,3.12-10.34,4.78-15s3.36-8.85,4.92-12.57v0l0,0,4.88-4.08.11.19-3.59,1.41-.32.12.21-.27,4-5.11,1.08-1.35.29-.34a.59.59,0,0,1,.1-.11l-.08.12-.27.36c-.24.33-.6.79-1,1.38l-4,5.17-.11-.14,3.57-1.43.63-.25-.52.44-4.85,4.1,0,0c-1.54,3.71-3.2,8-4.87,12.57s-3.37,9.62-4.75,14.93a42.56,42.56,0,0,0-1.59,9.53c0,3.14,0,6.17.11,9.05.14,5.77.27,11,.37,15.33s.2,7.87.27,10.33c0,1.2,0,2.15.06,2.81,0,.31,0,.55,0,.73A.64.64,0,0,1,122.14,176.41Z" transform="translate(-1 -8.41)" style="fill:#455a64"/><path d="M116.43,98.14s-5.79,4.43-6.78,9.39-2.47,26-2.47,26-2.47,2.79-2.47,3.29-1.19,13.71-1.19,13.71L85,127.25,68.1,143.17S90,181.4,98.62,184.8c13.18,5.16,17.12-2.33,17.12-2.33l2-30.79Z" transform="translate(-1 -8.41)" style="fill:#263238"/><path d="M112.14,119.13s0,.06,0,.17,0,.3.08.5c.07.47.17,1.11.28,1.92.24,1.67.58,4.09,1,7.08.77,6,1.78,14.27,2.31,23.47.26,4.61.34,9,.29,13-.06,2-.08,3.9-.21,5.67-.06.89-.09,1.74-.16,2.56s-.14,1.61-.2,2.36c-.12,1.51-.31,2.86-.45,4.05-.08.6-.15,1.15-.22,1.66s-.15,1-.22,1.39c-.14.81-.25,1.45-.32,1.91,0,.2-.07.37-.1.5a1.37,1.37,0,0,1,0,.17s0-.06,0-.17,0-.3.07-.5c.06-.47.15-1.11.26-1.93.06-.42.13-.88.2-1.39s.11-1.07.18-1.66c.12-1.19.3-2.55.4-4,0-.75.11-1.54.18-2.36s.09-1.67.13-2.56c.11-1.77.13-3.67.18-5.66,0-4-.06-8.37-.31-13-.54-9.19-1.51-17.47-2.22-23.46-.36-3-.65-5.39-.86-7.09-.09-.82-.17-1.47-.22-1.93,0-.21,0-.37,0-.51A1.06,1.06,0,0,0,112.14,119.13Z" transform="translate(-1 -8.41)" style="fill:#455a64"/><path d="M108.75,168.86a3,3,0,0,1-.09-.75c0-.48-.08-1.18-.17-2a38.68,38.68,0,0,0-3.6-12.88c-.37-.78-.68-1.4-.91-1.83a3.54,3.54,0,0,1-.31-.68,3.6,3.6,0,0,1,.43.61c.26.41.6,1,1,1.79a33.88,33.88,0,0,1,3.62,13c0,.86.08,1.57.07,2A6.7,6.7,0,0,1,108.75,168.86Z" transform="translate(-1 -8.41)" style="fill:#455a64"/><path d="M110.84,164.23c-.06,0-.1-.91-.36-2.34a20.4,20.4,0,0,0-4.92-10c-1-1.08-1.67-1.66-1.63-1.7s.2.11.52.37a13.84,13.84,0,0,1,1.28,1.17A19,19,0,0,1,109,156.4a18.47,18.47,0,0,1,1.7,5.46,13.42,13.42,0,0,1,.15,1.72A2.84,2.84,0,0,1,110.84,164.23Z" transform="translate(-1 -8.41)" style="fill:#455a64"/><path d="M122.14,176.41a1.29,1.29,0,0,1,0,.19c0,.15-.05.33-.08.56-.08.51-.2,1.23-.36,2.15-.32,1.87-.79,4.56-1.36,7.86l-4.64,25.9c-1.84,10.11-3.51,19.25-4.73,25.89l-1.47,7.84c-.17.91-.31,1.62-.41,2.13l-.12.56a.5.5,0,0,1,0,.19,1.29,1.29,0,0,1,0-.19c0-.15,0-.33.08-.56.09-.51.21-1.23.36-2.14.32-1.88.79-4.56,1.36-7.87,1.2-6.65,2.83-15.8,4.64-25.91s3.52-19.24,4.73-25.89c.62-3.29,1.12-6,1.47-7.84.18-.91.31-1.62.41-2.13.06-.22.09-.41.12-.55S122.13,176.41,122.14,176.41Z" transform="translate(-1 -8.41)" style="fill:#455a64"/><path d="M180.61,84l-15.87,34.72s-8.23,22.51-8.85,25.3-8.84,38.33-8.84,38.33l5.43,52.62s.69,18.32,5.93,19.87,44.82-5.12,44.82-5.12l-6.52-43.93s-2.48-33.68-2.48-34.14,7.14-50.29,7.14-50.29l4.72-19.24-13.42-5.44Z" transform="translate(-1 -8.41)" style="fill:#263238"/><path d="M149.75,173.82a1,1,0,0,1,.09-.25c.08-.17.18-.41.31-.72.29-.63.71-1.55,1.25-2.71l4.68-9.93c4-8.37,9.52-19.92,15.63-32.67,4.69-9.73,9-18.76,12.6-26.11l.12.19h-5.75l.36-.22,5.34-3.33,0,.09c-.14-3.34-.24-6-.31-7.82,0-.89-.06-1.58-.07-2.07,0-.22,0-.4,0-.54v-.18a.5.5,0,0,1,0,.18c0,.14,0,.31,0,.53,0,.49.06,1.18.11,2.08.1,1.82.24,4.47.41,7.81v0l-.05,0-5.31,3.36-.06-.23h5.54l-.1.2c-3.53,7.36-7.87,16.39-12.54,26.14C159.78,153,150.53,172.2,149.75,173.82Z" transform="translate(-1 -8.41)" style="fill:#455a64"/><path d="M188.77,134.41a3.89,3.89,0,0,1-.75,0c-.47,0-1.16-.07-2-.11a54.33,54.33,0,0,0-6.62.1,53.76,53.76,0,0,0-6.55,1c-.83.17-1.5.32-2,.43a3.06,3.06,0,0,1-.73.13,3.12,3.12,0,0,1,.69-.26c.45-.14,1.11-.33,1.95-.53a42.3,42.3,0,0,1,6.57-1,44.59,44.59,0,0,1,6.66,0c.85.07,1.54.15,2,.22A2.66,2.66,0,0,1,188.77,134.41Z" transform="translate(-1 -8.41)" style="fill:#455a64"/><path d="M187.89,134.24c2.19.08-.38-6.64-1.38-9.89-.19-.61-.51-1.32-1.15-1.39a1.68,1.68,0,0,0-1.08.45c-4.27,3.17-7.84,7.46-11,11.71C173.24,135.12,183.32,134.07,187.89,134.24Z" transform="translate(-1 -8.41)" style="fill:#e0e0e0"/><path d="M154.89,184.8a9.15,9.15,0,0,1-3.06.79,8.8,8.8,0,0,1-3.17,0c0-.09,1.41-.12,3.12-.35S154.86,184.71,154.89,184.8Z" transform="translate(-1 -8.41)" style="fill:#455a64"/><path d="M195.88,205.93c0,.08-4.93.89-11,1.8s-11.09,1.56-11.11,1.47,4.94-.89,11.06-1.8S195.87,205.84,195.88,205.93Z" transform="translate(-1 -8.41)" style="fill:#455a64"/><path d="M172.24,247.72a.78.78,0,0,1-.09-.19c-.06-.15-.14-.33-.23-.56l-.87-2.16c-.37-.94-.82-2.09-1.31-3.44s-1.07-2.88-1.63-4.6-1.21-3.58-1.83-5.61-1.26-4.21-1.92-6.51c-1.26-4.61-2.52-9.72-3.61-15.11s-1.89-10.61-2.52-15.34c-.27-2.38-.56-4.63-.74-6.74s-.36-4.09-.48-5.89-.19-3.44-.26-4.87-.11-2.67-.12-3.68,0-1.77,0-2.33v-.6a1.66,1.66,0,0,1,0-.21.58.58,0,0,1,0,.21c0,.15,0,.35,0,.6,0,.56.06,1.33.1,2.33s.08,2.24.18,3.67.15,3.06.31,4.86.29,3.77.52,5.88.48,4.36.77,6.73c.63,4.73,1.45,9.91,2.53,15.31s2.34,10.5,3.58,15.1c.65,2.3,1.25,4.48,1.89,6.51s1.22,3.91,1.8,5.63,1.11,3.25,1.59,4.6.9,2.51,1.26,3.46L172,247c.08.24.15.42.2.57S172.24,247.71,172.24,247.72Z" transform="translate(-1 -8.41)" style="fill:#455a64"/><path d="M203.23,249.68l-.28,0-.82.13-3.17.45-11.65,1.62L170,254.27l-5,.67-2.58.35a9.52,9.52,0,0,1-2.68.14,5.72,5.72,0,0,1-4.33-3.2,6.77,6.77,0,0,1-.44-1.34c-.11-.46-.23-.91-.34-1.37-.23-.9-.47-1.81-.65-2.75a161.37,161.37,0,0,1-2.87-21.18c-.51-6.55-.87-12.45-1.29-17.39s-.88-8.94-1.25-11.7c-.18-1.37-.36-2.43-.46-3.16,0-.35-.09-.62-.11-.82a2.08,2.08,0,0,1,0-.29,2.52,2.52,0,0,1,.06.28c0,.2.09.47.15.82.12.72.32,1.78.52,3.15.41,2.75.91,6.75,1.36,11.69s.83,10.85,1.36,17.39a164.47,164.47,0,0,0,2.89,21.14c.18.92.42,1.84.64,2.74a18.1,18.1,0,0,0,.76,2.65,5.39,5.39,0,0,0,4.08,3,8.7,8.7,0,0,0,2.59-.14l2.59-.34,5-.66,17.3-2.27L199,250.19l3.17-.39.83-.09Z" transform="translate(-1 -8.41)" style="fill:#455a64"/><path d="M150.88,96.7l.68,8,7,2.85,8.09-7.86-5.35-3h-4l-3.53-1.25Z" transform="translate(-1 -8.41)" style="fill:#08d586"/><path d="M151.56,104.68s-21.41,55.72-24.41,81.94l8.72,19.31,9.31-13.7,13.56-85.88Z" transform="translate(-1 -8.41)" style="fill:#08d586"/><path d="M158.51,107.77A19.39,19.39,0,0,0,155.2,106a19,19,0,0,0-3.67-.82,8.53,8.53,0,0,1,7,2.63Z" transform="translate(-1 -8.41)" style="fill:#263238"/><path d="M161.61,96.73a8.15,8.15,0,0,1-1.18,1.33,25.64,25.64,0,0,1-3.3,2.74,26.78,26.78,0,0,1-3.7,2.19,7.36,7.36,0,0,1-1.65.66,13.61,13.61,0,0,1,1.55-.87,39.94,39.94,0,0,0,3.61-2.24,38.65,38.65,0,0,0,3.33-2.65A11.5,11.5,0,0,1,161.61,96.73Z" transform="translate(-1 -8.41)" style="fill:#263238"/><path d="M157.84,107.11a.86.86,0,0,1,0,.26q-.06.27-.15.75c-.14.67-.33,1.64-.59,2.88-.5,2.51-1.24,6.14-2.11,10.63-1.73,9-4,21.42-5.94,35.23-1,6.9-1.84,13.5-2.56,19.51-.36,3-.72,5.86-1.21,8.51a51.92,51.92,0,0,1-1.83,7.26,30.75,30.75,0,0,1-5.08,9.54,18.68,18.68,0,0,1-2.79,2.84s.06-.07.18-.19l.55-.53a24.94,24.94,0,0,0,1.95-2.2,31.09,31.09,0,0,0,5-9.53,53.22,53.22,0,0,0,1.79-7.24c.47-2.64.83-5.49,1.17-8.5.7-6,1.54-12.61,2.54-19.51,2-13.82,4.25-26.27,6-35.24.89-4.48,1.67-8.1,2.22-10.6.27-1.24.49-2.2.64-2.88.08-.31.14-.56.18-.74A1.24,1.24,0,0,1,157.84,107.11Z" transform="translate(-1 -8.41)" style="fill:#263238"/><path d="M151.54,139a14,14,0,0,1-1.1-1.85c-.65-1.16-1.57-2.75-2.62-4.47s-2.06-3.26-2.79-4.37a14.48,14.48,0,0,1-1.15-1.82,1.92,1.92,0,0,1,.39.43c.23.29.56.72.95,1.26.78,1.07,1.82,2.59,2.88,4.32s2,3.35,2.55,4.53c.3.59.53,1.08.69,1.42A2.58,2.58,0,0,1,151.54,139Z" transform="translate(-1 -8.41)" style="fill:#fafafa"/><path d="M147.55,163.32a4.18,4.18,0,0,1-.4-.73c-.26-.55-.59-1.23-1-2.05-.83-1.73-2-4.12-3.31-6.73s-2.56-5-3.47-6.66l-1.06-2a4.24,4.24,0,0,1-.36-.76,4.57,4.57,0,0,1,.46.69c.29.47.68,1.13,1.16,2,1,1.67,2.23,4,3.56,6.62s2.45,5,3.23,6.79c.39.88.7,1.59.9,2.09A4.44,4.44,0,0,1,147.55,163.32Z" transform="translate(-1 -8.41)" style="fill:#fafafa"/><path d="M144.9,184.85c-.07.05-3-4.5-6.43-10.15s-6.24-10.29-6.16-10.33,3,4.5,6.43,10.15S145,184.8,144.9,184.85Z" transform="translate(-1 -8.41)" style="fill:#fafafa"/><path d="M139.81,199.7c-.08.05-2.77-3.75-6-8.48s-5.81-8.62-5.74-8.67,2.77,3.74,6,8.48S139.88,199.65,139.81,199.7Z" transform="translate(-1 -8.41)" style="fill:#fafafa"/><path d="M154.27,123.88a7.48,7.48,0,0,1-1-1.14l-2.38-2.84c-.92-1.05-1.74-2-2.45-2.8a7.3,7.3,0,0,1-1-1.2,6.26,6.26,0,0,1,1.15,1c.67.68,1.58,1.64,2.52,2.75s1.76,2.14,2.32,2.91A7.59,7.59,0,0,1,154.27,123.88Z" transform="translate(-1 -8.41)" style="fill:#fafafa"/><path d="M152.64,108.83c-.09,0-.33-.36-.75-.71s-.83-.57-.81-.66.55,0,1,.41S152.72,108.81,152.64,108.83Z" transform="translate(-1 -8.41)" style="fill:#fafafa"/><path d="M153.52,110.88c-.07.06-.36-.12-.66-.42s-.48-.59-.42-.66.36.13.65.43S153.58,110.82,153.52,110.88Z" transform="translate(-1 -8.41)" style="fill:#fafafa"/><path d="M156.75,113.41a5.73,5.73,0,0,1-1.48-1.3,6.09,6.09,0,0,1-1.25-1.53,6.18,6.18,0,0,1,1.48,1.3A6.09,6.09,0,0,1,156.75,113.41Z" transform="translate(-1 -8.41)" style="fill:#fafafa"/><path d="M157,100.35c-.06.08-1.19-.9-2.78-1.78s-3-1.37-3-1.47a8.4,8.4,0,0,1,3.12,1.18A8.64,8.64,0,0,1,157,100.35Z" transform="translate(-1 -8.41)" style="fill:#fafafa"/><path d="M163,103c-.08.05-.74-.93-1.73-2s-1.92-1.77-1.86-1.85a6.29,6.29,0,0,1,2.1,1.62A6,6,0,0,1,163,103Z" transform="translate(-1 -8.41)" style="fill:#fafafa"/><path d="M151.57,112.84a23.41,23.41,0,0,1,1.21-3.73,23.42,23.42,0,0,1,1.51-3.61,23.14,23.14,0,0,1-1.21,3.72A23.2,23.2,0,0,1,151.57,112.84Z" transform="translate(-1 -8.41)" style="fill:#263238"/><path d="M152.39,117.67a9.69,9.69,0,0,1,.26-1.7c.21-1,.53-2.47.94-4s.82-3,1.15-4a8.79,8.79,0,0,1,.6-1.61A8.77,8.77,0,0,1,155,108l-1.06,4c-.38,1.51-.74,2.88-1,4A9.15,9.15,0,0,1,152.39,117.67Z" transform="translate(-1 -8.41)" style="fill:#263238"/><g style="opacity:0.30000001192092896"><g style="opacity:0.30000001192092896"><g style="opacity:0.30000001192092896"><path d="M152.21,105.28l0,.08c.39.1.62.22.65.62a2.89,2.89,0,0,1-.25,1.19l-1.26,3.5c-.11.3-.17.72.12.85s.54-.13.71-.37l1.47-2c-.23,1.13-.47,2.25-.7,3.37-.07.34-.11.75.16,1a.65.65,0,0,0,.77-.09,1.91,1.91,0,0,0,.41-.72l1-2.55a7,7,0,0,1,.86-1.73,2.53,2.53,0,0,1,1.57-1A9.39,9.39,0,0,0,152.21,105.28Z" transform="translate(-1 -8.41)" style="opacity:0.30000001192092896;isolation:isolate"/></g></g></g><path d="M147.87,89.6s0,.08,0,.22,0,.39.08.65c.06.61.14,1.44.25,2.48.21,2.18.5,5.24.85,8.93l-.27,0c.59-1.59,1.24-3.34,1.92-5.2l0-.06.06,0,2.85-1.26.06,0,.06,0,3.53,1.25h4l0,0,7.63,4.2-.19,0,7-8.85,2-2.51c.22-.27.41-.48.54-.65s.2-.22.21-.21l-.17.24-.5.69-1.94,2.56L169,101l-.08.1-.11-.07-7.64-4.17.07,0h-4l-3.54-1.26h.12L151,96.84l.08-.09c-.7,1.85-1.35,3.61-1.95,5.19l-.22.58-.05-.62c-.31-3.69-.55-6.75-.73-8.93-.07-1-.14-1.88-.18-2.49,0-.26,0-.48,0-.65A.68.68,0,0,1,147.87,89.6Z" transform="translate(-1 -8.41)" style="fill:#263238"/><path d="M137.71,41.7A5.42,5.42,0,0,1,135,33.15a11.54,11.54,0,0,0,1.82-2.28c.83-1.92-.67-4.14-.3-6.2s2.19-3.18,4-3.86,3.8-1.06,5.37-2.21,2.38-2.66,3.74-3.82a7.77,7.77,0,0,1,7-1.51c2.47.7,4.53,2.62,7.08,2.9,1.86.21,3.7-.48,5.56-.6a9.3,9.3,0,0,1,9.32,7,11.26,11.26,0,0,0,2,4.83c1.52,1.88,4.14,2.51,5.33,4.62a5.36,5.36,0,0,1,.07,4.2,14,14,0,0,0-1,4.19,5.11,5.11,0,0,0,4,4.78,5.18,5.18,0,0,1-2.64,3.15,5.85,5.85,0,0,0,3.12.73,10.3,10.3,0,0,1-13.7,6.14" transform="translate(-1 -8.41)" style="fill:#e0e0e0"/><path d="M178.61,50.85c.2-.1,8.23-2.59,8.11,5.64s-8.36,6.42-8.37,6.18S178.61,50.85,178.61,50.85Z" transform="translate(-1 -8.41)" style="fill:#f7b998"/><path d="M180.91,59.59s.14.1.38.22a1.41,1.41,0,0,0,1.07,0c.88-.3,1.63-1.67,1.69-3.16a4.71,4.71,0,0,0-.37-2.06,1.67,1.67,0,0,0-1.07-1.11.73.73,0,0,0-.85.37c-.11.23-.06.4-.1.41s-.18-.13-.11-.47a.89.89,0,0,1,.34-.51,1.05,1.05,0,0,1,.79-.2,2,2,0,0,1,1.48,1.3,4.89,4.89,0,0,1,.47,2.3c-.08,1.65-.95,3.2-2.14,3.52a1.51,1.51,0,0,1-1.31-.23C180.92,59.79,180.88,59.6,180.91,59.59Z" transform="translate(-1 -8.41)" style="fill:#eaa178"/><path d="M136.9,67.66c-.17-5.82.45-17.81,1.13-28.66a22.43,22.43,0,0,1,22-21l1.16,0c12.53.51,19.1,11.45,18.25,24l-1.09,41.34L156.89,96.57l-7.56-5.92V81.36S137.26,79.69,136.9,67.66Z" transform="translate(-1 -8.41)" style="fill:#f7b998"/><path d="M149.32,81.34a28,28,0,0,0,15.62-4.73s-3.47,8.86-15.51,8Z" transform="translate(-1 -8.41)" style="fill:#eaa178"/><path d="M142.29,47.28A1.72,1.72,0,0,0,144,49a1.65,1.65,0,0,0,1.75-1.58A1.72,1.72,0,0,0,144,45.7,1.65,1.65,0,0,0,142.29,47.28Z" transform="translate(-1 -8.41)" style="fill:#263238"/><path d="M161.07,47.07a1.72,1.72,0,0,0,1.69,1.71,1.66,1.66,0,0,0,1.74-1.59,1.72,1.72,0,0,0-1.69-1.7A1.63,1.63,0,0,0,161.07,47.07Z" transform="translate(-1 -8.41)" style="fill:#263238"/><path d="M140.62,45.36c.21.22,1.49-.77,3.35-.79s3.21.87,3.42.64-.13-.5-.73-.93a4.82,4.82,0,0,0-2.74-.79,4.55,4.55,0,0,0-2.66.91C140.7,44.86,140.51,45.26,140.62,45.36Z" transform="translate(-1 -8.41)" style="fill:#263238"/><path d="M159.21,44.61c.23.21,1.46-.85,3.3-1s3.26.67,3.45.43-.16-.49-.78-.88a4.73,4.73,0,0,0-2.79-.61,4.51,4.51,0,0,0-2.6,1.07C159.26,44.1,159.1,44.52,159.21,44.61Z" transform="translate(-1 -8.41)" style="fill:#263238"/><path d="M152.44,58.7a11.64,11.64,0,0,0-3-.49c-.47,0-.92-.13-1-.45a2.4,2.4,0,0,1,.29-1.41c.42-1.15.87-2.35,1.33-3.62,1.86-5.15,3.19-9.39,3-9.46s-1.88,4-3.73,9.2L148,56.11A2.77,2.77,0,0,0,147.8,58a1.18,1.18,0,0,0,.79.68,2.68,2.68,0,0,0,.81.09A12,12,0,0,0,152.44,58.7Z" transform="translate(-1 -8.41)" style="fill:#263238"/><path d="M157.91,59.88c-.31,0-.27,2-2,3.45s-3.84,1.28-3.85,1.55.49.39,1.39.39a5,5,0,0,0,3.21-1.18,4.4,4.4,0,0,0,1.52-2.89C158.27,60.37,158,59.87,157.91,59.88Z" transform="translate(-1 -8.41)" style="fill:#263238"/><path d="M158.39,36.78c.23.48,2.05,0,4.23.1s4,.45,4.24,0c.1-.23-.25-.67-1-1.08a7.31,7.31,0,0,0-6.45-.06C158.64,36.11,158.29,36.54,158.39,36.78Z" transform="translate(-1 -8.41)" style="fill:#e0e0e0"/><path d="M140.88,40.4c.33.41,1.6,0,3.13-.09s2.84.23,3.12-.21c.13-.22-.08-.63-.65-1a4.41,4.41,0,0,0-2.56-.64,4.3,4.3,0,0,0-2.48.89C140.9,39.76,140.73,40.19,140.88,40.4Z" transform="translate(-1 -8.41)" style="fill:#e0e0e0"/><path d="M151.18,17c4.2-1.83,8.54-1.1,13.08-.6A20.74,20.74,0,0,1,174,19.89c4.69,3.22,7.16,8.51,7.6,14.18a53.07,53.07,0,0,1-1.19,16.28l-.45-.09a7.79,7.79,0,0,1,.21,4.19c-.43,1.34-1.94,2.45-3.25,1.93-1.54-.61-1.67-2.7-1.58-4.35a119.42,119.42,0,0,0-.54-16.7c-.38-4.15-2.94-9.15-6.25-11-7.45-4.13-12.94,0-15.45,1-4.12-3.28-8.52-1.16-10.86,1.9C143,22.72,147,18.83,151.18,17Z" transform="translate(-1 -8.41)" style="fill:#e0e0e0"/><path d="M184.18,30.25c0,.26-.48.57-1.47.72a9.51,9.51,0,0,1-4.12-.46,22,22,0,0,1-5.35-2.66c-1.83-1.19-3.65-2.56-5.6-3.67a12.23,12.23,0,0,0-5.57-1.8,11.55,11.55,0,0,0-4.76.81c-2.68,1-4.05,2.51-4.52,2.17-.12-.07-.15-.25-.1-.52a3.31,3.31,0,0,1,.42-1.07,9,9,0,0,1,2.9-3,11.69,11.69,0,0,1,6-2,12.19,12.19,0,0,1,3.84.45,16.75,16.75,0,0,1,3.68,1.56,45.2,45.2,0,0,1,5.76,4.14A37,37,0,0,0,179.67,28a21.79,21.79,0,0,0,3.18,1.49C183.66,29.76,184.16,30,184.18,30.25Z" transform="translate(-1 -8.41)" style="fill:#fff"/><path d="M184.47,37a4.11,4.11,0,0,1-1.56.34,10.14,10.14,0,0,1-3.84-.46A9.86,9.86,0,0,1,175.7,35a4.27,4.27,0,0,1-1.08-1.19,12.27,12.27,0,0,1,1.25,1,11.57,11.57,0,0,0,3.32,1.73,12,12,0,0,0,3.71.56A13.73,13.73,0,0,1,184.47,37Z" transform="translate(-1 -8.41)" style="fill:#fff"/><path d="M188.09,45.2a1.78,1.78,0,0,1-.63-.14c-.39-.11-1-.32-1.64-.59a26,26,0,0,1-9.37-6.64c-.49-.56-.87-1-1.11-1.36a2,2,0,0,1-.35-.54s.63.66,1.66,1.71A31.93,31.93,0,0,0,181,41.36a32.23,32.23,0,0,0,4.94,2.86C187.26,44.83,188.11,45.14,188.09,45.2Z" transform="translate(-1 -8.41)" style="fill:#fff"/><path d="M159.4,15.35a19.61,19.61,0,0,1-1.79.81,10.88,10.88,0,0,0-3.75,2.73,6.64,6.64,0,0,0-1.6,4.23,8.57,8.57,0,0,0,.32,1.91s-.13-.14-.27-.46a4.61,4.61,0,0,1-.32-1.43,6.56,6.56,0,0,1,1.57-4.51,10.16,10.16,0,0,1,3.94-2.72A6.46,6.46,0,0,1,159.4,15.35Z" transform="translate(-1 -8.41)" style="fill:#fff"/><path d="M155,12.74s-.63.44-1.48,1.33a8.58,8.58,0,0,0-1.95,8.76c.39,1.16.83,1.79.77,1.83s-.15-.13-.35-.41a7.09,7.09,0,0,1-.68-1.32,8.4,8.4,0,0,1-.38-4.84,8.3,8.3,0,0,1,2.4-4.21,6.57,6.57,0,0,1,1.18-.9C154.75,12.79,154.93,12.71,155,12.74Z" transform="translate(-1 -8.41)" style="fill:#fff"/><path d="M180,52a5.58,5.58,0,0,1-4.65-3,24.31,24.31,0,0,0,2.14,1.82A27.57,27.57,0,0,0,180,52Z" transform="translate(-1 -8.41)" style="fill:#fff"/><path d="M180.5,53.61a4.83,4.83,0,0,1-3.07-.65,4.76,4.76,0,0,1-2.26-2.16,16,16,0,0,0,2.45,1.81A17,17,0,0,0,180.5,53.61Z" transform="translate(-1 -8.41)" style="fill:#fff"/><path d="M141.32,29.06a2.17,2.17,0,0,1-1.09-.38,5.5,5.5,0,0,1-2-2,5.35,5.35,0,0,1-.73-2.69,2,2,0,0,1,.21-1.13A9.37,9.37,0,0,1,137.8,24a6.36,6.36,0,0,0,.8,2.5,6.25,6.25,0,0,0,1.78,1.93C140.94,28.83,141.34,29,141.32,29.06Z" transform="translate(-1 -8.41)" style="fill:#fff"/><path d="M142.55,26.66a7.18,7.18,0,0,1-1.9-2.4,7.16,7.16,0,0,1-1.1-2.85c.11,0,.62,1.22,1.44,2.66S142.63,26.59,142.55,26.66Z" transform="translate(-1 -8.41)" style="fill:#fff"/><path d="M170.33,45c0,.08-.5.51-1.3.82a2.68,2.68,0,0,1-1.5.27,5.8,5.8,0,0,1,1.38-.58A6.11,6.11,0,0,1,170.33,45Z" transform="translate(-1 -8.41)" style="fill:#eaa178"/><path d="M171.63,46.8a5.17,5.17,0,0,1-1.8.05,5,5,0,0,1-1.78-.28,5.17,5.17,0,0,1,1.8,0A5,5,0,0,1,171.63,46.8Z" transform="translate(-1 -8.41)" style="fill:#eaa178"/><path d="M140.31,48.06c0,.09-.44.17-1,.17s-1-.07-1-.16.44-.17,1-.17S140.31,48,140.31,48.06Z" transform="translate(-1 -8.41)" style="fill:#eaa178"/><path d="M139.85,47.13c0,.07-.43-.07-.85-.32s-.72-.52-.67-.6.42.07.84.32S139.9,47.05,139.85,47.13Z" transform="translate(-1 -8.41)" style="fill:#eaa178"/><path d="M158.86,30.73c0,.05-.58.19-1.48.54s-2.1,1-3.47,1.56a9.71,9.71,0,0,1-3.74.88,4.54,4.54,0,0,1-1.16-.15,1.37,1.37,0,0,1-.41-.15c0-.06.6.12,1.56.06a10.52,10.52,0,0,0,3.62-.95c1.35-.58,2.58-1.17,3.52-1.47A4.92,4.92,0,0,1,158.86,30.73Z" transform="translate(-1 -8.41)" style="fill:#eaa178"/><path d="M156.42,30.46a8.92,8.92,0,0,1-3.66,1.23,8.82,8.82,0,0,1-3.86-.13,36.48,36.48,0,0,0,3.81-.2C154.79,31.07,156.38,30.36,156.42,30.46Z" transform="translate(-1 -8.41)" style="fill:#eaa178"/><path d="M160.23,60.35c-.09,0-.37-.67-1.15-1a3.68,3.68,0,0,0-1.51-.08s.12-.17.42-.27a1.91,1.91,0,0,1,1.22,0,1.85,1.85,0,0,1,.9.8C160.26,60.14,160.26,60.34,160.23,60.35Z" transform="translate(-1 -8.41)" style="fill:#eaa178"/><path d="M161.79,60c-.09,0-.27-.76-1.06-1.25a3.84,3.84,0,0,0-1.58-.46s.17-.14.51-.16a2,2,0,0,1,1.24.35,2.07,2.07,0,0,1,.83,1C161.84,59.76,161.82,60,161.79,60Z" transform="translate(-1 -8.41)" style="fill:#eaa178"/><path d="M143,53s.3,0,.85-.11a6.38,6.38,0,0,0,2.21-.79,6.52,6.52,0,0,0,1.32-1,6.8,6.8,0,0,0,1.13-1.57,6,6,0,0,0,.62-2.09c.08-.76,0-1.6,0-2.45l.15.15H135.13l.16-.15a20.39,20.39,0,0,0,.08,2.74,6.13,6.13,0,0,0,.87,2.29,6.22,6.22,0,0,0,3.11,2.53A7,7,0,0,0,142,53l.73,0,.25,0a.72.72,0,0,1-.25,0l-.73,0a6.92,6.92,0,0,1-2.71-.34,6.39,6.39,0,0,1-4.2-5A19.59,19.59,0,0,1,135,45v-.16h6.48l7.84,0h.15V45c0,.85,0,1.67-.07,2.48a6,6,0,0,1-.68,2.17,6.73,6.73,0,0,1-1.19,1.62,8,8,0,0,1-1.38,1,6,6,0,0,1-2.29.72,4,4,0,0,1-.64,0A.72.72,0,0,1,143,53Z" transform="translate(-1 -8.41)" style="fill:#455a64"/><path d="M162.92,53s.3,0,.84-.11a6.35,6.35,0,0,0,2.22-.79,6.52,6.52,0,0,0,1.32-1,6.8,6.8,0,0,0,1.13-1.57,6,6,0,0,0,.62-2.09c.07-.76,0-1.6,0-2.45l.15.15H155.08l.16-.15a18.86,18.86,0,0,0,.08,2.74,6.31,6.31,0,0,0,.87,2.29,6.22,6.22,0,0,0,3.11,2.53,7,7,0,0,0,2.64.42l.73,0,.25,0a.72.72,0,0,1-.25,0l-.73,0a6.92,6.92,0,0,1-2.71-.34,6.39,6.39,0,0,1-4.2-5,19.59,19.59,0,0,1-.11-2.78v-.16h6.48l7.83,0h.15V45c0,.85,0,1.67-.06,2.48a6,6,0,0,1-.68,2.17,6.75,6.75,0,0,1-1.2,1.62,7.31,7.31,0,0,1-1.38,1,5.91,5.91,0,0,1-2.29.72,4,4,0,0,1-.64,0A.72.72,0,0,1,162.92,53Z" transform="translate(-1 -8.41)" style="fill:#455a64"/><path d="M155,46.87s-.25-.29-.71-.65a3.37,3.37,0,0,0-4.16-.1c-.48.34-.7.65-.74.61s.12-.37.59-.79a3.29,3.29,0,0,1,4.46.1C154.87,46.48,155,46.85,155,46.87Z" transform="translate(-1 -8.41)" style="fill:#455a64"/><path d="M181.42,49.9a12.56,12.56,0,0,1-1.8-.36c-1.1-.24-2.63-.57-4.33-.89s-3.24-.55-4.36-.72a10.24,10.24,0,0,1-1.8-.33,10,10,0,0,1,1.83.1c1.13.11,2.69.31,4.4.63s3.23.69,4.32,1A9.65,9.65,0,0,1,181.42,49.9Z" transform="translate(-1 -8.41)" style="fill:#455a64"/><path d="M142.47,52.23a3.59,3.59,0,0,1-1.54-.12,7.31,7.31,0,0,1-3.32-1.72,6.31,6.31,0,0,1-1.87-3.24,3.37,3.37,0,0,1-.05-1.55c.05,0,0,.59.28,1.49a6.64,6.64,0,0,0,1.87,3.06A7.77,7.77,0,0,0,141,51.89C141.89,52.15,142.48,52.18,142.47,52.23Z" transform="translate(-1 -8.41)" style="fill:#fff"/><path d="M162.7,51.86a4.85,4.85,0,0,1-1.49-.16,8.19,8.19,0,0,1-3.34-1.39A4.81,4.81,0,0,1,156,47.23a3,3,0,0,1,0-1.11,1,1,0,0,1,.15-.38,6.24,6.24,0,0,0,.05,1.45A4.89,4.89,0,0,0,158.08,50a9.28,9.28,0,0,0,3.19,1.43A9.58,9.58,0,0,1,162.7,51.86Z" transform="translate(-1 -8.41)" style="fill:#fff"/><path d="M164.48,90.49s-.15,0-.36-.13a1.71,1.71,0,0,1-.59-.83,7.15,7.15,0,0,1-.29-1.45,1.9,1.9,0,0,0-.74-1.41,15.85,15.85,0,0,1-1.63-.75,2.38,2.38,0,0,1-.85-1.24,1.64,1.64,0,0,1,.07-1.36,3.26,3.26,0,0,0,.14,1.28,2.35,2.35,0,0,0,.82,1.08c.4.31,1,.35,1.62.71a1.64,1.64,0,0,1,.64.77,3.18,3.18,0,0,1,.22.87,7.76,7.76,0,0,0,.22,1.41A1.91,1.91,0,0,0,164.48,90.49Z" transform="translate(-1 -8.41)" style="fill:#eaa178"/><path d="M167.26,89.6a2,2,0,0,1-1.18-.77,3.14,3.14,0,0,1-.7-1.39,3.18,3.18,0,0,1,0-.93c0-.32.1-.63.11-.94a1.76,1.76,0,0,0-.79-1.44,7.94,7.94,0,0,1-.59-.57,1.87,1.87,0,0,1-.36-.66,1.18,1.18,0,0,1,.12-1.05c.17-.2.34-.21.34-.2s-.12.08-.24.27a1.13,1.13,0,0,0,0,.91,1.62,1.62,0,0,0,.34.55c.16.17.37.34.58.53a3.16,3.16,0,0,1,.64.67,1.74,1.74,0,0,1,.28,1c0,.36-.09.67-.12,1a2.61,2.61,0,0,0,0,.84,3,3,0,0,0,.58,1.3A6.09,6.09,0,0,0,167.26,89.6Z" transform="translate(-1 -8.41)" style="fill:#eaa178"/><path d="M83.59,129.35c-.26-.17-10-12-10-12s-.09-2.74-3.35-5.75S58.44,99.45,58.44,99.45l-9.7-1a2.59,2.59,0,0,0,0,3.09l.18.23c-.76-.1-3-.18-3.19,2.18-.17,2.83.69,3.69.69,3.69a12.58,12.58,0,0,0-1.12,4,11.4,11.4,0,0,0,.35,3.35,9.29,9.29,0,0,0,0,3.26,4.93,4.93,0,0,0,1.8,3.53,4.81,4.81,0,0,0-.43,3.6c.6,1.89,3,3.17,3,3.17A47.33,47.33,0,0,0,56,130.88c1.2.17,8.67,1.46,8.67,1.46l5.79,8.56Z" transform="translate(-1 -8.41)" style="fill:#f7b998"/><path d="M77.38,127.43a2.32,2.32,0,0,1-1.21-.3,5.17,5.17,0,0,1-1.14-.75A12,12,0,0,1,74,125.14a3.48,3.48,0,0,0-1.17-1,3.53,3.53,0,0,1-1.22-.63,1,1,0,0,1-.26-.91c.08-.23.23-.28.24-.26a.84.84,0,0,0-.11.29.87.87,0,0,0,.29.72,4,4,0,0,0,1.18.51,3.45,3.45,0,0,1,1.3,1.06,12.57,12.57,0,0,0,1,1.23,4.62,4.62,0,0,0,1,.76C76.93,127.28,77.39,127.37,77.38,127.43Z" transform="translate(-1 -8.41)" style="fill:#eaa178"/><path d="M78.67,126.7s0-.12-.19-.28a1.42,1.42,0,0,0-.77-.37,4.25,4.25,0,0,1-1.4-.3,1.18,1.18,0,0,1-.55-.72,4.77,4.77,0,0,1-.16-.89,1.53,1.53,0,0,0-.28-.74,2,2,0,0,0-.59-.46,4.17,4.17,0,0,1-1.18-.78,1.23,1.23,0,0,1-.37-.92c0-.24.14-.33.15-.32s0,.12,0,.32a1.12,1.12,0,0,0,.4.75,4.38,4.38,0,0,0,1.16.68,2,2,0,0,1,.7.53,1.85,1.85,0,0,1,.35.89c.08.61.13,1.18.54,1.41a4.85,4.85,0,0,0,1.3.32,1.34,1.34,0,0,1,.82.53C78.71,126.56,78.68,126.7,78.67,126.7Z" transform="translate(-1 -8.41)" style="fill:#eaa178"/><path d="M55.36,125.12l.4,19H51.4v-17l1-1.47Z" transform="translate(-1 -8.41)" style="fill:#455a64"/><path d="M48.46,100.93a24.31,24.31,0,0,0,2.1,1.55,11.58,11.58,0,0,0,6,1.67h.66l0,.2A7.56,7.56,0,0,0,58.36,110,12,12,0,0,0,60,111.79a2.51,2.51,0,0,1-.57-.36,7,7,0,0,1-1.28-1.32,7.53,7.53,0,0,1-1.2-2.46,7.44,7.44,0,0,1-.16-3.38l.17.2h-.46a11.16,11.16,0,0,1-6.08-1.8,9.92,9.92,0,0,1-1.51-1.21A3.4,3.4,0,0,1,48.46,100.93Z" transform="translate(-1 -8.41)" style="fill:#eaa178"/><path d="M46.45,107.54a1.09,1.09,0,0,1,.42-.19,5.26,5.26,0,0,1,1.24-.22,10.41,10.41,0,0,1,4.06.79A29.86,29.86,0,0,0,56,109.21a1.83,1.83,0,0,0,1.16-.13c.24-.14.35-.26.37-.25s-.06.17-.31.36a1.78,1.78,0,0,1-1.26.24,21.16,21.16,0,0,1-3.94-1.21,11.44,11.44,0,0,0-3.94-.85A13.55,13.55,0,0,0,46.45,107.54Z" transform="translate(-1 -8.41)" style="fill:#eaa178"/><path d="M45.8,114.86a1.52,1.52,0,0,1,.55-.32,4.07,4.07,0,0,1,1.71-.28c.74,0,1.59.2,2.54.29s2,.26,3.08.38a14.77,14.77,0,0,0,1.6.1c.25,0,.51,0,.75,0a2.51,2.51,0,0,0,.67-.15,4.28,4.28,0,0,0,1.13-.65,2,2,0,0,0,.42-.39,1.53,1.53,0,0,0,.2-.48,3.73,3.73,0,0,0,0-1.66,2.45,2.45,0,0,0-.22-.57s.22.13.35.54a3.51,3.51,0,0,1,.07,1.73,1.68,1.68,0,0,1-.22.57,1.87,1.87,0,0,1-.46.47,4.66,4.66,0,0,1-1.19.72,3.13,3.13,0,0,1-.76.18l-.77,0a15.26,15.26,0,0,1-1.63-.09c-1.1-.12-2.14-.3-3.09-.4s-1.8-.31-2.5-.36A5.09,5.09,0,0,0,45.8,114.86Z" transform="translate(-1 -8.41)" style="fill:#eaa178"/><path d="M47.62,121.75a1.67,1.67,0,0,1,.39-.49,2.1,2.1,0,0,1,.63-.43,3.36,3.36,0,0,1,1-.24l1.18-.11a11.5,11.5,0,0,1,1.36-.09c1,0,2,0,3.1,0a5.46,5.46,0,0,0,1.54-.21,2.08,2.08,0,0,0,1.1-.82,2.7,2.7,0,0,0,.3-2.31,4.56,4.56,0,0,0-.77-1.48,4.47,4.47,0,0,1-.37-.5s.2.12.48.42a4.36,4.36,0,0,1,.89,1.49,3,3,0,0,1-.27,2.55,2.41,2.41,0,0,1-1.25.95,5.59,5.59,0,0,1-1.63.24c-1.11,0-2.16,0-3.11,0-.47,0-.91,0-1.34.06l-1.17.07a2.57,2.57,0,0,0-1.54.53C47.79,121.6,47.65,121.77,47.62,121.75Z" transform="translate(-1 -8.41)" style="fill:#eaa178"/><path d="M50.22,125.62c0-.06.65.07,1.67,0a8.15,8.15,0,0,0,3.77-1.14A4.07,4.07,0,0,0,57.17,123a2.21,2.21,0,0,0,.2-1.66,1.71,1.71,0,0,0-.63-1c-.22-.17-.37-.22-.36-.25s.18,0,.44.14a1.85,1.85,0,0,1,.77,1,2.35,2.35,0,0,1-.14,1.87,4.26,4.26,0,0,1-1.61,1.63,7.77,7.77,0,0,1-3.93,1.09,6.74,6.74,0,0,1-1.23-.12A1.39,1.39,0,0,1,50.22,125.62Z" transform="translate(-1 -8.41)" style="fill:#eaa178"/><path d="M59.28,111.2a13,13,0,0,0-.48,2.57,9.71,9.71,0,0,0,1.67,5.93,10.66,10.66,0,0,0,4.9,3.8,18.37,18.37,0,0,0,2.52.69,2.14,2.14,0,0,1-.71,0,8.85,8.85,0,0,1-1.89-.45,10.35,10.35,0,0,1-5.09-3.83,9.55,9.55,0,0,1-1.64-6.13,7.44,7.44,0,0,1,.42-1.9A2,2,0,0,1,59.28,111.2Z" transform="translate(-1 -8.41)" style="fill:#eaa178"/><path d="M72.81,142.31H34.38v12H72.81Z" transform="translate(-1 -8.41)" style="fill:#455a64"/><path d="M40.68,142.43l-.25,0a3.12,3.12,0,0,0-.69,0,4.28,4.28,0,0,0-1,.24,10.8,10.8,0,0,0-1.16.49,8.31,8.31,0,0,1-1.16.47,4.85,4.85,0,0,1-1,.2,2.7,2.7,0,0,1-.69,0,1.57,1.57,0,0,1-.25-.06l.25,0a3.6,3.6,0,0,0,.69,0,4.2,4.2,0,0,0,1-.2,8.41,8.41,0,0,0,1.16-.48c.4-.18.8-.36,1.16-.49a4.93,4.93,0,0,1,1-.22,2.69,2.69,0,0,1,.7,0Z" transform="translate(-1 -8.41)" style="fill:#263238"/><path d="M36.69,145.43l-.36.07a6,6,0,0,0-.83.23,4.62,4.62,0,0,0-.79.36,2,2,0,0,1-.32.17l.08-.06.22-.14a3.93,3.93,0,0,1,.79-.37,4.94,4.94,0,0,1,.84-.23l.27,0C36.65,145.42,36.69,145.42,36.69,145.43Z" transform="translate(-1 -8.41)" style="fill:#263238"/><path d="M44.15,142.31l-.19,0a2.07,2.07,0,0,0-.48.12,3.52,3.52,0,0,0-.65.35c-.23.15-.47.35-.73.54a6.44,6.44,0,0,1-.76.52,2.41,2.41,0,0,1-.7.26,1.28,1.28,0,0,1-.5,0l-.18,0,.18,0a1.92,1.92,0,0,0,.49,0,3,3,0,0,0,.68-.27,5.56,5.56,0,0,0,.74-.52c.26-.2.5-.39.74-.54a2.77,2.77,0,0,1,.66-.34,2.83,2.83,0,0,1,.49-.12Z" transform="translate(-1 -8.41)" style="fill:#263238"/><path d="M48.94,144.26s0-.09,0-.26a1.38,1.38,0,0,0-1-1.28,2.35,2.35,0,0,0-1.25.07,10.5,10.5,0,0,0-2.14.86,5.1,5.1,0,0,0-.6.35l-.17.1-.05,0,.05,0L44,144a5.63,5.63,0,0,1,.6-.37,9.78,9.78,0,0,1,2.15-.88,2.41,2.41,0,0,1,1.27-.06,1.42,1.42,0,0,1,.81.64A1.38,1.38,0,0,1,49,144,.9.9,0,0,1,48.94,144.26Z" transform="translate(-1 -8.41)" style="fill:#263238"/><path d="M47.42,144.22a1.07,1.07,0,0,0-.21-.15,1.26,1.26,0,0,0-.59-.12,3.45,3.45,0,0,0-.61.12.91.91,0,0,1-.25.07L46,144a2.15,2.15,0,0,1,.62-.13,1.08,1.08,0,0,1,.61.14.49.49,0,0,1,.15.12S47.42,144.21,47.42,144.22Z" transform="translate(-1 -8.41)" style="fill:#263238"/><path d="M36.79,146.84l-.37.06a3.19,3.19,0,0,0-.84.3,3.65,3.65,0,0,0-.73.51c-.17.16-.26.28-.27.27l.06-.08a2.31,2.31,0,0,1,.18-.21,3.29,3.29,0,0,1,.73-.54,3.15,3.15,0,0,1,.86-.28l.27,0Z" transform="translate(-1 -8.41)" style="fill:#263238"/><path d="M38,154.27l.09,0,.27-.09a3.2,3.2,0,0,0,.89-.5,1.41,1.41,0,0,0,.41-.56,1.74,1.74,0,0,0,0-.79,2.78,2.78,0,0,0-.9-1.58,3.7,3.7,0,0,0-1.65-.81,5,5,0,0,0-1.51-.1,7.9,7.9,0,0,0-1,.13l-.28,0h-.09l.09,0,.27-.06a9.71,9.71,0,0,1,1-.14,5.51,5.51,0,0,1,1.53.09,3.68,3.68,0,0,1,1.67.82,2.76,2.76,0,0,1,.91,1.6,1.68,1.68,0,0,1,0,.81,1.53,1.53,0,0,1-.42.58,3.31,3.31,0,0,1-.91.49Z" transform="translate(-1 -8.41)" style="fill:#263238"/><path d="M36.06,153a.77.77,0,0,0-.32-.19.87.87,0,0,0-.43,0,.61.61,0,0,0-.4.37.56.56,0,0,0,.14.63,1,1,0,0,0,.76.14,2.29,2.29,0,0,0,1.49-1,1.19,1.19,0,0,0,.22-.9.87.87,0,0,0-.49-.68,1.56,1.56,0,0,0-.79-.1,4.53,4.53,0,0,0-.69.11,4,4,0,0,0-.95.36l-.25.13-.08,0a2.83,2.83,0,0,1,.32-.19,4.12,4.12,0,0,1,.95-.38,3.64,3.64,0,0,1,.7-.12,1.65,1.65,0,0,1,.81.1.91.91,0,0,1,.51.71,1.25,1.25,0,0,1-.22.93,2.29,2.29,0,0,1-1.53,1,1,1,0,0,1-.79-.15.58.58,0,0,1-.14-.67.6.6,0,0,1,.43-.38.8.8,0,0,1,.44,0,1.17,1.17,0,0,1,.24.14Z" transform="translate(-1 -8.41)" style="fill:#263238"/><path d="M51.72,151.83a2.64,2.64,0,0,1-.46.17,6.61,6.61,0,0,1-1.3.24,12.88,12.88,0,0,1-2,0c-.74,0-1.55-.13-2.41-.12a8.08,8.08,0,0,0-2.37.34,8.25,8.25,0,0,0-1.8.76,7.56,7.56,0,0,0-1.09.75,2.91,2.91,0,0,0-.28.24l-.09.08a4.16,4.16,0,0,1,.36-.33,7.28,7.28,0,0,1,1.08-.76,7.68,7.68,0,0,1,1.81-.78,8.1,8.1,0,0,1,2.38-.34c.86,0,1.67.08,2.41.12a14.46,14.46,0,0,0,2,0,7.79,7.79,0,0,0,1.3-.22l.35-.11Z" transform="translate(-1 -8.41)" style="fill:#263238"/><path d="M54.17,153.23H54l-.57,0-.89,0a1.09,1.09,0,0,1-.56-.05.19.19,0,0,1-.1-.27.48.48,0,0,1,.27-.19,13.26,13.26,0,0,1,3.07-.31.72.72,0,0,1,.44.12.32.32,0,0,1,.07.43.89.89,0,0,1-.36.31l-.21.11-.22.09a5.34,5.34,0,0,1-1.92.38,17.2,17.2,0,0,1-3.74-.53,10.42,10.42,0,0,0-3.07-.28,4.93,4.93,0,0,0-2,.6,3.05,3.05,0,0,0-.47.32l-.15.12.15-.13a3.42,3.42,0,0,1,.46-.32,4.8,4.8,0,0,1,2-.62,10.29,10.29,0,0,1,3.07.26,17.2,17.2,0,0,0,3.74.53,5.45,5.45,0,0,0,1.91-.37l.22-.1.2-.1a.9.9,0,0,0,.34-.3.28.28,0,0,0-.07-.38.77.77,0,0,0-.4-.11,13.24,13.24,0,0,0-3.07.3.38.38,0,0,0-.25.17.19.19,0,0,0,.08.24,1.3,1.3,0,0,0,.55.05l.89,0h.77Z" transform="translate(-1 -8.41)" style="fill:#263238"/><path d="M61.11,152l-.06,0-.16,0c-.14.05-.35.13-.6.24-.5.21-1.16.58-1.89,1-.37.19-.73.37-1.06.51a6.14,6.14,0,0,1-.91.31,4.65,4.65,0,0,1-.88.14h.07l.17,0a1.47,1.47,0,0,0,.27,0c.11,0,.23,0,.36-.08a6.62,6.62,0,0,0,.9-.32c.33-.15.69-.33,1.06-.52a20,20,0,0,1,1.9-1A5.53,5.53,0,0,1,61.11,152Z" transform="translate(-1 -8.41)" style="fill:#263238"/><path d="M67.18,152.31h-.09c-.06,0-.14,0-.24,0l-.37-.05-.51-.05a10,10,0,0,0-2.9.28,12.42,12.42,0,0,0-1.53.52,8.71,8.71,0,0,0-1.16.62c-.16.09-.3.19-.42.27a3.78,3.78,0,0,0-.31.22l-.2.15-.07.05a7.44,7.44,0,0,1,1-.72,8.71,8.71,0,0,1,1.16-.62,12.39,12.39,0,0,1,1.53-.53,10,10,0,0,1,1.6-.26,9.65,9.65,0,0,1,1.32,0A7.74,7.74,0,0,1,67.18,152.31Z" transform="translate(-1 -8.41)" style="fill:#263238"/><path d="M72.4,146.8l-.11.07c-.08,0-.19.11-.31.2a5.48,5.48,0,0,0-1.08.83,2.82,2.82,0,0,0-.53.78,1.91,1.91,0,0,0-.17,1c0,.38.2.76.27,1.17a1.49,1.49,0,0,1,0,.63,1.07,1.07,0,0,1-.33.57,3.47,3.47,0,0,1-1.15.58l-1.12.43a3.4,3.4,0,0,0-.51.22.71.71,0,0,0-.34.37.43.43,0,0,0,.07.44.62.62,0,0,0,.4.15,8.72,8.72,0,0,0,1.36-.1l.37-.05.13,0-.5.1a8.61,8.61,0,0,1-1.36.11.58.58,0,0,1-.43-.15.46.46,0,0,1-.08-.48.75.75,0,0,1,.35-.4,4.06,4.06,0,0,1,.52-.22l1.12-.44a3.65,3.65,0,0,0,1.13-.57,1,1,0,0,0,.32-.54,1.61,1.61,0,0,0,0-.62c-.07-.41-.22-.79-.27-1.18a2,2,0,0,1,.18-1.07,3,3,0,0,1,.54-.78A6.27,6.27,0,0,1,72,147l.32-.19Z" transform="translate(-1 -8.41)" style="fill:#263238"/><path d="M72.47,154.34l0-.05a1,1,0,0,1-.09-.15,4.83,4.83,0,0,1-.29-.57,5.21,5.21,0,0,1-.52-2,3.37,3.37,0,0,1,.59-2,3.54,3.54,0,0,1,.44-.47l.19-.13-.18.15a2.73,2.73,0,0,0-.42.48,3.25,3.25,0,0,0-.57,2,5.4,5.4,0,0,0,.49,2c.11.24.21.44.28.57l.08.15Z" transform="translate(-1 -8.41)" style="fill:#263238"/><path d="M51.57,145.56a1.39,1.39,0,0,0,.34-.54,1.44,1.44,0,0,0,.06-.67,1.7,1.7,0,0,0-.31-.77,3.26,3.26,0,0,0-1.16-1l-.43-.21-.15-.07h0l.12,0,.42.2a3,3,0,0,1,1.2,1,1.83,1.83,0,0,1,.3.8,1.39,1.39,0,0,1-.07.69,1.26,1.26,0,0,1-.24.4Z" transform="translate(-1 -8.41)" style="fill:#263238"/><path d="M72.81,146l-.17-.13a5.18,5.18,0,0,0-.54-.33,5.57,5.57,0,0,0-2.22-.6,12.36,12.36,0,0,0-3.42.35c-.63.13-1.29.28-2,.41a21.08,21.08,0,0,1-2.17.27,21.72,21.72,0,0,1-4.22-.08,10.58,10.58,0,0,1-1.8-.39,4.43,4.43,0,0,1-1.41-.77,5.22,5.22,0,0,1-.88-1,6.62,6.62,0,0,0-.62-.79,2.5,2.5,0,0,0-.47-.41l-.14-.08,0,0,.19.1a2.18,2.18,0,0,1,.49.41,6.62,6.62,0,0,1,.62.78,4.61,4.61,0,0,0,.88,1,4.07,4.07,0,0,0,1.4.75,10.25,10.25,0,0,0,1.79.39,22.43,22.43,0,0,0,4.21.08,21.43,21.43,0,0,0,2.17-.27c.69-.12,1.36-.28,2-.41a12.39,12.39,0,0,1,3.43-.34,5.59,5.59,0,0,1,2.23.62,4.16,4.16,0,0,1,.53.34Z" transform="translate(-1 -8.41)" style="fill:#263238"/><path d="M64.11,143.57s-.47,0-1.31.08a13.31,13.31,0,0,1-1.51,0,7,7,0,0,1-1.93-.39l-.06,0h.07a15.32,15.32,0,0,1,6,0,.8.8,0,0,1,.51.23.35.35,0,0,1,.05.28.49.49,0,0,1-.15.24,1,1,0,0,1-.51.2l-.53.08c-.69.11-1.36.2-2,.25a9.15,9.15,0,0,1-3.41-.29,5.46,5.46,0,0,1-2-1.09,4.35,4.35,0,0,1-.44-.45l-.14-.17.15.17a5.93,5.93,0,0,0,.44.44,5.62,5.62,0,0,0,2,1.07,9.31,9.31,0,0,0,3.4.28c.64-.05,1.31-.14,2-.25l.52-.08a1,1,0,0,0,.48-.19.35.35,0,0,0,.1-.46.73.73,0,0,0-.48-.21,15.27,15.27,0,0,0-6,0v0a7.28,7.28,0,0,0,1.92.39,13.45,13.45,0,0,0,1.5,0l1,0Z" transform="translate(-1 -8.41)" style="fill:#263238"/><path d="M72.73,143.88a7.55,7.55,0,0,1-.94.05,9.39,9.39,0,0,1-4.35-1.13,8.34,8.34,0,0,1-.8-.49l.06,0,.16.09a6,6,0,0,0,.59.34,10.38,10.38,0,0,0,2.11.81,10.53,10.53,0,0,0,2.23.32h.94Z" transform="translate(-1 -8.41)" style="fill:#263238"/><path d="M72.73,142.86l-.11,0-.3,0a6.39,6.39,0,0,1-1,0,7.73,7.73,0,0,1-1-.15l-.28-.08-.1,0,.11,0,.29.07c.24,0,.58.1,1,.14a8.33,8.33,0,0,0,1,0h.3C72.69,142.85,72.73,142.85,72.73,142.86Z" transform="translate(-1 -8.41)" style="fill:#263238"/><path d="M69.41,144.55H37.68v7.64H69.41Z" transform="translate(-1 -8.41)" style="fill:#f5f5f5"/><path d="M69.41,145.81l0,.1c0,.08-.08.17-.14.28a4.15,4.15,0,0,1-.24.43c-.1.16-.2.36-.34.55s-.29.43-.46.65-.37.45-.58.69a13.2,13.2,0,0,1-1.53,1.4A11,11,0,0,1,64.32,151c-.29.14-.55.28-.82.38l-.38.15-.36.12c-.23.08-.44.13-.62.18s-.35.09-.48.12l-.3.06-.11,0,.11,0,.3-.07a3,3,0,0,0,.47-.12c.18-.05.4-.1.62-.18l.36-.13c.12,0,.24-.1.38-.16s.52-.24.81-.38a12.83,12.83,0,0,0,1.75-1.1,13.06,13.06,0,0,0,1.52-1.4c.21-.24.41-.47.58-.7s.32-.43.46-.63.25-.39.35-.55l.25-.43c.05-.11.1-.2.14-.27A.37.37,0,0,1,69.41,145.81Z" transform="translate(-1 -8.41)" style="fill:#e0e0e0"/><path d="M69.27,150.47l0,0-.14,0a3.32,3.32,0,0,0-.5.08A8.9,8.9,0,0,0,67,151a9,9,0,0,0-1.5.75l-.42.28-.11.07,0,0,0,0,.11-.09.41-.29A9,9,0,0,1,67,151a8.09,8.09,0,0,1,1.61-.44l.5-.06h.14Z" transform="translate(-1 -8.41)" style="fill:#e0e0e0"/><path d="M64.61,148.16l-.2.11a1.36,1.36,0,0,1-.62.17.71.71,0,0,1-.43-.17.49.49,0,0,1-.15-.51,1.35,1.35,0,0,1,.37-.52,5.06,5.06,0,0,1,.54-.47,5,5,0,0,1,1.45-.75,5,5,0,0,1,.89-.2,1.29,1.29,0,0,1,.48,0,.82.82,0,0,1,.44.21.64.64,0,0,1,.19.47,1.11,1.11,0,0,1-.17.49,5.65,5.65,0,0,1-.64.84,8.22,8.22,0,0,1-.79.77,8.9,8.9,0,0,1-.92.65,7.62,7.62,0,0,1-2,.87,7.72,7.72,0,0,1-1,.19,1.81,1.81,0,0,1-1-.15,1,1,0,0,1-.57-.75,1.76,1.76,0,0,1,.18-.89,7.92,7.92,0,0,1,.82-1.42A8,8,0,0,1,63,145.43a7,7,0,0,1,.71-.48l-.19.12-.52.38a8,8,0,0,0-1.63,1.69,8.16,8.16,0,0,0-.81,1.41,1.62,1.62,0,0,0-.17.87,1,1,0,0,0,.55.72,1.8,1.8,0,0,0,1,.14,7.67,7.67,0,0,0,1-.18,8.25,8.25,0,0,0,2-.87,7.48,7.48,0,0,0,.91-.65,8.13,8.13,0,0,0,.79-.76,5.58,5.58,0,0,0,.63-.84,1,1,0,0,0,.16-.47.6.6,0,0,0-.17-.44,1.14,1.14,0,0,0-.89-.22,5,5,0,0,0-.89.19,5.13,5.13,0,0,0-1.44.74,5,5,0,0,0-.54.46,1.33,1.33,0,0,0-.36.51.48.48,0,0,0,.13.49.81.81,0,0,0,.43.16,1.31,1.31,0,0,0,.61-.16A1,1,0,0,0,64.61,148.16Z" transform="translate(-1 -8.41)" style="fill:#e0e0e0"/><path d="M61.24,144.89a1.71,1.71,0,0,1,0,.37,3.57,3.57,0,0,1-.3,1,5.37,5.37,0,0,1-.84,1.25,10.63,10.63,0,0,1-1.38,1.25c-.51.4-1,.77-1.45,1.14a7.65,7.65,0,0,0-1.07,1.05,5.67,5.67,0,0,0-.57.84,1.73,1.73,0,0,0-.12.25l0,.08a2.94,2.94,0,0,1,.15-.34,4.81,4.81,0,0,1,.56-.85,8.28,8.28,0,0,1,1.07-1.07c.43-.37.94-.73,1.45-1.14a10.51,10.51,0,0,0,1.38-1.22,5.58,5.58,0,0,0,.84-1.25,3.84,3.84,0,0,0,.31-1c0-.12,0-.21,0-.28Z" transform="translate(-1 -8.41)" style="fill:#e0e0e0"/><path d="M47,152.07a12.65,12.65,0,0,1,2.16-.55c.68-.13,1.49-.25,2.38-.43.45-.09.92-.19,1.4-.33a11,11,0,0,0,1.43-.55,9.52,9.52,0,0,0,1.33-.75,11.32,11.32,0,0,0,1.14-.86,10.73,10.73,0,0,0,1.62-1.79,9.79,9.79,0,0,0,.84-1.4c.09-.17.15-.31.19-.4l.07-.14-.24.54a11.24,11.24,0,0,1-.83,1.41,10.08,10.08,0,0,1-1.63,1.8,11.64,11.64,0,0,1-1.13.88,10.92,10.92,0,0,1-1.35.75,9.26,9.26,0,0,1-1.43.54c-.48.14-.95.25-1.39.34-.9.17-1.72.29-2.39.41s-1.22.26-1.6.36l-.42.12Z" transform="translate(-1 -8.41)" style="fill:#e0e0e0"/><path d="M43.54,150.1V150a.55.55,0,0,1,.05-.22,1.51,1.51,0,0,1,.49-.71,3.74,3.74,0,0,1,1.2-.65,5.54,5.54,0,0,1,1.79-.33,6.6,6.6,0,0,1,1.06.09,2.21,2.21,0,0,1,.54.16,1.09,1.09,0,0,1,.46.36.71.71,0,0,1,.14.58,1,1,0,0,1-.34.53,2.43,2.43,0,0,1-.56.33l-.6.27a14.59,14.59,0,0,1-2.67.82c-.48.09-1,.17-1.46.22-.26,0-.51,0-.76.05a2.25,2.25,0,0,1-.77-.08,1.14,1.14,0,0,1-.61-.47,1.44,1.44,0,0,1-.22-.72,2,2,0,0,1,.54-1.36A4.76,4.76,0,0,1,42.9,148a6.77,6.77,0,0,1,1.2-.67,11.11,11.11,0,0,1,2.41-.75c.79-.15,1.52-.23,2.19-.29s1.29,0,1.81-.12a2.83,2.83,0,0,0,1.28-.45,1.55,1.55,0,0,0,.58-.63.81.81,0,0,0,.09-.21l0-.07a1.09,1.09,0,0,1-.11.28,1.81,1.81,0,0,1-.58.65,2.93,2.93,0,0,1-1.29.45c-.53.07-1.14.07-1.81.13a19.49,19.49,0,0,0-2.19.29,11,11,0,0,0-2.4.75,7.06,7.06,0,0,0-1.19.67,5.49,5.49,0,0,0-1.07.92,2,2,0,0,0-.53,1.33,1.48,1.48,0,0,0,.22.71,1.09,1.09,0,0,0,.58.45,2.7,2.7,0,0,0,.75.08l.76-.05a13.87,13.87,0,0,0,1.46-.22,14.35,14.35,0,0,0,2.67-.82,4.92,4.92,0,0,0,1.14-.59,1,1,0,0,0,.33-.5.74.74,0,0,0-.13-.56,1.54,1.54,0,0,0-1-.51,5.41,5.41,0,0,0-2.82.23,4,4,0,0,0-1.21.64,1.49,1.49,0,0,0-.49.7.55.55,0,0,0-.05.22Z" transform="translate(-1 -8.41)" style="fill:#e0e0e0"/><path d="M47.23,144.73l-.42.23c-.27.15-.67.34-1.17.56s-1.11.46-1.78.73a18.12,18.12,0,0,0-2.12,1,7.57,7.57,0,0,0-1.84,1.45,5.37,5.37,0,0,0-1,1.62,4.08,4.08,0,0,0-.27,1.26v.47a1.09,1.09,0,0,0,0-.12,3.33,3.33,0,0,1,0-.35,4,4,0,0,1,.26-1.26,5.37,5.37,0,0,1,1-1.64,7.63,7.63,0,0,1,1.85-1.45,16.86,16.86,0,0,1,2.13-1l1.78-.72c.51-.22.9-.41,1.18-.54l.31-.17Z" transform="translate(-1 -8.41)" style="fill:#e0e0e0"/><path d="M38.05,146.84h.05l.15,0,.55-.12a8.39,8.39,0,0,0,1.75-.63,8.61,8.61,0,0,0,1.57-1c.19-.14.34-.27.44-.36l.11-.1,0,0,0,0-.11.11c-.09.09-.24.22-.42.37a8.19,8.19,0,0,1-3.33,1.63l-.56.11-.15,0Z" transform="translate(-1 -8.41)" style="fill:#e0e0e0"/><path d="M46.07,146.88V147a.53.53,0,0,0-.32.09c-.06,0-.09.16-.09.33v2a1,1,0,0,1-.26.76,1,1,0,0,1-.74.27.81.81,0,0,1-.55-.18.51.51,0,0,1-.21-.39.33.33,0,0,1,.33-.36.28.28,0,0,1,.22.09.31.31,0,0,1,.09.22.54.54,0,0,1,0,.22c0,.07-.06.1-.06.12a.12.12,0,0,0,0,.1.28.28,0,0,0,.13,0,.3.3,0,0,0,.27-.13.61.61,0,0,0,0-.27v-2.54c0-.14,0-.23-.14-.27a.72.72,0,0,0-.32-.05v-.12Z" transform="translate(-1 -8.41)" style="fill:#263238"/><path d="M47.79,146.88V147a.68.68,0,0,0-.36.08.49.49,0,0,0-.08.33v1.54a1.34,1.34,0,0,0,.08.54.57.57,0,0,0,.57.35.71.71,0,0,0,.71-.39,1.41,1.41,0,0,0,.1-.6v-1.4a.36.36,0,0,0-.44-.45v-.11h1V147a.49.49,0,0,0-.28.11c-.05,0-.07.13-.07.28v1.46a1.3,1.3,0,0,1-.29.9,1.09,1.09,0,0,1-.88.32,1.19,1.19,0,0,1-1.08-.47,1.28,1.28,0,0,1-.15-.65v-1.53c0-.17,0-.28-.07-.32a.51.51,0,0,0-.31-.09v-.12Z" transform="translate(-1 -8.41)" style="fill:#263238"/><path d="M49.63,148.9h.14a1.32,1.32,0,0,0,.35.74.76.76,0,0,0,.56.24.54.54,0,0,0,.43-.16.52.52,0,0,0,.13-.34.42.42,0,0,0-.13-.33,1.8,1.8,0,0,0-.36-.22l-.29-.15a1.74,1.74,0,0,1-.61-.43.81.81,0,0,1-.18-.53,1,1,0,0,1,.23-.62.87.87,0,0,1,.73-.29,1.55,1.55,0,0,1,.48.07l.26.08c.05,0,.08,0,.1-.05a.58.58,0,0,0,.05-.11h.13v1h-.12a1.29,1.29,0,0,0-.32-.6.69.69,0,0,0-.54-.25.51.51,0,0,0-.36.12.43.43,0,0,0,0,.63,2.76,2.76,0,0,0,.54.32l.34.17a1.28,1.28,0,0,1,.36.26.84.84,0,0,1,.25.62.94.94,0,0,1-.27.66,1.08,1.08,0,0,1-.86.31l-.28,0a1.38,1.38,0,0,1-.27-.08l-.09,0h-.11s-.08,0-.09.05a.23.23,0,0,0,0,.11h-.13V148.9Z" transform="translate(-1 -8.41)" style="fill:#263238"/><path d="M52.13,146.88h2.76v.92h-.13a.81.81,0,0,0-.37-.67,1.22,1.22,0,0,0-.52-.11v2.41a.43.43,0,0,0,.09.33.54.54,0,0,0,.37.08V150H52.69v-.12a.53.53,0,0,0,.36-.08.45.45,0,0,0,.09-.33V147a1.35,1.35,0,0,0-.52.11.77.77,0,0,0-.37.67h-.13Z" transform="translate(-1 -8.41)" style="fill:#263238"/><path d="M55.14,149.85a.88.88,0,0,0,.28,0,.29.29,0,0,0,.13-.28v-2.22a.27.27,0,0,0-.13-.27.77.77,0,0,0-.28,0v-.11h1.6V147a.86.86,0,0,0-.3,0,.27.27,0,0,0-.13.27v2.22a.3.3,0,0,0,.11.26.65.65,0,0,0,.32.06V150h-1.6v-.11Z" transform="translate(-1 -8.41)" style="fill:#263238"/><path d="M59.19,146.93a1.66,1.66,0,0,0,.33.1.17.17,0,0,0,.14-.07.31.31,0,0,0,.06-.13h.12v1.07h-.11a2.4,2.4,0,0,0-.33-.55,1,1,0,0,0-.73-.37.67.67,0,0,0-.65.39,2.46,2.46,0,0,0-.2,1.07,2.21,2.21,0,0,0,.12.8.77.77,0,0,0,.78.6,1.19,1.19,0,0,0,.66-.2,2.31,2.31,0,0,0,.41-.36l.14.11a2.48,2.48,0,0,1-.48.43,1.42,1.42,0,0,1-.8.24,1.65,1.65,0,0,1-1.14-.4,1.49,1.49,0,0,1-.5-1.2,1.62,1.62,0,0,1,.48-1.21,1.57,1.57,0,0,1,1.12-.43A1.49,1.49,0,0,1,59.19,146.93Z" transform="translate(-1 -8.41)" style="fill:#263238"/><path d="M60.22,150v-.11a.67.67,0,0,0,.27-.06.27.27,0,0,0,.13-.26v-2.22a.28.28,0,0,0-.13-.27.77.77,0,0,0-.28,0v-.11h2.63v.92h-.1a1,1,0,0,0-.29-.61,1.29,1.29,0,0,0-.77-.16.51.51,0,0,0-.26,0,.21.21,0,0,0-.06.17v1.06a.72.72,0,0,0,.53-.14,1.05,1.05,0,0,0,.22-.53h.11v1.54h-.11a.94.94,0,0,0-.21-.55.71.71,0,0,0-.54-.16v1.11a.22.22,0,0,0,.08.2.55.55,0,0,0,.31,0,1.36,1.36,0,0,0,.71-.17A1.42,1.42,0,0,0,63,149h.13l-.19,1Z" transform="translate(-1 -8.41)" style="fill:#263238"/><path d="M50.65,90.46l1.11-12.93h2.77l1.11,12.93Z" transform="translate(-1 -8.41)" style="fill:#455a64"/><path d="M76.35,93.72a1.56,1.56,0,0,0,1.89-2.09c-.25-.55-.84-1-2-1.07-3.2-.21-39.67-.62-46.3-.69a2.17,2.17,0,0,0-2.1,1.23,1.3,1.3,0,0,0,.26,1.19c.82.64,1.54.35,2.66-.47,1.43-1,18.33.44,20.21,1.08h3.9S58,91.85,69.28,91.81c6.58,0,5.34.92,6.48,1.73Z" transform="translate(-1 -8.41)" style="fill:#455a64"/><path d="M54.82,92.52,55.3,96l-.6.39.6,2.75-5.16-.54,1.26-2.21-.49-.65.22-3.14Z" transform="translate(-1 -8.41)" style="fill:#455a64"/><path d="M53.15,78.58a4,4,0,1,0-4-4A4,4,0,0,0,53.15,78.58Z" transform="translate(-1 -8.41)" style="fill:#455a64"/><path d="M35.26,91.82c.22.82,1.2,4.31,3,10.89,1.92,6.9,4.59,16.52,7.63,27.48l.06.23H26.09l.05-.22,6.52-27.51c1.56-6.57,2.4-10,2.6-10.87-.19.84-1,4.39-2.52,11.1-1.56,6.87-3.75,16.44-6.24,27.36l-.18-.22H45.75l-.17.23c-2.94-10.91-5.51-20.49-7.36-27.36C36.43,96.22,35.48,92.66,35.26,91.82Z" transform="translate(-1 -8.41)" style="fill:#263238"/><path d="M24,129.42H49s-1.23,9.26-12.58,9.21S24,129.42,24,129.42Z" transform="translate(-1 -8.41)" style="fill:#455a64"/><path d="M39.18,137.25s-.19.08-.56.15a9.66,9.66,0,0,1-1.55.17,13.12,13.12,0,0,1-2.31-.16,13.94,13.94,0,0,1-2.73-.77,14.44,14.44,0,0,1-2.51-1.34,12.9,12.9,0,0,1-1.77-1.5,9.17,9.17,0,0,1-1-1.19,2.1,2.1,0,0,1-.3-.49c.06,0,.54.62,1.48,1.5A14.55,14.55,0,0,0,29.71,135a15.2,15.2,0,0,0,2.45,1.28,15.76,15.76,0,0,0,2.66.78,14,14,0,0,0,2.25.22C38.36,137.33,39.16,137.19,39.18,137.25Z" transform="translate(-1 -8.41)" style="fill:#fff"/><path d="M72.86,91.82c.23.82,1.2,4.31,3,10.89,1.92,6.9,4.59,16.52,7.63,27.48l.06.23H63.69l.05-.22c2.61-11,4.89-20.6,6.52-27.51,1.57-6.57,2.4-10,2.6-10.87-.19.84-1,4.39-2.52,11.1-1.57,6.87-3.76,16.44-6.25,27.36l-.18-.22H83.35l-.18.23c-2.93-10.91-5.5-20.49-7.35-27.36C74,96.22,73.09,92.66,72.86,91.82Z" transform="translate(-1 -8.41)" style="fill:#263238"/><path d="M61.6,129.42h25s-1.23,9.26-12.58,9.21S61.6,129.42,61.6,129.42Z" transform="translate(-1 -8.41)" style="fill:#455a64"/><path d="M76.78,137.25s-.19.08-.56.15a9.66,9.66,0,0,1-1.55.17,13.12,13.12,0,0,1-2.31-.16,14.13,14.13,0,0,1-2.73-.77,14,14,0,0,1-2.5-1.34,12.46,12.46,0,0,1-1.78-1.5,9.17,9.17,0,0,1-1-1.19c-.21-.3-.31-.47-.29-.49s.53.62,1.48,1.5A13.66,13.66,0,0,0,67.31,135a15.2,15.2,0,0,0,2.45,1.28,15.76,15.76,0,0,0,2.66.78,14.06,14.06,0,0,0,2.25.22C76,137.33,76.76,137.19,76.78,137.25Z" transform="translate(-1 -8.41)" style="fill:#fff"/><path d="M195.43,151.69s-1.11,12.77-.69,16.2,3.75,22.72,7.39,25.42,7.68,6.44,13,5.92,7.9-1.35,8.73-3.94,4.88-12.67,3.94-17.14-4.36-11.42-4.36-11.42-2.7-20.87-4-22L218,143.58s2.29-8.2,2.08-10.7-3-24.1-7.52-27.34a28.35,28.35,0,0,0-6.91-3.64l-4.77,19.77Z" transform="translate(-1 -8.41)" style="fill:#263238"/><path d="M222.84,171.46a4.69,4.69,0,0,1-.58-.74,20.77,20.77,0,0,1-1.36-2.17,25.89,25.89,0,0,1-1.61-3.46,23.32,23.32,0,0,0-1.88-4.2,13.74,13.74,0,0,0-3.2-3.25l-3-2.27-2-1.55a4.63,4.63,0,0,1-.72-.61,6.85,6.85,0,0,1,.8.5c.55.38,1.25.88,2.1,1.46s1.93,1.36,3.08,2.22a13.64,13.64,0,0,1,3.3,3.31,21.51,21.51,0,0,1,1.88,4.28,29.73,29.73,0,0,0,1.53,3.45c.5.95,1,1.7,1.27,2.21A6.14,6.14,0,0,1,222.84,171.46Z" transform="translate(-1 -8.41)" style="fill:#455a64"/><path d="M215,169.49a2.67,2.67,0,0,1-.38.63,12.6,12.6,0,0,1-1.26,1.56,11.47,11.47,0,0,1-5.62,3.43,8.13,8.13,0,0,1-6.42-1.18,5.84,5.84,0,0,1-1.44-1.42,2.09,2.09,0,0,1-.36-.64,8.38,8.38,0,0,0,1.93,1.87,8.24,8.24,0,0,0,6.22,1,11.91,11.91,0,0,0,5.53-3.27C214.33,170.33,214.91,169.45,215,169.49Z" transform="translate(-1 -8.41)" style="fill:#455a64"/><path d="M215.59,143.18a21,21,0,0,1-2.08-.35,34.93,34.93,0,0,0-10.14-.24,18.57,18.57,0,0,1-2.1.24,2,2,0,0,1,.55-.17c.35-.09.88-.2,1.52-.31a28.47,28.47,0,0,1,5.12-.34,27.77,27.77,0,0,1,5.09.59c.64.14,1.16.27,1.5.38S215.6,143.15,215.59,143.18Z" transform="translate(-1 -8.41)" style="fill:#455a64"/><path d="M212.91,136.82c0,.05-.77.22-2,.56A42.24,42.24,0,0,0,206.2,139a41.19,41.19,0,0,0-4.47,2.17,19.23,19.23,0,0,1-1.81,1s.14-.15.43-.36.72-.51,1.27-.85a30.31,30.31,0,0,1,4.46-2.27,31.29,31.29,0,0,1,4.78-1.52,15,15,0,0,1,1.49-.28A2.13,2.13,0,0,1,212.91,136.82Z" transform="translate(-1 -8.41)" style="fill:#455a64"/><path d="M208.29,108.54a1.25,1.25,0,0,1-.13.33c-.1.25-.24.55-.41.93-.36.79-.87,2-1.46,3.41s-1.25,3.19-1.91,5.15-1.29,4.15-1.86,6.47-1,4.56-1.32,6.6-.53,3.9-.66,5.46-.23,2.82-.26,3.69c0,.41-.05.75-.06,1a2,2,0,0,1,0,.35s0-.12,0-.35v-1c0-.87,0-2.15.16-3.71s.3-3.43.6-5.49.73-4.3,1.29-6.63,1.23-4.52,1.9-6.49,1.35-3.71,2-5.15,1.16-2.59,1.57-3.37c.19-.36.34-.66.47-.89A1.17,1.17,0,0,1,208.29,108.54Z" transform="translate(-1 -8.41)" style="fill:#455a64"/><path d="M212.67,162.51c-.06-.26-1.22-5.67-4.8-9s-8.44-12.21-8.44-12.21-2.22-3.94-2-7.52,3.23-8.48,1.4-9.26-5.94.08-7.33,7.85-1,11-1,11-8.91.51-8.82,3.91,2.26,4.45,2.26,4.45-2.26,2.54-1.13,3.94a4.76,4.76,0,0,0,3.32,1.39s-1.39.44.09,2.8a5.6,5.6,0,0,0,3.76,2.62,4,4,0,0,0,.52,3.23c1,1.75,1.74,1.84,2.53,1.75s5.07-.88,5.07-.88a5,5,0,0,0,3.23,3l-.18,1.73s-.17,5.25,6.11,3.58S213.89,167.92,212.67,162.51Z" transform="translate(-1 -8.41)" style="fill:#f7b998"/><path d="M198.3,140.45s-.28-.08-.79-.14a5,5,0,0,0-2.12.31,14,14,0,0,0-2.83,1.55,15.82,15.82,0,0,1-1.68,1,9.23,9.23,0,0,1-2,.71c-1.4.31-2.73.54-3.93.78a6.29,6.29,0,0,0-1.62.54,2.72,2.72,0,0,0-1.07,1,3.2,3.2,0,0,0-.5,2c0,.51.15.78.12.79s0-.06-.1-.19a3.9,3.9,0,0,1-.15-.58,3.28,3.28,0,0,1,.43-2.18,3,3,0,0,1,1.15-1.07,6.24,6.24,0,0,1,1.67-.6c1.21-.26,2.55-.49,3.92-.8a10.93,10.93,0,0,0,3.57-1.63,12.07,12.07,0,0,1,2.92-1.52,4.8,4.8,0,0,1,2.21-.22,3.77,3.77,0,0,1,.59.15C198.24,140.4,198.31,140.43,198.3,140.45Z" transform="translate(-1 -8.41)" style="fill:#eaa178"/><path d="M198.06,145.84a14.65,14.65,0,0,1-2.05.93l-5,2c-2,.8-3.73,1.52-5,2.06-.63.27-1.14.51-1.5.67a2.22,2.22,0,0,1-.55.24,8.49,8.49,0,0,1,2-1.11c1.25-.61,3-1.37,5-2.16s3.76-1.47,5.06-1.95A19.1,19.1,0,0,1,198.06,145.84Z" transform="translate(-1 -8.41)" style="fill:#eaa178"/><path d="M206.2,158.16a1.54,1.54,0,0,1-.34.6,4.67,4.67,0,0,1-1.45,1.21,7.51,7.51,0,0,1-2.65.87,28.13,28.13,0,0,1-3.4.17,22.67,22.67,0,0,0-6,.85c-1.51.43-2.39.83-2.42.78a2.75,2.75,0,0,1,.6-.32,17.17,17.17,0,0,1,1.75-.68,20.41,20.41,0,0,1,6.08-1,27.34,27.34,0,0,0,3.36-.14,7.92,7.92,0,0,0,2.59-.77A5.8,5.8,0,0,0,206.2,158.16Z" transform="translate(-1 -8.41)" style="fill:#eaa178"/><path d="M207.81,163s.07.15.05.45a2.09,2.09,0,0,1-.49,1.14,3.24,3.24,0,0,1-1.52,1,12.59,12.59,0,0,1-2.17.46c-1.53.25-2.92.44-3.94.54a5.31,5.31,0,0,1-1.66,0s.63-.09,1.63-.25l3.92-.63a15.43,15.43,0,0,0,2.11-.42,3.26,3.26,0,0,0,1.45-.88A2.52,2.52,0,0,0,207.81,163Z" transform="translate(-1 -8.41)" style="fill:#eaa178"/><path d="M209.24,165.39a2.86,2.86,0,0,1-.83,1.07,5.78,5.78,0,0,1-6.16,1.07,2.76,2.76,0,0,1-1.14-.73s.46.24,1.22.51a6.28,6.28,0,0,0,3.1.27,6.43,6.43,0,0,0,2.83-1.29C208.89,165.77,209.2,165.35,209.24,165.39Z" transform="translate(-1 -8.41)" style="fill:#eaa178"/><path d="M209.11,160.4a20.92,20.92,0,0,0-1.88-4.33,20.69,20.69,0,0,0-3.11-3.56,4.49,4.49,0,0,1,1.16.8,11.75,11.75,0,0,1,3.6,5.7A4.05,4.05,0,0,1,209.11,160.4Z" transform="translate(-1 -8.41)" style="fill:#eaa178"/><path d="M210.85,159.38a8,8,0,0,1-1.14-1.59,8.93,8.93,0,0,1-1.05-1.65,4.58,4.58,0,0,1,1.32,1.47A4.63,4.63,0,0,1,210.85,159.38Z" transform="translate(-1 -8.41)" style="fill:#eaa178"/><path d="M200.28,153.21c0,.06-.82.07-2.13.28a32.18,32.18,0,0,0-5,1.28l-4.92,1.68a14.82,14.82,0,0,1-2.08.62,13.69,13.69,0,0,1,2-.84c1.25-.47,3-1.13,4.9-1.77a25.3,25.3,0,0,1,5.1-1.2,13.21,13.21,0,0,1,1.58-.1A2.65,2.65,0,0,1,200.28,153.21Z" transform="translate(-1 -8.41)" style="fill:#eaa178"/><path d="M197.74,150.57a1.62,1.62,0,0,1-1.12.51c-.77.14-1.83-.1-2.89.13-.52.13-1,.44-1.48.6a2.63,2.63,0,0,1-1.36,0,2,2,0,0,0-.84,0c-.19,0-.29.11-.31.09s.06-.12.27-.21a1.9,1.9,0,0,1,.91-.09,2.43,2.43,0,0,0,1.24-.09,15,15,0,0,1,1.49-.62,5.54,5.54,0,0,1,1.65-.09,8.42,8.42,0,0,0,1.29,0A4.82,4.82,0,0,0,197.74,150.57Z" transform="translate(-1 -8.41)" style="fill:#eaa178"/><path d="M206.56,153.56c-.08.06-.9-1-2.24-2.05a2.31,2.31,0,0,1-.82-.94c-.15-.36-.22-.68-.31-.93a1.92,1.92,0,0,0-.45-.72s.1,0,.24.08a1.3,1.3,0,0,1,.42.54c.13.26.22.58.37.9a2.19,2.19,0,0,0,.75.81A6.27,6.27,0,0,1,206.56,153.56Z" transform="translate(-1 -8.41)" style="fill:#eaa178"/></g></svg>