<svg class="why-1" width="286" height="259" viewBox="0 0 286 259" fill="none" xmlns="http://www.w3.org/2000/svg">
<path d="M272.372 213.02C271.847 214.23 271.293 215.455 270.699 216.693C244.233 271.837 142.163 264.076 98.079 241.214C84.9916 234.429 68.9505 224.89 53.954 212.522C18.4686 183.283 -11.1994 138.224 17.5901 76.3076C52.0587 2.17561 142.778 -15.4495 186.059 12.6621C229.333 40.7876 207.42 95.7519 229.818 117.251C251.704 138.279 295.151 160.525 272.372 213.02Z" fill="#F7F7F7"/>
<path d="M272.373 213.02C271.847 214.23 271.294 215.455 270.699 216.693C244.233 271.837 142.163 264.076 98.0791 241.214C84.9917 234.429 68.9507 224.89 53.9541 212.522H65.499V200.174H85.3791V217.239L96.6196 228.48V219.494H110.876V240.938H182.94V221.742L195.661 209.022V240.938H215.105V227.975H233.055V242.501L239.35 238.447V226.979H249.013V213.013H272.373V213.02Z" fill="#E2E2E2"/>
<path d="M71.4267 45.9132C73.971 45.9132 76.0336 43.8506 76.0336 41.3063C76.0336 38.762 73.971 36.6995 71.4267 36.6995C68.8824 36.6995 66.8198 38.762 66.8198 41.3063C66.8198 43.8506 68.8824 45.9132 71.4267 45.9132Z" fill="#08D586"/>
<path d="M239.35 204.788C241.894 204.788 243.956 202.726 243.956 200.181C243.956 197.637 241.894 195.574 239.35 195.574C236.805 195.574 234.743 197.637 234.743 200.181C234.743 202.726 236.805 204.788 239.35 204.788Z" fill="#08D586"/>
<path d="M155.409 35.7657C159.199 35.7657 162.271 32.6935 162.271 28.9038C162.271 25.114 159.199 22.0419 155.409 22.0419C151.62 22.0419 148.547 25.114 148.547 28.9038C148.547 32.6935 151.62 35.7657 155.409 35.7657Z" fill="#08D586"/>
<mask id="mask0" mask-type="alpha" maskUnits="userSpaceOnUse" x="0" y="0" width="286" height="259">
<path d="M272.372 213.02C271.847 214.23 271.293 215.455 270.699 216.693C244.233 271.837 142.162 264.076 98.0789 241.214C84.9915 234.429 68.9505 224.89 53.9539 212.522C18.4685 183.283 -17.2896 139.916 11.5 77.9999C45.9685 3.86793 142.778 -15.4496 186.059 12.6621C229.333 40.7875 240.602 56.5011 263 77.9999C284.886 99.0283 295.151 160.525 272.372 213.02Z" fill="#F7F7F7"/>
</mask>
<g mask="url(#mask0)">
<path d="M110.17 19.7592L43.9102 77.8293H176.43L110.17 19.7592Z" fill="#E2E2E2"/>
<path d="M110.17 27.0707L56.4302 74.1701H163.917L110.17 27.0707Z" fill="#D3D3D3"/>
<path d="M185.852 89.6785H34.4887C32.0608 89.6785 30.0894 87.7071 30.0894 85.2792V82.2217C30.0894 79.7938 32.0608 77.8224 34.4887 77.8224H185.858C188.286 77.8224 190.258 79.7938 190.258 82.2217V85.2792C190.251 87.7071 188.286 89.6785 185.852 89.6785Z" fill="#E2E2E2"/>
<path d="M60.7674 89.6785H37.5601V97.1352H60.7674V89.6785Z" fill="#E2E2E2"/>
<path d="M54.5904 97.1354H43.7373V263.204H54.5904V97.1354Z" fill="#E2E2E2"/>
<path d="M101.441 89.6785H78.2334V97.1352H101.441V89.6785Z" fill="#E2E2E2"/>
<path d="M95.2638 97.1354H84.4106V263.204H95.2638V97.1354Z" fill="#E2E2E2"/>
<path d="M142.107 89.6785H118.9V97.1352H142.107V89.6785Z" fill="#E2E2E2"/>
<path d="M135.937 97.1354H125.084V263.204H135.937V97.1354Z" fill="#E2E2E2"/>
<path d="M182.781 89.6785H159.573V97.1352H182.781V89.6785Z" fill="#E2E2E2"/>
<path d="M176.603 97.1354H165.75V263.204H176.603V97.1354Z" fill="#E2E2E2"/>
<path d="M159.575 263.201H182.782V255.744H159.575V263.201Z" fill="#E2E2E2"/>
<path d="M165.752 255.745H176.605L176.605 89.6763H165.752L165.752 255.745Z" fill="#E2E2E2"/>
<path d="M118.906 263.201H142.114V255.744H118.906V263.201Z" fill="#E2E2E2"/>
<path d="M125.077 255.745H135.93L135.93 89.6763H125.077L125.077 255.745Z" fill="#E2E2E2"/>
<path d="M78.2312 263.201H101.438V255.744H78.2312V263.201Z" fill="#E2E2E2"/>
<path d="M84.4081 255.745H95.2612L95.2612 89.6763H84.4081L84.4081 255.745Z" fill="#E2E2E2"/>
<path d="M37.5632 263.201H60.7705V255.744H37.5632V263.201Z" fill="#E2E2E2"/>
<path d="M43.7401 255.745H54.5933L54.5933 89.6763H43.7401L43.7401 255.745Z" fill="#E2E2E2"/>
<path d="M144.266 74.4604H136.919V274.908H144.266V74.4604Z" fill="#B2B2B2"/>
<path d="M209.308 72.6067H82.9443V76.3143H209.308V72.6067Z" fill="#B2B2B2"/>
<path d="M133.225 149.762L82.944 76.3143L32.2476 149.762" stroke="#D3D3D3" stroke-miterlimit="10"/>
<path d="M113.857 149.762L82.8613 76.3143L51.6162 149.762" stroke="#D3D3D3" stroke-miterlimit="10"/>
<path d="M68.7846 136.84L50.6684 141.101C50.6684 141.101 13.5782 133.409 9.51086 101.382C8.91598 96.6787 9.23417 92.473 10.2164 88.7239C10.2718 88.5095 10.334 88.2881 10.3963 88.0737C10.4654 87.8454 10.5277 87.6171 10.5969 87.4027C10.5969 87.3889 10.6038 87.382 10.6038 87.3681C16.0338 70.0612 35.6787 63.0195 41.5376 61.636C48.78 59.9344 77.4312 57.0707 87.9246 82.9411C89.142 85.957 89.9098 88.9176 90.2972 91.8159C90.2972 91.8228 90.2972 91.8228 90.2972 91.8228C93.6521 116.905 68.7846 136.84 68.7846 136.84Z" fill="#2484FE"/>
<path d="M55.0816 140.064C49.119 132.247 38.7224 117.873 43.8204 114.131C48.9184 110.396 53.3731 118.551 50.9797 121.173C48.5794 123.801 43.7858 112.159 49.2988 108.597C54.8049 105.035 59.5709 112.485 57.5303 116.614C55.4897 120.744 49.9352 110.755 56.3406 106.563C62.7459 102.372 65.5336 113.778 62.9673 117.237C60.3941 120.695 57.6133 108.86 65.0632 107.483C72.513 106.107 67.1729 133.416 65.0148 137.719" stroke="white" stroke-width="2" stroke-miterlimit="10"/>
<path d="M66.0314 160.961L63.894 161.466C59.4669 162.503 55.0399 159.764 53.9954 155.337L50.6475 141.108L68.8052 136.833L72.1531 151.062C73.1976 155.489 70.4515 159.916 66.0314 160.961Z" fill="#192D33"/>
<path d="M73.1631 150.764L52.9648 155.517C52.0379 155.738 51.111 155.157 50.8896 154.23L50.7858 153.78C50.5645 152.853 51.1455 151.927 52.0724 151.705L72.2708 146.953C73.1977 146.732 74.1246 147.313 74.3459 148.24L74.4497 148.689C74.6641 149.616 74.09 150.55 73.1631 150.764Z" fill="#122023"/>
<path d="M71.5376 143.847L51.3393 148.599C50.4124 148.821 49.4855 148.24 49.2641 147.313L49.1604 146.863C48.939 145.936 49.52 145.009 50.447 144.788L70.6453 140.036C71.5722 139.814 72.4991 140.396 72.7204 141.322L72.8242 141.772C73.0386 142.706 72.4645 143.633 71.5376 143.847Z" fill="#122023"/>
<path opacity="0.23" d="M68.7846 136.84L50.6684 141.101C50.6684 141.101 13.5782 133.409 9.51086 101.382C8.91598 96.6787 9.23417 92.473 10.2164 88.7239C3.72805 114.186 54.9571 131.548 60.9889 119.582C66.8824 107.892 86.5688 106.729 90.3041 91.809C93.6521 116.905 68.7846 136.84 68.7846 136.84Z" fill="#0049A5"/>
<path d="M32.2476 149.761H133.225C133.225 149.761 127.187 190.857 82.944 190.857C38.7013 190.857 32.2476 149.761 32.2476 149.761Z" fill="#D3D3D3"/>
<path d="M158.819 149.762L209.101 76.3143L259.797 149.762" stroke="#D3D3D3" stroke-miterlimit="10"/>
<path d="M178.188 149.762L209.177 76.3143L240.422 149.762" stroke="#D3D3D3" stroke-miterlimit="10"/>
<path d="M202.515 70.7528L253.73 80.1464C258.033 80.935 260.841 85.1199 259.942 89.4017L245.582 157.592C244.731 161.638 240.864 164.308 236.776 163.679L186.059 155.807L202.515 70.7528Z" fill="#08D586"/>
<path opacity="0.42" d="M252.181 126.229C245.582 134.371 209.073 146.884 205.607 145.929C202.142 144.975 206.728 130.995 206.728 130.995L194.471 153.78L247.228 149.755L252.181 126.229Z" fill="#AE4046"/>
<path d="M202.515 70.7529L193.219 69.1273L178.188 153.946L186.059 155.8L202.515 70.7529Z" fill="#E5E5E5"/>
<path d="M228.039 120.978C235.232 117.998 238.648 109.752 235.668 102.558C232.689 95.365 224.442 91.9492 217.249 94.9288C210.055 97.9084 206.64 106.155 209.619 113.348C212.599 120.542 220.845 123.957 228.039 120.978Z" stroke="white" stroke-miterlimit="10"/>
<path d="M229.811 110.984C228.628 113.778 225.861 115.736 222.638 115.736C218.335 115.736 214.856 112.249 214.856 107.954C214.856 103.651 218.342 100.172 222.638 100.172C225.861 100.172 228.628 102.129 229.811 104.924" stroke="white" stroke-width="4" stroke-miterlimit="10"/>
<path d="M199.402 77.0544L184.731 144.989" stroke="#C1C1C1" stroke-miterlimit="10"/>
<path d="M195.397 78.1681L180.94 149.761" stroke="#C1C1C1" stroke-miterlimit="10"/>
<path d="M259.797 149.761H158.819C158.819 149.761 164.858 190.857 209.101 190.857C253.343 190.857 259.797 149.761 259.797 149.761Z" fill="#D3D3D3"/>
<path d="M140.627 81.5853C144.562 81.5853 147.752 78.3955 147.752 74.4606C147.752 70.5257 144.562 67.3358 140.627 67.3358C136.692 67.3358 133.502 70.5257 133.502 74.4606C133.502 78.3955 136.692 81.5853 140.627 81.5853Z" fill="#B2B2B2"/>
<path d="M140.627 78.1681C142.675 78.1681 144.335 76.5081 144.335 74.4604C144.335 72.4128 142.675 70.7528 140.627 70.7528C138.579 70.7528 136.919 72.4128 136.919 74.4604C136.919 76.5081 138.579 78.1681 140.627 78.1681Z" fill="#D3D3D3"/>
<path d="M142.059 166.391C143.795 160.048 151.888 146.019 152.144 144.94C152.4 143.861 150.373 145.639 150.373 145.639C150.373 145.639 152.186 143.356 152.165 142.595C152.144 141.834 142.059 148.786 142.059 148.786C142.059 148.786 143.795 142.083 141.395 141.834C141.395 141.834 140.129 147.451 137.473 150.142C134.816 152.833 138.012 160.103 136.981 164.053C135.958 168.009 142.059 166.391 142.059 166.391Z" fill="#F7B998"/>
<path d="M140.571 159.017C139.976 155.123 143.193 152.183 145.054 151.076" stroke="#C66F58" stroke-miterlimit="10" stroke-linecap="round"/>
<path d="M142.121 165.616C142.121 165.616 141.865 168.68 141.443 173.142C141.443 173.142 141.443 173.142 141.443 173.149C140.371 184.507 138.171 204.94 136.151 206.919C133.343 209.679 122.566 205.867 122.566 205.867L118.353 185.98L117.26 180.848L119.702 178.337C123.23 182.01 127.138 189.466 127.138 189.466C127.138 189.466 125.381 180.405 136.981 164.066L142.121 165.616Z" fill="#1639D0"/>
<path opacity="0.48" d="M141.443 173.149C140.371 184.507 138.171 204.94 136.151 206.919C133.343 209.679 122.566 205.867 122.566 205.867L118.353 185.98L121.611 181.678C125.284 190.027 127.947 200.313 131.53 200.43C135.113 200.548 136.919 191.514 138.413 183.967C139.886 176.621 141.367 173.322 141.443 173.149Z" fill="#193084"/>
<path d="M125.374 240.689L129.801 269.257L82.1069 260.251L93.2091 236.531L125.374 240.689Z" fill="#122023"/>
<path d="M126.757 224.807C126.239 233.771 125.374 240.689 125.374 240.689H87.0801L89.5496 235.487C95.5676 221.784 90.1998 205.418 86.5683 196.301C86.2016 195.381 85.8489 194.537 85.5376 193.783L92.9667 178.994L108.143 173.135C108.143 173.135 113.241 175.003 116.022 175.874C118.796 176.739 121.39 177.776 125.374 193.202C127.504 201.468 127.359 214.493 126.757 224.807Z" fill="#1639D0"/>
<path opacity="0.48" d="M126.757 224.814C126.239 233.771 125.374 240.689 125.374 240.689H87.0802L89.5497 235.487C95.5677 221.784 90.1999 205.418 86.5684 196.301L92.0468 190.525C91.0023 198.957 93.4994 219.501 97.8988 227.131C102.298 234.768 121.715 235.971 126.757 224.814Z" fill="#193084"/>
<path d="M89.508 223.243C96.3284 227.712 95.5952 233.73 93.2088 236.538C90.8223 239.34 91.4518 235.093 91.4518 235.093C91.4518 235.093 90.5111 241.851 89.1484 242.01C87.7857 242.169 88.6642 238.738 88.6642 238.738C88.6642 238.738 88.5742 243.213 87.4606 243.262C86.3538 243.31 88.1384 228.196 86.0079 226.301C83.8843 224.392 89.508 223.243 89.508 223.243Z" fill="#F7B998"/>
<path d="M100.922 181.906C100.043 183.774 95.5332 188.187 90.864 192.455C85.3856 197.463 79.6789 202.27 79.3192 202.575C79.3053 202.589 79.2984 202.589 79.2984 202.589C86.5684 203.882 91.5696 224.841 91.5696 224.841L86.9281 228.597C86.9281 228.597 81.6088 222.932 77.0088 217.883C76.9535 217.82 76.9189 217.779 76.912 217.779C76.9051 217.765 76.9051 217.765 76.9051 217.765C74.8576 215.51 72.9622 213.386 71.7586 211.961C67.8435 207.313 60.7326 201.786 63.0429 197.906C65.3602 194.025 83.8292 176.981 90.1377 174.304L101.572 175.466C101.579 175.48 102.859 177.783 100.922 181.906Z" fill="#1639D0"/>
<path d="M107.5 141.281C109.582 146.559 115.828 152.245 115.828 152.245L111.664 153.635C111.664 153.635 113.746 160.573 114.161 164.184C114.161 164.184 104.166 165.713 101.392 165.574L90.9814 155.579V146.275L100.14 140.029L107.5 141.281Z" fill="#F7B998"/>
<path d="M107.507 141.281C106.116 143.087 98.3415 146.006 98.3415 146.006L99.0332 154.887L98.0648 158.636L95.3602 159.785L96.1972 167.518C95.208 164.897 87.9864 161.175 84.507 159.501C83.3104 158.927 82.4803 157.799 82.2935 156.485C82.1414 155.461 81.9892 154.168 81.9062 152.812C81.7609 150.405 81.8577 147.811 82.6463 146.275C84.4517 142.803 96.1972 136.418 96.1972 136.418C96.1972 136.418 90.7049 134.198 93.3611 131.701C95.6092 129.591 102.547 128.27 105.999 130.255C106.635 130.615 107.161 131.092 107.5 131.701C109.727 135.588 108.89 139.476 107.507 141.281Z" fill="#192D33"/>
<path d="M107.507 141.281C106.117 143.086 98.3416 146.006 98.3416 146.006L99.0333 154.887L98.0649 158.636L95.3603 159.785L96.1973 167.518C95.2081 164.897 87.9865 161.175 84.5071 159.501C83.3104 158.927 82.4804 157.799 82.2936 156.485C82.1414 155.461 81.9893 154.168 81.9062 152.812C85.6001 158.055 91.037 153.573 90.5666 150.322C90.0893 147.071 91.7564 140.901 97.9266 141.848C104.097 142.796 108.849 136.398 105.992 130.255C106.628 130.615 107.154 131.092 107.493 131.701C109.727 135.588 108.89 139.476 107.507 141.281Z" fill="#122023"/>
<path d="M99.8219 155.143C98.9919 151.809 96.3495 151.256 94.8277 152.508C93.299 153.76 94.2743 159.031 98.8535 158.892L99.8219 155.143Z" fill="#F7B998"/>
<path d="M107.521 146.621L108.185 149.098" stroke="#192D33" stroke-miterlimit="10" stroke-linecap="round"/>
<path d="M108.877 159.28C107.521 159.66 105.432 157.661 105.432 157.661C105.432 157.661 104.996 162.441 109.402 162.226L108.877 159.28Z" fill="white"/>
<path d="M98.9846 154.97C97.6496 153.352 96.1762 153.635 96.1486 154.97C96.1278 156.305 98.5074 157.447 98.5074 157.447L98.9846 154.97Z" fill="#EAA178"/>
<path d="M95.471 171.15L89.543 174.505L103.405 178.814L108.143 173.142L104.692 171.613L95.471 171.15Z" fill="#CED9EA"/>
<path d="M104.671 165.402L105.377 171.987L103.357 178.71L96.1558 171.523L95.3604 159.778L104.671 165.402Z" fill="#F7B998"/>
<path d="M104.671 165.401C102.513 165.222 95.7339 160.151 95.7339 160.151C95.7339 160.151 101.074 169.282 105.031 170.001L104.671 165.401Z" fill="#EAA178"/>
<path d="M103.516 178.337C103.516 178.337 110.744 191.196 110.087 194.412H107.666C107.666 194.412 104.512 181.878 102.858 178.337H103.516Z" fill="#CED9EA"/>
<path opacity="0.48" d="M91.5764 224.841L86.9349 228.597C86.9349 228.597 81.6156 222.932 77.0156 217.883C77.8734 218.775 83.9259 224.904 85.5377 220.546C87.2739 215.856 79.3052 202.589 79.3052 202.589C86.5683 203.882 91.5764 224.841 91.5764 224.841Z" fill="#193084"/>
<path opacity="0.48" d="M90.8642 192.448C85.3857 197.456 79.679 202.263 79.3193 202.568C79.6514 202.18 85.1367 195.92 93.2714 188.553L90.8642 192.448Z" fill="#193084"/>
<path d="M162.069 182.455L152.044 184.905L154.397 194.534L164.422 192.083L162.069 182.455Z" fill="#F4F4F4"/>
<path d="M171.734 214.963C170.745 215.205 169.748 214.597 169.506 213.608L162.9 186.568L166.484 185.697L173.089 212.736C173.325 213.725 172.723 214.721 171.734 214.963Z" fill="#CC663A"/>
<path d="M174.647 179.381L152.049 184.903L154.403 194.532L177 189.009L174.647 179.381Z" fill="#CC663A"/>
<path d="M175.635 183.452L153.038 188.974L154.396 194.531L176.993 189.009L175.635 183.452Z" fill="#AF593A"/>
<path d="M154.032 195.747C153.451 195.893 152.863 195.533 152.725 194.952L150.373 185.316C150.228 184.735 150.588 184.147 151.169 184.009C151.75 183.864 152.338 184.223 152.476 184.804L154.828 194.44C154.973 195.021 154.613 195.602 154.032 195.747Z" fill="#F7B998"/>
<path d="M178.049 189.882C177.468 190.027 176.88 189.667 176.742 189.086L174.39 179.45C174.244 178.869 174.604 178.281 175.185 178.143C175.766 177.998 176.354 178.357 176.492 178.938L178.844 188.574C178.99 189.148 178.63 189.736 178.049 189.882Z" fill="#F7B998"/>
<path d="M178.651 204.221C179.294 206.338 180.56 207.97 180.56 207.97L179.128 213.67C177.634 213.31 176.416 213.054 175.566 212.93C171.872 212.397 169.091 214.804 167.251 210.792C165.418 206.787 165.736 203.834 165.736 203.834C165.736 203.834 163.537 203.792 163.543 202.125C163.543 200.458 171.332 201.745 171.332 201.745C171.332 201.745 170.08 200.576 169.956 198.341C169.831 196.107 171.699 198.03 173.995 199.842C176.292 201.655 178.014 202.097 178.651 204.221Z" fill="#F7B998"/>
<path d="M219.096 155.178L200.17 139.593C198.876 138.715 197.846 137.089 197.313 135.145C196.234 131.182 197.223 125.883 202.231 122.847C209.702 118.316 214.143 123.089 211.369 125.42C211.369 125.42 224.242 124.479 228.323 133.859C228.503 134.267 228.662 134.689 228.807 135.132C232.231 145.867 219.096 155.178 219.096 155.178Z" fill="#F4F4F4"/>
<path d="M219.096 155.178L200.17 139.593C198.877 138.715 197.846 137.089 197.313 135.145C198.088 136.238 198.877 136.799 199.105 135.132C202.411 143.086 209.183 143.418 208.851 139.496C208.851 139.496 209.64 145.009 212.739 144.878C215.423 144.774 215.139 142.824 215.015 142.312C215.215 142.99 216.336 146.199 219.511 144.885C221.904 143.896 223.288 142.118 223.827 140.728C223.917 140.714 224 140.693 224.09 140.672C227.936 139.593 228.538 136.764 228.323 133.852C228.503 134.26 228.662 134.682 228.808 135.125C232.232 145.867 219.096 155.178 219.096 155.178Z" fill="#E2E2E2"/>
<path d="M209.861 159.01V165.284H218.805V149.215L211.992 150.467L209.861 159.01Z" fill="#F7B998"/>
<path d="M229.333 263.737L202.951 274.535L182.773 278.706C182.773 278.706 191.268 224.454 194.353 209.457C194.858 207.015 195.404 204.629 196.006 202.346C196.027 202.263 196.048 202.18 196.075 202.09C196.919 198.902 197.832 195.72 198.773 192.683C200.71 186.361 202.716 180.619 204.21 176.504C205.04 174.221 205.718 172.443 206.147 171.35C206.451 170.548 206.624 170.112 206.624 170.112L207.323 170.991L209.861 174.193L224.138 169.946C226.131 173.882 227.839 186.285 229.126 198.895V198.902C230.246 209.962 231.042 221.182 231.422 226.992C231.422 226.999 231.422 226.999 231.422 226.999C231.561 229.019 231.637 230.382 231.664 230.866C231.671 230.894 231.671 230.928 231.671 230.949C231.678 231.018 229.333 263.737 229.333 263.737Z" fill="#192D33"/>
<path d="M232.425 263.073L206.375 268.655L203.29 237.846L198.773 192.683C200.71 186.361 202.716 180.619 204.21 176.504C205.04 174.221 205.718 172.443 206.147 171.35L207.323 170.991L209.861 174.193L224.138 169.946C226.131 173.882 227.839 186.285 229.126 198.895V198.902C230.246 209.962 231.042 221.182 231.422 226.992C231.422 226.999 231.422 226.999 231.422 226.999C231.485 228.597 231.561 229.912 231.664 230.866C231.671 230.894 231.671 230.928 231.671 230.949C231.678 231.018 231.678 231.053 231.678 231.053C232.799 241.415 232.425 263.073 232.425 263.073Z" fill="#122023"/>
<path d="M209.861 159.958C212.594 160.054 215.713 156.762 217.256 157.253C218.798 157.744 218.805 159.114 218.805 159.114V143.488L209.488 154.299L209.861 159.958Z" fill="#EAA178"/>
<path d="M200.537 136.826C200.537 136.826 197.901 148.973 195.494 151.263H199.105L199.347 161.009C199.347 161.009 205.524 160.635 210.505 158.782C212.635 157.986 214.427 156.499 215.686 154.611C216.26 153.746 216.716 152.805 217.027 151.816L220.403 141.15L213.064 136.218L204.881 135.132L200.537 136.826Z" fill="#F7B998"/>
<path d="M214.752 149.215C215.236 144.401 218.965 142.353 220.41 145.362C221.856 148.371 219.497 153.199 216.82 152.473C214.15 151.747 214.752 149.215 214.752 149.215Z" fill="#F7B998"/>
<path d="M216.979 147.064C217.359 145.466 219.033 145.812 218.784 147.486C218.535 149.16 218.017 150.453 216.529 150.474L216.979 147.064Z" fill="#EAA178"/>
<path d="M201.09 143.003V145.549" stroke="#192D33" stroke-miterlimit="10" stroke-linecap="round"/>
<path d="M201.408 154.638C203.698 154.555 204.798 151.927 204.798 151.927C204.798 151.927 205.621 157.391 201.408 157.903V154.638Z" fill="white"/>
<path d="M220.196 223.195C217.574 224.454 183.458 216.928 178.464 215.738L180.567 207.963L208.588 208.807C208.588 208.807 211.39 185.517 211.833 180.094C212.275 174.677 218.999 171.959 223.059 176.199C229.001 182.418 222.81 221.936 220.196 223.195Z" fill="#192D33"/>
<path d="M199.098 135.132C202.405 143.093 209.177 143.425 208.845 139.496C208.845 139.496 209.64 145.009 212.732 144.885C215.824 144.76 214.98 142.194 214.98 142.194C214.98 142.194 215.969 146.365 219.511 144.892C223.053 143.419 224.401 140.237 224.035 139.137C223.668 138.037 219.629 133.015 219.629 133.015C219.629 133.015 214.42 128.851 212.435 128.851C210.436 128.851 199.098 135.132 199.098 135.132Z" fill="#F4F4F4"/>
<path d="M223.827 140.742C223.288 142.125 221.897 143.903 219.511 144.899C216.329 146.22 215.215 143.004 215.015 142.326C215.139 142.838 215.423 144.795 212.739 144.892C209.647 145.016 208.851 139.51 208.851 139.51C209.183 143.432 202.411 143.1 199.105 135.146C201.948 139.607 208.056 138.611 207.952 135.858C207.952 135.858 212.192 139.109 215.194 137.857C217.505 136.896 217.055 135.042 216.716 134.239C217.498 135.768 220.583 141.316 223.827 140.742Z" fill="#E2E2E2"/>
<path d="M231.083 148.51C230.965 149.077 230.82 149.582 230.661 150.031C229.769 152.529 228.371 153.379 228.371 153.379C228.371 153.379 228.966 153.891 229.374 154.777V154.784C229.838 155.773 230.08 157.225 229.008 158.962C226.974 162.254 213.783 160.988 209.73 159.591C207.758 158.913 207.405 155.039 207.571 150.315C207.571 150.308 207.571 150.308 207.571 150.301C207.744 145.3 208.491 139.365 208.491 135.249L212.261 133.721C212.261 133.721 227.285 131.562 228.807 135.139C229.513 136.806 229.52 138.798 229.333 140.437C229.333 140.437 229.333 140.444 229.333 140.451C229.112 142.326 228.627 143.744 228.627 143.744C228.627 143.744 231.844 144.83 231.083 148.51Z" fill="#F4F4F4"/>
<path d="M229.333 140.437C229.333 140.437 229.333 140.444 229.333 140.451C229.112 142.326 228.628 143.744 228.628 143.744C227.258 144.179 221.531 143.785 221.531 143.785C221.531 143.785 227.978 143.225 229.264 140.084C229.264 140.084 229.292 140.216 229.333 140.437Z" fill="#E2E2E2"/>
<path d="M230.661 150.031C229.769 152.528 228.372 153.379 228.372 153.379L221.932 153.372C221.932 153.372 227.749 152.895 230.661 150.031Z" fill="#E2E2E2"/>
<path d="M229.008 158.961C226.974 162.254 213.783 160.988 209.73 159.591C207.758 158.913 207.405 155.039 207.571 150.315C208.81 157.557 217.491 157.537 222.741 157.156C227.687 156.796 229.312 156.119 229.374 154.783C229.838 155.773 230.08 157.225 229.008 158.961Z" fill="#E2E2E2"/>
<path d="M216.668 134.143C216.606 134.018 216.564 133.928 216.543 133.887C216.571 133.935 216.62 134.018 216.668 134.143Z" fill="#192D33"/>
<path d="M209.861 174.193C209.861 174.193 209.723 174.47 209.487 174.933C208.284 177.306 204.493 184.652 202.951 186.451C201.104 188.602 200.045 186.001 198.558 187.232C197.071 188.464 196.608 184.548 195.494 185.904C194.38 187.26 198.517 180.938 201.09 177.839C203.663 174.747 205.669 172.623 206.416 168.839L209.861 174.193Z" fill="#E2E2E2"/>
<path d="M224.138 169.946L209.861 174.193L206.624 170.112L205.545 164.17C205.545 164.17 205.552 164.17 205.573 164.163C210.56 163.084 224.138 163.631 224.138 163.631C225.999 166.363 224.138 169.946 224.138 169.946Z" fill="#F4F4F4"/>
</g>
</svg>