<svg xmlns="http://www.w3.org/2000/svg" xmlns:xlink="http://www.w3.org/1999/xlink" width="470" height="472" fill="none" xmlns:v="https://vecta.io/nano"><style><![CDATA[.B{opacity:.4}.C{fill:#263238}.D{fill:#08d586}.E{fill:#000}.F{fill:#fff}.G{opacity:.6}.H{fill:#455a64}.I{opacity:.3}.J{fill:#e0e0e0}.K{fill:#ffbe9d}.L{fill:#fafafa}.M{fill-rule:evenodd}]]></style><g clip-path="url(#A)"><g class="J"><path d="M352.209 232.776s-.846.742-2.749 1.377c-1.798.635-4.864 1.165-8.353-.106-1.692-.635-3.384-1.694-4.864-3.283-1.375-1.588-2.643-3.601-3.066-5.931-.318-1.164-.318-2.435-.212-3.706s.317-2.542.846-3.707c.952-2.436 2.749-4.66 5.075-6.142a12.57 12.57 0 0 1 7.719-1.906c1.269.105 2.538.423 3.701.847s2.22 1.059 3.172 1.8c1.903 1.483 3.172 3.389 4.018 5.401.74 2.012.952 4.025.74 5.825-.423 3.601-2.115 6.142-3.595 7.519-1.374 1.589-2.432 2.012-2.432 2.012 0-.106.952-.635 2.221-2.012s2.96-3.918 3.277-7.413c.106-1.695 0-3.601-.845-5.507-.741-1.906-2.009-3.707-3.807-5.084-.846-.741-1.903-1.27-3.066-1.694-1.058-.424-2.326-.741-3.49-.847-2.432-.212-5.075.423-7.295 1.8s-3.913 3.495-4.759 5.719c-.423 1.165-.74 2.33-.845 3.495s0 2.33.211 3.495c.423 2.224 1.586 4.13 2.855 5.718 1.374 1.483 2.96 2.542 4.652 3.177 3.278 1.271 6.239.848 8.036.318 1.904-.635 2.855-1.271 2.855-1.165zm2.221 16.415l.317.318 4.652 4.66h-.105l9.727-6.143-.105.212-2.327-6.566v-.106l.106-.106c1.586-1.694 3.067-3.812 4.335-6.142l.106-.106h7.085l-.212.212 2.538-11.332.105.318-6.344-3.071-.211-.106v-.212c-.106-2.33-.423-4.872-1.269-7.413l-.106-.212.106-.106 4.97-4.977v.423l-6.133-9.849.423.106-6.556 2.33-.211.106-.106-.106c-1.692-1.589-3.807-3.071-6.027-4.342l-.212-.106v-7.202l.318.318-11.314-2.647.423-.212-3.067 6.354-.105.212h-.212c-2.326.106-4.864.423-7.296 1.271-.211 0 .318.106-.317-.106l-.106-.106-.105-.106-2.221-2.224-2.432-2.436h.423c-3.278 2.118-6.555 4.13-9.833 6.143l.105-.424c.741 2.224 1.586 4.448 2.327 6.566l.105.212-.105.106c-1.692 1.8-3.172 3.918-4.336 6.036l-.105.212h-7.19l.317-.212-2.644 11.226-.211-.318 6.45 3.177v.212c.106 2.542.529 5.084 1.163 7.414l.106.211-.106.106-4.97 4.872v-.318l6.133 9.849-.317-.106 6.556-2.33h.105l.106.106c1.903 1.801 4.018 3.283 6.027 4.342l.106.106v.106c0 2.542 0 4.872-.106 6.99l-.211-.212 11.208 2.648-.212.105 3.067-6.248v-.106h.105c2.538-.106 4.441-.423 5.604-.741.635-.106 1.058-.212 1.375-.318.74-.212.846-.212.846-.212s-.106.106-.423.212-.74.212-1.375.424c-1.163.317-3.066.741-5.604.847l.106-.106c-.846 1.695-1.798 3.813-2.961 6.354l-.105.106h-.106l-11.314-2.541h-.211v-7.202l.105.212c-2.114-1.165-4.229-2.542-6.238-4.448l.211.106-6.555 2.33-.212.106-.106-.212-6.132-9.849-.106-.212.211-.212 4.97-4.977-.106.317a29.46 29.46 0 0 1-1.269-7.519l.212.318-6.344-3.071-.212-.106.106-.212 2.643-11.332.106-.211h7.296l-.317.211c1.163-2.224 2.643-4.342 4.441-6.248l-.106.318c-.74-2.224-1.48-4.342-2.326-6.566l-.106-.318.211-.106 9.834-6.142.211-.106.212.212c.846.847 1.586 1.694 2.432 2.435l2.432 2.436c-.74-.212-.212 0-.317-.106 2.537-.741 5.075-1.165 7.507-1.271l-.317.212 3.172-6.566.317.106c3.912.847 7.719 1.8 11.314 2.648l.317.106v7.307l-.211-.318c2.326 1.271 4.441 2.754 6.238 4.448l-.317-.106 6.556-2.33.211-.106.106.212 6.132 9.849.106.212-.211.212-4.97 4.872.106-.318c.74 2.542 1.163 5.189 1.269 7.519l-.212-.212 6.239 3.071.211.106v.212l-2.643 11.226v.212h-7.19l.211-.106c-1.269 2.33-2.749 4.448-4.441 6.142v-.212l2.221 6.566v.106l-.106.106-9.834 6.037h-.105l-.106-.106-3.595-3.707-.952-.953c-.106-.212-.211-.318-.211-.318z"/><g class="M"><path d="M377.481 165.422c-3.49 1.059-6.979 1.588-10.468 1.8l-4.336 8.896-15.966-3.707v-9.849c-3.066-1.694-6.027-3.707-8.67-6.248l-9.305 3.283-8.67-13.874 6.978-6.989c-1.057-3.495-1.586-6.99-1.797-10.485l-8.882-4.342 3.701-15.991h9.833c1.692-3.071 3.701-6.037 6.239-8.684l-3.278-9.32 13.851-8.684 6.979 6.99c3.489-1.059 6.978-1.589 10.468-1.8l4.335-8.896 15.966 3.707v9.849c3.067 1.694 6.027 3.707 8.671 6.248l9.304-3.283 8.671 13.873-6.979 6.989c1.058 3.495 1.692 6.99 1.798 10.485l8.882 4.342-3.701 15.991h-9.834c-1.691 3.072-3.7 6.037-6.238 8.685l3.278 9.319-13.852 8.684-6.978-6.989zm-3.173-23.299c8.248-5.084 10.68-15.992 5.605-24.252-5.182-8.261-15.967-10.696-24.214-5.613-8.248 5.189-10.68 15.991-5.604 24.252 5.181 8.26 15.966 10.802 24.213 5.613z"/></g></g><path d="M415.017 218.162c-1.798.529-3.701.847-5.604.953l-2.326 4.765-8.459-2.012v-5.295c-1.692-.847-3.172-2.012-4.653-3.283l-4.969 1.694-4.653-7.413 3.701-3.706a24.94 24.94 0 0 1-.952-5.613l-4.758-2.33 2.009-8.473h5.287c.846-1.694 2.009-3.177 3.278-4.659l-1.692-4.978 7.402-4.66 3.7 3.707c1.798-.529 3.701-.847 5.605-.953l2.326-4.766 8.459 2.012v5.296c1.691.847 3.172 2.012 4.652 3.283l4.97-1.695 4.652 7.413-3.701 3.707c.529 1.8.846 3.707.952 5.613l4.758 2.33-2.009 8.472h-5.287c-.846 1.695-2.009 3.177-3.278 4.66l1.692 4.977-7.401 4.66-3.701-3.706zm-1.692-12.391c4.335-2.754 5.71-8.472 2.961-12.92-2.749-4.342-8.459-5.719-12.9-2.966-4.335 2.754-5.71 8.473-2.961 12.92s8.459 5.719 12.9 2.966z" fill="#ebebeb" class="M"/><g class="J"><path d="M90.511 124.437c.106.106-4.864 5.189-11.102 11.332l-11.419 11.014c-.106-.106 4.864-5.19 11.102-11.332l11.42-11.014z"/><path d="M90.617 146.783c-.106.106-5.287-4.765-11.525-10.908S67.884 124.65 67.99 124.544s5.287 4.765 11.525 10.908l11.102 11.331zm22.31 118.612c0 .105-6.345-.424-14.169-1.165-7.824-.848-14.063-1.589-14.063-1.801 0-.106 6.344.424 14.169 1.165 7.824.847 14.063 1.695 14.063 1.801zm-1.058 10.696c0 .106-6.344-.424-14.168-1.165-7.824-.847-14.063-1.589-14.063-1.8 0-.106 6.344.423 14.169 1.164 7.719.848 14.063 1.589 14.063 1.801z"/></g><path d="M35.527 242.096s-8.353-.636-7.613 18.215c.846 18.745 2.749 28.806 2.749 28.806s-.211 4.13-3.489 3.389c-3.278-.847-9.305-4.872-12.265-1.8-3.066 3.177-2.009 7.942 2.115 13.661s12.688 18.427 13.429 19.592 1.057 3.283-1.269 3.071-17.764-5.401-19.773 2.013c-2.009 7.519 12.054 21.392 13.534 22.981s1.586 2.541.952 3.495-5.604-1.271-10.045-2.648c-4.441-1.271-9.833-2.012-10.679 2.33-.846 4.448 5.393 17.368 28.655 30.924l11.208 5.613 10.574-6.778c21.782-15.886 26.646-29.335 25.377-33.678s-6.556-3.071-10.891-1.27-9.093 4.448-9.728 3.6c-.74-.847-.74-1.906.634-3.6s13.957-16.945 11.208-24.252c-2.749-7.202-17.658-.53-19.879 0-2.221.423-2.115-1.695-1.48-2.966s7.93-14.826 11.42-20.863 4.124-11.014.74-13.767c-3.278-2.754-8.882 1.906-12.054 3.071s-3.806-2.965-3.806-2.965.952-10.167-.212-28.912-9.622-17.262-9.622-17.262" fill="#ebebeb"/><g class="J"><path d="M36.268 258.934v.424c0 .318 0 .635.106 1.165l.317 4.448.952 16.309 2.538 54.011 2.432 54.011.846 16.309.211 4.448v1.589c0-.742 0-1.06-.106-1.589l-.317-4.448-.952-16.309-2.538-54.011-2.432-54.011-.846-16.309-.212-4.448v-1.589z"/><path d="M23.156 296.636l.74.53 1.797 1.694 5.604 5.825 5.498 6.036 1.692 1.801c.423.423.634.635.634.741l-.74-.53-1.797-1.694-5.604-5.931-5.498-5.93-1.692-1.801c-.423-.423-.635-.741-.635-.741zm16.918 16.309c-.106-.106 4.018-4.342 9.093-9.531s9.305-9.319 9.411-9.319c.106.105-4.018 4.342-9.093 9.531l-9.41 9.319zm-.106 32.407l.74-.53c.634-.317 1.375-.741 2.221-1.271l7.084-4.13 6.979-4.448 2.115-1.376c.529-.318.74-.53.846-.424 0 0-.212.212-.74.635l-2.009 1.483c-1.692 1.271-4.124 2.859-6.873 4.554l-7.19 4.024c-.952.53-1.692.847-2.221 1.059l-.952.424zM21.464 334.02a6.29 6.29 0 0 0 .74.318c.529.212 1.163.635 2.009 1.165l6.556 3.812 6.556 3.919 2.009 1.271.74.529s-.317-.106-.74-.318c-.529-.211-1.163-.635-2.009-1.165l-6.556-3.812-6.556-3.918-2.009-1.271c-.529-.318-.74-.53-.74-.53zm-3.7 28.594s.317.106.952.424l2.643 1.482 8.459 4.872 8.459 4.977 2.538 1.589.952.635s-.317-.105-.952-.423l-2.643-1.483-8.459-4.871-8.459-4.978-2.538-1.588-.952-.636z"/><path d="M41.237 376.064l.952-.636 2.749-1.694c2.326-1.377 5.498-3.389 8.882-5.613a275.8 275.8 0 0 0 8.67-5.93c1.057-.742 1.903-1.377 2.643-1.801l.952-.635s-.317.317-.846.741c-.635.424-1.48 1.165-2.538 1.906-2.115 1.589-5.181 3.707-8.67 6.037-3.384 2.224-6.662 4.13-8.988 5.507-1.163.635-2.115 1.165-2.749 1.588s-.952.636-1.057.53zm16.813 19.38H27.174l10.045 76.463h10.785l10.045-76.463z"/></g><g fill="#f5f5f5"><path d="M28.76 404.87s0 .106.211.317c.106.212.423.424.74.53.74.318 2.009.318 3.278-.424s2.326-2.012 4.018-2.647 3.701-.53 5.71.106 3.701 1.588 5.287 2.541 2.961 1.801 4.335 2.33c1.269.53 2.432.847 3.172.953.423 0 .74.106.846.106h.317c0-.106-1.798-.106-4.229-1.271-1.269-.529-2.643-1.376-4.23-2.435-1.586-.954-3.278-2.013-5.393-2.648-2.009-.635-4.229-.741-6.027-.106-.846.318-1.586.847-2.22 1.377s-1.163 1.059-1.797 1.377c-1.163.741-2.326.741-2.961.529-.74-.318-1.057-.741-1.057-.635zm1.163 14.085s.211-.318.74-.847 1.269-1.165 2.432-1.589a10.7 10.7 0 0 1 4.335-.635c1.692.106 3.489.423 5.392.741s3.807.424 5.498.212 3.172-.742 4.335-1.271 2.009-1.165 2.643-1.589l.846-.741c-.106-.106-1.269.953-3.595 2.012a12.39 12.39 0 0 1-4.23 1.059c-1.692.212-3.489.106-5.392-.317l-5.498-.742c-1.692 0-3.278.318-4.441.742-1.163.529-2.009 1.27-2.432 1.8-.212.318-.423.529-.423.635-.211.424-.211.424-.211.53zm24.637 7.519s-.317-.212-.846-.424-1.48-.423-2.538-.529-2.432 0-3.912.212-2.961.635-4.652.953c-1.586.318-3.172.529-4.652.529-1.375 0-2.643-.317-3.701-.741-2.009-.847-2.749-2.118-2.749-2.118s.106.318.529.847 1.057 1.059 2.115 1.589c.952.529 2.326.847 3.807.953s3.066-.106 4.758-.53l4.547-1.059c1.374-.211 2.749-.317 3.807-.317 2.221 0 3.489.741 3.489.635zm-21.887 10.59c0 .106 1.057-.741 2.961-.317.952.211 2.009.635 3.172 1.165s2.538 1.059 4.124 1.165c3.066.317 5.71-.742 7.401-1.695.846-.529 1.48-1.059 1.798-1.377.423-.423.529-.635.529-.635-.106-.106-.846.847-2.538 1.8s-4.23 1.801-7.19 1.483c-2.961-.212-5.181-1.906-7.19-2.118-.952-.106-1.798 0-2.326.212-.529.106-.846.317-.74.317zm1.691 14.721c0 .106 1.057 0 2.538-.529 1.586-.53 3.489-1.695 5.71-2.648 1.163-.424 2.221-.741 3.278-.741s1.903.211 2.643.635c1.375.741 1.797 1.694 1.903 1.694 0 0 0-.211-.317-.635-.211-.424-.74-.847-1.48-1.271s-1.692-.741-2.855-.741c-1.057 0-2.326.212-3.489.635-2.326.953-4.23 2.118-5.71 2.754-1.269.635-2.22.741-2.22.847zm1.481 6.778c0 .106.74.318 2.009.635s2.961.636 4.864.848 3.701.211 4.97.105l2.009-.211c0-.106-3.172 0-6.979-.424-3.806-.318-6.767-1.059-6.873-.953z"/></g><path d="M132.806 139.687s2.855-17.262 3.595-18.639c.634-1.271 8.67-9.426 9.622-9.531.951-.212 13.428-4.131 12.794-2.119-.74 1.907-9.516 4.554-9.516 4.554l-.846 1.059s7.507-2.435 9.41-2.435c1.692.105 2.009 1.8.635 2.329s-7.931 2.436-8.248 2.86c-.211.423 7.402-1.801 8.353-1.695 1.269.106 2.221 1.695.952 2.224-.74.318-8.142 2.013-8.142 2.013s6.133-.742 6.873-.53c1.163.318 1.058 1.694-.211 2.012-.846.212-5.393.424-6.45.742 0 0-.846.741-.846 2.965 0 2.33-2.961 8.366-2.961 8.366l-15.014 5.825z" class="K"/><path d="M158.711 109.398s-.634.742-1.797 1.589a15.39 15.39 0 0 1-2.326 1.271l-3.067 1.059c-.846.318-1.586.529-2.326.741l.106-.106-4.23 4.025c-.105-.106 1.481-1.907 3.913-4.342h.105c.741-.212 1.481-.53 2.327-.848l3.066-1.059c.952-.317 1.692-.741 2.326-1.165 1.163-.635 1.798-1.27 1.903-1.165z" fill="#eb996e"/><use xlink:href="#B" class="D"/><use xlink:href="#B" class="B E"/><g class="D"><path d="M308.434 327.56l-170.659-17.58c-5.181-.529-8.988-5.189-8.459-10.484l29.606-287.423C159.663 4.66 166.324-.741 173.726 0l162.728 16.839c7.402.741 12.795 7.413 12.054 14.827l-29.606 287.423c-.634 5.189-5.287 9.002-10.468 8.472z"/><use xlink:href="#C"/></g><g class="B E"><use xlink:href="#C" class="B"/></g><path d="M170.702 32.236l-6.546 63.627 162.077 16.728 6.546-63.627-162.077-16.728z" class="L"/><path d="M326.198 112.576s0-.424.106-1.165l.317-3.283 1.269-12.603 4.652-46.598.212.212-162.095-16.627.317-.212-6.555 63.648-.212-.318 161.249 16.839c.529.106.74.106.74.106s-.211 0-.74-.106c-.529 0-1.269-.106-2.326-.212l-8.988-.847-33.73-3.389-116.522-11.862v-.212l6.556-63.648v-.318h.317l162.306 16.733v.212l-4.864 46.704-1.374 12.603-.318 3.283-.317 1.059z" class="C"/><use xlink:href="#D" class="D"/><g class="B E"><use xlink:href="#D" class="B"/></g><path d="M188.846 151.972l-23.156-2.436c-1.163-.106-2.115-1.165-2.009-2.436l2.432-23.193c.106-1.165 1.163-2.118 2.432-2.012l23.156 2.436c1.163.106 2.115 1.165 2.009 2.436l-2.432 23.193c-.106 1.27-1.163 2.118-2.432 2.012z" class="C"/><path d="M181.233 131.321l-1.163 11.543-2.643-.318.951-9.319-2.326-.212.212-2.118 4.969.424z" class="F"/><use xlink:href="#E" class="D"/><g class="B E"><use xlink:href="#E" class="B"/></g><path d="M227.334 155.996l-23.156-2.436c-1.163-.106-2.115-1.165-2.009-2.436l2.432-23.192c.105-1.165 1.163-2.118 2.432-2.013l23.156 2.436c1.163.106 2.115 1.165 2.009 2.436l-2.432 23.193c-.211 1.165-1.269 2.118-2.432 2.012z" class="C"/><path d="M222.893 145.088l-.211 2.118-8.671-.847.212-1.695 4.864-3.706c1.163-.847 1.374-1.483 1.374-2.012.106-.954-.423-1.483-1.692-1.589-.951-.106-1.903.212-2.537.953l-1.798-1.482c1.058-1.165 2.749-1.907 4.758-1.695 2.538.212 4.124 1.8 3.913 3.813-.106 1.165-.529 2.118-2.327 3.388l-2.854 2.224 4.969.53z" class="F"/><use xlink:href="#F" class="D"/><g class="B E"><use xlink:href="#F" class="B"/></g><path d="M267.091 160.02l-23.156-2.435c-1.163-.106-2.115-1.165-2.009-2.436l2.432-23.193c.106-1.165 1.163-2.118 2.432-2.012l23.156 2.436c1.163.105 2.115 1.164 2.009 2.435l-2.432 23.193c-.105 1.271-1.163 2.224-2.432 2.012z" class="C"/><path d="M262.756 147.841c-.211 1.907-1.903 3.601-5.181 3.178-1.586-.212-3.172-.742-4.229-1.695l1.269-1.906c.845.741 2.009 1.271 3.172 1.377 1.374.105 2.22-.318 2.326-1.271.106-.847-.529-1.483-2.009-1.589l-1.163-.106.211-1.8 2.644-2.436-4.864-.529.211-2.118 8.036.847-.211 1.694-2.855 2.648c1.903.529 2.749 2.012 2.643 3.706z" class="F"/><use xlink:href="#G" class="D"/><g class="B E"><use xlink:href="#G" class="B"/></g><path d="M307.06 164.151l-23.157-2.436c-1.163-.106-2.114-1.165-2.009-2.436l2.432-23.193c.106-1.165 1.163-2.118 2.432-2.012l23.157 2.436c1.163.106 2.114 1.165 2.009 2.436l-2.432 23.193c-.106 1.27-1.269 2.118-2.432 2.012z" class="C"/><g class="F"><path d="M290.69 147.529l-.108 1.053 12.306 1.27.108-1.053-12.306-1.27zm8.651-4.03c-.106 1.059-1.057 1.907-2.221 1.801-1.057-.106-1.903-1.059-1.797-2.224a2.03 2.03 0 0 1 2.22-1.801c1.058.212 1.904 1.165 1.798 2.224zm-1.163 10.803c-.106 1.059-1.058 1.906-2.221 1.8-1.057-.106-1.903-1.059-1.797-2.224.106-1.059 1.057-1.906 2.22-1.8s1.904 1.165 1.798 2.224z"/></g><use xlink:href="#H" class="D"/><g class="B E"><use xlink:href="#H" class="B"/></g><use xlink:href="#I" class="C"/><path d="M179.541 181.201l-1.903-.212-.212 2.436-2.643-.318.212-2.435-6.133-.636.211-1.8 6.133-6.778 2.749.318-5.71 6.354 3.067.318.211-2.118 2.538.211-.212 2.118 1.904.212-.212 2.33z" class="F"/><use xlink:href="#J" class="D"/><g class="B E"><use xlink:href="#J" class="B"/></g><path d="M223.105 196.345l-23.157-2.435c-1.163-.106-2.115-1.165-2.009-2.436l2.432-23.193c.106-1.165 1.163-2.118 2.432-2.012l23.156 2.436c1.164.105 2.115 1.164 2.009 2.435l-2.432 23.193c-.105 1.271-1.163 2.118-2.431 2.012z" class="C"/><path d="M217.606 183.849c-.211 2.012-1.903 3.706-5.181 3.283-1.586-.212-3.172-.742-4.229-1.695l1.269-1.906c.846.741 2.009 1.271 3.172 1.377 1.374.106 2.22-.318 2.326-1.271s-.423-1.589-2.538-1.8l-2.96-.318 1.268-6.46 6.979.741-.211 2.118-4.759-.529-.422 2.118.951.106c3.384.529 4.547 2.224 4.335 4.236z" class="F"/><use xlink:href="#K" class="D"/><g class="B E"><use xlink:href="#K" class="B"/></g><path d="M262.967 200.476l-23.156-2.436c-1.163-.106-2.115-1.165-2.009-2.436l2.432-23.193c.106-1.165 1.163-2.118 2.432-2.012l23.156 2.436c1.163.106 2.115 1.165 2.009 2.436l-2.432 23.192c-.105 1.271-1.269 2.119-2.432 2.013z" class="C"/><path d="M258.209 188.085c-.211 2.33-2.326 3.601-4.758 3.389-3.172-.318-4.97-2.542-4.547-6.248.423-4.025 3.067-5.931 6.45-5.613 1.163.106 2.327.529 3.067 1.165l-1.163 1.906c-.635-.53-1.269-.741-2.115-.847-1.903-.212-3.278.847-3.595 2.965.74-.636 1.692-.847 2.96-.741 2.327.211 3.913 1.8 3.701 4.024zm-2.537-.212c.105-1.059-.635-1.8-1.798-1.906s-2.009.529-2.115 1.482.529 1.801 1.798 1.907c1.163.212 2.009-.424 2.115-1.483z" class="F"/><use xlink:href="#L" class="D"/><g class="B E"><use xlink:href="#L" class="B"/></g><path d="M302.83 204.606l-23.156-2.436c-1.163-.106-2.115-1.165-2.009-2.436l2.432-23.193c.105-1.165 1.163-2.118 2.432-2.012l23.156 2.436c1.163.106 2.115 1.165 2.009 2.436l-2.432 23.193c-.211 1.271-1.269 2.118-2.432 2.012z" class="C"/><g class="F"><path d="M297.13 185.323l-9.713 7.672.654.832 9.714-7.672-.655-.832z"/><path d="M289.196 184.45l-.82.668 7.806 9.613.821-.669-7.807-9.612z"/></g><use xlink:href="#M" class="D"/><g class="B E"><use xlink:href="#M" class="B"/></g><path d="M180.599 232.459l-23.157-2.436c-1.163-.106-2.114-1.165-2.009-2.436l2.432-23.193c.106-1.165 1.163-2.118 2.432-2.012l23.157 2.436c1.163.106 2.114 1.165 2.009 2.435l-2.432 23.193c-.106 1.271-1.269 2.224-2.432 2.013z" class="C"/><path d="M174.783 212.019l-.211 1.695-5.287 9.319-2.855-.318 5.075-8.896-3.806-.423-.212 1.906-2.326-.212.423-4.024 9.199.953z" class="F"/><use xlink:href="#N" class="D"/><g class="B E"><use xlink:href="#N" class="B"/></g><path d="M218.981 236.483l-23.156-2.436c-1.163-.106-2.115-1.165-2.009-2.436l2.432-23.193c.105-1.165 1.163-2.118 2.432-2.012l23.156 2.436c1.163.106 2.115 1.165 2.009 2.436l-2.432 23.193c-.106 1.27-1.163 2.118-2.432 2.012z" class="C"/><path d="M214.329 224.304c-.212 2.118-2.326 3.283-5.181 3.071-2.855-.318-4.653-1.906-4.441-4.024.106-1.271.846-2.118 2.009-2.542-.846-.635-1.163-1.483-1.058-2.542.212-2.012 2.115-3.071 4.759-2.859 2.643.318 4.335 1.694 4.123 3.707-.105 1.059-.634 1.8-1.586 2.224.952.847 1.586 1.8 1.375 2.965zm-2.644-.318c.106-1.059-.634-1.694-2.009-1.906-1.268-.106-2.22.424-2.326 1.377-.106 1.059.635 1.694 2.009 1.906s2.221-.318 2.326-1.377zm-3.383-5.295c-.106.847.529 1.483 1.586 1.589s1.903-.318 1.903-1.271c.106-.953-.529-1.483-1.692-1.589-.951-.106-1.797.424-1.797 1.271z" class="F"/><use xlink:href="#O" class="D"/><g class="B E"><use xlink:href="#O" class="B"/></g><path d="M258.844 240.613l-23.157-2.436c-1.163-.106-2.114-1.165-2.009-2.435l2.432-23.193c.106-1.165 1.164-2.118 2.432-2.013l23.157 2.436c1.163.106 2.114 1.165 2.009 2.436l-2.432 23.193c-.106 1.165-1.269 2.118-2.432 2.012z" class="C"/><path d="M254.086 225.787c-.423 4.024-3.067 5.93-6.45 5.613-1.163-.106-2.327-.53-3.067-1.165l1.163-1.907c.529.53 1.269.742 2.115.848 1.903.211 3.278-.848 3.595-3.072-.74.636-1.797.848-2.96.742-2.221-.212-3.807-1.801-3.595-4.025.211-2.33 2.326-3.6 4.758-3.389 3.066.424 4.758 2.648 4.441 6.355zm-2.855-2.33c.106-.953-.529-1.801-1.798-1.907-1.163-.105-2.009.424-2.115 1.483s.635 1.8 1.798 1.906 2.009-.529 2.115-1.482z" class="F"/><use xlink:href="#P" class="D"/><g class="B E"><use xlink:href="#P" class="B"/></g><path d="M298.707 244.637l-23.157-2.435c-1.163-.106-2.114-1.165-2.009-2.436l2.432-23.193c.106-1.165 1.163-2.118 2.432-2.012l23.156 2.436c1.164.105 2.115 1.164 2.009 2.435l-2.431 23.193c-.212 1.271-1.269 2.224-2.432 2.012z" class="C"/><path d="M282.364 228.485l-.109 1.053 12.306 1.269.108-1.053-12.305-1.269z" class="F"/><path d="M258.949 281.492l-23.156-2.436c-1.163-.106-2.115-1.165-2.009-2.436l2.432-23.193c.106-1.165 1.163-2.118 2.432-2.012l23.156 2.436c1.163.106 2.115 1.165 2.009 2.436l-2.432 23.193c-.106 1.271-1.269 2.118-2.432 2.012z" class="D"/><g class="B E"><path d="M258.949 281.492l-23.156-2.436c-1.163-.106-2.115-1.165-2.009-2.436l2.432-23.193c.106-1.165 1.163-2.118 2.432-2.012l23.156 2.436c1.163.106 2.115 1.165 2.009 2.436l-2.432 23.193c-.106 1.271-1.269 2.118-2.432 2.012z" class="B"/></g><path d="M254.72 281.068l-23.157-2.436c-1.163-.105-2.114-1.164-2.009-2.435l2.432-23.193c.106-1.165 1.163-2.118 2.432-2.012l23.157 2.435c1.163.106 2.114 1.165 2.009 2.436l-2.432 23.193c-.212 1.165-1.269 2.118-2.432 2.012z" class="C"/><use xlink:href="#Q" class="D"/><g class="B E"><use xlink:href="#Q" class="B"/></g><path d="M294.477 285.093l-23.156-2.436c-1.163-.106-2.115-1.165-2.009-2.436l2.432-23.193c.105-1.165 1.163-2.118 2.432-2.012l23.156 2.436c1.163.106 2.115 1.165 2.009 2.436l-2.432 23.192c-.106 1.271-1.163 2.119-2.432 2.013z" class="H"/><g class="F"><path d="M278.414 267.438l-.108 1.053 12.305 1.269.109-1.053-12.306-1.269zm-.517 4.734l-.108 1.053 12.305 1.269.108-1.054-12.305-1.268z"/></g><path d="M213.482 277.15l-61.221-6.354c-1.48-.106-2.538-1.483-2.326-2.86l2.326-22.981c.106-1.483 1.48-2.542 2.855-2.33l61.221 6.354c1.481.106 2.538 1.483 2.327 2.86l-2.327 22.981c-.105 1.377-1.374 2.436-2.855 2.33z" class="C"/><g class="F"><path d="M181.867 259.04c.423-3.812 2.749-5.719 5.499-5.401 2.855.318 4.652 2.648 4.335 6.46-.423 3.813-2.644 5.719-5.498 5.401s-4.759-2.753-4.336-6.46zm7.085.742c.317-2.648-.529-3.813-1.904-3.919-1.268-.106-2.326.847-2.643 3.495s.529 3.813 1.798 3.918c1.48.106 2.537-.953 2.749-3.494zm55.767.029l-1.449 12.305 1.05.124 1.45-12.305-1.051-.124z"/><path d="M238.358 264.807l-.108 1.054 12.305 1.268.108-1.053-12.305-1.269z"/></g><g class="C"><path d="M232.621 71.061l-1.798 17.156-.846-.106 1.692-16.415-4.335-.424.106-.741 5.181.53zm14.169 18.11l-.106.741-11.631-1.165.105-.635 8.142-6.672c2.326-1.906 2.855-3.071 3.067-4.554.211-2.33-1.164-3.918-4.23-4.236-2.326-.212-4.018.212-5.392 1.483l-.529-.635c1.374-1.377 3.489-1.906 5.921-1.695 3.278.318 5.181 2.224 4.864 4.977-.211 1.589-.846 2.965-3.278 4.978l-7.401 6.037 10.468 1.377zm13.534-2.648c-.317 2.859-2.538 4.66-6.239 4.236-2.537-.318-4.758-1.483-5.71-2.965l.529-.529c.846 1.377 2.855 2.542 5.287 2.753 3.278.318 5.181-1.059 5.393-3.601s-1.269-4.236-4.864-4.66l-.952-.106.106-.635 6.027-6.46-9.516-.953.105-.741 10.574 1.059-.106.635-6.133 6.46c4.018.424 5.816 2.648 5.499 5.507zm16.918 1.483l-3.701-.424-.529 4.977-.846-.106.529-4.977-9.834-1.059.106-.635 10.679-10.696.952.106-10.574 10.484 8.777 1.165.423-4.342.845.106-.423 4.342 3.701.424-.105.635zm3.595 4.66c0 .318-.106.529-.212.847l-1.268 3.177-.635-.106 1.058-3.283c-.423-.106-.635-.424-.635-.847s.423-.741.846-.741a.98.98 0 0 1 .846.953zm17.023-2.542l-3.701-.424-.528 4.977-.846-.106.529-4.978-9.834-1.059.106-.635 10.679-10.696.952.106-10.574 10.484 8.776.953.423-4.342.846.106-.423 4.342 3.701.424-.106.847zm12.689 1.483c-.318 2.754-2.432 4.766-6.345 4.342-2.537-.212-4.758-1.483-5.709-2.965l.528-.529c.846 1.377 2.855 2.542 5.287 2.754 3.384.318 5.181-1.271 5.393-3.707.317-2.648-1.163-4.342-6.027-4.872l-3.384-.318 1.692-8.049 8.882.953-.106.741-8.142-.847-1.374 6.46 2.643.318c5.287.529 6.979 2.648 6.662 5.719z"/></g><path d="M123.078 443.842l-6.767 24.888 21.887 2.012 4.547-23.723-19.667-3.177z" class="D"/><path d="M138.832 468.624c0 .106-1.269 0-3.172-.106-2.009-.106-4.652-.424-7.719-.847l-7.613-1.059-3.172-.53c0-.106 1.269 0 3.172.106l7.613.847 7.613 1.059 3.278.53z" class="C"/><g class="G F"><g class="G"><g class="G"><path d="M116.311 468.73l21.887 2.012.317-1.906-21.57-2.754-.634 2.33" class="G"/></g></g></g><g class="C"><path d="M127.201 467.565c-.105 0 .74-4.342 2.115-9.532l2.538-9.425c.105 0-.74 4.342-2.115 9.531l-2.538 9.426z"/><path d="M137.564 468.518c-.106 0 .74-1.801 0-4.66-.317-1.377-1.058-2.965-2.432-4.342-1.269-1.377-3.278-2.33-5.393-2.542s-4.229.318-5.815 1.377c-1.586.953-2.749 2.33-3.384 3.601-1.374 2.541-1.269 4.448-1.374 4.448v-1.271c.105-.847.317-2.012 1.057-3.283.634-1.271 1.797-2.754 3.489-3.813s3.912-1.694 6.133-1.482 4.335 1.27 5.71 2.647c1.374 1.483 2.114 3.177 2.432 4.554.317 1.483.211 2.648 0 3.495-.106.424-.212.741-.318.953 0 .212-.105.318-.105.318z"/></g><path d="M213.165 440.983l-1.268 19.592s19.455 6.46 19.561 10.167l-38.065.317.74-30.606 19.032.53z" class="D"/><g class="G F"><g class="G"><g class="G"><path d="M200.16 458.563c-.74.212-1.269.953-1.163 1.694s.952 1.271 1.692 1.165c.74-.212 1.374-1.165 1.163-1.8-.212-.741-1.269-1.271-1.903-.953" class="G"/></g></g></g><g class="G F"><g class="G"><path d="M193.393 470.954l.211-3.072 36.691 1.059s1.269.53 1.374 2.118l-38.276-.105z" class="G"/></g></g><g class="C"><path d="M212.531 460.363c0 .212-.952.212-1.903.847-.952.53-1.481 1.377-1.586 1.271-.212 0 .105-1.165 1.268-1.8 1.164-.741 2.221-.424 2.221-.318zm3.912 1.801c0 .211-.74.423-1.48 1.27-.635.742-.846 1.589-1.058 1.589s-.317-1.059.529-2.012c.952-.953 2.009-1.059 2.009-.847zm2.115 4.871c-.211 0-.423-.953.106-1.906.529-1.059 1.374-1.377 1.48-1.271s-.529.635-.846 1.483c-.423.847-.528 1.694-.74 1.694zm-6.239-11.12c-.105.212-.951-.106-2.009-.106s-1.903.318-2.009.212.741-.847 1.904-.847c1.374 0 2.22.529 2.114.741z"/></g><g class="I E"><g class="I"><path d="M212.954 444.795l-.317 3.495-18.61-.741v-3.071l18.927.317z" class="I"/></g></g><g class="C"><path d="M212.531 451.891c0 .106-.74.212-1.903-.106-.529-.106-1.269-.318-2.009-.635l-1.058-.636c-.211-.106-.423-.212-.528-.423-.212-.212-.318-.742-.106-.954.211-.317.528-.423.846-.423s.528.106.74.106c.423.106.846.317 1.163.423.74.318 1.269.742 1.692 1.165.846.847 1.163 1.589 1.057 1.589-.106.106-.529-.53-1.374-1.271-.423-.318-.952-.741-1.692-1.059-.317-.106-.74-.318-1.058-.424-.423-.106-.74-.106-.846 0v.212c.106.106.212.212.423.318l.952.635c.634.318 1.269.636 1.798.742 1.163.635 1.903.635 1.903.741z"/><path d="M212.214 452.209c-.106 0-.423-.636-.423-1.907 0-.635.106-1.27.317-2.118.106-.423.317-.741.529-1.165.211-.317.529-.847 1.269-.953.423 0 .634.318.74.53s.106.529.211.741c.106.424 0 .847 0 1.271-.105.847-.528 1.483-.846 1.906-.74.953-1.586 1.165-1.586 1.059-.105-.106.635-.423 1.164-1.377.317-.423.528-1.059.634-1.8 0-.318.106-.741 0-1.059 0-.424-.212-.741-.317-.741-.212 0-.529.317-.635.635-.211.318-.423.636-.528 1.059-.212.636-.423 1.377-.423 1.906-.106 1.271 0 2.013-.106 2.013z"/></g><path d="M130.585 135.557s-4.124 22.557-7.402 36.219c-2.537 10.59-9.199 30.5 2.855 36.219 12.054 5.824 28.338-17.474 28.338-17.474l6.873-53.058c-4.759.847-10.257 6.46-15.967 14.615l1.058-20.122-15.755 3.601z" class="H"/><g class="K"><path d="M296.697 168.916l-6.344 3.072-5.815-9.214 4.441-9.32c.422-.953.634-2.012.74-3.071.105-1.271.105-3.071-.106-4.024-.317-1.165.952-2.118 1.797-1.483.846.742 1.798 3.919 1.164 7.837s3.912-.212 5.604-1.694 7.084-5.825 7.93-5.613c1.269.212 1.163 1.694-.529 3.071-1.692 1.483-6.555 6.142-5.71 6.99 2.009.211 3.701 1.694 4.124 3.706.423 1.906.74 4.554-.317 5.401-2.009 1.695-6.979 4.342-6.979 4.342zM173.62 83.346l-.211 55.176 23.685 1.165.634-13.45s8.353 1.695 10.574-6.142c1.374-4.978 1.057-43.527 1.057-43.527l-35.739 6.778z"/></g><path d="M214.752 81.969c-1.586 3.283-9.2 9.32-9.2 9.32l-3.383 9.214c-2.961-2.33-6.979-2.224-7.719 3.071-.529 3.812 4.124 4.554 4.124 4.554-2.749 4.659-4.547 8.472-8.565 12.814-4.335 4.766-6.767 5.295-11.419 5.401h-5.182s-10.573-8.79-8.458-32.089c2.114-23.193 22.944-16.415 27.914-22.24 8.142-9.531 27.174-1.059 21.888 9.955z" class="C"/><g class="H"><path d="M166.113 113.635h.634c.423 0 1.058 0 1.903-.212 1.587-.318 3.913-1.271 6.027-3.177 2.221-1.907 4.124-4.872 6.133-8.261.952-1.694 2.009-3.389 3.278-5.083s2.749-3.389 4.652-4.66 4.018-2.012 6.027-2.542 4.124-.847 6.027-1.271c3.807-.741 7.191-1.8 9.517-3.601s3.489-4.024 3.912-5.613c.212-.847.212-1.483.212-1.906v-.635s-.001.212.105.635c0 .424 0 1.059-.211 1.906-.317 1.589-1.481 3.918-3.807 5.719s-5.815 2.965-9.622 3.601c-1.903.424-3.912.741-5.921 1.271s-4.124 1.271-5.921 2.542-3.278 2.859-4.547 4.554-2.326 3.495-3.278 5.083c-2.009 3.389-3.912 6.249-6.238 8.261-2.221 2.012-4.547 2.859-6.133 3.177-.846.212-1.48.212-1.903.212-.529.106-.846 0-.846 0zm-1.163-18.851s.423-.106 1.057-.424c.74-.212 1.798-.635 3.278-.741 1.374-.212 3.383-.106 5.075 1.059.846.635 1.586 1.483 1.798 2.753.211 1.165 0 2.542-1.058 3.495-.528.424-1.163.741-1.903.741s-1.374-.211-2.009-.529c-1.269-.741-2.22-1.906-2.749-3.389s-.529-3.071-.211-4.66 1.268-3.177 2.537-4.236c1.269-1.165 2.961-1.906 4.758-2.118s3.595.212 5.393.741 3.595 1.059 5.498 1.271 3.807.212 5.816 0c1.903-.318 3.806-.741 5.604-1.589 1.692-.847 3.278-2.118 3.701-3.918a5.05 5.05 0 0 0-1.269-4.977c-1.269-1.271-3.278-1.377-4.758-.741-.741.318-1.375.953-1.798 1.694s-.423 1.589-.423 2.33c.212 1.588 1.163 2.965 2.432 3.813s2.749 1.165 4.124 1.165 2.749-.212 4.018-.636c2.432-.741 4.441-2.118 5.815-3.601a16.21 16.21 0 0 0 3.067-4.236c.635-1.271.951-2.436 1.057-3.177l.212-1.165s-.106.424-.212 1.165c-.211.741-.423 1.8-1.057 3.177-.635 1.271-1.586 2.859-3.067 4.342s-3.383 2.859-5.921 3.601a12.76 12.76 0 0 1-4.018.635c-1.374 0-2.961-.318-4.229-1.165s-2.327-2.33-2.538-3.918c-.106-.847 0-1.695.423-2.436s1.057-1.377 1.903-1.695c1.586-.741 3.701-.529 4.97.741 1.374 1.271 1.797 3.389 1.269 5.189-.529 1.906-2.115 3.283-3.807 4.024-1.797.847-3.701 1.271-5.604 1.588a26.67 26.67 0 0 1-5.815 0c-1.904-.212-3.701-.847-5.499-1.377s-3.595-.847-5.392-.741a8.22 8.22 0 0 0-4.653 2.118c-2.643 2.224-3.278 5.931-2.326 8.79.423 1.483 1.375 2.648 2.643 3.389.635.318 1.269.529 1.904.529s1.269-.317 1.797-.741c.952-.847 1.163-2.224 1.058-3.283-.212-1.165-.952-2.012-1.692-2.648-1.692-1.165-3.595-1.271-4.97-1.165-1.48.106-2.538.529-3.278.741l-.951.212z"/></g><g class="C"><path d="M149.406 244.955l-31.51 207.042 26.117 3.389 36.903-173.682 9.304 174.847 28.338-.53-4.758-210.536-64.394-.53z"/><path d="M189.692 457.08v-.529l-9.093-170.823-36.162 170.187-27.175-3.495 31.616-207.994 65.451.529 4.758 211.596-29.395.529zm-8.459-179.401l9.516 178.342 27.28-.529-4.652-209.478-63.442-.529-31.298 205.982 25.165 3.177 37.431-176.965z"/></g><g class="H"><path d="M210.099 455.703c-.106 0-.317-41.514-.317-92.665l.317-92.666c.106 0 .317 41.514.317 92.666l-.317 92.665zm-71.795-.741s0-.106.105-.423.106-.742.212-1.271l.952-5.084 3.7-18.427 12.794-60.789 13.641-60.682 4.335-18.322 1.163-4.977.423-1.695s0 .106-.106.424-.106.741-.317 1.271l-1.058 4.977-4.123 18.427-13.429 60.683-13.005 60.789-4.97 23.405-.317 1.271v.423zm51.916-173.47s-.422.106-1.163.106c-.846.106-2.009.106-3.277.212l-10.786.741c-4.229.424-7.93.953-10.679 1.377-1.269.212-2.326.317-3.278.423-.74.106-1.163.106-1.163.106s.423-.106 1.163-.317c.74-.106 1.903-.318 3.172-.636 2.749-.424 6.45-1.059 10.68-1.483s8.036-.529 10.785-.635c1.374 0 2.537-.106 3.278-.106.846.212 1.268.212 1.268.212zm24.108-13.45s-.317.106-.845.212-1.269.106-2.327.106a14.17 14.17 0 0 1-7.084-2.436c-2.432-1.8-3.912-4.13-4.547-5.931l-.634-2.224c-.106-.529-.106-.847-.106-.847.106 0 .317 1.165 1.058 2.86s2.22 3.918 4.546 5.613 4.97 2.329 6.767 2.541c2.009.212 3.172 0 3.172.106zm-70.315-18.957l72.43-.211-3.912-47.869-.635-22.346s10.257 12.497 18.398 21.181c4.864 5.295 12.583 6.778 19.139 3.707L291.727 174l-7.93-20.334-38.488 23.617c-1.798-1.059-16.706-22.452-27.069-32.936-6.661-6.672-15.543-10.485-24.953-10.803-7.085-.211-15.65.106-23.368.954-11.631 1.27-20.725 10.59-21.782 22.345-.74 8.896-.106 19.381-.106 36.961l-4.018 55.281z"/></g><g class="C"><path d="M147.397 161.503v8.049c0 4.977.211 11.861.422 19.486s.212 14.509.106 19.486l-.317 5.931c0 .635-.106 1.165-.106 1.588 0 .318-.105.53-.105.53v-.53c0-.423.105-.953.105-1.588.106-1.377.212-3.389.212-5.931.105-4.977.105-11.861-.106-19.486l-.423-19.486c0-2.436 0-4.554.106-5.931v-1.588c.106-.318.106-.53.106-.53zm96.22 22.558s0-.424.106-.954c.106-.635.317-1.482.529-2.329l.634-2.33.317-.953s0 .423-.105.953c-.106.635-.318 1.482-.529 2.33l-.635 2.329c-.211.53-.317.954-.317.954zm3.807.529c-.106 0-.529-1.694-.952-3.813-.528-2.118-.846-3.812-.74-3.812s.529 1.694.952 3.812c.528 2.119.846 3.813.74 3.813zm-33.836-4.236s-.106-.106-.423-.318l-5.076-5.083-5.392-6.46c-1.903-2.542-3.701-5.613-4.864-9.002-1.269-3.389-1.797-6.99-1.586-10.167.106-3.177.74-6.036 1.797-8.154 1.058-2.224 2.538-3.601 3.596-4.343.528-.423.951-.635 1.268-.847s.423-.212.423-.212-.634.318-1.691 1.165-2.432 2.224-3.49 4.342-1.586 4.978-1.797 8.155.317 6.672 1.586 10.061 3.066 6.46 4.864 9.002 3.7 4.659 5.392 6.46c1.586 1.8 2.961 3.177 3.912 4.13.423.424.741.847 1.058 1.059.317.106.423.212.423.212z"/></g><g class="L"><path d="M166.535 160.656c-.105.106-1.268-1.059-2.432-2.648-1.268-1.588-2.22-2.965-2.009-3.071.106-.106 1.269 1.059 2.432 2.648l2.009 3.071zm16.39 18.745c.105.106-1.481 1.8-3.384 3.812-2.009 2.012-3.701 3.495-3.807 3.389s1.481-1.8 3.384-3.812l3.807-3.389zm15.966 26.899c-.106 0-.74-1.588-1.798-3.389l-2.115-3.283c.106-.106 1.481 1.059 2.538 2.966 1.163 1.906 1.48 3.6 1.375 3.706zm-41.343-3.071c-.106.106-1.163-2.224-1.692-5.295s-.317-5.613-.212-5.613c.212 0 .212 2.436.741 5.507l1.163 5.401zm21.993 11.755c-.106.106-.952-1.906-1.163-4.448s.211-4.659.423-4.659-.106 2.012.211 4.554c.106 2.541.635 4.553.529 4.553zm-8.671 17.263c-.105.106-2.326-1.165-4.969-2.754l-4.653-3.283c.106-.106 2.327 1.165 4.97 2.754l4.652 3.283zm34.048-5.084c.105.106-2.432 1.377-5.181 3.177l-5.076 3.389c-.106-.106 1.903-2.012 4.864-3.812 2.749-1.906 5.393-2.965 5.393-2.754zm-42.824 19.381c0 .106-2.431-.212-5.286-.742l-5.181-1.376c0-.106 2.431.211 5.286.741l5.181 1.377zm22.839-3.707c-.105.106-1.374-1.271-2.537-3.283s-1.586-3.918-1.375-3.918c.106 0 .846 1.694 1.903 3.706l2.009 3.495zm25.695 1.8c.105.106-.635 1.165-1.692 2.436s-1.903 2.118-2.115 2.012c-.106-.106.634-1.165 1.692-2.435s2.009-2.119 2.115-2.013zm-47.053-72.861c.105.106-.846.953-2.115 1.694-1.269.847-2.326 1.377-2.432 1.271s.846-.953 2.115-1.694c1.269-.848 2.326-1.377 2.432-1.271zm17.869-19.91c-.106 0-1.057-2.33-1.903-5.401s-1.269-5.613-1.057-5.719c.105 0 .74 2.436 1.586 5.507l1.374 5.613zm17.129 18.109c-.105.106-1.586-.423-3.595-.847s-3.595-.423-3.595-.529 1.692-.424 3.701 0 3.595 1.27 3.489 1.376zm11.737-15.356c0 .106-1.797.53-4.018.106-2.22-.317-3.912-1.165-3.806-1.377.105-.105 1.691.424 3.912.848 2.115.317 3.912.212 3.912.423zm12.054 17.157c-.106 0-.211-2.648.317-5.825s1.481-5.719 1.586-5.613c.106 0-.528 2.542-1.057 5.719l-.846 5.719zm14.169 20.333c-.105.106-1.797-1.482-3.806-3.495s-3.49-3.812-3.384-3.918 1.798 1.483 3.807 3.495 3.489 3.812 3.383 3.918zm11.843-1.588c.105.106-.741 1.588-1.904 3.494-1.163 1.801-2.22 3.283-2.326 3.178s.74-1.589 1.903-3.495c1.164-1.801 2.221-3.283 2.327-3.177zm13.64-6.672c-.106.106-1.164-1.801-2.327-4.025-1.163-2.329-1.903-4.236-1.797-4.342s1.163 1.801 2.326 4.025c1.163 2.33 1.903 4.236 1.798 4.342zm18.609-7.731c0 .106-2.22-.106-4.863-.636-2.644-.423-4.759-.953-4.759-1.165 0-.106 2.221.106 4.864.636l4.758 1.165zm-147.82 19.804c-.105-.106.74-2.224 2.009-4.872l2.432-4.554c.106.106-.74 2.224-2.009 4.872-1.163 2.647-2.326 4.66-2.432 4.554zm9.834-17.368c-.106.105-1.586-1.271-3.172-3.178-1.692-1.8-2.855-3.388-2.749-3.494s1.586 1.27 3.172 3.177c1.692 1.8 2.855 3.389 2.749 3.495zm-.74 27.958c.105.106-.635.847-1.586 1.695s-1.904 1.376-2.009 1.27.634-.847 1.586-1.694c.951-.741 1.903-1.377 2.009-1.271zm3.277-46.492c.106.106-.317.848-.951 1.695s-1.269 1.482-1.375 1.377.317-.848.952-1.695 1.269-1.483 1.374-1.377z"/></g><g class="I E"><g class="I"><path d="M200.477 164.786c4.441 14.085 7.93 28.806 12.371 42.891l-1.057-29.123c-4.124-3.813-7.93-8.367-11.314-13.768z" class="I"/></g></g><g class="C"><path d="M127.73 183.213s0-.106.106-.317c.105-.318.317-.636.423-.954l1.691-3.6c1.481-2.966 3.49-7.096 6.027-11.438 2.538-4.448 4.864-8.26 6.768-11.014l2.22-3.283c.212-.318.423-.635.634-.847.106-.212.212-.318.212-.318s-.106.106-.212.318c-.211.212-.317.529-.528.847l-2.115 3.283c-1.797 2.754-4.229 6.672-6.661 11.12s-4.547 8.472-6.027 11.438c-.741 1.376-1.269 2.541-1.692 3.494-.212.318-.317.636-.423.954-.423.211-.423.317-.423.317z"/><path d="M134.815 169.764l-1.164.529c-.74.318-1.691.741-2.643 1.483-.952.635-1.797 1.376-2.326 2.012-.529.529-.846.953-.846.953s0-.106.211-.318c.106-.212.318-.423.529-.741a10.53 10.53 0 0 1 2.221-2.012c.951-.636 2.009-1.165 2.643-1.377l.846-.318c.423-.211.529-.211.529-.211z"/></g><path d="M135.766 148.053c.106.106-1.269 2.33-3.172 4.872-1.903 2.647-3.489 4.66-3.701 4.554-.105-.106 1.269-2.33 3.173-4.872l3.7-4.554z" class="L"/><path d="M143.485 130.792c1.057.317 2.115-.424 2.643-1.271.635-.848.846-1.907 1.375-2.86 1.586-2.753 5.181-4.024 6.556-6.778.211-.423.317-.953 0-1.27-.318-.212-.741-.106-1.164.105l-9.41 4.766" class="K"/><path d="M143.485 123.484l.951-.636 2.749-1.482 4.124-2.119 1.163-.635c.423-.212.846-.529 1.586-.318.318.106.529.53.529.848s-.106.635-.211.847c-.212.423-.529.953-.846 1.271-1.375 1.588-3.067 2.541-4.23 3.706-.634.53-1.163 1.165-1.586 1.801s-.634 1.27-.952 1.906c-.528 1.271-1.48 2.012-2.22 2.224s-1.163-.106-1.163-.106c0-.106.423.106 1.057-.106s1.481-.953 1.904-2.118c.211-.635.528-1.271.845-2.012s.952-1.377 1.586-2.012c1.269-1.271 2.961-2.224 4.23-3.707.317-.318.529-.741.74-1.165s.212-.847 0-.847c-.211-.106-.634.106-1.057.318l-1.163.635-4.124 2.012-2.855 1.271c-.634.318-1.057.424-1.057.424z" fill="#eb996e"/><g class="C"><path d="M438.702 414.402h-66.931v9.213h66.931v-9.213z"/><path d="M438.807 423.721h-67.142v-9.426h67.142v9.426zm-66.931-.212h66.72v-9.002h-66.72v9.002z"/><path d="M377.903 420.543l9.622 47.551h35.633l9.305-44.479-54.56-3.072z"/></g><path d="M377.903 463.646l5.181 7.096h43.352l6.027-7.096h-54.56z" class="H"/><g class="C"><path d="M402.645 421.92c-.105 0-.317-22.028-.422-49.245l.105-49.245c.106 0 .317 22.028.423 49.245l-.106 49.245zm14.909-55.176s0 .212-.211.53c-.106.423-.317.847-.635 1.377-.105.317-.317.635-.423 1.059s-.317.847-.423 1.271c-.211.423-.317.953-.528 1.482s-.317 1.059-.529 1.589c-.74 2.33-1.269 5.083-1.903 8.154-.529 3.177-.846 6.566-1.058 10.273-.317 7.307.106 13.979.529 18.745.212 2.436.423 4.342.635 5.613.105.635.105 1.165.211 1.588v.53s-.106-.212-.106-.53c-.105-.423-.105-.953-.211-1.482-.212-1.377-.529-3.283-.74-5.613a125.69 125.69 0 0 1-.635-18.851c.212-3.707.529-7.201 1.058-10.273.634-3.177 1.163-5.93 2.009-8.26.211-.53.317-1.165.528-1.589.212-.529.423-.953.529-1.482.211-.424.317-.848.529-1.271s.317-.742.528-1.059c.318-.53.529-1.059.635-1.377s.211-.424.211-.424zm-1.691-17.897s-.106.211-.212.741l-.74 2.012c-.106.424-.317.953-.529 1.483s-.317 1.165-.528 1.8l-1.269 4.342-.634 2.542-.635 2.753-1.269 6.143a169.88 169.88 0 0 0-1.797 14.297c-.423 5.083-.635 9.955-.635 14.403s0 8.472.212 11.755c.106 1.694.211 3.177.211 4.554.106 1.377.212 2.436.212 3.389.105.953.105 1.588.211 2.118v.741s-.106-.212-.106-.741c-.105-.53-.105-1.271-.211-2.118-.106-.953-.211-2.118-.317-3.389l-.317-4.554c-.212-3.389-.318-7.413-.318-11.861s.212-9.32.635-14.509c.423-5.083 1.163-9.955 1.903-14.403.423-2.224.846-4.236 1.269-6.142l.634-2.754c.212-.847.529-1.694.74-2.542.423-1.588.952-3.071 1.269-4.342.212-.635.423-1.27.529-1.8.212-.529.423-1.059.529-1.483.317-.847.634-1.482.74-2.012.317-.106.423-.423.423-.423zm-17.447 76.992v-.212c0-.212 0-.424-.106-.742 0-.741-.105-1.694-.211-2.965-.212-2.542-.423-6.248-.635-10.696-.528-9.108-1.374-21.604-2.96-35.372-.74-6.884-1.692-13.45-2.644-19.38l-1.48-8.367c-.423-2.647-.952-5.083-1.48-7.307-.423-2.224-.952-4.236-1.375-6.037l-1.057-4.447-.74-2.86c-.106-.318-.106-.529-.212-.741v-.212s0 .106.106.212c.106.212.106.423.211.741.212.636.423 1.589.74 2.86l1.164 4.447c.423 1.801.951 3.707 1.374 5.931.529 2.224 1.058 4.66 1.48 7.307.529 2.648.952 5.402 1.481 8.367.951 5.93 1.903 12.496 2.643 19.38 1.481 13.768 2.326 26.37 2.855 35.372l.529 10.802c0 1.271.106 2.224.106 2.965v.742c.211.106.211.212.211.212z"/></g><g class="D"><path d="M402.117 334.02c-.318-3.071-3.49-5.507-6.556-5.507-3.172 0-6.027 1.8-7.93 4.342-1.904 2.436-2.961 5.507-3.807 8.578-2.115 7.308-3.278 15.145-2.326 22.664.952 7.625 4.018 15.038 9.411 20.439.845.847 2.009 1.695 3.277 1.483.635-.106 1.163-.636 1.692-1.059 10.68-9.637 16.918-24.146 16.495-38.655-.106-2.859-.423-5.931-2.115-8.261-1.691-2.435-5.392-4.977-8.141-4.024z"/><use xlink:href="#R"/></g><g opacity=".2" class="E"><g opacity=".2"><g opacity=".2"><use xlink:href="#R" opacity=".2"/></g></g></g><path d="M402.434 323.43l-39.757-23.511c-.423-.212-.846-.529-.952-.953-.211-.635.318-1.165.741-1.589 5.498-5.612 13.428-8.895 21.253-8.366s15.332 5.083 19.244 11.967c3.701 6.778 3.806 15.886-.529 22.452z" class="D"/><g class="C"><path d="M368.387 292.4s.211 0 .528-.106c.318 0 .846-.106 1.481-.106 1.269 0 3.172.106 5.498.424 2.326.423 5.075 1.165 7.825 2.436 2.854 1.27 5.815 3.071 8.458 5.507s4.759 5.189 6.345 7.836c1.586 2.754 2.537 5.296 3.172 7.626.634 2.223.846 4.13.951 5.507.106.635 0 .847.106 1.164 0 .318-.317.848-.317.848s.211-.742.106-2.012-.529-3.178-1.163-5.402c-1.269-4.448-4.23-10.378-9.411-15.25-5.287-4.765-11.525-7.095-16.072-7.942-2.326-.424-4.124-.53-5.498-.636-1.375.106-2.009.106-2.009.106z"/><path d="M397.042 307.121c0 .106-.741.423-2.009.953l-4.97 1.8-5.075 1.483c-1.375.317-2.115.529-2.221.423 0-.106.74-.317 2.115-.741l10.151-3.177c1.163-.53 1.903-.741 2.009-.741zm-6.345-16.839c.106 0 .423 2.012.423 4.448.106 2.436-.105 4.448-.211 4.448s-.212-2.012-.212-4.448v-4.448zm-28.443 9.108c0-.106 1.057-.424 2.855-1.059l7.084-1.907 7.19-1.482 3.067-.424c0 .106-1.163.318-2.961.741l-7.19 1.695-7.19 1.8-2.855.636z"/></g><path d="M385.622 327.242c-3.384-2.647-7.085-3.071-11.314-2.965-4.335.212-8.459 1.483-12.371 3.177-6.662 2.965-13.006 7.307-17.024 13.45s-5.392 14.297-2.432 20.969c.317.635.74 1.377 1.375 1.694.74.318 1.48.106 2.22-.212 7.613-2.541 15.332-4.977 22.311-8.895s13.428-9.32 17.129-16.416c.952-1.694 1.692-3.494 1.798-5.401.211-2.012-.318-4.024-1.692-5.401z" class="D"/><g class="C"><path d="M385.727 326.395s-.211.106-.528.212c-.423.106-.952.318-1.586.529-.318.106-.741.212-1.163.424-.423.106-.846.318-1.375.53-.952.423-2.115.741-3.278 1.376l-1.903.847-2.009 1.06c-1.375.635-2.749 1.588-4.23 2.435-2.96 1.801-6.027 4.131-8.987 6.672-2.961 2.648-5.604 5.401-7.825 8.155-1.057 1.377-2.115 2.647-2.96 3.918-.423.636-.846 1.271-1.269 1.801-.423.635-.74 1.165-1.058 1.8-.74 1.059-1.268 2.118-1.797 3.071-.212.424-.529.847-.74 1.271s-.318.741-.529 1.059c-.317.636-.529 1.165-.74 1.483s-.317.529-.317.529.105-.212.211-.529c.212-.424.423-.953.635-1.589.105-.318.317-.741.528-1.165l.635-1.271c.528-.953.951-2.012 1.691-3.071.318-.529.741-1.165 1.058-1.8l1.269-1.906c.846-1.271 1.903-2.648 2.96-4.025 2.221-2.753 4.864-5.507 7.825-8.154a80.57 80.57 0 0 1 9.093-6.778l4.335-2.436c.74-.318 1.375-.741 2.009-.953.635-.318 1.269-.53 1.904-.847 1.163-.53 2.326-.953 3.277-1.271.529-.212.952-.318 1.375-.53.423-.106.846-.211 1.163-.317.635-.212 1.163-.318 1.586-.424.529 0 .635-.106.74-.106z"/><path d="M358.976 340.904c0 .106-3.701 1.377-8.353 2.647l-8.459 2.224c0-.105 3.701-1.376 8.353-2.647l8.459-2.224zm-.423 18.427c-.105 0-.105-.953-.211-2.647v-6.249l.317-6.248c.106-1.589.211-2.542.317-2.542s.106.953 0 2.648l-.211 6.248-.106 6.248-.106 2.542zm15.755-8.049c-.106 0-.529-4.553-.951-10.06-.423-5.613-.635-10.061-.423-10.061s.528 4.554.951 10.061.529 10.06.423 10.06z"/><path d="M354.747 330.631c0-.106 1.057-.106 2.643-.106l6.45.106 6.45.318 2.643.212c0 .106-1.057.106-2.643.106-1.692 0-3.912-.106-6.45-.106l-6.45-.318c-1.586 0-2.643-.106-2.643-.212zm37.748 54.964s0-.212-.106-.529c0-.424 0-.953-.106-1.483-.105-1.377-.105-3.283 0-5.613 0-2.436.212-5.189.529-8.366s.74-6.566 1.375-10.167 1.48-6.99 2.22-10.061l2.432-8.049 2.009-5.295c.212-.529.423-1.059.635-1.376.105-.318.211-.53.211-.53s0 .212-.106.53c-.106.423-.317.847-.528 1.482l-1.904 5.295s-1.586 4.978-2.326 8.049-1.586 6.46-2.22 9.955c-.635 3.601-1.058 6.99-1.481 10.167-.317 3.177-.528 5.93-.634 8.366-.106 2.33-.106 4.342-.106 5.613v1.483c.106.317.106.529.106.529z"/><path d="M394.609 359.437s-.528.741-1.586 1.694l-4.123 3.919-4.336 3.601-1.903 1.376 1.692-1.588 4.229-3.707 4.23-3.812 1.797-1.483zm12.583 10.167c-.106 0-.74-.847-1.692-2.33l-3.912-5.719-4.018-5.719c-1.057-1.482-1.692-2.33-1.586-2.435l1.903 2.223 4.124 5.613 3.807 5.825 1.374 2.542zm-6.556-31.983c.106.106-4.123 2.965-9.304 6.248-5.182 3.389-9.517 6.037-9.623 5.931s4.124-2.966 9.305-6.249c5.181-3.388 9.517-6.036 9.622-5.93z"/><path d="M412.373 350.435c-.106.106-2.96-2.541-6.344-5.824l-6.027-6.249c.106-.106 2.961 2.542 6.344 5.825l6.027 6.248z"/></g><path d="M415.334 350.117l3.595-.317c2.538-.212 5.075-.953 7.296-2.224 1.057-.636 2.22-1.271 3.383-1.695 4.441-1.8 9.411-1.482 14.169-1.694 7.825-.424 15.543-2.33 22.522-5.825a2.5 2.5 0 0 0 .952-.847c.74-1.377-.635-2.542-1.798-3.283-6.027-3.707-12.159-7.519-19.032-9.32-6.873-1.906-14.698-1.588-20.513 2.542-6.873 4.66-9.411 14.403-10.574 22.663z" class="D"/><g class="C"><path d="M467.356 337.091l-.634-.317-1.692-.848-6.239-3.177c-2.643-1.271-5.921-2.753-9.727-3.706-3.807-1.059-8.142-1.589-12.583-1.059-4.441.635-8.565 2.329-11.525 4.977s-4.758 5.719-6.027 8.472c-1.269 2.648-2.009 4.978-2.644 6.566-.317.742-.528 1.377-.634 1.801s-.212.635-.212.635 0-.212.212-.635c.106-.424.317-1.059.529-1.801.528-1.588 1.268-3.918 2.432-6.672 1.268-2.753 3.066-5.93 6.027-8.578s7.19-4.448 11.736-5.083 8.988 0 12.794 1.059 7.085 2.542 9.728 3.918 4.758 2.542 6.239 3.389c.74.424 1.269.742 1.691.953.423 0 .529.106.529.106z"/><path d="M458.792 341.751c-.106.106-4.758-2.965-10.468-6.778s-10.257-7.095-10.257-7.201c.106-.106 4.759 2.965 10.468 6.778l10.257 7.201zm-5.075-14.191c0 .106-1.481.424-3.384.635s-3.489.106-3.489 0 1.586-.211 3.489-.317c1.903-.318 3.384-.424 3.384-.318zm-20.514-2.753c.106 0-.528 1.164-1.586 2.435-.951 1.271-1.797 2.224-1.903 2.224s.529-1.165 1.586-2.436c.952-1.27 1.798-2.223 1.903-2.223zm4.23 19.698c0 .105-.952-.424-2.221-1.271l-5.181-3.495-4.969-3.707c-1.269-.953-2.009-1.588-1.904-1.694l2.115 1.377 4.97 3.6 5.075 3.601c1.269 1.059 2.115 1.589 2.115 1.589z"/></g><path d="M420.621 365.474c-3.384-.954-7.508 2.435-8.248 5.93s.635 6.99 2.115 10.273c3.383 7.095 8.036 13.661 14.169 18.533s13.851 8.049 21.676 7.943c-1.481-6.778.423-13.768-.423-20.652-.74-5.93-3.49-11.649-7.719-15.885s-10.045-6.99-15.966-7.625c-2.115-.212-4.653-.53-5.604 1.483z" class="D"/><g class="C"><path d="M450.439 408.153s-.212-.106-.529-.212c-.317-.212-.74-.424-1.269-.847-1.057-.848-2.326-2.436-3.383-4.554l-1.798-3.495-1.798-4.13-2.22-4.342c-.846-1.483-1.903-2.86-3.066-4.236-2.327-2.754-4.864-5.19-7.085-7.414s-4.018-4.448-5.392-6.46-2.115-3.812-2.644-4.977c-.211-.636-.423-1.165-.423-1.483-.105-.318-.105-.529-.105-.529s.211.741.74 1.906c.528 1.271 1.374 2.965 2.749 4.871a52.44 52.44 0 0 0 5.392 6.355c2.221 2.224 4.759 4.659 7.085 7.413 1.163 1.377 2.22 2.859 3.172 4.342s1.586 2.965 2.22 4.448l1.798 4.13c.529 1.271 1.163 2.436 1.692 3.495 1.057 2.118 2.22 3.707 3.172 4.554.951.741 1.692 1.165 1.692 1.165z"/><path d="M432.675 402.54c-.106 0 0-.847.317-2.33l1.269-5.507 1.692-5.295c.528-1.377.846-2.118.951-2.118s-.211.847-.634 2.224l-1.586 5.401-1.48 5.401c-.212 1.377-.423 2.224-.529 2.224zm17.023-16.521c0 .106-.952-.212-2.432-.53l-5.815-1.376-5.816-1.165-2.432-.53c0-.106.952 0 2.432.212l5.921 1.059 5.816 1.588c1.48.318 2.432.636 2.326.742zm-29.712 4.765c-.106 0 .106-1.059.423-2.647l1.374-6.354 1.904-6.249.951-2.541c.106 0-.211 1.059-.634 2.647l-1.692 6.249-1.586 6.248-.74 2.647zm21.888-19.168c0 .106-4.335-.212-9.516-.741l-9.517-1.271c0-.106 4.336.212 9.517.741l9.516 1.271z"/></g><g class="H"><path d="M438.807 423.509c0 .106-15.014.212-33.624.212-18.504 0-33.624-.106-33.624-.212s15.014-.212 33.624-.212l33.624.212zm-10.468 19.38c0 .106-10.15.212-22.627.212s-22.628-.106-22.628-.212 10.151-.212 22.628-.212l22.627.212zm-.422 2.754c0 .105-9.94.211-22.205.211s-22.205-.106-22.205-.211 9.94-.212 22.205-.212l22.205.212zm.74-4.978c0 .106-10.468.212-23.368.212s-23.368-.106-23.368-.212 10.468-.212 23.368-.212c12.9-.106 23.368 0 23.368.212z"/></g><g class="C"><path d="M424.216 32.618c0 .106-7.084.212-15.86.212s-15.861-.212-15.861-.318 7.084-.212 15.861-.212 15.86.106 15.86.318z"/><path d="M408.567 48.398c-.105 0-.317-7.096-.423-15.886s0-15.885.106-15.885.317 7.096.423 15.886l-.106 15.886zm32.355 221.233c-.105.106-4.441-1.907-9.727-4.66s-9.517-4.978-9.517-5.189c.106-.106 4.441 1.906 9.728 4.659 5.393 2.754 9.622 4.978 9.516 5.19z"/><path d="M426.542 274.396c-.106-.106 1.903-4.448 4.547-9.849s4.864-9.637 4.969-9.531-1.903 4.448-4.546 9.849c-2.538 5.295-4.758 9.531-4.97 9.531zM61.327 195.075c.106.105-4.97 2.329-11.314 4.765-6.344 2.542-11.42 4.448-11.525 4.342s4.97-2.33 11.314-4.765c6.344-2.648 11.525-4.554 11.525-4.342zm-11.631-6.884l-.529-.847c-.423-.424-1.057-1.059-2.115-1.377s-2.432-.106-3.489.847-1.586 2.648-.952 4.13 2.115 2.436 3.595 2.33c1.375 0 2.538-.847 3.172-1.8a5.16 5.16 0 0 0 .634-2.436l-.317-.847s.212.318.317.953.106 1.694-.423 2.648c-.529 1.059-1.798 2.012-3.489 2.118-1.586.106-3.383-.954-4.124-2.648s-.106-3.707 1.163-4.766c1.163-1.059 2.855-1.27 3.912-.847 1.163.318 1.797 1.059 2.22 1.589s.423.953.423.953zm7.93 19.91l-.529-.848c-.423-.423-1.057-1.059-2.115-1.376s-2.432-.106-3.489.847-1.586 2.648-.952 4.13 2.115 2.436 3.595 2.33c1.374 0 2.538-.847 3.172-1.8.529-.953.634-1.907.634-2.436l-.317-.847s.211.317.317.953.106 1.694-.423 2.647c-.529 1.059-1.797 2.013-3.489 2.118-1.586.106-3.384-.953-4.124-2.647s-.106-3.707 1.163-4.766c1.163-1.059 2.855-1.271 3.912-.847 1.163.318 1.797 1.059 2.22 1.589s.423.953.423.953zM120.54 84.935l.317.847.846 2.436 3.278 9.426.106.212h-.212l-13.64-1.906h.106c-4.124 3.283-9.728 6.142-16.284 7.095-1.586.318-3.384.424-5.075.424-.846 0-1.692-.106-2.643-.106-.423 0-.846 0-1.375-.106-.423 0-.846-.106-1.375-.212-3.595-.423-7.19-1.588-10.679-3.177-3.489-1.694-6.767-4.024-9.728-6.884-2.855-2.859-5.287-6.354-7.084-10.273-3.595-7.837-4.335-17.368-1.48-26.052 2.538-7.837 7.93-14.297 14.275-18.533 3.172-2.118 6.767-3.601 10.362-4.554l1.375-.318.634-.212.634-.106c.952-.106 1.798-.318 2.749-.424s1.797-.106 2.643-.106c.846-.106 1.797 0 2.643 0 .846.106 1.798 0 2.644.212.846.106 1.692.318 2.538.424s1.692.424 2.538.635l1.269.318c.423.106.74.318 1.163.424 3.172 1.059 6.027 2.648 8.671 4.448 5.075 3.707 8.987 8.261 11.314 13.132 2.431 4.766 3.489 9.637 3.7 13.873a33.33 33.33 0 0 1-.951 10.802 38.06 38.06 0 0 1-2.327 6.46c-.317.741-.634 1.271-.845 1.589l-.106.212s.106-.212.211-.53c.212-.318.423-.847.74-1.589.635-1.377 1.481-3.601 2.221-6.46.634-2.859 1.269-6.566.846-10.696-.317-4.236-1.375-8.896-3.807-13.662-2.326-4.766-6.132-9.319-11.208-12.92-2.537-1.694-5.392-3.283-8.564-4.342-.423-.106-.741-.318-1.164-.424l-1.163-.318-2.432-.636c-.846-.106-1.692-.212-2.538-.424-.846-.106-1.692 0-2.538-.106-.846 0-1.797-.106-2.643 0-.846 0-1.797.106-2.643.106-.846.106-1.798.318-2.643.424l-.74.106-.634.212-1.269.318c-3.489.953-6.979 2.436-10.151 4.554-6.238 4.236-11.525 10.59-14.063 18.321-2.855 8.578-2.115 18.004 1.375 25.735 1.797 3.813 4.124 7.307 6.979 10.167s6.133 5.083 9.516 6.778 6.979 2.754 10.574 3.178c.423.105.846.105 1.269.211.423 0 .846 0 1.269.106.846 0 1.692.106 2.538.106 1.692 0 3.383-.106 4.97-.423 6.45-.954 12.054-3.707 16.178-6.99h.211l13.64 1.906-.106.212-3.172-9.531c-.317-1.059-.634-1.906-.846-2.436-.211-.635-.211-.953-.211-.953z"/></g><g class="D"><path d="M91.357 59.624c.423.212.846.741.846 1.271v7.096c0 .424-.211.847-.529 1.165s-.846.318-1.269.212c-1.163-.318-2.326-.106-3.489.529-.952.635-1.692 1.483-1.903 2.542-.211.953.106 2.118.74 3.071.74 1.059 1.797 1.8 2.855 1.906 2.221.318 4.758-1.271 5.498-3.601.212-.741 1.057-1.165 1.797-.953s1.163 1.059.952 1.8c-1.163 3.601-5.075 6.142-8.67 5.507-1.903-.318-3.595-1.483-4.758-3.071-1.057-1.589-1.48-3.495-1.163-5.295s1.48-3.389 3.172-4.342c1.163-.741 2.538-1.059 3.912-1.059v-5.401c0-.741.635-1.377 1.375-1.377a.67.67 0 0 1 .634 0zm-1.904-2.965c0-.635.529-1.165 1.163-1.165s1.163.53 1.163 1.165-.529 1.165-1.163 1.165-1.163-.529-1.163-1.165z"/></g></g><defs><clipPath id="A"><path d="M0 0h470v471.907H0z" class="F"/></clipPath><path id="B" d="M325.67 329.36l-170.66-17.58c-5.181-.529-8.987-5.189-8.459-10.484l29.607-287.423c.74-7.413 7.401-12.814 14.803-12.073L353.69 18.639c7.401.741 12.794 7.413 12.054 14.827l-29.606 287.422c-.635 5.189-5.287 9.002-10.468 8.472z"/><path id="C" d="M218.769 277.679l-58.895-6.036c-1.375-.106-2.432-1.377-2.326-2.86l2.432-23.192c.106-1.377 1.374-2.436 2.855-2.33l58.895 6.036c1.375.106 2.432 1.377 2.326 2.86l-2.432 23.193c-.211 1.482-1.48 2.435-2.855 2.329z"/><path id="D" d="M193.181 152.395l-23.156-2.435c-1.163-.106-2.115-1.165-2.009-2.436l2.432-23.193c.106-1.165 1.163-2.118 2.432-2.012l23.156 2.435c1.163.106 2.115 1.165 2.009 2.436l-2.432 23.193c-.211 1.271-1.269 2.118-2.432 2.012z"/><path id="E" d="M231.564 156.42l-23.157-2.436c-1.163-.106-2.115-1.165-2.009-2.436l2.432-23.193c.106-1.165 1.163-2.118 2.432-2.012l23.156 2.436c1.164.106 2.115 1.165 2.009 2.436l-2.432 23.192c-.105 1.271-1.268 2.119-2.431 2.013z"/><path id="F" d="M271.426 160.444l-23.156-2.436c-1.163-.106-2.115-1.165-2.009-2.436l2.432-23.193c.106-1.164 1.163-2.118 2.432-2.012l23.156 2.436c1.163.106 2.115 1.165 2.009 2.436l-2.432 23.193c-.211 1.271-1.269 2.224-2.432 2.012z"/><path id="G" d="M311.184 164.574l-23.157-2.436c-1.163-.105-2.114-1.164-2.009-2.435l2.432-23.193c.106-1.165 1.163-2.118 2.432-2.012l23.157 2.435c1.163.106 2.114 1.165 2.009 2.436l-2.432 23.193c-.106 1.271-1.164 2.118-2.432 2.012z"/><path id="H" d="M188.952 192.851l-23.157-2.436c-1.163-.106-2.114-1.165-2.009-2.436l2.432-23.193c.106-1.165 1.163-2.118 2.432-2.012l23.157 2.436c1.163.106 2.114 1.165 2.009 2.435l-2.432 23.193c-.106 1.271-1.163 2.118-2.432 2.013z"/><path id="I" d="M184.722 192.427l-23.156-2.436c-1.163-.106-2.115-1.165-2.009-2.436l2.432-23.193c.106-1.165 1.163-2.118 2.432-2.012l23.156 2.436c1.163.106 2.115 1.165 2.009 2.436l-2.432 23.193c-.106 1.271-1.269 2.118-2.432 2.012z"/><path id="J" d="M227.44 196.769l-23.156-2.436c-1.163-.106-2.115-1.165-2.009-2.436l2.432-23.193c.105-1.164 1.163-2.118 2.432-2.012l23.156 2.436c1.163.106 2.115 1.165 2.009 2.436l-2.432 23.193c-.212 1.271-1.269 2.224-2.432 2.012z"/><path id="K" d="M267.197 200.899l-23.157-2.436c-1.163-.105-2.114-1.165-2.009-2.435l2.432-23.193c.106-1.165 1.164-2.118 2.432-2.012l23.157 2.435c1.163.106 2.114 1.165 2.009 2.436l-2.432 23.193c-.106 1.271-1.163 2.118-2.432 2.012z"/><path id="L" d="M307.06 205.029l-23.157-2.435c-1.163-.106-2.114-1.165-2.009-2.436l2.432-23.193c.106-1.165 1.163-2.118 2.432-2.012l23.157 2.436c1.163.106 2.114 1.165 2.009 2.435l-2.432 23.193c-.106 1.271-1.269 2.118-2.432 2.012z"/><path id="M" d="M184.828 232.988l-23.156-2.436c-1.163-.106-2.115-1.165-2.009-2.436l2.432-23.192c.106-1.165 1.163-2.119 2.432-2.013l23.156 2.436c1.163.106 2.115 1.165 2.009 2.436l-2.432 23.193c-.106 1.165-1.163 2.118-2.432 2.012z"/><path id="N" d="M223.316 236.906l-23.156-2.435c-1.163-.106-2.115-1.165-2.009-2.436l2.432-23.193c.105-1.165 1.163-2.118 2.432-2.012l23.156 2.436c1.163.105 2.115 1.164 2.009 2.435l-2.432 23.193c-.212 1.271-1.269 2.118-2.432 2.012z"/><path id="O" d="M263.073 241.037l-23.156-2.436c-1.163-.106-2.115-1.165-2.009-2.436l2.432-23.193c.106-1.165 1.163-2.118 2.432-2.012l23.156 2.436c1.163.106 2.115 1.165 2.009 2.436l-2.432 23.193c-.105 1.27-1.163 2.118-2.432 2.012z"/><path id="P" d="M302.936 245.167l-23.156-2.436c-1.163-.106-2.115-1.165-2.009-2.436l2.432-23.193c.105-1.164 1.163-2.118 2.432-2.012l23.156 2.436c1.163.106 2.115 1.165 2.009 2.436l-2.432 23.193c-.106 1.165-1.269 2.118-2.432 2.012z"/><path id="Q" d="M298.812 285.516l-23.156-2.436c-1.163-.105-2.115-1.164-2.009-2.435l2.432-23.193c.105-1.165 1.163-2.118 2.432-2.012l23.156 2.435c1.163.106 2.115 1.165 2.009 2.436l-2.432 23.193c-.211 1.271-1.269 2.224-2.432 2.012z"/><path id="R" d="M378.749 309.027l-4.441 8.049c-.105.211-.211.423-.423.423s-.423-.212-.528-.423l-11.631-17.898 2.643-1.483 14.38 11.332z"/></defs></svg>