<svg xmlns="http://www.w3.org/2000/svg" xmlns:xlink="http://www.w3.org/1999/xlink" width="516" height="494" fill="none" xmlns:v="https://vecta.io/nano"><style><![CDATA[.B{opacity:.3}.C{fill:#2484fe}.D{fill:#000}.E{fill:#263238}.F{opacity:.4}.G{fill:#ffbe9d}.H{fill:#eb996e}.I{fill:#f5f5f5}]]></style><g clip-path="url(#A)"><path d="M291.236 491.608c-20.135-9.52-28.176-32.154-31.015-53.224-.48-3.524-1.485-7.14-.339-10.489s4.686-6.102 8.063-5.157c2.805.782 4.453 3.617 6.334 5.869a20.85 20.85 0 0 0 9.548 6.452c2.431.781 5.306 1.015 7.304-.56 2.746-2.17 2.396-6.405 1.776-9.882l-3.424-19.437c-.607-3.477-1.227-7.024-.701-10.512s2.396-6.954 5.563-8.447c3.155-1.482 7.584-.268 8.858 3.022.526 1.365.491 2.893.83 4.317s1.285 2.916 2.734 3.08c1.461.175 2.688-1.05 3.553-2.24 3.003-4.119 4.675-9.066 6.194-13.942 1.519-4.889 2.957-9.871 5.563-14.257 2.617-4.387 6.614-8.179 11.557-9.31 4.944-1.12 10.787 1.05 12.879 5.728 2.092 4.69.07 10.15-2.373 14.654a78.97 78.97 0 0 1-13.591 18.153c-.97.969-2.01 2.007-2.22 3.372-.362 2.45 2.232 4.375 4.651 4.76 2.746.42 5.516-.315 8.286-.455s5.925.56 7.385 2.952c2.034 3.313-.315 7.548-2.839 10.488-5.037 5.88-11.091 10.874-17.799 14.701-2.407 1.365-4.966 2.648-6.731 4.795s-2.478 5.483-.818 7.723c1.671 2.24 5.002 2.485 7.608 1.54s4.756-2.811 7.152-4.211c4.487-2.614 10.728-3.326 14.491.28 2.477 2.38 3.295 6.125 2.828 9.543-.467 3.407-2.069 6.545-3.821 9.497-6.159 10.29-14.76 19.192-25.22 24.909-10.424 5.682-20.544 8.458-32.266 6.288z" class="I"/><g fill="#e0e0e0"><path d="M294.427 477.561c1.297-11.095 3.728-23.147 6.708-35.665l2.244-9.264c.747-3.033 1.472-6.043 2.384-8.948 1.776-5.81 3.938-11.259 6.135-16.381 2.209-5.11 4.487-9.882 6.649-14.338 2.174-4.445 4.278-8.552 6.358-12.204a126.8 126.8 0 0 1 11.079-16.52c1.46-1.844 2.629-3.232 3.447-4.165l.923-1.05c.211-.234.327-.35.327-.339.012.012-.081.14-.28.385-.222.269-.514.63-.876 1.097l-3.343 4.235c-2.851 3.71-6.813 9.252-10.88 16.59-2.045 3.664-4.125 7.771-6.275 12.216-2.139 4.456-4.394 9.228-6.58 14.338s-4.324 10.547-6.077 16.322c-.888 2.882-1.624 5.869-2.36 8.914l-2.232 9.252c-2.981 12.507-5.423 24.523-6.744 35.584"/><path d="M305.938 423.625c-.047.012-.246-.49-.596-1.423l-1.344-3.99c-1.075-3.384-2.407-8.097-3.857-13.312s-2.839-9.905-3.973-13.254l-1.356-3.967c-.327-.933-.49-1.458-.455-1.481.046-.012.28.478.689 1.388s.947 2.24 1.554 3.909c1.251 3.325 2.712 8.015 4.161 13.23l3.681 13.358 1.145 4.037c.269.957.398 1.494.351 1.505zm43.391-15.925c.012.047-.619.222-1.753.513l-4.779 1.295c-4.032 1.132-9.537 2.894-15.532 5.11s-11.335 4.469-15.145 6.196c-1.917.851-3.448 1.586-4.499 2.088-1.064.502-1.66.758-1.672.723-.023-.046.538-.373 1.566-.956 1.029-.572 2.536-1.365 4.43-2.276 3.774-1.843 9.103-4.165 15.11-6.393 6.018-2.217 11.57-3.92 15.636-4.935 2.034-.525 3.693-.887 4.85-1.097 1.145-.21 1.788-.315 1.788-.268zm-54.494 68.94c-.023.011-.151-.152-.397-.49l-1.04-1.494-3.658-5.588c-3.027-4.76-7.012-11.469-11.3-18.924l-11.126-19.017-3.482-5.693-.935-1.552c-.211-.362-.304-.548-.293-.572.024-.011.152.164.398.49l1.04 1.494c.9 1.295 2.15 3.208 3.658 5.588 3.027 4.76 7.012 11.469 11.3 18.936l11.126 19.017 3.482 5.693.935 1.552c.211.35.316.548.292.56z"/><path d="M351.14 447.426c.012.023-.175.14-.549.338l-1.636.875-6.03 3.138-19.785 10.547-19.89 10.384-6.124 2.952-1.683.758c-.385.163-.596.245-.608.222s.176-.14.55-.35l1.636-.875 6.03-3.139 19.797-10.547 19.89-10.383 6.124-2.952 1.682-.758.596-.21z"/></g><path d="M145.11 241.19s-13.884 1.925-6.089 32.282 14.409 46.003 14.409 46.003 1.052 6.872-4.511 6.662c-5.551-.21-16.875-4.714-20.72 1.271-3.985 6.207-.502 13.674 8.204 21.502s27.159 25.668 28.819 27.289c1.636 1.587 2.875 4.959-.935 5.414s-30.84-2.707-31.577 10.185 27.113 30.707 30.116 32.714 3.483 3.57 2.805 5.32c-.678 1.738-9.653-.175-17.378-.758s-16.781.081-16.583 7.56 14.819 26.367 57.486 40.402l20.194 5.215 14.923-14.677c30.034-33.355 33.318-56.992 29.777-63.584-3.553-6.58-11.745-2.672-18.161 1.668s-13.252 10.465-14.701 9.287-1.823-2.777-.21-6.008 16.91-32.516 9.851-43.331c-7.058-10.827-28.935 5.332-32.465 6.825s-4.137-2.053-3.505-4.235c.631-2.229 7.771-26.869 11.429-37.976s2.968-19.32-3.576-22.727c-6.311-3.29-13.895 6.242-18.605 9.17-4.71 2.94-7.222-3.547-7.222-3.547s-2.057-16.858-10.401-47.076-21.655-24.803-21.655-24.803" fill="#ebebeb"/><g fill="#e0e0e0"><path d="M209.35 487.28l-24.951-95.879-22.777-87.012-9.442-35.362-.14-.642s.081.21.21.63l.537 1.855 2.034 7.129 7.245 26.285 22.952 86.965 24.764 95.926"/><path d="M143.789 334.35c.023-.035.491.222 1.332.712l3.483 2.17c2.91 1.878 6.871 4.561 11.184 7.618l11.02 7.84 3.354 2.357c.795.548 1.227.875 1.204.91s-.503-.21-1.333-.7-2.021-1.237-3.471-2.193c-2.898-1.902-6.813-4.644-11.125-7.7l-11.067-7.759-3.366-2.345c-.818-.548-1.238-.875-1.215-.91zm33.248 20.627c-.152-.093 5.048-8.481 11.604-18.737l12.154-18.398c.152.093-5.048 8.481-11.616 18.737-6.544 10.255-11.99 18.492-12.142 18.398zm11.195 52.816c-.023-.035.363-.408 1.111-1.073l3.155-2.754c2.653-2.321 6.311-5.553 10.214-9.263 3.915-3.698 7.339-7.175 9.793-9.707l2.91-2.998c.689-.7 1.087-1.085 1.122-1.05s-.304.466-.935 1.225-1.578 1.831-2.77 3.138c-2.372 2.613-5.761 6.149-9.676 9.87a191.29 191.29 0 0 1-10.366 9.147c-1.367 1.12-2.489 2.007-3.284 2.602s-1.25.898-1.274.863z"/><path d="M154.05 395.753c.011-.047.502.082 1.379.338l3.692 1.144 12.119 4.001 12.061 4.177 3.634 1.342 1.309.572c-.012.046-.503-.082-1.379-.339l-3.693-1.143-12.119-4.002-12.06-4.177-3.635-1.341c-.864-.327-1.32-.537-1.308-.572zm3.95 47.881c.011-.047.642.117 1.764.443l4.745 1.447 15.578 5.005 15.519 5.18 4.675 1.645 1.683.689c-.012.046-.643-.117-1.765-.444l-4.745-1.446-15.577-5.006-15.52-5.18-4.674-1.645-1.683-.688zm43.017 13.767c-.035-.035.456-.525 1.367-1.388l3.868-3.629 12.575-12.168a524.33 524.33 0 0 0 12.154-12.601l3.623-3.873 1.39-1.377c.035.035-.397.572-1.192 1.54l-3.482 4.014c-2.98 3.36-7.187 7.898-12.026 12.752-4.826 4.853-9.384 9.065-12.726 12.052l-4.008 3.488c-.97.793-1.508 1.225-1.543 1.19z"/></g><g class="I"><path d="M84.808 60.155l-11.406-3.547s-2.992 9.555-12.995 6.627c-5.2-1.517-6.825-5.74-7.094-8.669-.327-3.395 1.134-6.709 3.693-8.972 2.933-2.578 8.075-4.153 15.333-.408l8.017-25.667-11.277-3.512-4.686 15.039s-17.097-.84-22.531 16.555c-5.2 16.649 8.543 25.177 14.947 27.172 4.897 1.517 21.935 5.53 28.001-14.619zM70.605 10.672l11.446 3.565 3.334-10.669L73.939.003l-3.334 10.669z"/></g><g fill="#ebebeb"><path d="M116.291 31.162l4.57-1.202s-1.017-3.827 2.956-4.947c2.057-.583 3.494.49 4.196 1.412.829 1.073 1.028 2.485.654 3.78-.432 1.482-1.835 3.08-5.048 3.348l2.711 10.279 4.511-1.19-1.59-6.02s5.902-3.302 4.056-10.267c-1.765-6.662-8.158-6.639-10.729-5.962-1.951.513-8.507 2.753-6.287 10.769zm15.169 13.591l-4.588 1.208 1.13 4.275 4.588-1.208-1.13-4.275zm362.067 104.49l4.441 1.61s1.356-3.722 5.247-2.392c2.022.689 2.595 2.392 2.653 3.547.07 1.353-.561 2.625-1.624 3.477-1.204.968-3.261 1.493-6.065-.117l-3.623 9.999 4.394 1.586 2.127-5.856s6.731.641 9.197-6.137c2.349-6.487-2.922-10.092-5.423-11.002-1.904-.677-8.566-2.567-11.324 5.285zm4.739 19.788l-4.461-1.614-1.508 4.158 4.461 1.613 1.508-4.157z"/></g><g class="I"><path d="M22.239 200.029l9.396-3.617s-3.038-7.875 5.107-11.176c4.23-1.716 7.514.221 9.232 2.018 1.998 2.077 2.77 5.017 2.267 7.852-.584 3.231-3.155 6.965-9.922 8.283l8.169 21.152 9.291-3.57-4.78-12.39s11.733-8.377 6.206-22.715c-5.294-13.721-18.85-12.169-24.121-10.139-4.043 1.552-17.413 7.817-10.845 24.302zm35.338 25.252l-9.432 3.628 3.395 8.796 9.433-3.628-3.395-8.796zm439.608 10.344l-6.661 2.567s2.15 5.588-3.623 7.921c-3.003 1.214-5.329-.163-6.544-1.423-1.415-1.47-1.964-3.558-1.602-5.565.41-2.298 2.233-4.935 7.024-5.869l-5.785-14.991-6.591 2.531 3.389 8.785s-8.321 5.939-4.394 16.101c3.751 9.718 13.358 8.622 17.097 7.187 2.875-1.132 12.341-5.566 7.69-17.244zm-25.016-17.893l6.685-2.571-2.404-6.227-6.684 2.571 2.403 6.227z"/></g><use xlink:href="#B" class="C"/><g class="B D"><g class="B"><g class="B"><g class="B"><use xlink:href="#B" class="B"/></g></g></g></g><g class="E"><path d="M85.672 493.895s1.251.292 3.599-.082a21.76 21.76 0 0 0 4.254-1.073c1.624-.595 3.483-1.435 5.247-2.87.853-.747 1.706-1.657 2.162-2.87s.537-2.544.619-3.909l.304-4.223c.222-1.435.783-2.847 1.601-4.2 1.543-2.707 4.102-5.262 4.932-8.937.899-3.617.257-7.525-.351-11.457-.608-3.92-1.192-8.19.304-12.273 1.402-4.084 4.277-7.771 5.703-12.379 1.425-4.655.759-9.66 1.063-14.595.14-2.474.62-4.959 1.706-7.257 1.064-2.31 2.525-4.492 3.67-6.93 2.326-4.924 2.735-10.501 3.366-15.961l.935-8.342c.315-2.823.56-5.635 1.449-8.353.806-2.742 1.975-5.39 3.132-8.085.561-1.354 1.168-2.719 1.519-4.224.257-1.54.327-2.986.421-4.491.151-2.999.023-6.032-.351-9.042-.351-3.01-.9-6.009-1.227-9.03-.024-.175-.035-.362-.059-.525l-.07-.607-.537.268c-2.805 1.4-5.201 3.489-7.047 5.939-1.87 2.426-3.237 5.168-4.324 7.968-2.185 5.612-2.968 11.492-4.079 17.104-1.075 5.612-2.489 11.13-5.375 15.797-1.438 2.322-3.167 4.445-4.687 6.72-1.519 2.252-2.851 4.725-3.248 7.444-.772 5.53 2.278 10.383 1.636 15.271-.222 2.427-1.192 4.702-2.384 6.779-1.192 2.088-2.583 4.025-3.915 5.973-1.32 1.949-2.583 3.92-3.518 6.032-.947 2.1-1.461 4.352-1.613 6.545-.316 4.41.304 8.587-.012 12.531-.269 3.955-1.659 7.536-3.225 10.733-1.578 3.22-3.342 6.125-4.815 8.937-.748 1.412-1.426 2.788-1.987 4.165-.596 1.377-.877 2.788-1.145 4.13-.432 2.707-.386 5.227-.093 7.455.573 4.48 2.244 7.7 3.74 9.509.339.478.748.828 1.063 1.143.304.327.608.549.865.724.514.385.771.548.771.548.058-.07-1.075-.665-2.536-2.497-1.437-1.82-3.038-5.017-3.553-9.45-.257-2.193-.28-4.69.164-7.35.28-1.319.573-2.695 1.157-4.037.561-1.353 1.251-2.718 1.998-4.107 1.484-2.788 3.26-5.693 4.885-8.925 1.601-3.22 3.05-6.872 3.342-10.92.339-4.025-.269-8.225.07-12.53.152-2.147.654-4.294 1.578-6.324.911-2.041 2.15-3.978 3.471-5.903 1.321-1.937 2.735-3.874 3.962-6.009 1.227-2.111 2.244-4.48 2.501-7.058.631-5.215-2.396-10.104-1.613-15.237.374-2.544 1.648-4.912 3.132-7.117 1.496-2.228 3.237-4.352 4.71-6.743 2.968-4.796 4.417-10.431 5.504-16.066 1.11-5.647 1.905-11.468 4.044-16.963 1.063-2.73 2.407-5.402 4.218-7.759 1.788-2.368 4.079-4.352 6.743-5.693l-.607-.339c.023.164.035.35.058.525.327 3.057.877 6.055 1.227 9.03.362 2.976.491 5.951.351 8.902-.082 1.459-.176 2.987-.398 4.364-.315 1.376-.911 2.73-1.472 4.071-1.145 2.684-2.337 5.379-3.155 8.179-.912 2.788-1.169 5.705-1.473 8.493l-.923 8.354c-.619 5.495-1.04 10.979-3.272 15.727-1.11 2.368-2.571 4.55-3.658 6.942-1.122 2.38-1.624 5.005-1.753 7.525-.28 5.04.374 9.975-.993 14.432-1.356 4.445-4.207 8.155-5.657 12.367-1.542 4.258-.899 8.668-.28 12.577.631 3.932 1.262 7.758.421 11.235-.76 3.512-3.249 6.043-4.815 8.832-.818 1.377-1.402 2.882-1.625 4.363-.233 1.494-.222 2.917-.28 4.282-.07 1.342-.14 2.66-.561 3.792-.409 1.131-1.215 2.018-2.033 2.753-1.706 1.412-3.529 2.275-5.13 2.882-1.613.607-3.038.945-4.195 1.132-1.157.21-2.057.245-2.665.256l-.888.012z"/><path d="M127.019 339.985c-.012 0-.058.128-.129.397l-.292 1.178-1.063 4.527c-.514 1.937-1.706 4.13-2.711 6.825-1.052 2.672-2.127 5.775-3.109 9.264-.993 3.488-1.882 7.35-2.805 11.491-.958 4.142-1.905 8.576-4.183 12.764-1.076 2.123-2.279 4.27-3.238 6.615-.981 2.345-1.519 4.924-1.881 7.502-.631 5.18-1.578 10.43-2.817 15.809l-7.397 30.182-6.206 24.617-4.114 16.614L86 492.296l-.257 1.179c-.058.268-.07.408-.058.408s.058-.128.14-.385c.094-.303.199-.688.339-1.167l1.227-4.491 4.371-16.556 6.381-24.57 7.468-30.194c1.238-5.367 2.197-10.722 2.816-15.867.362-2.555.865-5.04 1.811-7.315.924-2.287 2.116-4.422 3.191-6.569 2.302-4.258 3.26-8.831 4.172-12.95.9-4.153 1.741-8.015 2.699-11.492.947-3.477 1.964-6.58 2.98-9.252.959-2.695 2.116-4.9 2.595-6.906.455-1.984.701-3.524.911-4.574l.211-1.19c.023-.268.046-.408.023-.42z"/></g><path d="M87.986 493.93c8.543-5.075 10.997-20.464 7.432-29.739-3.564-9.264-9.805-17.734-10.763-27.616-.736-7.595 1.753-15.388-.023-22.808-2.396-10.022-12.189-17.781-12.072-28.071.058-5.775 3.354-11.212 3.097-16.987-.327-7.082-5.761-12.694-9.139-18.935-5.165-9.544-5.504-20.837-7.269-31.536s-5.855-22.167-15.356-27.429c-1.402 9.089-3.798 15.307-3.05 27.627.269 4.422 5.411 12.881 6.112 22.576l1.063 17.383c.351 5.636.713 11.387 2.735 16.661 1.554 4.048 4.044 7.712 5.2 11.888 2.162 7.852-.678 16.357 1.075 24.314 1.484 6.744 6.159 12.542 7.117 19.379 1.344 9.602-4.885 19.589-1.695 28.747 1.578 4.55 5.329 8.202 6.392 12.892.83 3.64-.07 7.502.678 11.154 1.204 5.891 12.469 10.477 18.476 10.103" fill="#08d586"/><path d="M46.254 299.828c-.012 0 0 .175.035.513l.187 1.493.865 5.729c.479 2.508 1.776 5.332 2.805 8.727a127.81 127.81 0 0 1 3.132 11.69c.97 4.375 1.788 9.228 2.653 14.444.888 5.18 1.788 10.896 4.382 16.321 1.204 2.731 2.548 5.461 3.553 8.366 1.04 2.893 1.508 6.02 1.8 9.217.444 6.44 1.297 13.136 2.513 19.88l7.386 37.964 6.357 30.929 4.359 20.837 1.227 5.658.339 1.471c.082.326.129.501.14.49.012 0-.012-.175-.058-.514l-.257-1.481-1.075-5.682-4.102-20.884-6.182-30.964-7.316-37.952c-1.204-6.756-2.057-13.347-2.513-19.811-.304-3.22-.795-6.44-1.87-9.403-1.04-2.975-2.407-5.717-3.599-8.412-2.571-5.355-3.483-10.932-4.406-16.135-.888-5.204-1.741-10.069-2.758-14.456-1.005-4.387-2.127-8.307-3.272-11.702-1.087-3.418-2.419-6.206-2.933-8.657-.491-2.45-.76-4.398-1.017-5.693l-.28-1.482c-.035-.338-.082-.501-.094-.501z" class="E"/><g fill="#08d586"><path d="M458.398 56.106h-4.652s0 3.897-4.055 3.967c-2.103.035-3.202-1.342-3.646-2.403-.514-1.225-.362-2.625.327-3.757.795-1.295 2.513-2.485 5.656-1.925V41.511h-4.604v6.137s-6.451 1.668-6.451 8.762c0 6.79 6.1 8.365 8.707 8.365 1.998.012 8.799-.478 8.718-8.669zm-11.029-16.743h4.663v-4.352h-4.663v4.352z"/></g><path d="M483.874 49.888c.012 0 .012-.198.012-.583l-.047-1.727-.058-1.272-.211-1.528-.257-1.773-.491-1.983c-.724-2.788-1.951-6.172-4.207-9.625-2.22-3.453-5.399-7.047-9.711-9.952-4.324-2.858-9.758-5.063-15.87-5.647-1.531-.058-3.085-.245-4.663-.093-.783.058-1.589.035-2.384.152l-2.408.362c-3.19.653-6.45 1.598-9.489 3.232-3.05 1.598-5.948 3.663-8.531 6.183a36.02 36.02 0 0 0-6.416 8.914c-1.706 3.337-2.886 7.023-3.342 10.862-.187.957-.187 1.925-.245 2.893s-.106 1.948-.059 2.928c.082 1.96.327 3.932.748 5.868.9 4.223 2.618 8.19 4.92 11.679l-.035-.35-5.06 12.6.736-.198 12.75-3.5-.316-.058c4.441 3.337 9.525 5.472 14.562 6.347 2.512.443 5.036.63 7.455.467 1.216-.047 2.419-.105 3.588-.338l1.741-.268c.573-.105 1.134-.28 1.683-.42 8.975-2.298 15.602-7.817 19.388-13.277 1.928-2.73 3.319-5.437 4.172-7.899l.643-1.785.432-1.692.386-1.552c.093-.502.152-.98.21-1.423.117-.898.269-1.692.304-2.38l.058-1.75.024-1.073c0-.21 0-.338-.012-.338s-.023.117-.047.362l-.081 1.062-.117 1.738c-.059.688-.222 1.47-.363 2.357-.642 3.5-2.045 8.75-5.971 14.117-3.798 5.355-10.354 10.734-19.178 12.939-.549.128-1.098.303-1.659.397l-1.718.257c-1.145.222-2.326.268-3.518.315-2.384.152-4.849-.035-7.315-.478-4.932-.887-9.899-2.987-14.246-6.265l-.14-.105-.176.047-12.749 3.477.444.502 4.803-11.9.07-.187-.117-.163c-2.255-3.418-3.927-7.304-4.815-11.422-.409-1.902-.642-3.815-.724-5.74-.047-.957-.012-1.913.046-2.87.059-.945.059-1.902.234-2.835.444-3.757 1.59-7.362 3.261-10.629a35.12 35.12 0 0 1 6.264-8.738c2.524-2.473 5.352-4.503 8.332-6.078 2.968-1.61 6.17-2.555 9.291-3.197l2.349-.362c.783-.117 1.566-.105 2.337-.163 1.554-.152 3.073.023 4.581.07 5.995.548 11.347 2.683 15.625 5.46a34.2 34.2 0 0 1 9.653 9.742c2.267 3.395 3.517 6.72 4.277 9.473l.526 1.96.292 1.762.245 1.505c.047.467.059.887.094 1.26l.128 1.715c.047.42.07.618.082.618z" class="E"/><g class="C"><use xlink:href="#C"/><path d="M295.361 430.462h-67.734v63.153h67.734v-63.153z"/></g><g class="D"><path opacity=".1" d="M295.361 430.462h-67.734v63.153h67.734v-63.153z"/><use xlink:href="#C" opacity=".1"/></g><use xlink:href="#D" class="C"/><use xlink:href="#D" class="B D"/><path d="M267.408 430.462h-67.735v63.153h67.735v-63.153z" class="C"/><path d="M267.408 430.462h-67.735v63.153h67.735v-63.153z" class="B D"/><g class="E"><path d="M241.417 130.214c0 .023-.351 0-1.005-.058-.666-.035-1.625-.222-2.875-.234-2.501-.163-6.136-.105-10.588.444-4.441.56-9.688 1.656-15.274 3.581-2.781 1.004-5.668 2.147-8.508 3.652-2.863 1.447-5.703 3.22-8.321 5.379-2.641 2.135-4.873 4.631-6.813 7.186a68.95 68.95 0 0 0-5.107 7.724c-2.874 5.168-4.826 10.15-6.041 14.455-1.239 4.294-1.788 7.887-2.034 10.372-.14 1.249-.187 2.217-.21 2.87-.035.654-.07 1.004-.094 1.004s-.035-.35-.035-1.004c0-.665 0-1.633.105-2.893.176-2.509.655-6.137 1.847-10.477 1.168-4.34 3.097-9.38 5.972-14.607 1.46-2.59 3.155-5.227 5.118-7.817 1.952-2.578 4.207-5.122 6.895-7.292 2.665-2.193 5.539-3.978 8.438-5.436 2.875-1.517 5.796-2.66 8.601-3.652 5.644-1.925 10.938-2.987 15.414-3.489 4.476-.49 8.146-.49 10.646-.245 1.263.047 2.221.28 2.875.35.655.105 1.005.164.994.187zm101.695-12.028c-.012 0-.082-.082-.222-.269l-.597-.816-2.22-3.15-1.613-2.264-4.522-5.495-2.922-3.103-3.272-3.36-3.775-3.407-1.998-1.785-2.174-1.715-4.557-3.535c-6.405-4.632-13.896-9.088-22.111-13.044l-6.159-2.777-6.123-2.368c-1.987-.828-4.021-1.412-5.984-2.053-1.975-.607-3.88-1.318-5.808-1.773l-5.586-1.47c-1.811-.478-3.611-.758-5.329-1.132-1.73-.327-3.377-.747-5.002-.957l-4.651-.677c-2.957-.502-5.668-.607-8.029-.84-1.18-.093-2.29-.222-3.307-.268l-2.781-.07-3.857-.128-1.005-.047c-.222-.012-.339-.023-.339-.035s.117-.023.339-.023l1.005-.012 3.857.012 2.793.023c1.017.035 2.127.14 3.319.222 2.372.21 5.095.28 8.063.758l4.663.63c1.625.187 3.284.607 5.025.922 1.73.362 3.53.642 5.353 1.108l5.621 1.447c1.94.443 3.845 1.143 5.831 1.762 1.975.642 4.021 1.225 6.019 2.053l6.147 2.368 6.182 2.788c8.251 3.967 15.765 8.459 22.181 13.137 1.612 1.155 3.085 2.415 4.569 3.57l2.174 1.727c.701.583 1.344 1.213 1.998 1.797l3.763 3.442c1.181 1.131 2.221 2.321 3.261 3.395 1.016 1.096 2.033 2.111 2.91 3.138l2.384 2.975 2.068 2.59c.596.829 1.099 1.61 1.566 2.31l2.127 3.22.538.84c.14.234.198.327.187.339zm-7.035 144.658c.011.011-.164.256-.515.7l-1.554 1.936-2.547 2.987-3.518 3.838-4.453 4.469-5.34 4.9c-3.868 3.325-8.274 6.813-13.112 10.174-4.862 3.325-9.7 6.195-14.188 8.621-2.267 1.167-4.417 2.31-6.486 3.244-2.045.992-3.985 1.82-5.773 2.567-1.764.781-3.412 1.365-4.838 1.913a67.55 67.55 0 0 1-3.704 1.318l-2.361.77c-.538.164-.83.245-.841.222s.268-.14.794-.338l2.326-.875a68.37 68.37 0 0 0 3.658-1.412c1.414-.583 3.05-1.19 4.791-1.995 1.765-.77 3.693-1.61 5.715-2.625 2.056-.945 4.183-2.1 6.439-3.279 4.464-2.438 9.255-5.32 14.105-8.633 4.827-3.337 9.221-6.802 13.089-10.092 1.905-1.68 3.74-3.255 5.352-4.842 1.66-1.528 3.144-3.033 4.488-4.398 1.379-1.342 2.524-2.649 3.564-3.769a76.87 76.87 0 0 0 2.618-2.916l1.648-1.855c.421-.42.631-.642.643-.63zm-70.656 131.031c-.164 0-.304-18.738-.304-41.85l.304-41.861c.163 0 .303 18.737.303 41.861l-.303 41.85zm2.571 95.458c-.164 0-.304-13.148-.304-29.365l.304-29.378c.163 0 .304 13.149.304 29.378l-.304 29.365z"/></g><use xlink:href="#E" class="C"/><g class="F D"><use xlink:href="#E" class="F"/></g><path d="M412.424 171.06a26.62 26.62 0 0 0 15.589 4.889c2.653-.035 5.47-.549 7.421-2.334.9-.817 1.578-1.878 2.501-2.66.631-.537 1.367-.945 1.963-1.528s1.04-1.412.865-2.217c-.187-.828-.876-2.158-1.613-2.578-3.167-1.797-6.953-1.727-10.599-1.645s-7.234.933-10.693 2.088c-2.828.945-5.785 2.287-7.222 4.9" class="C"/><g class="F D"><path d="M440.752 167.222c-.187-.828-1.333-1.925-2.069-2.345-3.167-1.797-6.498-1.96-10.144-1.879s-7.234.934-10.693 2.089c-2.828.945-5.785 2.287-7.222 4.9l1.8 1.073a26.62 26.62 0 0 0 15.589 4.889c2.653-.035 5.47-.549 7.421-2.334.9-.816 1.578-1.878 2.501-2.66.631-.536 1.367-.945 1.963-1.528.585-.572 1.041-1.4.854-2.205z" class="F"/></g><path d="M358.526 212.944l58.257.759a.75.75 0 0 0 .724-.98l-6.836-21.281 2.395-23.427 4.955-43.774c-3.973-11.154-27.486-13.044-27.486-13.044l-26.797 1.587-.947-1.575-7.713 3.582a36.38 36.38 0 0 0-4.838 2.718c-5.083 3.407-17.366 11.2-19.609 19.904-5.177 20.114 3.587 42.572 3.587 42.572l5.621-4.386c1.473-1.109 2.864-2.077 4.465-2.975l11.289 30.205s-2.349 1.423-2.454 3.874c-.071 2.45 1.238 5.401 5.387 6.241z" class="C"/><g class="B D"><path d="M383.499 177.337c1.847-9.917.877-20.114-.116-30.147-3.238 8.213-3.121 17.465-6.545 25.597-.374.875-.783 1.75-.911 2.695s.07 1.983.783 2.625c.935.852 2.314.397 3.564.245 1.332-.152 2.033-.607 3.225-1.015z" class="B"/></g><g class="F D"><path d="M362.044 200.286c4.698 1.633 9.653-1.389 14.596-1.925 3.272-.35 6.544.396 9.793.921a73.57 73.57 0 0 0 19.867.49c1.005-.116 2.045-.256 2.922-.758s1.589-1.89 1.531-2.893l-33.003-2.929c-2.758-.28-5.609-.56-8.25.257-3.331 1.027-5.89 3.64-8.228 6.207" class="F"/></g><path d="M439.08 163.372c-4.768-10.687-21.526-40.274-21.526-40.274L404.57 139.35l3.027 31.909s6.86-7.642 26.037-7.794c4.465-.035 7.141 3.757 7.141 3.757l-1.695-3.85z" class="C"/><g class="E"><path d="M361.109 157.725c-.164.047-1.146-3.08-2.186-6.977l-1.601-7.14c.164-.047 1.145 3.08 2.186 6.977l1.601 7.14zm42.468-20.534c.023-.035.456.338 1.204 1.015a32.67 32.67 0 0 1 2.898 3.173c2.267 2.8 5.037 7.187 6.205 12.671.585 2.73.678 5.413.374 7.816-.304 2.392-.759 4.492-1.052 6.266-.303 1.773-.49 3.22-.584 4.223s-.117 1.563-.163 1.563c-.036 0-.094-.56-.071-1.575s.141-2.485.398-4.27c.245-1.796.654-3.908.923-6.265.269-2.345.152-4.958-.409-7.618-1.134-5.355-3.786-9.696-5.948-12.531-2.186-2.893-3.869-4.386-3.775-4.468zm-11.897 73.21c.012.035-.444.175-1.273.373-.41.105-.924.222-1.52.292l-2.045.245c-1.519.152-3.342.14-5.352-.035-2.01-.21-4.196-.607-6.428-1.283a34.02 34.02 0 0 1-6.03-2.579c-1.753-.991-3.26-2.018-4.429-2.998-.608-.455-1.098-.945-1.543-1.354-.455-.396-.806-.781-1.086-1.108l-.842-1.015c.082-.082 1.344 1.318 3.728 3.138 1.18.922 2.688 1.891 4.429 2.847 1.753.922 3.763 1.797 5.937 2.485 2.185.665 4.336 1.074 6.311 1.307 1.975.198 3.763.245 5.27.163l4.873-.478zm17.985-6.65c.07-.012.304.618.444 1.703.141 1.074.164 2.625-.315 4.247-.468 1.633-1.438 2.917-2.291 3.617-.853.712-1.507.933-1.542.875-.047-.082.514-.443 1.25-1.19a8.31 8.31 0 0 0 1.999-3.477c.899-3.08.233-5.763.455-5.775zm-3.166 4.107c.152-.035.455 1.668-.293 3.593-.736 1.925-2.115 2.975-2.208 2.847-.129-.129.958-1.284 1.636-3.069.713-1.773.689-3.371.865-3.371zm-10.425-38.396c.129.128-.958 1.342-2.08 2.987l-2.045 3.01c-.152-.059.374-1.657 1.542-3.349 1.157-1.703 2.478-2.765 2.583-2.648zm-39.991-28.246c-.07.07-.993-.665-2.582-1.703s-3.892-2.322-6.615-3.348c-2.723-1.004-5.305-1.54-7.187-1.797l-3.074-.397c0-.07 1.193-.175 3.121-.023s4.581.63 7.35 1.657c2.77 1.038 5.096 2.415 6.638 3.558 1.566 1.132 2.396 1.995 2.349 2.053zm61.471-18.515c.117.163-3.039 2.077-5.902 5.518-2.898 3.407-4.265 6.837-4.441 6.755-.07-.023.176-.91.818-2.263.631-1.342 1.695-3.127 3.156-4.877 1.472-1.738 3.05-3.091 4.277-3.943 1.215-.852 2.045-1.249 2.092-1.19zm-24.063-9.614c.024-.011.106.175.258.537.175.362.35.91.549 1.633.374 1.447.572 3.675-.024 6.324-.607 2.613-2.068 5.647-4.768 8.038-2.676 2.404-6.626 3.839-10.751 3.827-4.137-.023-8.029-1.447-10.857-3.617-2.863-2.158-4.768-4.841-5.971-7.233-1.192-2.415-1.742-4.539-1.987-6.009-.117-.735-.199-1.318-.21-1.703-.024-.397-.036-.595-.012-.595.058-.012.128.817.456 2.263a23.75 23.75 0 0 0 2.138 5.857c1.239 2.31 3.12 4.912 5.925 6.977 2.758 2.088 6.521 3.43 10.53 3.465 3.996.012 7.794-1.353 10.377-3.64 2.618-2.275 4.079-5.192 4.721-7.724.631-2.555.503-4.725.211-6.171s-.655-2.194-.585-2.229z"/></g><g class="B D"><path d="M397.582 171.538c-.024-.583-.094-1.271-.596-1.563-.316-.187-.725-.14-1.064.023-.327.164-.596.432-.841.7-1.414 1.529-2.408 3.022-3.121 4.982l5.727-.49-.105-3.652z" class="B"/></g><g class="B D"><path d="M416.595 159.51c-.444-3.267-2.115-6.265-4.148-8.867 2.466 8.074 1.636 12.635.257 18.154l.304-.77c1.577-3.232 4.032-5.25 3.587-8.517z" class="B"/></g><path d="M405.155 430.719l-3.495 52.326-22.788-.269-3.588-54.402 29.871 2.345z" class="G"/><path d="M402.303 476.161v1.517s25.687 10.325 25.955 15.19l-51.022-.303.795-16.94c7.572 3.547 15.519 3.978 24.272.536z" class="C"/><path d="M383.173 481.061c-.994.269-1.683 1.365-1.45 2.369.222 1.003 1.344 1.703 2.338 1.458s1.858-1.552 1.531-2.508c-.339-.969-1.695-1.727-2.595-1.249" fill="#fff"/><g class="E"><path d="M377.248 492.565l.187-4.072 48.837 1.774s2.267 1.003 1.998 2.59l-51.022-.292zm25.242-14.747c-.011.245-1.25.35-2.489 1.143-1.25.759-1.893 1.832-2.115 1.739-.234-.047.152-1.54 1.659-2.474 1.496-.945 3.004-.641 2.945-.408zm5.341 2.24c.058.245-1.028.653-1.882 1.703-.888 1.027-1.098 2.159-1.355 2.147-.234.035-.398-1.423.689-2.706 1.075-1.284 2.548-1.389 2.548-1.144zm3.003 6.405c-.222.047-.561-1.19.082-2.555s1.811-1.89 1.916-1.691c.141.21-.619.933-1.133 2.053-.538 1.12-.619 2.17-.865 2.193zm-9.84-438.43c1.309-3.267-.28-7.233-3.12-9.322s-6.638-2.543-10.12-1.983c-3.483.548-6.755 2.007-9.98 3.442-2.922-2.928-7.55-4.048-11.488-2.765s-7.012 4.9-7.643 8.995c-2.513-.642-5.341.222-7.082 2.135a7.26 7.26 0 0 0-1.402 7.245l15.8 5.542 17.249 30.299c5.048 4.293 13.287 4.177 18.207-.257s5.867-12.624 2.092-18.06c.97-.852 1.776-1.878 2.419-2.987 2.735-1.692 4.873-4.317 5.586-7.467 1.508-6.65-3.728-14.024-10.518-14.817z"/></g><path d="M390.535 111.197l-1.659-8.271s9.314-3.617 8.671-16.614c-.315-6.463-2.793-16.637-5.072-24.909-2.057-7.443-9.01-15.645-16.372-13.277l-22.251 10.85c-2.232.723-2.63 2.812-2.104 5.098l.035 1.12 8.66 35.771 3.658 15.983a13.53 13.53 0 0 0 15.098 10.244c7.678-1.097 12.855-8.4 11.336-15.996z" class="G"/><g class="E"><path d="M392.334 70.048c.211.84-.338 1.715-1.215 1.948s-1.765-.257-1.975-1.108c-.21-.84.339-1.715 1.215-1.948s1.765.268 1.975 1.108zm-.958-2.485c-.152.257-1.566-.397-3.307-.023-1.741.338-2.828 1.505-3.062 1.33-.117-.07.012-.502.479-1.015s1.309-1.097 2.396-1.33c1.087-.222 2.08-.012 2.688.28.619.303.888.642.806.758zm-15.951 6.359c.21.84-.339 1.715-1.216 1.948s-1.764-.257-1.975-1.108c-.21-.84.339-1.715 1.216-1.948.888-.233 1.764.257 1.975 1.108zm-.853-2.24c-.152.257-1.566-.397-3.307-.023-1.742.338-2.829 1.505-3.062 1.33-.117-.07.011-.502.479-1.015s1.309-1.097 2.396-1.33c1.086-.222 2.08-.012 2.687.28.62.292.889.642.807.758zm8.799 10.966c-.023-.093 1.017-.513 2.712-1.097.432-.14.841-.315.841-.63.035-.338-.245-.782-.573-1.248l-2.021-3.103-4.803-8.202c.175-.117 2.617 3.383 5.445 7.805l1.975 3.127c.269.467.678.98.596 1.692-.046.362-.327.665-.596.805-.268.152-.514.198-.736.257-1.718.455-2.816.688-2.84.595z"/></g><path d="M388.888 102.926s-8.356 2.321-17.81-.957c0 0 6.112 7.98 18.476 4.165l-.666-3.208z" class="H"/><g class="E"><path d="M374.899 69.208c-.117.502-1.905.49-3.938.992-2.046.455-3.647 1.272-3.974.875-.152-.187.094-.677.701-1.225s1.625-1.108 2.852-1.4 2.384-.233 3.179-.012c.806.198 1.227.525 1.18.77zm15.812-7.163c-.281.467-1.777.362-3.483.7-1.718.292-3.085.922-3.506.583-.187-.175-.047-.607.514-1.12.538-.502 1.52-1.027 2.7-1.237s2.267-.07 2.945.21c.666.28.958.642.83.863zm-31.378-11.422a8.91 8.91 0 0 0 4.464 5.985c2.267 1.213 5.083 1.365 7.467.397 1.847-.747 3.763-2.158 5.633-1.482 1.975.712 2.595 3.337 4.429 4.363 2.618 1.47 5.773-1.073 8.765-.817 2.314.198 4.102 1.995 5.913 3.442s4.324 2.66 6.37 1.563c-.55-1.925-1.099-3.873-2.069-5.623s-2.419-3.313-4.277-4.037c-1.029-.397-2.139-.537-3.12-1.038-2.116-1.085-3.051-3.535-4.593-5.332-1.987-2.322-5.142-3.593-8.181-3.278-2.536.257-4.931 1.528-7.467 1.423-1.882-.082-3.681-.91-5.563-.887-3.658.058-6.416 3.267-8.449 6.3"/><path d="M371.65 53.295c-1.671-.128-5.119-.478-6.252-1.668-2.454-2.59-6.124-3.943-9.396-3.08s-5.913 4.142-5.867 7.77c-4.008.863-7.397 4.189-8.531 8.365s.024 9.054 2.922 12.25c.759.84 1.916 2.777 1.916 2.777s-1.507 1.878-2.08 3.15c-2.664 5.903 4.581 8.167 4.581 8.167.024 3.967 3.682 3.943 6.031 3.932 2.255-.012 3.646 6.242 5.48 5.997l-1.858-19.32a2.19 2.19 0 0 0 .853.152c4.43.082 3.273-8.284 1.835-10.454 1.251-1.668 2.513-3.372 3.319-5.332.806-1.972.865-6.883.175-8.948 1.555-.21 7.608-3.698 6.872-3.757z"/></g><path d="M359.262 82.672c-.689-2.648-3.985-3.827-6.03-2.007-1.122 1.003-1.788 2.683-1.087 5.495 1.882 7.513 9.046 4.072 9.011 3.85-.024-.128-1.087-4.235-1.894-7.338z" class="G"/><path d="M358.14 87.747c-.035-.012-.105.128-.303.28a1.36 1.36 0 0 1-.97.268c-.865-.093-1.858-1.19-2.232-2.532a4.52 4.52 0 0 1-.106-1.96c.094-.607.351-1.085.737-1.248a.7.7 0 0 1 .864.163c.152.187.141.35.187.35.024.012.129-.163-.011-.467-.07-.14-.199-.292-.409-.397-.222-.105-.503-.105-.772-.012-.572.187-.958.852-1.075 1.505-.152.665-.14 1.447.07 2.205.433 1.505 1.566 2.718 2.723 2.765.561 0 .97-.268 1.146-.502.187-.245.187-.42.151-.42z" class="H"/><g fill="#455a64"><path d="M399.615 72.183c-.047-.058.678-.525 1.636-1.692.935-1.167 2.08-3.138 2.349-5.834.129-1.33.059-2.835-.42-4.328-.48-1.482-1.344-2.987-2.677-4.142-2.594-2.357-6.883-3.442-10.739-2.088-.351.117-.678.292-1.017.432-.316.163-.62.35-.923.525l-.468.257-.011-.513a3.75 3.75 0 0 0-.947-2.45c-.584-.677-1.344-1.19-2.162-1.54-1.636-.723-3.401-.735-5.013-.362-3.226.735-5.961 2.205-8.543 2.497-2.56.327-4.686-.303-5.832-1.167-.596-.408-.923-.875-1.145-1.167-.187-.327-.28-.49-.257-.502.058-.047.374.712 1.531 1.482 1.133.77 3.179 1.307 5.644.945 1.227-.175 2.536-.618 3.927-1.132s2.886-1.12 4.558-1.493c.841-.175 1.718-.315 2.641-.268a8.05 8.05 0 0 1 2.723.63c.876.373 1.718.933 2.384 1.692a4.38 4.38 0 0 1 1.098 2.847l-.467-.257c.315-.175.643-.385.981-.56.351-.152.702-.338 1.076-.455 4.101-1.435 8.589-.268 11.324 2.24 1.39 1.237 2.302 2.847 2.781 4.41.479 1.575.526 3.138.362 4.527-.327 2.788-1.577 4.795-2.594 5.938-.514.572-.97.98-1.309 1.202-.304.222-.479.338-.491.327zm-1.531-26.379c-.046.082-.794-.595-2.419-.828-.795-.105-1.811-.105-2.875.257-1.063.327-2.185 1.038-2.956 2.147l-.281.408-.175-.467c-.947-2.52-3.705-4.912-7.129-5.285-2.571-.292-4.908.863-6.848 1.972-1.963 1.143-3.751 2.263-5.434 2.8-1.66.583-3.144.653-4.114.478-.491-.082-.853-.198-1.087-.303s-.362-.163-.35-.187c.023-.058.526.152 1.472.245s2.338-.035 3.939-.653c1.612-.572 3.319-1.692 5.293-2.882.994-.583 2.069-1.178 3.273-1.598 1.203-.432 2.559-.642 3.926-.502 3.67.408 6.591 2.987 7.55 5.705l-.468-.058c.877-1.225 2.127-1.948 3.272-2.263 1.146-.35 2.221-.303 3.051-.152.841.163 1.449.467 1.834.7.363.28.538.443.526.467z"/></g><g class="E"><path d="M382.694 86.102c-.526-.513-1.321-.677-2.057-.595-.69.082-1.531.688-1.975 1.435-.012.012-.024.023-.035.047l-.07.093.023-.023c-.164.268-.257.572-.222.887.07.688.596 1.272 1.215 1.575.982.49 2.291.35 3.062-.443.806-.793.853-2.217.059-2.975z" fill-opacity=".2"/><path d="M383.278 89.73c-.094.023-.211-.35-.514-.84a3.94 3.94 0 0 0-1.625-1.458 3.88 3.88 0 0 0-2.162-.268c-.572.082-.923.245-.97.163-.046-.058.246-.362.865-.583.608-.222 1.578-.292 2.524.128.935.432 1.52 1.213 1.753 1.808.246.63.211 1.038.129 1.05z"/></g><g class="C"><path d="M359.426 91.165c.058-.035.339.583-.105 1.47-.222.42-.62.887-1.251 1.12-.619.245-1.425.152-2.056-.245-.643-.397-1.064-1.073-1.111-1.75-.058-.665.199-1.225.48-1.61.607-.782 1.285-.793 1.285-.723.035.093-.514.268-.923.968-.199.338-.351.817-.281 1.307.059.49.386.98.877 1.295.491.303 1.087.385 1.554.233a2.08 2.08 0 0 0 1.064-.817c.455-.665.374-1.237.467-1.248z"/><path d="M355.488 90.722c.07.035-.035.397-.549.642a1.46 1.46 0 0 1-.97.093 1.54 1.54 0 0 1-.959-.758c-.21-.385-.245-.852-.117-1.213a1.46 1.46 0 0 1 .608-.758c.491-.292.853-.175.842-.105.011.093-.293.152-.573.443-.304.28-.514.828-.222 1.342.28.525.853.642 1.25.548.398-.082.608-.292.69-.233z"/></g><path d="M368.331 194.335s28.936 1.68 46.033 1.832c13.252.117 19.154-3.395 21.795-11.888 2.22-7.141-2.559-20.814-2.559-20.814-8.952.047-14.491 1.283-20.253 3.978l1.531 6.254-46.652 4.013.105 16.625z" class="G"/><path d="M424.636 180.37c-.164.105-1.519-2.426-4.371-4.328-2.816-1.948-5.679-2.287-5.633-2.473.012-.07.725-.094 1.859.163 1.121.245 2.652.817 4.113 1.82s2.559 2.205 3.191 3.162c.654.945.899 1.621.841 1.656z" class="H"/><g class="G"><path d="M357.743 167.397s-8.952 2.146-15.519 6.533l6.988 18.971c2.337 6.23 9.489 9.286 15.146 6.055 8.799-5.017 11.908-19.671 11.908-19.671l9.676-41.861-16.022-10.021-12.177 39.994z"/><path d="M369.909 127.402l.642-13.767-3.576-13.942c-.198-.77-.292-1.738.328-2.205.654-.49 1.636-.467 2.162.07.981 1.003 5.656 13.242 5.656 13.242s7.093-4.258 8.356-4.456c1.262-.21 2.839 3.605 2.944 3.896.094.304.012 2.555.012 2.555s4.383.129 4.78.735c.397.595.502 3.711.502 3.711s1.859.595 2.151 1.995c.304 1.4.9 3.71.023 4.223l-2.723 1.517-.935 7.793c-.187.654-4.3 4.655-4.3 4.655l-16.022-10.022z"/></g><g class="H"><path d="M355.008 199.247c.024-.035.433.245 1.344.549.9.303 2.314.571 4.126.326 1.799-.245 4.008-1.026 5.983-2.753 1.952-1.762 3.927-4.095 5.563-7.023.818-1.471 1.554-3.081 2.162-4.819.631-1.738 1.04-3.628 1.496-5.588l9.991-42.643.059-.058 2.419-2.427 1.18-1.272.526-.653c.14-.14.14-.42.199-.723l.818-7.175.011-.152.141-.082 2.232-1.248.526-.304c.093-.07.175-.21.21-.396.082-.35.058-.794.012-1.214a19.45 19.45 0 0 0-.514-2.531c-.293-.712-1.087-1.214-1.859-1.494l-.198-.07-.012-.198-.152-2.065-.152-1.027c-.035-.151-.082-.338-.128-.431-.035-.082-.024-.024-.07-.07-.059-.024-.117-.059-.199-.082-1.297-.362-2.828-.408-4.277-.478l-.304-.012.011-.303.024-2.275c.023-.199-.164-.502-.269-.782a17.56 17.56 0 0 0-.397-.828c-.281-.549-.596-1.074-.959-1.541-.187-.233-.385-.443-.596-.583-.233-.14-.338-.175-.619-.07-.538.187-1.098.478-1.648.758l-6.684 3.781-.129-.327-4.873-12.18c-.199-.665-.666-1.05-1.286-1.202-.619-.163-1.227.035-1.519.56-.14.245-.21.548-.175.828.035.257.164.653.234.968l3.599 13.72v.047l-.666 13.802-.012.035-10.646 34.58-3.003 9.625-.807 2.521-.304.863s.07-.303.222-.875l.737-2.544 2.874-9.671 10.436-34.651.608-13.709.012.082-3.097-11.667-.538-2.007c-.081-.361-.187-.63-.257-1.061-.047-.408.047-.828.257-1.19s.538-.653.947-.793.818-.128 1.204-.035.759.268 1.075.548c.315.257.526.7.631 1.003l1.601 4.002 3.284 8.178-.433-.151 6.416-3.629 1.73-.793c.175-.047.339-.117.584-.082.21.035.409.117.549.222.316.198.538.455.737.711.409.514.724 1.074 1.016 1.646l.421.863c.105.303.304.548.327.992.035.828 0 1.61-.023 2.345l-.292-.315c1.507.081 2.956.105 4.464.513.093.023.199.082.304.128.093.047.28.21.304.304.116.221.14.396.187.595.081.373.128.723.163 1.085a25.73 25.73 0 0 1 .152 2.111l-.21-.28c.9.339 1.799.864 2.232 1.844.28.956.432 1.773.561 2.695.046.455.082.921-.024 1.423-.046.245-.175.525-.42.723-.246.175-.398.234-.596.35l-2.244 1.249.152-.233-.83 7.198-.07.455c-.012.14-.117.397-.222.513-.187.269-.386.49-.573.712l-1.203 1.295-2.431 2.438.082-.14-10.109 42.526-1.543 5.624c-.631 1.761-1.39 3.383-2.22 4.865-1.683 2.952-3.693 5.297-5.691 7.058-2.045 1.75-4.313 2.52-6.136 2.73-1.846.222-3.295-.093-4.183-.42a6.66 6.66 0 0 1-.994-.443l-.339-.222z"/><path d="M386.433 112.772c0 .082-.397.128-1.017.163s-1.46.059-2.325.28-1.566.654-1.987 1.062c-.432.397-.619.735-.701.7-.07-.023-.023-.443.374-.98.386-.537 1.169-1.108 2.15-1.365.982-.245 1.87-.187 2.501-.117s1.005.175 1.005.257z"/><path d="M383.009 112.901c-.152-.059-.164-.42-.024-.805s.386-.654.55-.595c.152.058.163.42.023.805-.152.396-.397.653-.549.595zm8.905 4.246c0 .175-1.566.362-3.471.479-.946.081-1.648.42-1.928.921-.304.479-.211.875-.292.899-.059.058-.374-.397-.094-1.097a1.94 1.94 0 0 1 .83-.922c.409-.233.911-.35 1.402-.408 1.975-.128 3.553-.035 3.553.128zm-.783 4.189c.163.011.268.875.222 1.925-.047 1.061-.222 1.901-.386 1.901-.164-.011-.269-.875-.222-1.925s.21-1.901.386-1.901z"/></g><g fill="#fff"><path d="M395.993 152.766l1.04-3.581c.21-.724 1.11-.945 1.636-.409l1.355 1.377.842-3.36c.222-.887 1.437-1.003 1.835-.187l1.916 3.979-8.624 2.181zm8.636-.641c.035.163-1.812.758-4.126 1.33-2.325.572-4.23.91-4.277.747-.035-.164 1.811-.759 4.125-1.33 2.326-.584 4.242-.91 4.278-.747zm-69.499-19.951c.023.024-.432.444-1.04 1.389-.596.933-1.262 2.438-1.59 4.41-.338 1.96-.362 4.352-.21 6.988l.666 8.575c.643 6.067 1.625 11.516 2.466 15.424l1.052 4.62.304 1.249a5.91 5.91 0 0 1 .093.443s-.058-.14-.14-.432l-.351-1.237a105.02 105.02 0 0 1-1.122-4.608c-.888-3.908-1.893-9.357-2.536-15.435-.327-3.034-.525-5.939-.642-8.587-.141-2.637-.105-5.052.269-7.035.35-1.984 1.04-3.5 1.671-4.422.631-.933 1.11-1.342 1.11-1.342z"/><path d="M359.73 116.319c0 .012-.082.058-.257.14l-.772.362-2.793 1.423c-2.337 1.249-5.446 3.185-8.776 5.484-3.331 2.286-6.299 4.456-8.449 5.996l-2.571 1.809-.702.478c-.163.105-.245.163-.257.152 0-.012.07-.07.222-.199l.678-.513 2.524-1.878c2.139-1.575 5.072-3.769 8.415-6.055 3.342-2.299 6.474-4.212 8.834-5.425 1.169-.619 2.151-1.074 2.84-1.366l.795-.326c.164-.059.257-.094.269-.082zm55.732 7.584c-.012.011-.07-.047-.199-.152l-.526-.455a21.71 21.71 0 0 0-2.045-1.528c-1.788-1.214-4.452-2.579-7.514-3.792-3.062-1.225-5.925-2.089-8.005-2.66l-3.156-.817-.233-.082c0-.011.082 0 .245.024l.69.128 2.5.572c2.104.525 4.979 1.376 8.052 2.601s5.75 2.626 7.515 3.874c1.799 1.26 2.676 2.287 2.676 2.287zm-55.405 89.065c-.012.011-.175-.035-.456-.152s-.689-.315-1.157-.618c-.923-.584-2.162-1.715-2.536-3.442-.385-1.68-.023-3.278.456-4.27.234-.502.479-.887.678-1.132.187-.245.315-.361.327-.35.035.024-.421.549-.841 1.552-.421.992-.748 2.532-.374 4.142.35 1.633 1.519 2.741 2.395 3.348.889.618 1.531.875 1.508.922z"/><path d="M356.34 200.332c.071-.023.316.642.561 1.47s.386 1.517.328 1.529c-.071.023-.316-.642-.561-1.47s-.398-1.517-.328-1.529z"/></g><g class="E"><path d="M372.141 461.904l35.643-.175-.643-123.039-.327-125.151-48.276-.595-8.683 16.334c-3.506 6.592-5.879 13.755-6.673 21.175-.608 5.659 3.634 24.093 5.118 28.783l13.288 42.071 10.553 140.597z"/><path d="M417.262 213.714l39.172 106.601c4.605 14.292 3.062 28.455-4.826 41.651l-45.472 88.61-25.57-31.932 38.051-79.382-33.54-54.251 5.645-71.18 15.8-.257 10.74.14z"/></g><g fill="#455a64"><path d="M403.554 249.427l.058.548.105 1.61.327 6.183 1.099 22.739 2.454 53.633c.222 3.453.117 6.977.164 10.535l.035 10.862.128 75.1-.035 22.762-.035 6.184-.023 1.61c-.012.361-.035.548-.035.548s-.024-.187-.035-.548l-.035-1.61-.07-6.184-.164-22.762-.339-85.95c-.035-3.57.07-7.094-.152-10.535l-.865-19.916-1.425-33.717-.912-22.739-.21-6.183-.047-1.61c0-.374.012-.56.012-.56zm-.901-33.613c.047 0 .129.409.246 1.155l.421 3.185c.315 2.695.642 6.441.829 10.582s.199 7.899.129 10.617l-.129 3.22c-.046.759-.105 1.179-.14 1.179-.093 0-.117-1.68-.152-4.387l-.304-10.582c-.187-4.13-.444-7.864-.654-10.57-.199-2.719-.327-4.387-.246-4.399zm-7.852 2.404c.058.081-.608.385-.795 1.33-.082.455.012 1.038.456 1.423.42.397 1.157.583 1.753.315s.923-.957.899-1.528c0-.595-.385-1.039-.783-1.272-.841-.478-1.507-.175-1.519-.268-.011-.035.117-.152.409-.245.292-.082.783-.105 1.309.128.514.222 1.099.805 1.145 1.622.059.781-.339 1.703-1.215 2.111-.888.385-1.846.082-2.396-.466-.596-.572-.654-1.389-.479-1.925.164-.56.491-.91.76-1.074.269-.175.444-.186.456-.151zm-18.699-2.112c.035-.011.176.385.316 1.12s.234 1.832.105 3.174-.538 2.928-1.344 4.515c-.806 1.598-2.068 3.185-3.751 4.41-1.706 1.201-3.611 1.878-5.388 2.135s-3.412.14-4.721-.175c-1.321-.303-2.326-.735-2.98-1.109s-.97-.63-.958-.665c.058-.116 1.437.864 4.02 1.354 2.512.502 6.404.268 9.664-2.042 3.238-2.345 4.698-5.95 5.026-8.482.374-2.601-.117-4.223.011-4.235zm45.858 10.209c0 .058-.888.128-2.244-.269-1.356-.385-3.132-1.33-4.605-2.94-1.46-1.61-2.232-3.476-2.489-4.853-.257-1.388-.105-2.263-.046-2.252.105 0 .116.852.467 2.159.339 1.295 1.134 3.021 2.513 4.55 1.39 1.516 3.026 2.473 4.288 2.94l2.116.665zm13.918 114.93c.047.058-.678.77-2.068 1.645-.702.42-1.578.887-2.665 1.155-1.063.28-2.36.315-3.588-.093-2.489-.817-4.043-2.684-4.99-3.967-.946-1.318-1.425-2.205-1.367-2.24.07-.058.69.747 1.706 1.983 1.017 1.202 2.56 2.905 4.838 3.652 2.291.759 4.476-.128 5.844-.863l2.29-1.272zm-8.917 6.802c-.14.093-1.788-1.983-3.693-4.655s-3.33-4.912-3.19-5.005 1.788 1.983 3.693 4.655l3.19 5.005z"/></g><g fill="#fafafa"><path d="M367.069 253.557c-.152.058-.573-.607-.923-1.505-.363-.887-.526-1.668-.363-1.727.152-.058.573.607.923 1.505s.515 1.669.363 1.727zm22.624 3.232c-.163 0-.303-.584-.303-1.295s.14-1.296.303-1.296.304.584.304 1.296c0 .723-.14 1.295-.304 1.295zm-9.302 12.261c-.164.012-.35-.7-.409-1.598-.058-.887.023-1.622.199-1.633.163-.012.35.7.409 1.598s-.024 1.622-.199 1.633zm-16.992 9.042c-.14.105-.619-.326-1.25-.781-.62-.455-1.181-.782-1.122-.945.046-.152.771-.059 1.484.455s1.028 1.178.888 1.271zm29.952 11.399c-.14-.093.036-.607.398-1.132.362-.536.759-.898.9-.805s-.035.607-.398 1.132c-.35.537-.759.898-.9.805zm-18.523 3.232c-.163 0-.304-.969-.304-2.147 0-1.19.141-2.147.304-2.147s.304.969.304 2.147-.14 2.147-.304 2.147zm-6.018 13.078c-.094.14-.713-.14-1.367-.618s-1.111-.968-1.006-1.108c.094-.14.713.14 1.368.618s1.11.98 1.005 1.108zm18.733 4.562c.071.152-.315.467-.841.712-.538.233-1.028.303-1.099.151s.316-.466.842-.711c.537-.234 1.028-.304 1.098-.152zm-12.715 21.292c-.151.07-.759-.828-1.343-2.018-.596-1.19-.959-2.217-.807-2.287s.76.828 1.344 2.018c.596 1.19.947 2.217.806 2.287zm20.685-1.937c-.152-.081.117-.863.596-1.761.479-.887.982-1.552 1.134-1.47s-.117.863-.596 1.761-.982 1.552-1.134 1.47zm-9.057 18.072c-.175-.023-.163-.945-.339-2.041-.163-1.097-.467-1.972-.303-2.042.14-.082.724.747.911 1.948s-.105 2.17-.269 2.135zm-9.699 10.337c-.129.117-.713-.326-1.298-.98-.596-.653-.981-1.271-.853-1.388s.713.327 1.297.98c.596.653.982 1.272.854 1.388zm23.548 3.92c-.117-.116.315-.746.958-1.4.654-.653 1.274-1.096 1.391-.98s-.316.747-.959 1.4c-.654.654-1.273 1.097-1.39.98zm-13.545 15.447c-.164-.023-.164-.91 0-1.983s.432-1.925.596-1.89c.163.023.163.91 0 1.983s-.432 1.925-.596 1.89zm-9.104 7.502c-.14.082-.654-.513-1.145-1.342-.479-.828-.76-1.563-.619-1.645s.654.514 1.145 1.342c.479.829.76 1.564.619 1.645zm21.936 9.474c.093.14-.503.735-1.333 1.33s-1.589.968-1.682.828.502-.735 1.332-1.33c.841-.595 1.589-.968 1.683-.828zm-18.278 12.285c-.163-.058.047-1.003.141-2.158.105-1.155.07-2.124.233-2.147.164-.035.479.957.363 2.205-.094 1.248-.585 2.158-.737 2.1zm7.304 17.628c-.128.105-.619-.291-1.098-.886s-.76-1.155-.62-1.26c.129-.105.62.291 1.099.886.467.595.748 1.155.619 1.26zm-7.981 11.843c-.141.093-.783-.595-1.438-1.552s-1.075-1.797-.935-1.89.783.595 1.438 1.552c.654.945 1.075 1.785.935 1.89zm21.981-14.852c-.151-.059-.14-.49.036-.969s.455-.817.607-.758.14.49-.035.968-.444.817-.608.759zm-9.687 28.187c-.152-.082.14-.91.362-1.949.234-1.038.327-1.913.491-1.925s.35.922.093 2.054c-.245 1.131-.806 1.901-.946 1.82zm6.298-180.312c-.152.07-.526-.397-.829-1.05s-.433-1.237-.281-1.307.526.397.83 1.05c.304.642.432 1.225.28 1.307zm-16.22-36.342c.094.151-.724.805-1.601 1.738-.876.922-1.484 1.785-1.636 1.703-.14-.07.246-1.12 1.192-2.123.935-.992 1.963-1.458 2.045-1.318zm14.444-.432c-.163.035-.444-.654-.853-1.459-.397-.805-.783-1.435-.654-1.551.116-.117.759.396 1.203 1.283s.468 1.703.304 1.727zm-44.992 11.853c-.152-.058 0-.84.362-1.726.351-.899.771-1.564.923-1.505s0 .84-.362 1.726c-.351.899-.76 1.575-.923 1.505zm1.461 17.629c-.106.128-.772-.245-1.485-.84s-1.203-1.178-1.098-1.307.771.245 1.484.84c.713.584 1.204 1.179 1.099 1.307zm29.519-43.028c-.152.059-.479-.373-.712-.968s-.304-1.132-.152-1.19.479.373.712.968c.246.595.304 1.12.152 1.19zm28.27 8.611c-.164-.035-.152-.735.035-1.576.187-.828.467-1.47.631-1.435s.152.735-.035 1.575c-.187.829-.468 1.471-.631 1.436zm6.649 13.323c-.152-.058.058-.933.467-1.948.421-1.015.877-1.774 1.04-1.715.152.058-.058.933-.467 1.948-.432 1.015-.888 1.785-1.04 1.715zm-4.745 10.769c-.152.07-.701-.735-1.238-1.797-.538-1.073-.854-1.995-.702-2.077.152-.07.702.735 1.239 1.797.538 1.073.853 1.995.701 2.077zm10.133 10.757c-.152-.059-.047-.735.257-1.505.292-.77.666-1.354.818-1.295s.046.735-.257 1.505-.666 1.353-.818 1.295zm-9.057 10.535c-.141.093-.503-.222-.795-.7s-.421-.933-.281-1.027.503.222.795.7.421.934.281 1.027zm1.928 21.735c-.129.117-.853-.466-1.625-1.295s-1.297-1.598-1.18-1.715c.129-.116.853.467 1.624 1.295.783.84 1.309 1.599 1.181 1.715zm11.861-12.483c-.128.105-.771-.49-1.425-1.319s-1.075-1.586-.947-1.691.771.49 1.426 1.318 1.087 1.587.946 1.692zm6.51 17.232c-.152-.07.117-.945.596-1.96.479-1.004.993-1.774 1.145-1.692.152.07-.117.945-.596 1.96-.479 1.003-.993 1.762-1.145 1.692zm-13.837 14.175c-.152.093-.689-.56-1.449-1.248-.748-.689-1.437-1.179-1.356-1.342.071-.152.947.128 1.777.887.829.77 1.168 1.633 1.028 1.703zm.865 14.63c0 .164-.585.304-1.297.304s-1.298-.14-1.298-.304.585-.303 1.298-.303 1.297.14 1.297.303zm14.222-4.083c-.152-.093.152-.817.374-1.738.234-.91.316-1.692.491-1.704.164-.023.362.84.105 1.855-.257 1.027-.83 1.68-.97 1.587zm14.129 4.9c-.163.058-.584-.758-.958-1.82s-.549-1.972-.386-2.03.585.758.959 1.82c.373 1.073.549 1.983.385 2.03zm-2.244 20.067c-.151-.082.211-1.062.807-2.182.596-1.131 1.192-1.983 1.344-1.901s-.211 1.061-.807 2.181c-.596 1.132-1.203 1.984-1.344 1.902zm-12.901 11.795c-.152.059-.631-.746-1.075-1.808-.433-1.062-.667-1.972-.515-2.042.152-.058.631.747 1.075 1.809.445 1.073.667 1.983.515 2.041zm-14.281 4.551c0 .163-.479.303-1.075.303s-1.076-.14-1.076-.303.48-.304 1.076-.304 1.075.129 1.075.304zm8.192 18.713c-.164.047-.491-.642-.725-1.54-.234-.887-.304-1.645-.14-1.692s.491.642.724 1.54c.234.887.293 1.645.141 1.692zm-10.354-6.242c-.14-.081.023-.641.386-1.236s.759-1.004.911-.922c.14.082-.023.642-.386 1.237s-.759 1.015-.911.921zm-.211 20.651c-.163.023-.397-.782-.514-1.797s-.082-1.843.082-1.867.397.782.514 1.797c.129 1.015.082 1.855-.082 1.867z"/></g></g><defs><clipPath id="A"><path fill="#fff" d="M0 0h516v494H0z"/></clipPath><path id="B" d="M74.103 463.316c1.11-4.294-1.706-8.599-4.873-11.714-3.155-3.115-6.93-5.903-8.578-10.022-2.665-6.673.912-15.307-3.623-20.872-2.676-3.278-7.468-4.363-9.84-7.863-1.239-1.832-1.648-4.084-2.139-6.254-2.489-11.025-8.017-21.338-15.812-29.54a55.01 55.01 0 0 0 6.205 28.467c1.835 3.5 4.102 6.907 4.71 10.815.993 6.335-2.559 12.869-.993 19.099 1.788 7.117 9.793 11.889 10.179 19.215.316 6.195-5.084 11.632-4.686 17.827.175 2.637 1.402 5.087 2.758 7.35 4.803 7.969 11.85 13.452 22.531 13.266l13.089.455-8.928-30.229z"/><path id="C" d="M135.375 187.487h67.488s0-56.573 58.888-57.588c30.583-.525 46.442 19.472 52.881 34.803 7.479 17.792 5.212 38.069-4.803 54.577-11.453 18.842-36.099 37.778-81.583 29.774l-.432 150.118h66.741v-88.995s93.596-24.15 93.596-127.134c0-98.527-79.806-119.807-122.707-121.184-23.864-.758-32.523-1.785-62.043 2.403-37.607 5.332-68.821 48.931-68.026 123.226z"/><path id="D" d="M107.421 187.487h67.489s0-56.573 58.887-57.588c30.584-.525 46.442 19.472 52.881 34.803 7.479 17.792 5.212 38.069-4.803 54.577-11.453 18.842-36.532 35.969-82.015 27.966v151.926h66.741v-88.995s93.596-24.15 93.596-127.134c0-98.527-88.501-121.417-126.388-121.406-28.971-.012-127.662 6.989-126.388 125.851z"/><path id="E" d="M334.429 178.539c-1.181 2.345 3.19 4.246 5.703 5.005 2.524.758 5.212.676 7.83.536 3.482-.186 7.093-.513 10.12-2.24 2.688-1.54 4.698-4.071 6.1-6.825 1.403-2.765 2.256-5.763 3.097-8.738.012-.012-27.603 1.796-32.85 12.262z"/></defs></svg>