<svg xmlns="http://www.w3.org/2000/svg" xmlns:xlink="http://www.w3.org/1999/xlink" width="198" height="8" fill="none" xmlns:v="https://vecta.io/nano"><style><![CDATA[.B{fill-opacity:.7}]]></style><g fill="#fff" class="B"><path d="M7.308 2.208c.735 0 1.315.206 1.741.619.434.412.65 1.024.65 1.835v3.253H8.641V4.779c0-.548-.132-.96-.397-1.237-.257-.277-.628-.416-1.113-.416-.536 0-.963.164-1.279.491-.316.32-.474.782-.474 1.387v2.912H4.321V4.779c0-.548-.132-.96-.397-1.237-.257-.277-.628-.416-1.113-.416-.536 0-.963.164-1.279.491-.316.32-.474.782-.474 1.387v2.912H0V2.261h1.014v.843c.213-.292.492-.512.838-.661.345-.156.738-.235 1.179-.235.456 0 .86.089 1.212.267a1.89 1.89 0 0 1 .816.779 2.22 2.22 0 0 1 .915-.768 3.12 3.12 0 0 1 1.334-.277zm6.873 5.771c-.581 0-1.102-.124-1.565-.373a2.81 2.81 0 0 1-1.091-1.024c-.257-.441-.386-.939-.386-1.493s.129-1.049.386-1.483a2.71 2.71 0 0 1 1.091-1.024c.463-.249.985-.373 1.565-.373s1.099.124 1.554.373c.463.242.823.583 1.08 1.024a2.79 2.79 0 0 1 .397 1.483 2.84 2.84 0 0 1-.397 1.493 2.73 2.73 0 0 1-1.08 1.024c-.456.249-.974.373-1.554.373zm0-.896c.375 0 .709-.082 1.003-.245.301-.171.536-.405.705-.704.169-.306.254-.654.254-1.045s-.085-.736-.254-1.035a1.74 1.74 0 0 0-.705-.704c-.294-.164-.628-.245-1.003-.245a2.09 2.09 0 0 0-1.014.245c-.294.164-.529.398-.705.704-.169.299-.253.644-.253 1.035s.084.74.253 1.045a1.94 1.94 0 0 0 .705.704 2.09 2.09 0 0 0 1.014.245zm5.508-3.872a1.78 1.78 0 0 1 .816-.747c.36-.171.797-.256 1.312-.256V3.2a2.15 2.15 0 0 0-.242-.011c-.573 0-1.025.167-1.356.501-.323.327-.485.796-.485 1.408v2.816h-1.058V2.261h1.014v.949zm8.657 1.909c0 .078-.007.181-.022.309h-4.739c.066.498.29.9.672 1.205.389.299.871.448 1.444.448.698 0 1.26-.228 1.686-.683l.584.661a2.55 2.55 0 0 1-.992.683c-.39.156-.827.235-1.312.235-.617 0-1.165-.121-1.642-.363-.478-.249-.849-.594-1.113-1.035-.257-.441-.386-.939-.386-1.493 0-.548.125-1.042.375-1.483a2.69 2.69 0 0 1 1.047-1.024c.448-.249.952-.373 1.51-.373s1.054.124 1.488.373a2.54 2.54 0 0 1 1.025 1.024c.25.441.375.946.375 1.515zm-2.888-2.048c-.507 0-.933.149-1.279.448-.338.299-.536.69-.595 1.173h3.747a1.77 1.77 0 0 0-.606-1.163c-.338-.306-.761-.459-1.267-.459zM36.06 7.584c-.154.128-.345.228-.573.299-.228.064-.463.096-.705.096-.588 0-1.043-.153-1.367-.459s-.485-.743-.485-1.312V3.104h-.992v-.843h.992V1.024h1.058v1.237h1.675v.843h-1.675v3.061c0 .306.077.54.231.704.162.164.389.245.683.245.323 0 .599-.089.827-.267l.331.736zm4.399-5.376c.742 0 1.33.21 1.764.629.441.412.661 1.02.661 1.824v3.253h-1.058V4.779c0-.548-.136-.96-.408-1.237s-.661-.416-1.168-.416c-.573 0-1.025.164-1.356.491-.331.32-.496.782-.496 1.387v2.912H37.34V0h1.058v3.061c.221-.27.507-.48.86-.629.36-.149.761-.224 1.201-.224zm6.51 0c.808 0 1.425.192 1.852.576.434.384.65.956.65 1.717v3.413h-1.003v-.747a1.69 1.69 0 0 1-.761.608c-.323.135-.709.203-1.157.203-.654 0-1.179-.153-1.576-.459a1.46 1.46 0 0 1-.584-1.205 1.45 1.45 0 0 1 .562-1.195c.375-.306.97-.459 1.786-.459h1.675v-.203c0-.441-.132-.779-.397-1.013s-.654-.352-1.168-.352c-.345 0-.683.057-1.014.171-.331.107-.61.252-.838.437l-.441-.768c.301-.235.661-.412 1.08-.533a4.54 4.54 0 0 1 1.334-.192zm-.242 4.981c.404 0 .753-.085 1.047-.256.294-.178.507-.427.639-.747v-.789h-1.631c-.897 0-1.345.292-1.345.875a.78.78 0 0 0 .342.672c.228.164.544.245.948.245zm7.821-4.981c.742 0 1.33.21 1.764.629.441.412.661 1.02.661 1.824v3.253h-1.058V4.779c0-.548-.136-.96-.408-1.237s-.661-.416-1.168-.416c-.573 0-1.025.164-1.356.491-.331.32-.496.782-.496 1.387v2.912h-1.058V2.261h1.014v.853a2.05 2.05 0 0 1 .86-.672 3.15 3.15 0 0 1 1.245-.235zm9.823 1.376c.757.071 1.334.299 1.73.683.397.377.595.86.595 1.451a2.13 2.13 0 0 1-.331 1.163c-.221.341-.551.615-.992.821-.434.199-.966.299-1.598.299-.551 0-1.08-.078-1.587-.235-.507-.164-.922-.388-1.245-.672l.507-.843c.265.242.602.437 1.014.587.411.142.849.213 1.312.213.573 0 1.018-.117 1.334-.352.323-.235.485-.558.485-.971s-.158-.732-.474-.96-.794-.341-1.433-.341h-.617V3.68l1.94-2.304h-3.714V.448h5.092v.725l-2.017 2.411z"/><use xlink:href="#B"/><use xlink:href="#B" x="7.352"/><use xlink:href="#B" x="14.703"/><path d="M98.659 2.261v5.653h-1.003v-.853c-.213.292-.496.519-.849.683a2.72 2.72 0 0 1-1.135.235c-.779 0-1.392-.206-1.841-.619-.448-.42-.672-1.035-.672-1.845V2.261h1.058v3.136c0 .548.136.964.408 1.248.272.277.661.416 1.168.416.558 0 .999-.164 1.323-.491s.485-.789.485-1.387V2.261h1.058zm5.133-.053c.742 0 1.33.21 1.764.629.441.412.661 1.02.661 1.824v3.253h-1.058V4.779c0-.548-.136-.96-.408-1.237s-.661-.416-1.168-.416c-.573 0-1.025.164-1.356.491-.331.32-.496.782-.496 1.387v2.912h-1.058V2.261h1.014v.853c.213-.292.5-.516.86-.672.367-.156.782-.235 1.245-.235zM108.175 0h1.058v7.915h-1.058V0zm5.581 7.979a3.25 3.25 0 0 1-1.565-.373c-.463-.249-.827-.59-1.092-1.024a2.91 2.91 0 0 1-.385-1.493c0-.555.128-1.049.385-1.483.265-.441.629-.782 1.092-1.024a3.25 3.25 0 0 1 1.565-.373 3.19 3.19 0 0 1 1.554.373c.463.242.823.583 1.08 1.024.265.434.397.928.397 1.483a2.84 2.84 0 0 1-.397 1.493c-.257.434-.617.775-1.08 1.024a3.19 3.19 0 0 1-1.554.373zm0-.896a2.03 2.03 0 0 0 1.003-.245c.301-.171.536-.405.705-.704.169-.306.254-.654.254-1.045s-.085-.736-.254-1.035c-.169-.306-.404-.54-.705-.704a2.03 2.03 0 0 0-1.003-.245 2.09 2.09 0 0 0-1.014.245 1.84 1.84 0 0 0-.706.704c-.169.299-.253.644-.253 1.035s.084.74.253 1.045c.177.299.412.533.706.704.301.164.639.245 1.014.245z"/><use xlink:href="#C"/><path d="M126.742 5.28l-1.212 1.088v1.547h-1.058V0h1.058v5.077l3.185-2.816h1.279l-2.458 2.336 2.7 3.317h-1.301l-2.193-2.635zm9.553-.16c0 .078-.007.181-.022.309h-4.739c.066.498.29.9.672 1.205.39.299.871.448 1.444.448.698 0 1.26-.228 1.687-.683l.584.661c-.265.299-.595.526-.992.683-.39.156-.827.235-1.312.235-.617 0-1.165-.121-1.642-.363a2.74 2.74 0 0 1-1.113-1.035 2.9 2.9 0 0 1-.386-1.493c0-.548.125-1.042.375-1.483a2.69 2.69 0 0 1 1.047-1.024c.448-.249.951-.373 1.51-.373s1.054.124 1.488.373c.441.242.782.583 1.025 1.024.25.441.374.946.374 1.515zm-2.887-2.048c-.507 0-.934.149-1.279.448-.338.299-.536.69-.595 1.173h3.747a1.76 1.76 0 0 0-.606-1.163c-.338-.306-.76-.459-1.267-.459zM143.276 0v7.915h-1.014v-.896a2.28 2.28 0 0 1-.893.715c-.36.164-.757.245-1.19.245-.566 0-1.073-.121-1.521-.363a2.71 2.71 0 0 1-1.059-1.013c-.249-.441-.374-.946-.374-1.515s.125-1.07.374-1.504c.258-.434.61-.772 1.059-1.013s.955-.363 1.521-.363c.418 0 .804.078 1.157.235a2.19 2.19 0 0 1 .882.672V0h1.058zm-3.009 7.083a2.07 2.07 0 0 0 1.003-.245c.301-.171.536-.405.705-.704.169-.306.254-.654.254-1.045s-.085-.736-.254-1.035c-.169-.306-.404-.54-.705-.704a2.07 2.07 0 0 0-1.003-.245 2.09 2.09 0 0 0-1.014.245 1.84 1.84 0 0 0-.706.704c-.169.299-.253.644-.253 1.035s.084.74.253 1.045c.177.299.412.533.706.704.301.164.639.245 1.014.245zm10.098-4.875c.808 0 1.426.192 1.852.576.433.384.65.956.65 1.717v3.413h-1.003v-.747a1.69 1.69 0 0 1-.76.608c-.324.135-.71.203-1.158.203-.654 0-1.179-.153-1.576-.459a1.46 1.46 0 0 1-.584-1.205c0-.498.187-.896.562-1.195.375-.306.97-.459 1.786-.459h1.675v-.203c0-.441-.132-.779-.397-1.013s-.654-.352-1.168-.352a3.09 3.09 0 0 0-1.014.171c-.331.107-.61.252-.838.437l-.441-.768c.302-.235.662-.412 1.08-.533.419-.128.864-.192 1.334-.192zm-.242 4.981c.404 0 .753-.085 1.047-.256.294-.178.507-.427.639-.747v-.789h-1.631c-.897 0-1.345.292-1.345.875a.78.78 0 0 0 .342.672c.227.164.543.245.948.245zm7.281.79c-.596 0-1.128-.124-1.599-.373a2.81 2.81 0 0 1-1.091-1.024 2.85 2.85 0 0 1-.397-1.493c0-.555.133-1.049.397-1.483a2.71 2.71 0 0 1 1.091-1.024c.471-.249 1.003-.373 1.599-.373.529 0 .999.103 1.41.309.419.206.743.505.97.896l-.804.501a1.78 1.78 0 0 0-.684-.608 2 2 0 0 0-.903-.203 2.18 2.18 0 0 0-1.037.245c-.301.164-.54.398-.716.704-.169.299-.253.644-.253 1.035 0 .398.084.75.253 1.056.176.299.415.53.716.693a2.18 2.18 0 0 0 1.037.245 2 2 0 0 0 .903-.203 1.78 1.78 0 0 0 .684-.608l.804.491a2.3 2.3 0 0 1-.97.907c-.411.206-.881.309-1.41.309z"/><use xlink:href="#C" x="42.818"/><path d="M169.781 7.979a3.25 3.25 0 0 1-1.565-.373c-.463-.249-.827-.59-1.092-1.024a2.91 2.91 0 0 1-.385-1.493c0-.555.128-1.049.385-1.483.265-.441.629-.782 1.092-1.024a3.25 3.25 0 0 1 1.565-.373 3.19 3.19 0 0 1 1.554.373c.463.242.823.583 1.08 1.024.265.434.397.928.397 1.483a2.84 2.84 0 0 1-.397 1.493c-.257.434-.617.775-1.08 1.024a3.19 3.19 0 0 1-1.554.373zm0-.896c.375 0 .709-.082 1.003-.245.301-.171.536-.405.705-.704.169-.306.254-.654.254-1.045s-.085-.736-.254-1.035c-.169-.306-.404-.54-.705-.704-.294-.164-.628-.245-1.003-.245a2.09 2.09 0 0 0-1.014.245 1.84 1.84 0 0 0-.706.704c-.169.299-.253.644-.253 1.035s.084.74.253 1.045c.177.299.412.533.706.704.301.164.639.245 1.014.245zm9.939-4.822v5.653h-1.003v-.853c-.213.292-.496.519-.849.683-.345.156-.723.235-1.135.235-.779 0-1.392-.206-1.841-.619-.448-.42-.672-1.035-.672-1.845V2.261h1.058v3.136c0 .548.136.964.408 1.248.272.277.661.416 1.168.416.559 0 1-.164 1.323-.491s.485-.789.485-1.387V2.261h1.058zm5.134-.053c.742 0 1.33.21 1.763.629.441.412.662 1.02.662 1.824v3.253h-1.059V4.779c0-.548-.135-.96-.407-1.237s-.662-.416-1.169-.416c-.573 0-1.025.164-1.355.491-.331.32-.496.782-.496 1.387v2.912h-1.059V2.261h1.015v.853c.213-.292.499-.516.859-.672.368-.156.783-.235 1.246-.235zm7.667 5.376c-.154.128-.345.228-.573.299-.228.064-.463.096-.705.096-.588 0-1.044-.153-1.367-.459s-.485-.743-.485-1.312V3.104h-.992v-.843h.992V1.024h1.058v1.237h1.676v.843h-1.676v3.061c0 .306.077.54.232.704.161.164.389.245.683.245.323 0 .599-.089.827-.267l.33.736zm2.955.395c-.478 0-.937-.06-1.378-.181-.441-.128-.786-.288-1.036-.48l.441-.811c.257.178.569.32.937.427a3.97 3.97 0 0 0 1.113.16c.926 0 1.389-.256 1.389-.768a.49.49 0 0 0-.187-.405c-.124-.099-.283-.171-.474-.213a8.62 8.62 0 0 0-.794-.16 8.26 8.26 0 0 1-1.157-.245c-.294-.092-.548-.249-.761-.469s-.32-.53-.32-.928c0-.512.221-.921.662-1.227.441-.313 1.032-.469 1.774-.469a5.05 5.05 0 0 1 1.169.139c.389.092.709.217.959.373l-.452.811c-.478-.299-1.04-.448-1.687-.448-.448 0-.79.071-1.025.213s-.352.331-.352.565a.53.53 0 0 0 .198.437 1.27 1.27 0 0 0 .485.235l.827.171a8.24 8.24 0 0 1 1.135.256 1.66 1.66 0 0 1 .749.448c.206.213.309.512.309.896 0 .512-.228.921-.683 1.227-.449.299-1.062.448-1.841.448z"/></g><defs ><path id="B" d="M70.877 8c-.61 0-1.154-.149-1.631-.448-.47-.306-.841-.747-1.113-1.323s-.408-1.259-.408-2.048.136-1.472.408-2.048.643-1.013 1.113-1.312c.478-.306 1.021-.459 1.631-.459.603 0 1.139.153 1.609.459.478.299.852.736 1.124 1.312s.408 1.259.408 2.048-.136 1.472-.408 2.048-.647 1.017-1.124 1.323c-.47.299-1.007.448-1.609.448zm0-.949a1.75 1.75 0 0 0 1.477-.736c.375-.491.562-1.202.562-2.133s-.187-1.643-.562-2.133a1.75 1.75 0 0 0-1.477-.736 1.79 1.79 0 0 0-1.499.736c-.367.491-.551 1.202-.551 2.133s.184 1.643.551 2.133a1.79 1.79 0 0 0 1.499.736z"/><path id="C" d="M120.796 7.979c-.595 0-1.128-.124-1.598-.373-.463-.249-.827-.59-1.091-1.024-.265-.441-.397-.939-.397-1.493s.132-1.049.397-1.483c.264-.441.628-.782 1.091-1.024.47-.249 1.003-.373 1.598-.373.529 0 1 .103 1.411.309a2.24 2.24 0 0 1 .97.896l-.805.501a1.77 1.77 0 0 0-.683-.608c-.272-.135-.573-.203-.904-.203a2.18 2.18 0 0 0-1.036.245c-.301.164-.54.398-.716.704-.169.299-.254.644-.254 1.035 0 .398.085.75.254 1.056.176.299.415.53.716.693a2.18 2.18 0 0 0 1.036.245c.331 0 .632-.068.904-.203a1.77 1.77 0 0 0 .683-.608l.805.491c-.228.391-.551.693-.97.907-.411.206-.882.309-1.411.309z"/></defs></svg>