<svg width="198" height="8" viewBox="0 0 198 8" fill="none" xmlns="http://www.w3.org/2000/svg">
<path d="M7.30761 2.208C8.04241 2.208 8.62291 2.41422 9.04909 2.82667C9.48263 3.23911 9.69939 3.85067 9.69939 4.66133V7.91467H8.64128V4.77867C8.64128 4.23111 8.50902 3.81867 8.24449 3.54133C7.9873 3.264 7.61623 3.12533 7.13126 3.12533C6.59485 3.12533 6.16867 3.28889 5.8527 3.616C5.53674 3.936 5.37876 4.39822 5.37876 5.00267V7.91467H4.32064V4.77867C4.32064 4.23111 4.18837 3.81867 3.92385 3.54133C3.66667 3.264 3.29559 3.12533 2.81062 3.12533C2.27421 3.12533 1.84803 3.28889 1.53206 3.616C1.2161 3.936 1.05812 4.39822 1.05812 5.00267V7.91467H0V2.26133H1.01403V3.104C1.22712 2.81244 1.50635 2.592 1.8517 2.44267C2.19706 2.28622 2.59018 2.208 3.03106 2.208C3.48664 2.208 3.89078 2.29689 4.24348 2.47467C4.59619 2.65244 4.86807 2.912 5.05912 3.25333C5.27956 2.92622 5.5845 2.67022 5.97394 2.48533C6.37074 2.30044 6.81529 2.208 7.30761 2.208Z" fill="white" fill-opacity="0.7"/>
<path d="M14.1806 7.97867C13.6001 7.97867 13.0784 7.85422 12.6155 7.60533C12.1526 7.35645 11.7888 7.01511 11.5243 6.58133C11.2671 6.14044 11.1385 5.64267 11.1385 5.088C11.1385 4.53333 11.2671 4.03911 11.5243 3.60533C11.7888 3.16444 12.1526 2.82311 12.6155 2.58133C13.0784 2.33244 13.6001 2.208 14.1806 2.208C14.7611 2.208 15.2792 2.33244 15.7347 2.58133C16.1977 2.82311 16.5577 3.16444 16.8149 3.60533C17.0794 4.03911 17.2117 4.53333 17.2117 5.088C17.2117 5.64267 17.0794 6.14044 16.8149 6.58133C16.5577 7.01511 16.1977 7.35645 15.7347 7.60533C15.2792 7.85422 14.7611 7.97867 14.1806 7.97867ZM14.1806 7.08267C14.5554 7.08267 14.8897 7.00089 15.1836 6.83733C15.4849 6.66667 15.72 6.432 15.889 6.13333C16.058 5.82756 16.1426 5.47911 16.1426 5.088C16.1426 4.69689 16.058 4.352 15.889 4.05333C15.72 3.74756 15.4849 3.51289 15.1836 3.34933C14.8897 3.18578 14.5554 3.104 14.1806 3.104C13.8059 3.104 13.4679 3.18578 13.1666 3.34933C12.8727 3.51289 12.6375 3.74756 12.4612 4.05333C12.2922 4.352 12.2077 4.69689 12.2077 5.088C12.2077 5.47911 12.2922 5.82756 12.4612 6.13333C12.6375 6.432 12.8727 6.66667 13.1666 6.83733C13.4679 7.00089 13.8059 7.08267 14.1806 7.08267Z" fill="white" fill-opacity="0.7"/>
<path d="M19.6891 3.21067C19.8728 2.88356 20.1446 2.63467 20.5047 2.464C20.8647 2.29333 21.302 2.208 21.8163 2.208V3.2C21.7575 3.19289 21.6767 3.18933 21.5738 3.18933C21.0007 3.18933 20.5488 3.35644 20.2181 3.69067C19.8948 4.01778 19.7332 4.48711 19.7332 5.09867V7.91467H18.675V2.26133H19.6891V3.21067Z" fill="white" fill-opacity="0.7"/>
<path d="M28.3462 5.12C28.3462 5.19822 28.3388 5.30133 28.3241 5.42933H23.5847C23.6508 5.92711 23.8749 6.32889 24.257 6.63467C24.6465 6.93333 25.1278 7.08267 25.7009 7.08267C26.399 7.08267 26.9611 6.85511 27.3873 6.4L27.9714 7.06133C27.7069 7.36 27.3762 7.58756 26.9795 7.744C26.59 7.90044 26.1528 7.97867 25.6678 7.97867C25.0506 7.97867 24.5032 7.85778 24.0255 7.616C23.5479 7.36711 23.1769 7.02222 22.9123 6.58133C22.6551 6.14044 22.5266 5.64267 22.5266 5.088C22.5266 4.54044 22.6515 4.04622 22.9013 3.60533C23.1585 3.16444 23.5075 2.82311 23.9484 2.58133C24.3966 2.33244 24.9 2.208 25.4584 2.208C26.0169 2.208 26.5129 2.33244 26.9464 2.58133C27.3873 2.82311 27.729 3.16444 27.9714 3.60533C28.2213 4.04622 28.3462 4.55111 28.3462 5.12ZM25.4584 3.072C24.9514 3.072 24.5252 3.22133 24.1799 3.52C23.8418 3.81867 23.6435 4.20978 23.5847 4.69333H27.3322C27.2734 4.21689 27.0713 3.82933 26.7259 3.53067C26.3879 3.22489 25.9654 3.072 25.4584 3.072Z" fill="white" fill-opacity="0.7"/>
<path d="M36.0601 7.584C35.9058 7.712 35.7147 7.81156 35.4869 7.88267C35.2591 7.94667 35.024 7.97867 34.7815 7.97867C34.1937 7.97867 33.7381 7.82578 33.4148 7.52C33.0915 7.21422 32.9298 6.77689 32.9298 6.208V3.104H31.9378V2.26133H32.9298V1.024H33.9879V2.26133H35.6633V3.104H33.9879V6.16533C33.9879 6.47111 34.0651 6.70578 34.2194 6.86933C34.381 7.03289 34.6088 7.11467 34.9027 7.11467C35.2261 7.11467 35.5016 7.02578 35.7294 6.848L36.0601 7.584Z" fill="white" fill-opacity="0.7"/>
<path d="M40.4585 2.208C41.2007 2.208 41.7885 2.41778 42.2221 2.83733C42.663 3.24978 42.8834 3.85778 42.8834 4.66133V7.91467H41.8253V4.77867C41.8253 4.23111 41.6893 3.81867 41.4175 3.54133C41.1456 3.264 40.7561 3.12533 40.2491 3.12533C39.676 3.12533 39.2241 3.28889 38.8934 3.616C38.5628 3.936 38.3974 4.39822 38.3974 5.00267V7.91467H37.3393V0H38.3974V3.06133C38.6179 2.79111 38.9044 2.58133 39.2571 2.432C39.6172 2.28267 40.0177 2.208 40.4585 2.208Z" fill="white" fill-opacity="0.7"/>
<path d="M46.9689 2.208C47.7772 2.208 48.3944 2.4 48.8206 2.784C49.2541 3.168 49.4709 3.74044 49.4709 4.50133V7.91467H48.4679V7.168C48.2915 7.43111 48.038 7.63378 47.7073 7.776C47.384 7.91111 46.9983 7.97867 46.55 7.97867C45.8961 7.97867 45.3707 7.82578 44.9739 7.52C44.5844 7.21422 44.3897 6.81245 44.3897 6.31467C44.3897 5.81689 44.5771 5.41867 44.9518 5.12C45.3266 4.81422 45.9218 4.66133 46.7374 4.66133H48.4128V4.45867C48.4128 4.01778 48.2805 3.68 48.016 3.44533C47.7514 3.21067 47.362 3.09333 46.8476 3.09333C46.5023 3.09333 46.1643 3.15022 45.8336 3.264C45.5029 3.37067 45.2237 3.51644 44.9959 3.70133L44.555 2.93333C44.8563 2.69867 45.2164 2.52089 45.6352 2.4C46.054 2.272 46.4986 2.208 46.9689 2.208ZM46.7264 7.18933C47.1305 7.18933 47.4796 7.104 47.7735 6.93333C48.0674 6.75556 48.2805 6.50667 48.4128 6.18667V5.39733H46.7815C45.885 5.39733 45.4368 5.68889 45.4368 6.272C45.4368 6.55645 45.5507 6.78044 45.7785 6.944C46.0063 7.10756 46.3222 7.18933 46.7264 7.18933Z" fill="white" fill-opacity="0.7"/>
<path d="M54.5482 2.208C55.2904 2.208 55.8782 2.41778 56.3118 2.83733C56.7527 3.24978 56.9731 3.85778 56.9731 4.66133V7.91467H55.915V4.77867C55.915 4.23111 55.779 3.81867 55.5072 3.54133C55.2353 3.264 54.8458 3.12533 54.3388 3.12533C53.7657 3.12533 53.3138 3.28889 52.9831 3.616C52.6525 3.936 52.4871 4.39822 52.4871 5.00267V7.91467H51.429V2.26133H52.443V3.11467C52.6561 2.82311 52.9427 2.59911 53.3028 2.44267C53.6702 2.28622 54.0853 2.208 54.5482 2.208Z" fill="white" fill-opacity="0.7"/>
<path d="M64.3713 3.584C65.1281 3.65511 65.705 3.88267 66.1018 4.26667C66.4985 4.64356 66.6969 5.12711 66.6969 5.71733C66.6969 6.144 66.5867 6.53156 66.3663 6.88C66.1458 7.22133 65.8152 7.49511 65.3743 7.70133C64.9408 7.90044 64.408 8 63.7761 8C63.225 8 62.6959 7.92178 62.1889 7.76533C61.6819 7.60178 61.2667 7.37778 60.9434 7.09333L61.4505 6.25067C61.715 6.49244 62.053 6.688 62.4645 6.83733C62.876 6.97956 63.3132 7.05067 63.7761 7.05067C64.3493 7.05067 64.7938 6.93333 65.1098 6.69867C65.4331 6.464 65.5947 6.14044 65.5947 5.728C65.5947 5.31556 65.4368 4.99556 65.1208 4.768C64.8048 4.54044 64.3272 4.42667 63.6879 4.42667H63.0707V3.68L65.0106 1.376H61.2961V0.448H66.3883V1.17333L64.3713 3.584Z" fill="white" fill-opacity="0.7"/>
<path d="M70.8772 8C70.2673 8 69.7236 7.85067 69.246 7.552C68.7757 7.24622 68.4046 6.80533 68.1327 6.22933C67.8609 5.65333 67.7249 4.97067 67.7249 4.18133C67.7249 3.392 67.8609 2.70933 68.1327 2.13333C68.4046 1.55733 68.7757 1.12 69.246 0.821334C69.7236 0.515556 70.2673 0.362667 70.8772 0.362667C71.4798 0.362667 72.0162 0.515556 72.4864 0.821334C72.9641 1.12 73.3388 1.55733 73.6107 2.13333C73.8826 2.70933 74.0185 3.392 74.0185 4.18133C74.0185 4.97067 73.8826 5.65333 73.6107 6.22933C73.3388 6.80533 72.9641 7.24622 72.4864 7.552C72.0162 7.85067 71.4798 8 70.8772 8ZM70.8772 7.05067C71.4945 7.05067 71.9868 6.80533 72.3542 6.31467C72.7289 5.824 72.9163 5.11289 72.9163 4.18133C72.9163 3.24978 72.7289 2.53867 72.3542 2.048C71.9868 1.55733 71.4945 1.312 70.8772 1.312C70.2526 1.312 69.753 1.55733 69.3782 2.048C69.0108 2.53867 68.8271 3.24978 68.8271 4.18133C68.8271 5.11289 69.0108 5.824 69.3782 6.31467C69.753 6.80533 70.2526 7.05067 70.8772 7.05067Z" fill="white" fill-opacity="0.7"/>
<path d="M78.2288 8C77.6189 8 77.0752 7.85067 76.5976 7.552C76.1273 7.24622 75.7562 6.80533 75.4843 6.22933C75.2125 5.65333 75.0765 4.97067 75.0765 4.18133C75.0765 3.392 75.2125 2.70933 75.4843 2.13333C75.7562 1.55733 76.1273 1.12 76.5976 0.821334C77.0752 0.515556 77.6189 0.362667 78.2288 0.362667C78.8314 0.362667 79.3678 0.515556 79.8381 0.821334C80.3157 1.12 80.6904 1.55733 80.9623 2.13333C81.2342 2.70933 81.3701 3.392 81.3701 4.18133C81.3701 4.97067 81.2342 5.65333 80.9623 6.22933C80.6904 6.80533 80.3157 7.24622 79.8381 7.552C79.3678 7.85067 78.8314 8 78.2288 8ZM78.2288 7.05067C78.8461 7.05067 79.3384 6.80533 79.7058 6.31467C80.0805 5.824 80.2679 5.11289 80.2679 4.18133C80.2679 3.24978 80.0805 2.53867 79.7058 2.048C79.3384 1.55733 78.8461 1.312 78.2288 1.312C77.6042 1.312 77.1046 1.55733 76.7298 2.048C76.3624 2.53867 76.1787 3.24978 76.1787 4.18133C76.1787 5.11289 76.3624 5.824 76.7298 6.31467C77.1046 6.80533 77.6042 7.05067 78.2288 7.05067Z" fill="white" fill-opacity="0.7"/>
<path d="M85.5804 8C84.9706 8 84.4268 7.85067 83.9492 7.552C83.4789 7.24622 83.1078 6.80533 82.836 6.22933C82.5641 5.65333 82.4281 4.97067 82.4281 4.18133C82.4281 3.392 82.5641 2.70933 82.836 2.13333C83.1078 1.55733 83.4789 1.12 83.9492 0.821334C84.4268 0.515556 84.9706 0.362667 85.5804 0.362667C86.183 0.362667 86.7194 0.515556 87.1897 0.821334C87.6673 1.12 88.042 1.55733 88.3139 2.13333C88.5858 2.70933 88.7217 3.392 88.7217 4.18133C88.7217 4.97067 88.5858 5.65333 88.3139 6.22933C88.042 6.80533 87.6673 7.24622 87.1897 7.552C86.7194 7.85067 86.183 8 85.5804 8ZM85.5804 7.05067C86.1977 7.05067 86.69 6.80533 87.0574 6.31467C87.4322 5.824 87.6195 5.11289 87.6195 4.18133C87.6195 3.24978 87.4322 2.53867 87.0574 2.048C86.69 1.55733 86.1977 1.312 85.5804 1.312C84.9559 1.312 84.4562 1.55733 84.0815 2.048C83.7141 2.53867 83.5303 3.24978 83.5303 4.18133C83.5303 5.11289 83.7141 5.824 84.0815 6.31467C84.4562 6.80533 84.9559 7.05067 85.5804 7.05067Z" fill="white" fill-opacity="0.7"/>
<path d="M98.6586 2.26133V7.91467H97.6556V7.06133C97.4425 7.35289 97.1596 7.58044 96.8069 7.744C96.4616 7.90044 96.0831 7.97867 95.6716 7.97867C94.8927 7.97867 94.2792 7.77244 93.831 7.36C93.3827 6.94044 93.1586 6.32533 93.1586 5.51467V2.26133H94.2167V5.39733C94.2167 5.94489 94.3527 6.36089 94.6245 6.64533C94.8964 6.92267 95.2859 7.06133 95.7929 7.06133C96.3513 7.06133 96.7922 6.89778 97.1155 6.57067C97.4388 6.24356 97.6005 5.78133 97.6005 5.184V2.26133H98.6586Z" fill="white" fill-opacity="0.7"/>
<path d="M103.792 2.208C104.534 2.208 105.122 2.41778 105.556 2.83733C105.997 3.24978 106.217 3.85778 106.217 4.66133V7.91467H105.159V4.77867C105.159 4.23111 105.023 3.81867 104.751 3.54133C104.479 3.264 104.09 3.12533 103.583 3.12533C103.01 3.12533 102.558 3.28889 102.227 3.616C101.896 3.936 101.731 4.39822 101.731 5.00267V7.91467H100.673V2.26133H101.687V3.11467C101.9 2.82311 102.187 2.59911 102.547 2.44267C102.914 2.28622 103.329 2.208 103.792 2.208Z" fill="white" fill-opacity="0.7"/>
<path d="M108.175 0H109.233V7.91467H108.175V0Z" fill="white" fill-opacity="0.7"/>
<path d="M113.756 7.97867C113.175 7.97867 112.654 7.85422 112.191 7.60533C111.728 7.35645 111.364 7.01511 111.099 6.58133C110.842 6.14044 110.714 5.64267 110.714 5.088C110.714 4.53333 110.842 4.03911 111.099 3.60533C111.364 3.16444 111.728 2.82311 112.191 2.58133C112.654 2.33244 113.175 2.208 113.756 2.208C114.336 2.208 114.854 2.33244 115.31 2.58133C115.773 2.82311 116.133 3.16444 116.39 3.60533C116.655 4.03911 116.787 4.53333 116.787 5.088C116.787 5.64267 116.655 6.14044 116.39 6.58133C116.133 7.01511 115.773 7.35645 115.31 7.60533C114.854 7.85422 114.336 7.97867 113.756 7.97867ZM113.756 7.08267C114.13 7.08267 114.465 7.00089 114.759 6.83733C115.06 6.66667 115.295 6.432 115.464 6.13333C115.633 5.82756 115.718 5.47911 115.718 5.088C115.718 4.69689 115.633 4.352 115.464 4.05333C115.295 3.74756 115.06 3.51289 114.759 3.34933C114.465 3.18578 114.13 3.104 113.756 3.104C113.381 3.104 113.043 3.18578 112.742 3.34933C112.448 3.51289 112.213 3.74756 112.036 4.05333C111.867 4.352 111.783 4.69689 111.783 5.088C111.783 5.47911 111.867 5.82756 112.036 6.13333C112.213 6.432 112.448 6.66667 112.742 6.83733C113.043 7.00089 113.381 7.08267 113.756 7.08267Z" fill="white" fill-opacity="0.7"/>
<path d="M120.796 7.97867C120.201 7.97867 119.668 7.85422 119.198 7.60533C118.735 7.35645 118.371 7.01511 118.107 6.58133C117.842 6.14044 117.71 5.64267 117.71 5.088C117.71 4.53333 117.842 4.03911 118.107 3.60533C118.371 3.16444 118.735 2.82311 119.198 2.58133C119.668 2.33244 120.201 2.208 120.796 2.208C121.325 2.208 121.796 2.31111 122.207 2.51733C122.626 2.72356 122.949 3.02222 123.177 3.41333L122.372 3.91467C122.189 3.64444 121.961 3.44178 121.689 3.30667C121.417 3.17156 121.116 3.104 120.785 3.104C120.403 3.104 120.058 3.18578 119.749 3.34933C119.448 3.51289 119.209 3.74756 119.033 4.05333C118.864 4.352 118.779 4.69689 118.779 5.088C118.779 5.48622 118.864 5.83822 119.033 6.144C119.209 6.44267 119.448 6.67378 119.749 6.83733C120.058 7.00089 120.403 7.08267 120.785 7.08267C121.116 7.08267 121.417 7.01511 121.689 6.88C121.961 6.74489 122.189 6.54222 122.372 6.272L123.177 6.76267C122.949 7.15378 122.626 7.456 122.207 7.66933C121.796 7.87556 121.325 7.97867 120.796 7.97867Z" fill="white" fill-opacity="0.7"/>
<path d="M126.742 5.28L125.53 6.368V7.91467H124.472V0H125.53V5.07733L128.715 2.26133H129.994L127.536 4.59733L130.236 7.91467H128.935L126.742 5.28Z" fill="white" fill-opacity="0.7"/>
<path d="M136.295 5.12C136.295 5.19822 136.288 5.30133 136.273 5.42933H131.534C131.6 5.92711 131.824 6.32889 132.206 6.63467C132.596 6.93333 133.077 7.08267 133.65 7.08267C134.348 7.08267 134.91 6.85511 135.337 6.4L135.921 7.06133C135.656 7.36 135.326 7.58756 134.929 7.744C134.539 7.90044 134.102 7.97867 133.617 7.97867C133 7.97867 132.452 7.85778 131.975 7.616C131.497 7.36711 131.126 7.02222 130.862 6.58133C130.604 6.14044 130.476 5.64267 130.476 5.088C130.476 4.54044 130.601 4.04622 130.851 3.60533C131.108 3.16444 131.457 2.82311 131.898 2.58133C132.346 2.33244 132.849 2.208 133.408 2.208C133.966 2.208 134.462 2.33244 134.896 2.58133C135.337 2.82311 135.678 3.16444 135.921 3.60533C136.171 4.04622 136.295 4.55111 136.295 5.12ZM133.408 3.072C132.901 3.072 132.474 3.22133 132.129 3.52C131.791 3.81867 131.593 4.20978 131.534 4.69333H135.281C135.223 4.21689 135.021 3.82933 134.675 3.53067C134.337 3.22489 133.915 3.072 133.408 3.072Z" fill="white" fill-opacity="0.7"/>
<path d="M143.276 0V7.91467H142.262V7.01867C142.027 7.33156 141.729 7.56978 141.369 7.73333C141.009 7.89689 140.612 7.97867 140.179 7.97867C139.613 7.97867 139.106 7.85778 138.658 7.616C138.209 7.37422 137.857 7.03645 137.599 6.60267C137.35 6.16178 137.225 5.65689 137.225 5.088C137.225 4.51911 137.35 4.01778 137.599 3.584C137.857 3.15022 138.209 2.81244 138.658 2.57067C139.106 2.32889 139.613 2.208 140.179 2.208C140.597 2.208 140.983 2.28622 141.336 2.44267C141.689 2.592 141.982 2.816 142.218 3.11467V0H143.276ZM140.267 7.08267C140.634 7.08267 140.968 7.00089 141.27 6.83733C141.571 6.66667 141.806 6.432 141.975 6.13333C142.144 5.82756 142.229 5.47911 142.229 5.088C142.229 4.69689 142.144 4.352 141.975 4.05333C141.806 3.74756 141.571 3.51289 141.27 3.34933C140.968 3.18578 140.634 3.104 140.267 3.104C139.892 3.104 139.554 3.18578 139.253 3.34933C138.959 3.51289 138.724 3.74756 138.547 4.05333C138.378 4.352 138.294 4.69689 138.294 5.088C138.294 5.47911 138.378 5.82756 138.547 6.13333C138.724 6.432 138.959 6.66667 139.253 6.83733C139.554 7.00089 139.892 7.08267 140.267 7.08267Z" fill="white" fill-opacity="0.7"/>
<path d="M150.365 2.208C151.173 2.208 151.791 2.4 152.217 2.784C152.65 3.168 152.867 3.74044 152.867 4.50133V7.91467H151.864V7.168C151.688 7.43111 151.434 7.63378 151.104 7.776C150.78 7.91111 150.394 7.97867 149.946 7.97867C149.292 7.97867 148.767 7.82578 148.37 7.52C147.981 7.21422 147.786 6.81245 147.786 6.31467C147.786 5.81689 147.973 5.41867 148.348 5.12C148.723 4.81422 149.318 4.66133 150.134 4.66133H151.809V4.45867C151.809 4.01778 151.677 3.68 151.412 3.44533C151.148 3.21067 150.758 3.09333 150.244 3.09333C149.898 3.09333 149.56 3.15022 149.23 3.264C148.899 3.37067 148.62 3.51644 148.392 3.70133L147.951 2.93333C148.253 2.69867 148.613 2.52089 149.031 2.4C149.45 2.272 149.895 2.208 150.365 2.208ZM150.123 7.18933C150.527 7.18933 150.876 7.104 151.17 6.93333C151.464 6.75556 151.677 6.50667 151.809 6.18667V5.39733H150.178C149.281 5.39733 148.833 5.68889 148.833 6.272C148.833 6.55645 148.947 6.78044 149.175 6.944C149.402 7.10756 149.718 7.18933 150.123 7.18933Z" fill="white" fill-opacity="0.7"/>
<path d="M157.404 7.97867C156.808 7.97867 156.276 7.85422 155.805 7.60533C155.342 7.35645 154.979 7.01511 154.714 6.58133C154.45 6.14044 154.317 5.64267 154.317 5.088C154.317 4.53333 154.45 4.03911 154.714 3.60533C154.979 3.16444 155.342 2.82311 155.805 2.58133C156.276 2.33244 156.808 2.208 157.404 2.208C157.933 2.208 158.403 2.31111 158.814 2.51733C159.233 2.72356 159.557 3.02222 159.784 3.41333L158.98 3.91467C158.796 3.64444 158.568 3.44178 158.296 3.30667C158.024 3.17156 157.723 3.104 157.393 3.104C157.01 3.104 156.665 3.18578 156.356 3.34933C156.055 3.51289 155.816 3.74756 155.64 4.05333C155.471 4.352 155.387 4.69689 155.387 5.088C155.387 5.48622 155.471 5.83822 155.64 6.144C155.816 6.44267 156.055 6.67378 156.356 6.83733C156.665 7.00089 157.01 7.08267 157.393 7.08267C157.723 7.08267 158.024 7.01511 158.296 6.88C158.568 6.74489 158.796 6.54222 158.98 6.272L159.784 6.76267C159.557 7.15378 159.233 7.456 158.814 7.66933C158.403 7.87556 157.933 7.97867 157.404 7.97867Z" fill="white" fill-opacity="0.7"/>
<path d="M163.614 7.97867C163.019 7.97867 162.486 7.85422 162.016 7.60533C161.553 7.35645 161.189 7.01511 160.925 6.58133C160.66 6.14044 160.528 5.64267 160.528 5.088C160.528 4.53333 160.66 4.03911 160.925 3.60533C161.189 3.16444 161.553 2.82311 162.016 2.58133C162.486 2.33244 163.019 2.208 163.614 2.208C164.143 2.208 164.614 2.31111 165.025 2.51733C165.444 2.72356 165.767 3.02222 165.995 3.41333L165.19 3.91467C165.007 3.64444 164.779 3.44178 164.507 3.30667C164.235 3.17156 163.934 3.104 163.603 3.104C163.221 3.104 162.876 3.18578 162.567 3.34933C162.266 3.51289 162.027 3.74756 161.851 4.05333C161.682 4.352 161.597 4.69689 161.597 5.088C161.597 5.48622 161.682 5.83822 161.851 6.144C162.027 6.44267 162.266 6.67378 162.567 6.83733C162.876 7.00089 163.221 7.08267 163.603 7.08267C163.934 7.08267 164.235 7.01511 164.507 6.88C164.779 6.74489 165.007 6.54222 165.19 6.272L165.995 6.76267C165.767 7.15378 165.444 7.456 165.025 7.66933C164.614 7.87556 164.143 7.97867 163.614 7.97867Z" fill="white" fill-opacity="0.7"/>
<path d="M169.781 7.97867C169.2 7.97867 168.679 7.85422 168.216 7.60533C167.753 7.35645 167.389 7.01511 167.124 6.58133C166.867 6.14044 166.739 5.64267 166.739 5.088C166.739 4.53333 166.867 4.03911 167.124 3.60533C167.389 3.16444 167.753 2.82311 168.216 2.58133C168.679 2.33244 169.2 2.208 169.781 2.208C170.361 2.208 170.879 2.33244 171.335 2.58133C171.798 2.82311 172.158 3.16444 172.415 3.60533C172.68 4.03911 172.812 4.53333 172.812 5.088C172.812 5.64267 172.68 6.14044 172.415 6.58133C172.158 7.01511 171.798 7.35645 171.335 7.60533C170.879 7.85422 170.361 7.97867 169.781 7.97867ZM169.781 7.08267C170.156 7.08267 170.49 7.00089 170.784 6.83733C171.085 6.66667 171.32 6.432 171.489 6.13333C171.658 5.82756 171.743 5.47911 171.743 5.088C171.743 4.69689 171.658 4.352 171.489 4.05333C171.32 3.74756 171.085 3.51289 170.784 3.34933C170.49 3.18578 170.156 3.104 169.781 3.104C169.406 3.104 169.068 3.18578 168.767 3.34933C168.473 3.51289 168.238 3.74756 168.061 4.05333C167.892 4.352 167.808 4.69689 167.808 5.088C167.808 5.47911 167.892 5.82756 168.061 6.13333C168.238 6.432 168.473 6.66667 168.767 6.83733C169.068 7.00089 169.406 7.08267 169.781 7.08267Z" fill="white" fill-opacity="0.7"/>
<path d="M179.72 2.26133V7.91467H178.717V7.06133C178.504 7.35289 178.221 7.58044 177.868 7.744C177.523 7.90044 177.145 7.97867 176.733 7.97867C175.954 7.97867 175.341 7.77244 174.892 7.36C174.444 6.94044 174.22 6.32533 174.22 5.51467V2.26133H175.278V5.39733C175.278 5.94489 175.414 6.36089 175.686 6.64533C175.958 6.92267 176.347 7.06133 176.854 7.06133C177.413 7.06133 177.854 6.89778 178.177 6.57067C178.5 6.24356 178.662 5.78133 178.662 5.184V2.26133H179.72Z" fill="white" fill-opacity="0.7"/>
<path d="M184.854 2.208C185.596 2.208 186.184 2.41778 186.617 2.83733C187.058 3.24978 187.279 3.85778 187.279 4.66133V7.91467H186.22V4.77867C186.22 4.23111 186.085 3.81867 185.813 3.54133C185.541 3.264 185.151 3.12533 184.644 3.12533C184.071 3.12533 183.619 3.28889 183.289 3.616C182.958 3.936 182.793 4.39822 182.793 5.00267V7.91467H181.734V2.26133H182.749V3.11467C182.962 2.82311 183.248 2.59911 183.608 2.44267C183.976 2.28622 184.391 2.208 184.854 2.208Z" fill="white" fill-opacity="0.7"/>
<path d="M192.521 7.584C192.367 7.712 192.176 7.81156 191.948 7.88267C191.72 7.94667 191.485 7.97867 191.243 7.97867C190.655 7.97867 190.199 7.82578 189.876 7.52C189.553 7.21422 189.391 6.77689 189.391 6.208V3.104H188.399V2.26133H189.391V1.024H190.449V2.26133H192.125V3.104H190.449V6.16533C190.449 6.47111 190.526 6.70578 190.681 6.86933C190.842 7.03289 191.07 7.11467 191.364 7.11467C191.687 7.11467 191.963 7.02578 192.191 6.848L192.521 7.584Z" fill="white" fill-opacity="0.7"/>
<path d="M195.476 7.97867C194.998 7.97867 194.539 7.91822 194.098 7.79733C193.657 7.66933 193.312 7.50933 193.062 7.31733L193.503 6.50667C193.76 6.68444 194.072 6.82667 194.44 6.93333C194.807 7.04 195.178 7.09333 195.553 7.09333C196.479 7.09333 196.942 6.83733 196.942 6.32533C196.942 6.15467 196.879 6.01956 196.755 5.92C196.63 5.82045 196.472 5.74933 196.281 5.70667C196.097 5.65689 195.832 5.60356 195.487 5.54667C195.017 5.47556 194.631 5.39378 194.33 5.30133C194.036 5.20889 193.782 5.05244 193.569 4.832C193.356 4.61156 193.249 4.30222 193.249 3.904C193.249 3.392 193.47 2.98311 193.911 2.67733C194.352 2.36444 194.943 2.208 195.685 2.208C196.075 2.208 196.464 2.25422 196.854 2.34667C197.243 2.43911 197.563 2.56356 197.813 2.72L197.361 3.53067C196.883 3.232 196.321 3.08267 195.674 3.08267C195.226 3.08267 194.884 3.15378 194.649 3.296C194.414 3.43822 194.297 3.62667 194.297 3.86133C194.297 4.04622 194.363 4.192 194.495 4.29867C194.627 4.40533 194.789 4.48356 194.98 4.53333C195.178 4.58311 195.454 4.64 195.807 4.704C196.277 4.78222 196.655 4.86756 196.942 4.96C197.236 5.04533 197.486 5.19467 197.691 5.408C197.897 5.62133 198 5.92 198 6.304C198 6.816 197.772 7.22489 197.317 7.53067C196.868 7.82933 196.255 7.97867 195.476 7.97867Z" fill="white" fill-opacity="0.7"/>
</svg>
