<svg xmlns="http://www.w3.org/2000/svg" width="198" height="27" fill="#fff"  xmlns:v="https://vecta.io/nano"><path d="M25.684 19.34c0 .89-.119 1.692-.358 2.409a6.9 6.9 0 0 1-.914 1.872c-.382.543-.831 1.005-1.344 1.386a8.33 8.33 0 0 1-1.595.936 8.07 8.07 0 0 1-1.685.537 7.93 7.93 0 0 1-1.595.173H.215v-4.506h17.977c.896 0 1.589-.254 2.079-.762.502-.508.753-1.19.753-2.045a3.2 3.2 0 0 0-.197-1.144c-.131-.347-.323-.647-.574-.901a2.39 2.39 0 0 0-.896-.589c-.346-.139-.735-.208-1.165-.208H7.474c-.753 0-1.565-.127-2.438-.381a7.64 7.64 0 0 1-2.438-1.265c-.741-.578-1.362-1.334-1.864-2.27C.245 11.646 0 10.502 0 9.15s.245-2.49.735-3.414c.502-.936 1.123-1.693 1.864-2.27.753-.589 1.565-1.011 2.438-1.265.872-.266 1.685-.399 2.438-.399h15.862v4.506H7.474c-.884 0-1.577.26-2.079.78-.49.52-.735 1.207-.735 2.062 0 .867.245 1.554.735 2.062.502.497 1.195.745 2.079.745h10.754c.502.012 1.034.081 1.595.208a7.61 7.61 0 0 1 1.667.555 7.8 7.8 0 0 1 1.595.97 6.23 6.23 0 0 1 1.326 1.386c.394.543.705 1.167.932 1.872s.341 1.502.341 2.392zm24.43.988c0 .774-.102 1.473-.305 2.097-.203.612-.472 1.155-.807 1.629a5.63 5.63 0 0 1-1.165 1.196c-.442.323-.908.589-1.398.797-.478.208-.968.364-1.47.468a7.59 7.59 0 0 1-1.398.139h-8.406c-.645 0-1.35-.11-2.115-.329s-1.476-.578-2.133-1.074c-.645-.508-1.189-1.161-1.631-1.958-.43-.809-.645-1.796-.645-2.963v-6.1c0-1.155.215-2.132.645-2.929.442-.809.986-1.461 1.631-1.958a6.32 6.32 0 0 1 2.133-1.092c.765-.22 1.47-.329 2.115-.329h8.406c1.195 0 2.211.208 3.047.624s1.512.942 2.025 1.577c.514.624.884 1.306 1.111 2.045.239.739.358 1.427.358 2.062v6.1zm-4.66-6.065c0-.624-.161-1.086-.484-1.386s-.789-.451-1.398-.451h-8.37c-.621 0-1.093.156-1.416.468-.323.3-.484.745-.484 1.334v6.1c0 .589.161 1.04.484 1.352s.795.468 1.416.468h8.37c.633 0 1.105-.156 1.416-.468s.466-.762.466-1.352v-6.065zm27.405 12.39H60.223c-.645 0-1.35-.11-2.115-.329s-1.476-.578-2.133-1.074c-.645-.508-1.189-1.161-1.631-1.958-.43-.809-.645-1.796-.645-2.963v-6.1c0-.428.048-.878.143-1.352a6.99 6.99 0 0 1 .484-1.404 6.65 6.65 0 0 1 .825-1.352 5.67 5.67 0 0 1 1.237-1.126 6.57 6.57 0 0 1 1.685-.78c.633-.196 1.35-.295 2.151-.295H72.86v4.506H60.223c-.609 0-1.075.15-1.398.451-.311.3-.466.763-.466 1.386v6.066c0 .589.161 1.04.484 1.352s.795.468 1.416.468h12.6v4.506zm8.585-22.58h-4.66V0h4.66v4.073zm0 22.581h-4.66V7.92h4.66v18.734zm24.483-6.205c0 .624-.113 1.3-.34 2.028-.227.716-.598 1.386-1.111 2.01-.502.612-1.165 1.126-1.99 1.542-.812.416-1.804.624-2.975.624h-8.406c-.645 0-1.344-.11-2.097-.329-.741-.22-1.434-.572-2.079-1.057-.633-.497-1.165-1.138-1.595-1.924-.43-.797-.645-1.762-.645-2.894 0-.624.114-1.3.341-2.028a5.94 5.94 0 0 1 1.093-2.01c.514-.624 1.177-1.144 1.99-1.56.825-.416 1.822-.624 2.993-.624h8.406v4.298h-8.406c-.633 0-1.123.191-1.47.572-.347.37-.52.832-.52 1.386 0 .589.197 1.051.591 1.386.406.323.884.485 1.434.485h8.37c.633 0 1.123-.185 1.47-.555s.519-.832.519-1.386v-6.291c0-.589-.191-1.057-.573-1.404-.371-.347-.843-.52-1.416-.52H89.277V7.92h10.234c.645 0 1.338.11 2.079.329.753.22 1.446.578 2.079 1.074.645.485 1.183 1.126 1.613 1.924.43.786.645 1.745.645 2.877v6.325zm12.493 6.204h-2.079c-.669 0-1.386-.11-2.151-.329a6.53 6.53 0 0 1-2.115-1.074c-.657-.508-1.201-1.161-1.631-1.958-.43-.809-.645-1.796-.645-2.963V0h4.66v20.328c0 .555.179.999.538 1.334.358.323.806.485 1.344.485h2.079v4.506zm19.268-10.397h-16.812V12.2h16.812v4.055zm34.699 10.397h-4.696v-14.8l-8.262 14.055a1.98 1.98 0 0 1-.861.814 2.5 2.5 0 0 1-1.165.277 2.47 2.47 0 0 1-1.147-.277 2.04 2.04 0 0 1-.824-.814l-8.299-14.054v14.8h-4.66V3.726c0-.52.156-.982.466-1.386.323-.404.741-.676 1.255-.815a2.37 2.37 0 0 1 .753-.052 2.15 2.15 0 0 1 .717.156 1.96 1.96 0 0 1 .645.364c.191.15.352.335.484.555l10.61 17.833 10.611-17.832c.275-.439.651-.751 1.129-.936.49-.185.998-.214 1.524-.087a2.34 2.34 0 0 1 1.237.815 2.16 2.16 0 0 1 .483 1.386v22.927zM198 14.124c0 .624-.114 1.3-.341 2.028a6 6 0 0 1-1.111 2.01c-.502.612-1.165 1.127-1.989 1.542-.813.416-1.805.624-2.976.624h-8.406v-4.28h8.406c.634 0 1.124-.185 1.47-.555.347-.381.52-.849.52-1.404 0-.589-.197-1.051-.592-1.386-.382-.335-.848-.502-1.398-.502h-8.406c-.633 0-1.123.191-1.469.572-.347.37-.52.832-.52 1.386v6.291c0 .601.191 1.069.573 1.404.395.335.879.503 1.452.503h8.37v4.298h-8.406c-.645 0-1.344-.11-2.097-.329a6.52 6.52 0 0 1-2.079-1.057c-.633-.497-1.165-1.138-1.595-1.924-.43-.797-.645-1.762-.645-2.894v-6.325c0-.624.113-1.294.34-2.01a5.94 5.94 0 0 1 1.094-2.01c.513-.624 1.177-1.144 1.989-1.56.825-.416 1.822-.624 2.993-.624h8.406c.646 0 1.339.11 2.08.329a6.13 6.13 0 0 1 2.079 1.074c.645.485 1.183 1.126 1.613 1.924.43.786.645 1.745.645 2.877z"/></svg>