<svg width="254" height="303" viewBox="0 0 254 303" fill="none" xmlns="http://www.w3.org/2000/svg">
<path d="M119.864 297.471C119.552 297.237 112.3 291.631 101.382 282.286C89.4498 272.085 71.591 255.965 54.4341 237.588C18.3267 198.885 0 165.712 0 139.079V24.0625L7.7206 21.2591C47.1814 7.16422 87.1882 0 126.805 0C141.388 0 156.206 1.01234 170.789 2.88126C195.823 6.15189 221.168 12.3816 246.201 21.2591L254 24.0625V139.079C254 167.347 233.49 202.779 193.015 244.518C163.926 274.499 135.305 296.615 134.058 297.549L126.883 303L119.864 297.471Z" fill="#08D586" fill-opacity="0.5"/>
<path d="M228.889 45.7887V140.17C228.889 193.746 126.961 272.007 126.961 272.007C126.961 272.007 120.566 267.101 111.052 258.924C100.056 249.502 84.9267 235.796 70.3434 220.222C46.8696 195.069 25.0336 164.933 25.0336 140.17V45.7887C71.3572 29.202 117.759 23.9067 164.316 30.0585C185.918 32.9398 207.365 38.1572 228.889 45.7887Z" fill="#08D586"/>
<path d="M154.958 102.713H99.042C91.2434 102.713 84.9265 109.021 84.9265 116.808V158.236C84.9265 166.023 91.2434 172.331 99.042 172.331H154.958C162.756 172.331 169.073 166.023 169.073 158.236V116.808C169.073 109.021 162.756 102.713 154.958 102.713Z" fill="white"/>
<path d="M159.013 122.103H94.9866V102.713C94.9866 85.1141 109.336 70.7078 127.039 70.7078C144.664 70.7078 159.091 85.0362 159.091 102.713V122.103H159.013ZM106.528 110.578H147.549V102.635C147.549 91.3438 138.347 82.1549 127.039 82.1549C115.731 82.1549 106.528 91.3438 106.528 102.635V110.578Z" fill="white"/>
<path d="M120.956 157.457L105.047 140.092C104.033 139.002 103.955 137.288 104.969 136.276C106.061 135.186 107.854 135.186 108.868 136.354L121.112 149.67C122.048 150.76 123.764 150.682 124.699 149.514L147.705 120.001C148.485 118.988 149.889 118.599 151.059 119.144C152.618 119.923 153.008 121.948 151.994 123.194L125.479 157.146C124.387 158.703 122.204 158.781 120.956 157.457Z" fill="#08D586"/>
</svg>
