<svg xmlns="http://www.w3.org/2000/svg" xmlns:xlink="http://www.w3.org/1999/xlink" width="470" height="377" fill="none" xmlns:v="https://vecta.io/nano"><style><![CDATA[.B{fill:#2484fe}.C{fill:#263238}.D{fill:#e0e0e0}.E{fill:#fafafa}.F{fill:#ffbe9d}]]></style><path d="M46.161 11.196c4.519-1.184 9.361 0 13.235 2.368 3.874 2.476 6.994 6.136 9.469 10.012 4.734 7.643 6.349 17.763 6.456 26.698-9.899-.538-18.292-8.397-22.381-12.703-6.348-6.567-13.665-22.607-6.779-26.375zm45.085 45.429c-4.089-3.23-5.81-8.827-4.95-13.887s4.196-9.581 8.5-12.488c1.937-1.292 4.412-2.368 6.671-1.722 2.152.646 3.658 2.799 3.981 4.952.431 2.153-.107 4.521-.861 6.567-2.367 7.213-6.24 13.672-13.342 16.579z" fill="#f5f5f5"/><g class="D"><path d="M97.056 78.264c-.108 0-1.291-1.938-2.798-5.167-.753-1.615-1.506-3.768-1.937-6.136s-1.076-4.952-1.184-7.751c-.43-5.598.646-10.765 2.26-14.103.753-1.722 1.614-2.907 2.152-3.768.646-.754 1.076-1.184 1.076-1.184.108.108-1.291 1.83-2.69 5.167s-2.367 8.289-1.937 13.78c.215 2.691.753 5.275 1.184 7.643s1.076 4.414 1.722 6.029c1.291 3.337 2.26 5.383 2.152 5.49z"/><path d="M52.939 22.93l2.044 2.153 5.38 6.136c4.519 5.167 10.652 12.488 17.216 20.669s12.267 15.825 16.355 21.423l4.734 6.674c1.076 1.615 1.614 2.476 1.614 2.584-.108 0-.754-.754-1.937-2.261l-4.95-6.459-16.57-21.208-16.893-20.885-5.165-6.352c-1.291-1.507-1.937-2.368-1.829-2.476z"/></g><path d="M84.466 66.314c-8.931-6.244-20.982-7.751-31.204-3.875-2.582.969-5.38 2.799-5.488 5.598s2.69 4.737 5.165 5.813c10.652 4.414 23.995 1.615 31.85-6.89" fill="#f5f5f5"/><path d="M60.256 66.529c0-.108.538-.215 1.506-.538s2.367-.538 4.196-.969c3.551-.538 8.608-1.292 14.096-.108 2.69.538 5.272 1.615 7.317 2.799 2.152 1.184 3.766 2.691 4.95 3.983 1.184 1.399 2.152 2.476 2.69 3.337s.861 1.292.753 1.4c-.215.108-1.399-1.722-3.981-4.306-1.291-1.184-2.905-2.584-4.95-3.768s-4.412-2.045-7.102-2.584c-5.272-1.077-10.33-.538-13.88-.215-3.336.754-5.595 1.184-5.595.969z" class="D"/><path d="M99.1 284.849c32.065-15.609 44.546-51.996 48.85-85.907.754-5.598 2.26-11.519.323-16.794-1.937-5.382-7.639-9.688-13.019-8.181-4.52 1.292-7.102 5.813-10.007 9.473-3.982 4.845-9.254 8.505-15.172 10.443-3.874 1.291-8.5 1.722-11.728-.754-4.412-3.445-3.874-10.227-3.013-15.825l5.165-31.219c.968-5.598 1.829-11.304.968-16.902s-3.981-11.088-9.038-13.456-12.159-.323-14.096 4.952c-.861 2.153-.753 4.629-1.291 6.889s-2.044 4.737-4.304 4.953c-2.367.322-4.304-1.615-5.703-3.553-4.842-6.567-7.64-14.425-10.114-22.284s-4.842-15.825-9.146-22.822-10.76-13.026-18.615-14.749c-7.962-1.722-17.216 1.83-20.552 9.366-3.228 7.536 0 16.256 3.981 23.468 5.918 10.658 13.343 20.454 22.058 28.851 1.614 1.507 3.228 3.23 3.551 5.383.646 3.875-3.551 7.105-7.424 7.751-4.412.753-8.823-.431-13.235-.646s-9.469.969-11.729 4.844c-3.228 5.383.646 12.057 4.734 16.794 8.178 9.366 17.969 17.224 28.729 23.253 3.874 2.153 7.962 4.198 10.868 7.536 2.905 3.445 4.089 8.72 1.399 12.38-2.582 3.66-7.962 4.091-12.159 2.583s-7.64-4.413-11.513-6.674c-7.209-4.091-17.216-5.167-23.242.646-3.874 3.875-5.165 9.904-4.412 15.394s3.443 10.443 6.241 15.179c10.007 16.363 23.887 30.574 40.781 39.616 16.893 9.366 33.141 13.672 51.864 10.012z" fill="#ebebeb"/><g class="D"><path d="M94.473 286.572c.861-13.565 1.506-6.46-.753-24.33-2.26-17.763-6.348-37.032-11.298-57.056l-3.766-14.856c-1.184-4.844-2.475-9.689-3.981-14.318-2.905-9.258-6.456-17.978-10.115-26.159s-7.317-15.825-10.868-22.93-6.994-13.672-10.33-19.486C36.692 95.811 30.128 87.091 25.394 81.17l-5.595-6.674c-.646-.754-1.076-1.292-1.506-1.722l-.538-.538s.108.215.43.646.861.969 1.399 1.722c1.291 1.507 3.12 3.768 5.38 6.782 4.627 5.921 11.083 14.748 17.646 26.483 3.336 5.813 6.671 12.38 10.222 19.485 3.443 7.105 7.209 14.749 10.76 22.93s7.102 16.794 10.007 26.052c1.506 4.629 2.69 9.366 3.874 14.318l3.766 14.856c4.95 20.024 9.039 39.293 11.406 56.948 2.367 17.763 1.829 10.658.968 24.115"/><path d="M74.46 176.012c.108 0 .43-.753.968-2.26l2.044-6.46c1.722-5.49 3.766-13.026 5.918-21.423 2.26-8.396 4.412-15.932 6.133-21.315.861-2.691 1.614-4.844 2.152-6.351s.753-2.369.646-2.369-.43.754-1.076 2.261-1.506 3.66-2.475 6.244c-1.937 5.383-4.196 12.918-6.456 21.315l-7.424 27.99c-.323 1.507-.538 2.368-.43 2.368zM4.734 151.144c0 .108.968.323 2.798.754l7.64 2.045c6.456 1.723 15.279 4.522 24.963 7.967a394.16 394.16 0 0 1 24.318 9.688c3.12 1.292 5.488 2.476 7.209 3.23l2.69 1.184c0-.107-.861-.646-2.475-1.507a142.48 142.48 0 0 0-7.102-3.552c-6.026-2.907-14.634-6.567-24.318-10.012s-18.615-6.136-25.071-7.644c-3.228-.861-5.918-1.399-7.747-1.722-1.829-.431-2.905-.538-2.905-.431zm88.34 109.699s.215-.216.646-.754l1.614-2.368c1.399-2.046 3.336-5.168 5.81-9.043 4.735-7.643 11.083-18.516 17.754-30.574l17.539-30.681 5.488-9.15c.646-.969 1.076-1.83 1.506-2.476.323-.538.538-.861.431-.861 0 0-.215.215-.646.753l-1.614 2.369c-1.399 2.045-3.335 5.167-5.81 9.042-4.735 7.644-11.083 18.517-17.754 30.574l-17.539 30.681-5.488 9.15c-.646.969-1.076 1.83-1.506 2.476-.323.539-.43.862-.43.862z"/><path d="M2.475 214.875l.861.538c.753.323 1.614.861 2.582 1.4l9.684 4.952 31.85 16.578c12.374 6.567 23.672 12.38 31.957 16.363 4.089 2.046 7.532 3.553 9.899 4.629 1.076.431 1.937.862 2.69 1.185.646.215.968.43.968.323 0 0-.323-.216-.861-.539-.753-.323-1.614-.861-2.582-1.399l-9.684-4.952-31.85-16.579-31.957-16.363c-4.089-2.045-7.532-3.552-9.899-4.629-1.076-.431-1.937-.861-2.69-1.184l-.968-.323z"/></g><path d="M30.45 198.404s7.425-5.06 16.678 12.811c9.254 17.762 12.804 28.097 12.804 28.097s2.475 3.768 4.95 1.292c2.582-2.476 6.026-9.473 10.437-8.289 4.519 1.292 6.133 6.351 5.273 13.779-.753 7.428-1.937 23.792-2.044 25.299s.753 3.552 2.798 2.153 13.45-14.426 19.368-8.613.216 26.16-.322 28.421-.108 3.229.968 3.768 4.519-4.199 7.962-7.751 7.963-7.105 11.083-3.445 4.197 18.839-10.007 43.814l-7.424 11.089-13.343-.646c-28.514-3.015-40.243-12.919-41.319-17.548s4.412-6.243 9.361-6.997c4.95-.646 10.76-.646 10.975-1.83s-.323-2.153-2.475-2.907c-2.152-.861-21.951-8.289-23.242-16.471s16.032-9.796 18.4-10.657 1.076-2.692-.108-3.553c-1.291-.753-15.172-9.473-21.628-13.241s-9.684-7.966-8.07-12.38c1.614-4.306 9.254-3.014 12.804-3.553 3.551-.646 1.937-4.736 1.937-4.736s-6.241-8.936-15.172-26.914-.323-21.1-.323-21.1" class="B"/><g class="C"><path d="M38.736 214.337s.108.107.215.323l.538.968 1.937 3.661 6.887 13.564 22.919 44.568 22.704 44.676 6.778 13.564 1.83 3.768.43.969s.108.323.108.323-.108-.108-.216-.323-.322-.538-.538-.969l-1.936-3.66-6.887-13.564-22.919-44.569-22.704-44.675-6.779-13.565-1.829-3.768-.43-.968s-.108-.323-.108-.323z"/><path d="M70.907 242.219c.108 0-.215 1.399-.753 3.552l-1.937 8.397-2.044 8.397-.753 2.476-.323.861c-.108 0 .215-1.399.753-3.552l1.829-8.397 2.044-8.397.753-2.476c.215-.538.323-.861.43-.861zm-6.993 24.006c0 .108-6.133-1.399-13.665-3.552-7.532-2.046-13.558-3.876-13.558-3.983s6.133 1.399 13.665 3.552c7.532 2.046 13.558 3.876 13.558 3.983zm17.215 29.928s-.323.108-.968.108c-.646.107-1.506.107-2.69.215l-8.823.107-8.823-.538-2.69-.323c-.646-.107-.968-.215-.968-.215 0-.108 1.399 0 3.658.215l8.823.431 8.823.108 3.658-.108z"/><path d="M92.212 275.806c.108 0-.538 1.185-1.506 3.015l-3.981 7.105-4.089 7.105-1.829 2.906c-.108 0 .538-1.184 1.506-3.014l3.981-7.105 4.089-7.105 1.829-2.907zm18.615 24.545s-.107.431-.538 1.077l-1.506 2.799c-1.291 2.368-3.121 5.598-5.165 9.15l-5.272 9.043-1.614 2.691-.646.969s.108-.43.538-1.076c.43-.754.861-1.723 1.506-2.799 1.291-2.369 3.121-5.598 5.165-9.151l5.273-9.042 1.614-2.692.645-.969z"/><path d="M96.303 325.219s-.43.108-1.291.108l-3.443.107c-2.905 0-6.886 0-11.19-.323-4.412-.215-8.285-.646-11.19-.968-1.399-.216-2.582-.323-3.336-.431s-1.184-.215-1.184-.215h1.291c.861.107 2.044.215 3.336.323l11.191.753 11.19.431c1.399 0 2.475.107 3.443.107.753.108 1.184.108 1.184.108z"/></g><path d="M446.113 192.483l-36.046 35.095-70.479 134.996-45.838-21.53-49.496-25.406 31.742-60.609 19.691-67.821c-13.881 9.258-39.705 21.854-70.694 15.287-33.571-7.105-17.431-133.597-17.431-133.597l36.799-.969 3.659 89.136 41.641-18.408.108.107c2.475-1.076 4.734-2.153 5.81-2.799 23.027-12.595 38.091-14.102 62.839-5.275l35.616 11.842c9.146 4.522 42.933 21.1 52.079 49.951z" class="B"/><path d="M320.112 128.214s-.86.431-2.259 1.508c-1.399.968-3.336 2.691-5.165 5.059-1.829 2.476-3.659 5.706-5.057 9.474-1.507 3.768-2.583 8.181-3.766 12.703l-6.349 23.253c-.861 2.906-1.506 5.275-1.937 6.997-.215.754-.43 1.4-.538 1.938-.107.431-.215.646-.215.646s0-.215.108-.646c.107-.538.323-1.184.43-1.938l1.829-7.105 6.134-23.361c1.183-4.521 2.367-8.935 3.873-12.703 1.507-3.875 3.336-7.105 5.273-9.473 1.936-2.476 3.873-4.091 5.38-5.06.753-.43 1.291-.753 1.721-.969.323-.215.538-.323.538-.323z" class="C"/><path opacity=".027" d="M306.662 146.085c-10.33 27.882-28.837 43.492-54.984 57.486 0 0 22.488-1.614 43.255-15.825m44.547-61.469l13.128 209.707-12.912 26.59-.216-236.297z" fill="#000"/><path d="M380.045 198.727c-.107.108-1.506-3.23-3.335-7.213l-3.336-7.212c.108 0 .538.753 1.291 1.937.754 1.292 1.614 3.015 2.583 5.06l2.152 5.167c.538 1.4.753 2.261.645 2.261zm29.376-14.748c.108.107-3.013 2.26-6.994 4.736l-7.317 4.199c-.107-.108 3.013-2.261 6.994-4.737l7.317-4.198zm-12.806-10.55c-.107 0-.43-2.584-.538-5.706-.215-3.122-.215-5.706 0-5.706.108 0 .431 2.584.538 5.706.216 3.122.216 5.706 0 5.706zm29.269-2.046c-.108.108-2.475-1.184-5.272-2.906s-5.058-3.23-4.95-3.445c.107-.108 2.475 1.184 5.272 2.906s5.058 3.338 4.95 3.445zm-44.655 58.025c-.108-.108 1.184-3.445 2.905-7.428l3.443-7.213c.108.108-1.183 3.445-2.905 7.428l-3.443 7.213zm-13.127 13.241c-.108.108-1.291-2.045-2.582-4.629l-2.152-4.844c.107-.108 1.291 2.045 2.582 4.629 1.399 2.584 2.367 4.737 2.152 4.844zm10.975 17.763c0 .108-2.367.969-5.487 1.4s-5.703.322-5.703.215c0-.215 2.582-.323 5.595-.754l5.595-.861zm13.989-19.485c-.108-.108.753-2.368 1.937-5.275 1.183-2.799 2.259-5.06 2.474-5.06.108.108-.753 2.369-1.936 5.275l-2.475 5.06zm-34.002 41.123c-.107.108-1.721-2.045-3.873-4.629l-3.982-4.521c.108-.108 2.26 1.615 4.412 4.198 2.152 2.476 3.551 4.845 3.443 4.952zm-6.24-44.137c.107.107-1.076 2.476-2.798 5.382l-3.336 5.168c-.107-.108 1.076-2.476 2.798-5.383 1.722-3.014 3.228-5.275 3.336-5.167zm4.411-15.287c0 .108-2.69-.431-6.026-1.292l-5.918-1.83c0-.108 2.69.431 6.026 1.292l5.918 1.83zm-.216-31.112c.108-.107 1.507 1.938 3.228 4.414l3.013 4.521c-.108.108-1.722-1.722-3.443-4.198-1.829-2.584-2.906-4.737-2.798-4.737zm-9.9-1.615c.108.108-1.614 1.723-3.766 3.661l-4.088 3.229c-.108-.107 1.614-1.722 3.766-3.66l4.088-3.23zm7.749-16.255c-.108.108-2.475-1.83-4.95-4.844-2.475-2.907-4.089-5.598-3.981-5.706s1.937 2.476 4.411 5.275l4.52 5.275zm27.545-5.06c0 .108-2.69 1.077-6.026 2.153s-6.133 1.723-6.241 1.615c0-.108 2.691-1.076 6.026-2.153l6.241-1.615zm-38.736-26.267c-.215 0-.108-2.476-.43-5.49s-1.076-5.383-.861-5.383c.107 0 1.076 2.261 1.399 5.383.322 3.014 0 5.598-.108 5.49zm-24.426 78.156c0 .108-.969.753-2.583 1.83l-6.133 4.521-5.81 4.845-2.368 2.045s.754-.969 2.152-2.261c1.399-1.399 3.444-3.121 5.703-4.952l6.241-4.413c1.614-1.184 2.69-1.723 2.798-1.615zm-1.506-8.72c-.107.108-1.937-2.691-4.411-6.029l-4.627-5.92c.107 0 .645.538 1.614 1.507s2.152 2.368 3.443 4.09c1.291 1.615 2.26 3.23 3.013 4.414s1.076 1.938.968 1.938zm6.563-34.018c.108.107-2.259 1.507-5.165 3.122l-5.38 2.691c-.107-.108 2.26-1.507 5.165-3.122l5.38-2.691zm-6.455-14.856c0 .107-.754-.431-1.83-1.508-1.076-.968-2.474-2.368-3.873-4.09s-2.583-3.338-3.228-4.629l-1.076-2.046c.107-.107 1.937 3.015 4.734 6.352l5.273 5.921zm11.189-.323c-.107-.108.754-2.153 1.937-4.737s2.367-4.521 2.475-4.414-.753 2.153-1.937 4.737l-2.475 4.414zm-3.012-17.009c-.216 0 0-3.338-.646-7.428s-1.829-7.213-1.614-7.213c.108 0 .43.753.861 2.045s.968 3.122 1.291 5.168.43 3.983.323 5.274c0 1.4-.108 2.154-.215 2.154zm2.798 85.799c-.107 0 0-1.184 0-3.122.108-1.938.108-4.629 0-7.536l-.43-7.536-.215-3.121c.107 0 .323 1.184.645 3.121l.646 7.644c.108 3.014 0 5.705-.215 7.643l-.431 2.907zm-1.615 26.805c-.107.108-1.936-2.045-4.734-3.875s-5.595-2.584-5.488-2.691c0-.108 2.906.322 5.811 2.26 2.797 1.83 4.519 4.199 4.411 4.306zm13.451 16.579c.108.108-3.228 2.045-7.424 4.091l-7.64 3.66c-.107-.108 3.228-1.938 7.425-4.091l7.639-3.66zm-37.982 7.32c-.108.108-2.582-3.014-5.488-6.889l-4.949-7.213c.107-.108 2.582 3.014 5.487 6.89l4.95 7.212zm-11.622-30.573c-.108 0-.216-.861-.216-2.261-.107-1.399-.107-3.229 0-5.382l.431-5.383.43-2.153c.108 0-.215 3.337-.323 7.536l-.322 7.643zm-12.697 52.211c-.107.108-2.905-2.045-6.241-4.844l-5.918-5.275c.108-.108 2.906 2.045 6.241 4.844l5.918 5.275zm7.64-1.614c-.108 0-.323-3.768-.43-8.397l.107-8.397c.108 0 .323 3.768.431 8.397l-.108 8.397zm14.956 32.403c0 .108-1.291-.431-3.551-1.184-2.152-.646-5.165-1.507-8.608-1.938s-6.564-.538-8.823-.43l-3.659.107s.323-.107.969-.215l2.69-.323c2.259-.215 5.487-.215 8.931.215s6.563 1.4 8.715 2.153l2.475 1.077.861.538zm12.268 5.921c0-.108.968.538 2.474 1.723 1.399 1.076 3.336 2.798 5.273 4.736s3.658 3.876 4.734 5.275l1.722 2.476c-.108 0-.753-.861-1.937-2.153-1.184-1.399-2.905-3.229-4.842-5.167l-5.165-4.845-2.259-2.045zm5.379-56.087c-.107.108-1.398-2.799-2.797-6.244l-2.26-6.459c.108-.108 1.399 2.799 2.798 6.244l2.259 6.459zm-43.147-109.052s-.538.753-1.614 1.83-2.69 2.368-4.627 3.66a38.82 38.82 0 0 1-5.165 2.907c-1.399.646-2.26.861-2.26.861-.107-.108 3.336-1.615 7.102-4.199s6.349-5.167 6.564-5.059zm2.689-11.412c-.108 0-.216-2.153 0-4.844.107-2.691.322-4.737.538-4.737.107 0 .215 2.153 0 4.845-.108 2.583-.323 4.736-.538 4.736zm-21.413 9.582c-.108.107-2.582-.862-5.595-2.261l-5.38-2.799c.107-.108 2.582.861 5.595 2.261l5.38 2.799zm38.306-14.641c-.108 0-.108-2.691.215-5.921.215-3.23.538-5.921.753-5.921.108 0 .108 2.691-.215 5.921l-.753 5.921zm-49.712 37.463c0 .108-2.905-.754-6.133-2.691s-5.38-4.091-5.272-4.199 2.367 1.83 5.595 3.66l5.81 3.23zm-16.032-21.961c.108.107-1.936 2.583-4.627 5.49l-4.949 5.06c-.108-.108 1.937-2.584 4.627-5.49l4.949-5.06zm-1.29-19.593c-.108.108-2.475-.861-5.058-2.799s-4.196-3.983-4.088-3.983c.107-.108 1.936 1.722 4.411 3.552l4.735 3.23zm-10.008 4.091c.107.107-.861 1.507-2.26 3.122s-2.582 2.906-2.69 2.799.861-1.507 2.26-3.122c1.291-1.615 2.475-2.907 2.69-2.799zm21.52-36.387c.108.108-1.721 2.584-4.196 5.598l-4.627 5.275c-.108-.108 1.722-2.584 4.196-5.598 2.368-3.014 4.52-5.382 4.627-5.275zm-18.506 4.091c-.108.108-2.152-2.045-4.627-4.844l-4.196-5.168c.107-.107 2.152 2.046 4.627 4.845l4.196 5.167zm9.253-23.361c-.108.108-1.614-2.26-3.228-5.059l-2.69-5.383c.107-.108 1.614 2.261 3.228 5.06l2.69 5.382zm-.431-15.071c-.107-.108 1.507-2.153 2.798-5.06s1.721-5.49 1.937-5.383c.107 0-.108 2.691-1.399 5.598-1.399 3.014-3.336 4.952-3.336 4.844zm-17.861-.861c-.108 0-.323-3.122 1.291-6.567.753-1.722 1.829-3.122 2.583-3.983.86-.861 1.398-1.399 1.506-1.292s-2.152 2.153-3.658 5.49c-1.399 3.337-1.507 6.352-1.722 6.352z" class="E"/><path d="M367.134 61.577c-.323-4.521-.646-8.935-.216-13.457.538-4.414 2.045-8.935 4.95-12.272 2.905-3.445 7.424-5.598 11.944-5.06 2.797.323 5.38 1.722 8.07 1.615 3.228-.108 6.025-2.045 8.931-3.445 4.519-2.045 9.791-2.584 14.633-1.507 2.583.538 5.058 1.615 6.994 3.553 1.83 1.83 2.906 4.629 2.26 7.213 3.228 0 6.564 0 9.684.861s6.133 2.584 7.747 5.383 1.507 6.674-.753 8.935c3.013-.646 6.133 1.722 6.887 4.629.753 3.014-.754 6.244-3.228 7.966-2.475 1.83-7.102 2.584-10.007 2.045-3.013-.538-6.456-1.4-8.824-3.23" class="C"/><path d="M364.766 162.986c12.374 3.23 24.963-4.198 28.191-16.578l3.336-12.703s17.969 3.122 23.887-13.995c5.918-17.009 16.14-57.271 16.14-57.271-16.893-15.179-40.78-19.916-62.193-12.488l-3.228 1.077-22.811 83.216c-3.336 12.595 4.196 25.514 16.678 28.743z" class="F"/><path d="M396.508 133.489s-11.083-2.799-20.121-13.779c0 0 1.183 14.102 18.722 18.301l1.399-4.522z" fill="#eb996e"/><path d="M367.24 69.544c-.215-.215-10.545-7.428-14.095 4.414s9.038 12.918 9.146 12.595c.107-.431 4.949-17.009 4.949-17.009z" class="F"/><path d="M360.031 80.955s-.216.108-.646.108-.968 0-1.506-.431c-1.076-.861-1.614-3.122-.969-5.275.323-1.076.861-2.045 1.507-2.799s1.398-1.184 2.044-1.077c.646 0 .968.538 1.076.969s-.108.538 0 .646c0 0 .323-.108.323-.646 0-.215 0-.538-.215-.861s-.646-.538-1.076-.646c-.969-.215-2.045.431-2.69 1.184-.754.754-1.399 1.83-1.722 3.122-.646 2.368-.108 4.952 1.506 6.028.754.431 1.507.431 1.937.215.323-.323.431-.538.431-.538z" fill="#eb996e"/><g class="C"><path d="M421.901 87.091c-.43 1.292-1.829 2.045-3.228 1.723-1.399-.431-2.152-1.723-1.829-3.014.43-1.292 1.829-2.045 3.228-1.722 1.506.431 2.259 1.722 1.829 3.014zm3.228-1.615c-.43.215-1.829-1.722-4.412-2.691-2.582-.861-4.949-.215-5.164-.646-.108-.215.43-.646 1.506-.969s2.69-.431 4.304.108a7.32 7.32 0 0 1 3.443 2.476c.431.969.538 1.615.323 1.722zm-29.052-6.997c-.431 1.292-1.829 2.045-3.228 1.722-1.399-.431-2.152-1.722-1.83-3.014.431-1.292 1.83-2.045 3.228-1.722 1.507.323 2.26 1.722 1.83 3.014zm3.12-1.184c-.43.215-1.829-1.723-4.411-2.691-2.583-.861-4.95-.215-5.165-.646-.108-.215.43-.646 1.506-.969s2.69-.431 4.304.108a7.33 7.33 0 0 1 3.444 2.476c.43.969.43 1.615.322 1.723z"/><path d="M402.104 100.009c0-.107 1.721.108 4.519.646.645.108 1.399.216 1.614-.215.323-.431.323-1.292.215-2.153l-.215-5.813c-.323-8.182-.323-14.856 0-14.856s.861 6.675 1.183 14.856c.108 2.045.108 3.983.216 5.813 0 .861.107 1.83-.538 2.799-.323.431-.969.646-1.399.646s-.861-.108-1.184-.215c-2.797-.862-4.411-1.4-4.411-1.508zm-8.286-.753c.43.108-.538 3.014 1.291 5.813 1.722 2.799 4.95 3.553 4.842 3.983 0 .216-.861.323-2.152-.107s-3.013-1.4-4.089-3.122-1.183-3.661-.86-4.845c.215-1.292.753-1.83.968-1.722zm31.849-18.732c-.646.431-2.26-.754-4.412-1.507-2.152-.861-4.196-.969-4.411-1.722-.108-.323.43-.861 1.398-1.184s2.475-.323 3.982.215 2.582 1.507 3.12 2.368c.646.861.646 1.615.323 1.83zm-26.792-13.887c-.431.215-1.076-.108-1.83-.646-.86-.431-1.829-1.077-3.12-1.507s-2.367-.754-3.336-.861c-.968-.215-1.614-.323-1.829-.754-.108-.431.323-1.076 1.507-1.507s2.905-.538 4.734.108 3.12 1.938 3.658 3.014c.646 1.184.646 1.938.216 2.153zm36.691 1.4s-12.697 0-24.533-9.689c-7.747-6.352-17.431-10.765-20.014-9.474-2.69 1.292-5.164 10.119-14.418 10.765 0 0-3.336 17.224-10.007 15.071s3.551-27.774 3.551-27.774l18.615-4.414 19.045.646 17.109 3.875 14.741 8.505-4.089 12.488z"/></g><path d="M339.587.323H98.023v376.354h241.564V.323z" class="E"/><g class="B"><path d="M162.8 84.077h-30.881a3.86 3.86 0 0 1-3.874-3.876V37.463a3.86 3.86 0 0 1 3.874-3.875h19.583l15.172 15.61v31.004a3.86 3.86 0 0 1-3.874 3.876z"/><path d="M151.502 33.588v12.057c0 1.938 1.614 3.553 3.551 3.553h11.621l-15.172-15.61z"/></g><path opacity=".002" d="M151.61 46.614s-.108 2.907 3.12 3.876c.108 0 .215.108.431.108 1.506.323 11.513 2.045 11.513 1.83v-3.23h-11.621s-2.798-.108-3.443-2.584z" fill="#000"/><path opacity=".008" d="M151.502 33.588v12.057c0 1.938 1.614 3.553 3.551 3.553h11.621l-15.172-15.61z" fill="#fff"/><g class="E"><path d="M148.92 45.107c0 .108-3.228.323-7.102.323-3.981 0-7.101-.108-7.101-.323s3.228-.323 7.101-.323l7.102.323zm9.254 6.782c0 .108-5.273.323-11.729.323s-11.728-.108-11.728-.323 5.165-.215 11.621-.215c6.563 0 11.836.108 11.836.215z"/><use xlink:href="#B"/><use xlink:href="#B" y="5.383"/><path d="M160.216 68.36c0 .108-5.702.323-12.804.323s-12.805-.108-12.805-.323c0-.108 5.703-.323 12.805-.323s12.804.108 12.804.323zm0 5.382c0 .108-5.702.323-12.804.323s-12.805-.108-12.805-.323 5.703-.323 12.805-.323 12.804.108 12.804.323z"/></g><path d="M183.326 51.592h-4.113V63h-1.679V51.592h-4.104v-1.389h9.896v1.389zm4.711 11.584c-1.289 0-2.338-.422-3.146-1.266-.809-.85-1.213-1.983-1.213-3.401v-.299c0-.943.178-1.784.536-2.523s.867-1.324 1.512-1.74a3.8 3.8 0 0 1 2.109-.633c1.236 0 2.197.407 2.883 1.222s1.028 1.98 1.028 3.498v.677h-6.442c.023.938.296 1.696.817 2.276a2.6 2.6 0 0 0 2.004.861c.574 0 1.061-.117 1.459-.351s.747-.545 1.046-.932l.993.774c-.797 1.225-1.992 1.837-3.586 1.837zm-.202-8.525a2.16 2.16 0 0 0-1.652.721c-.446.475-.721 1.143-.827 2.004h4.764v-.123c-.047-.826-.269-1.465-.668-1.916-.398-.457-.937-.686-1.617-.686zm10.397.298c-.246-.041-.512-.061-.799-.061-1.067 0-1.79.454-2.171 1.362V63h-1.626v-9.51h1.582l.026 1.099c.533-.85 1.289-1.274 2.268-1.274.316 0 .556.041.72.123v1.512zm3.033-1.459l.044 1.055c.697-.82 1.637-1.23 2.821-1.23 1.33 0 2.235.51 2.716 1.529a3.61 3.61 0 0 1 1.23-1.108c.51-.281 1.111-.422 1.802-.422 2.086 0 3.146 1.104 3.182 3.313V63h-1.626v-6.275c0-.68-.156-1.187-.466-1.521-.311-.34-.832-.51-1.565-.51-.603 0-1.104.182-1.503.545-.398.357-.629.841-.694 1.45V63h-1.635v-6.231c0-1.383-.676-2.074-2.03-2.074-1.066 0-1.796.454-2.188 1.362V63h-1.626v-9.51h1.538zm19.793 6.988a1.18 1.18 0 0 0-.501-1.02c-.328-.246-.906-.457-1.732-.633-.82-.176-1.473-.387-1.96-.633-.48-.246-.838-.539-1.072-.879s-.343-.744-.343-1.213c0-.779.328-1.438.985-1.978s1.505-.808 2.531-.808c1.078 0 1.951.278 2.619.835.674.557 1.011 1.269 1.011 2.136h-1.635c0-.445-.19-.829-.571-1.151-.375-.322-.85-.483-1.424-.483-.592 0-1.055.129-1.389.387s-.501.595-.501 1.011c0 .392.155.688.466.888s.87.39 1.679.571 1.473.398 1.977.65.876.557 1.116.914c.247.352.37.782.37 1.292a2.44 2.44 0 0 1-1.02 2.048c-.68.51-1.561.765-2.645.765-.762 0-1.436-.135-2.022-.404s-1.046-.645-1.38-1.125a2.76 2.76 0 0 1-.492-1.573h1.626a1.7 1.7 0 0 0 .65 1.301c.411.316.95.475 1.618.475.615 0 1.107-.123 1.476-.369.375-.252.563-.586.563-1.002zm7.778-2.321c0-.932.182-1.77.545-2.514.369-.744.879-1.318 1.529-1.723.656-.404 1.403-.606 2.241-.606 1.295 0 2.341.448 3.138 1.345.803.897 1.204 2.089 1.204 3.577v.114c0 .926-.179 1.758-.536 2.496-.352.732-.858 1.304-1.52 1.714s-1.413.615-2.268.615c-1.289 0-2.335-.448-3.138-1.345-.797-.896-1.195-2.083-1.195-3.56v-.114zm1.635.193c0 1.055.243 1.901.729 2.54.492.639 1.149.958 1.969.958.826 0 1.482-.322 1.969-.967.486-.65.729-1.559.729-2.725 0-1.043-.249-1.887-.747-2.531-.492-.65-1.148-.976-1.969-.976a2.33 2.33 0 0 0-1.942.958c-.492.639-.738 1.553-.738 2.742zm9.861 4.65v-8.253h-1.503V53.49h1.503v-.976c0-1.02.272-1.808.817-2.364s1.316-.835 2.312-.835a4.29 4.29 0 0 1 1.116.149l-.088 1.318c-.275-.053-.568-.079-.879-.079-.527 0-.934.155-1.221.466-.287.305-.431.744-.431 1.318v1.002h2.03v1.257h-2.03V63h-1.626zm19.187-12.797v8.701c-.006 1.207-.387 2.194-1.143 2.962-.75.768-1.77 1.198-3.059 1.292l-.448.018c-1.4 0-2.516-.378-3.348-1.134s-1.254-1.796-1.266-3.12v-8.719h1.67v8.666c0 .926.255 1.646.764 2.162.51.51 1.237.765 2.18.765.955 0 1.685-.255 2.189-.765s.764-1.227.764-2.153v-8.675h1.697zm7.945 10.275a1.18 1.18 0 0 0-.501-1.02c-.328-.246-.905-.457-1.732-.633-.82-.176-1.473-.387-1.96-.633-.48-.246-.837-.539-1.072-.879-.228-.34-.343-.744-.343-1.213 0-.779.329-1.438.985-1.978.662-.539 1.506-.808 2.531-.808 1.078 0 1.951.278 2.619.835.674.557 1.011 1.269 1.011 2.136h-1.635c0-.445-.19-.829-.571-1.151-.375-.322-.85-.483-1.424-.483-.592 0-1.055.129-1.389.387s-.501.595-.501 1.011c0 .392.156.688.466.888s.87.39 1.679.571 1.474.398 1.977.65.876.557 1.117.914c.246.352.369.782.369 1.292a2.44 2.44 0 0 1-1.02 2.048c-.679.51-1.561.765-2.645.765-.762 0-1.436-.135-2.022-.404s-1.046-.645-1.38-1.125a2.76 2.76 0 0 1-.492-1.573h1.626c.03.545.246.979.651 1.301.41.316.949.475 1.617.475.615 0 1.107-.123 1.476-.369.375-.252.563-.586.563-1.002zm7.69 2.698c-1.289 0-2.338-.422-3.146-1.266-.809-.85-1.213-1.983-1.213-3.401v-.299c0-.943.179-1.784.536-2.523.363-.744.867-1.324 1.512-1.74a3.8 3.8 0 0 1 2.109-.633c1.236 0 2.197.407 2.883 1.222s1.028 1.98 1.028 3.498v.677h-6.442c.023.938.296 1.696.817 2.276.528.574 1.196.861 2.004.861.574 0 1.061-.117 1.459-.351s.747-.545 1.046-.932l.993.774c-.797 1.225-1.992 1.837-3.586 1.837zm-.202-8.525a2.16 2.16 0 0 0-1.652.721c-.446.475-.721 1.143-.826 2.004h4.763v-.123c-.047-.826-.269-1.465-.668-1.916-.398-.457-.937-.686-1.617-.686z" class="C"/><path d="M186.041 73.635l-2.583 7.536h-1.183l-2.045-6.029-2.044 6.029h-1.184l-2.582-7.536h1.076l2.044 6.136 2.152-6.136h.969l2.044 6.244 2.045-6.244h1.291zm5.918 5.059h-4.734c.107.969.968 1.722 2.044 1.722.646 0 1.184-.215 1.614-.646l.538.646c-.538.646-1.291.969-2.26.969-1.829 0-3.12-1.184-3.12-2.907s1.184-2.907 2.905-2.907c1.614 0 2.798 1.184 2.798 2.907.215 0 .215.108.215.215zm-4.734-.754h3.658c-.108-.969-.861-1.615-1.829-1.615s-1.722.646-1.829 1.615zm6.132-4.736h1.076v8.074h-1.076v-8.074zm2.475 5.167c0-1.722 1.291-2.907 3.013-2.907 1.076 0 1.937.431 2.367 1.184l-.753.538a1.86 1.86 0 0 0-1.507-.861c-1.076 0-1.936.754-1.936 2.045s.86 2.045 1.936 2.045c.646 0 1.184-.215 1.507-.861l.753.538c-.43.754-1.291 1.184-2.367 1.184-1.722 0-3.013-1.184-3.013-2.907zm6.133 0c0-1.722 1.291-2.907 3.013-2.907s3.012 1.184 3.012 2.907-1.291 2.907-3.012 2.907-3.013-1.184-3.013-2.907zm4.949 0c0-1.184-.86-2.045-1.936-2.045s-1.937.754-1.937 2.045c0 1.184.861 2.045 1.937 2.045s1.936-.861 1.936-2.045zm11.946-.43v3.337h-1.076v-3.23c0-1.077-.538-1.722-1.507-1.722-1.076 0-1.721.646-1.721 1.938v2.907h-1.076v-3.23c0-1.077-.538-1.722-1.507-1.722-1.076 0-1.721.646-1.721 1.938v2.907h-1.076v-5.706h.968v.861c.431-.538 1.076-.861 1.937-.861s1.614.323 2.044 1.077c.431-.646 1.184-1.077 2.26-1.077 1.506.108 2.475.861 2.475 2.584zm7.101.753h-4.627c.108.969.968 1.722 2.044 1.722.646 0 1.184-.215 1.614-.646l.538.646c-.538.646-1.291.969-2.259.969-1.829 0-3.121-1.184-3.121-2.907s1.184-2.907 2.906-2.907c1.614 0 2.797 1.184 2.797 2.907.215 0 .108.108.108.215zm-4.627-.754h3.658c-.107-.969-.86-1.615-1.829-1.615a1.77 1.77 0 0 0-1.829 1.615zm5.918 2.692c0-.431.323-.646.753-.646s.646.323.646.646c0 .431-.323.646-.646.646-.43 0-.753-.323-.753-.646zm.108-6.997h1.183l-.215 5.167h-.861l-.107-5.167zm96.84 265.794h-1.291c-.754 0-1.399-.646-1.399-1.399V24.868c0-.754.645-1.399 1.399-1.399h1.291c.753 0 1.399.646 1.399 1.399V338.03c0 .861-.646 1.399-1.399 1.399z" class="D"/><path d="M324.2 186.347h-1.291c-.754 0-1.399-.646-1.399-1.4V24.868c0-.754.645-1.399 1.399-1.399h1.291c.753 0 1.399.646 1.399 1.399v160.079c0 .754-.646 1.4-1.399 1.4z" class="B"/><g class="C"><path d="M135.899 117.772v7.536h-1.076v-6.675h-1.721v-.969h2.797v.108zm1.615 6.89c0-.431.322-.754.753-.754s.753.323.753.754-.323.753-.753.753-.753-.322-.753-.753zm7.531-5.921h-2.582v-.969h6.241v.969h-2.583v6.675h-1.076v-6.675zm9.254 4.091h-4.627c.107.969.968 1.722 2.044 1.722.646 0 1.184-.215 1.614-.646l.538.646c-.538.646-1.291.969-2.259.969-1.83 0-3.121-1.184-3.121-2.906s1.184-2.907 2.906-2.907c1.614 0 2.797 1.184 2.797 2.907.108 0 .108.107.108.215zm-4.627-.754h3.658c-.107-.969-.86-1.615-1.829-1.615-1.076 0-1.722.646-1.829 1.615zm9.146-2.476v.969h-.216c-1.076 0-1.829.646-1.829 1.938v2.907h-1.076v-5.706h.969v.969c.43-.754 1.183-1.077 2.152-1.077zm10.761 2.476v3.337h-1.076v-3.229c0-1.077-.538-1.723-1.507-1.723-1.076 0-1.721.646-1.721 1.938v2.907h-1.076v-3.23c0-1.076-.538-1.722-1.507-1.722-1.076 0-1.721.646-1.721 1.938v2.906h-1.076v-5.705h.968v.861c.43-.538 1.076-.861 1.937-.861s1.614.323 2.044 1.076c.431-.646 1.184-1.076 2.26-1.076 1.614.107 2.475.861 2.475 2.583zm-30.775 119.925v.969h-5.38v-.753l3.121-3.015c.753-.753.968-1.291.968-1.722 0-.754-.538-1.292-1.614-1.292-.861 0-1.506.215-1.937.861l-.753-.646c.538-.753 1.614-1.184 2.798-1.184 1.614 0 2.582.861 2.582 2.153 0 .754-.215 1.4-1.291 2.369l-2.367 2.26h3.873zm.967.216c0-.431.323-.754.754-.754s.753.323.753.754-.323.753-.753.753c-.323 0-.754-.323-.754-.753zm6.028-6.89h1.076v6.674h4.089v.969h-5.165v-7.643zm6.133.108c0-.431.322-.646.753-.646s.753.323.753.646c0 .43-.323.645-.753.645s-.753-.215-.753-.645zm.215 1.722h1.076v5.706h-1.076v-5.706z"/><use xlink:href="#C"/><path d="M166.349 240.389h-4.626c.107.968.968 1.722 2.044 1.722.646 0 1.184-.215 1.614-.646l.538.646c-.538.646-1.291.969-2.26.969-1.829 0-3.12-1.184-3.12-2.907s1.184-2.906 2.905-2.906c1.614 0 2.798 1.184 2.798 2.906.215 0 .107.108.107.216zm-4.626-.754h3.658c-.108-.969-.861-1.615-1.829-1.615s-1.722.646-1.829 1.615zm11.513 0v3.337h-1.076v-3.229c0-1.077-.538-1.723-1.507-1.723-1.076 0-1.829.646-1.829 1.938v2.907h-1.076v-5.706h.968v.861c.431-.538 1.184-.969 2.045-.969 1.506.108 2.475.862 2.475 2.584z"/><use xlink:href="#C" x="20.121"/><path d="M186.471 240.389h-4.627c.107.968.968 1.722 2.044 1.722.646 0 1.184-.215 1.614-.646l.538.646c-.538.646-1.291.969-2.259.969-1.83 0-3.121-1.184-3.121-2.907s1.184-2.906 2.905-2.906 2.798 1.184 2.798 2.906c.108 0 .108.108.108.216zm-4.627-.754h3.658c-.107-.969-.861-1.615-1.829-1.615s-1.722.646-1.829 1.615z"/><use xlink:href="#D"/><use xlink:href="#E"/><path d="M298.914 167.508c0 .107-37.122.323-82.96.323s-82.96-.108-82.96-.323c0-.108 37.122-.323 82.96-.323l82.96.323z"/><use xlink:href="#F"/><use xlink:href="#D" y="50.166"/><use xlink:href="#F" y="25.083"/><use xlink:href="#E" y="97.964"/></g><use xlink:href="#D" y="121.217" class="D"/><path d="M298.914 274.407c0 .108-37.122.323-82.96.323s-82.96-.108-82.96-.323c0-.108 37.122-.323 82.96-.323l82.96.323z" fill="#ebebeb"/><path d="M310.966 306.487h-87.695v32.727h87.695v-32.727z" class="B"/><path d="M252.43 324.573h-4.304l-.86 2.046h-1.184l3.658-8.182h1.184l3.658 8.182h-1.183l-.969-2.046zm-.322-.969l-1.722-3.983-1.722 3.983h3.444zm2.906-.107c0-1.83 1.398-3.122 3.228-3.122 1.076 0 2.044.43 2.475 1.292l-.861.538c-.431-.646-.969-.861-1.722-.861-1.184 0-2.152.861-2.152 2.153s.861 2.153 2.152 2.153c.646 0 1.291-.323 1.722-.861l.861.538c-.538.861-1.399 1.292-2.475 1.292-1.937 0-3.228-1.292-3.228-3.122zm6.455 0c0-1.83 1.399-3.122 3.228-3.122 1.076 0 2.044.43 2.475 1.292l-.861.538c-.431-.646-.969-.861-1.722-.861-1.183 0-2.152.861-2.152 2.153s.861 2.153 2.152 2.153c.646 0 1.291-.323 1.722-.861l.861.538c-.538.861-1.399 1.292-2.475 1.292-1.829 0-3.228-1.292-3.228-3.122zm12.697.43h-4.949c.107 1.077.968 1.83 2.259 1.83.753 0 1.291-.215 1.829-.753l.646.753c-.538.646-1.399.969-2.475.969-1.937 0-3.335-1.292-3.335-3.122s1.291-3.122 3.12-3.122 3.013 1.292 3.013 3.122c-.108 0-.108.216-.108.323zm-4.949-.861h3.981c-.108-1.077-.861-1.722-1.937-1.722-1.184 0-1.937.645-2.044 1.722zm12.911.431c0 1.937-1.291 3.122-3.121 3.122-.86 0-1.614-.323-2.152-.969v3.229h-1.076v-8.397h1.076v.969c.538-.646 1.292-1.076 2.152-1.076 1.83 0 3.121 1.292 3.121 3.122zm-1.184 0c0-1.292-.861-2.153-2.044-2.153s-2.045.861-2.045 2.153.861 2.153 2.045 2.153 2.044-.861 2.044-2.153zm6.134 2.691c-.323.323-.861.431-1.399.431-1.291 0-1.937-.646-1.937-1.938v-3.337h-1.076v-.969h1.076v-1.4h1.076v1.4h1.722v.969h-1.722v3.337c0 .646.323 1.076.968 1.076.323 0 .646-.107.861-.323l.431.754z" fill="#fff"/><path d="M128.904 339.429s-.107 0-.215-.107-.323-.323-.645-.539l-2.583-2.045-.107-.108h.107l87.695-32.942.107-.107.108.107 3.443 2.692.108.107v33.157h-.323c-25.071 0-47.022-.107-62.731-.107-7.855 0-14.096-.108-18.4-.108h-6.241c-.215.108-.323 0-.323 0h6.672l18.399-.107 62.624-.108-.323.323V306.81l.108.216c-1.184-.969-2.367-1.83-3.443-2.692h.322l-87.802 32.511v-.107c1.184.969 1.937 1.615 2.583 2.045.215.216.43.431.645.539.108.107.215.107.215.107z" class="B"/><path d="M213.156 304.011h-87.695v32.727h87.695v-32.727z" fill="#fff"/><g class="B"><path d="M213.264 336.738v-8.72l-.108-23.899.215.215-87.695.108.323-.323v32.726l-.323-.322 62.839.107 18.292.108h6.457-6.564l-18.185.107-63.269.108v-33.372h.323l87.91.107v.216l-.108 24.006v8.074c-.107.539-.107.754-.107.754zm-63.7-18.624h3.444c2.582 0 4.411 1.615 4.411 4.091 0 2.368-1.829 4.091-4.411 4.091h-3.444v-8.182zm3.336 7.105c2.044 0 3.336-1.184 3.336-3.014s-1.292-3.015-3.336-3.015h-2.152v6.137h2.152v-.108zm11.622-1.722h-4.95c.108 1.076.968 1.83 2.26 1.83.753 0 1.291-.216 1.829-.754l.646.754c-.538.646-1.399.969-2.475.969-1.937 0-3.336-1.292-3.336-3.122s1.291-3.122 3.121-3.122 3.012 1.291 3.012 3.122c-.107.107-.107.215-.107.323zm-5.058-.754h3.982c-.108-1.077-.861-1.722-1.937-1.722-1.076-.108-1.829.645-2.045 1.722zm6.026.431c0-1.831 1.399-3.122 3.228-3.122 1.076 0 2.045.43 2.475 1.291l-.861.539c-.43-.646-.968-.861-1.721-.861-1.184 0-2.152.861-2.152 2.153s.86 2.153 2.152 2.153c.645 0 1.291-.323 1.721-.862l.861.539c-.538.861-1.399 1.292-2.475 1.292-1.829 0-3.228-1.292-3.228-3.122zm7.102-5.598h1.076v8.612h-1.076v-8.612zm3.012.538c0-.431.322-.754.753-.754s.753.323.753.754-.323.754-.753.754-.753-.323-.753-.754zm.215 1.938h1.076v6.136h-1.076v-6.136zm9.146 2.583v3.553h-1.076v-3.445c0-1.184-.646-1.83-1.614-1.83-1.184 0-1.937.753-1.937 2.045v3.122h-1.076v-6.136h1.076v.969c.43-.646 1.291-.969 2.259-.969 1.292 0 2.368.861 2.368 2.691zm7.641.862h-4.95c.108 1.076.968 1.83 2.26 1.83.753 0 1.291-.216 1.829-.754l.646.754c-.538.646-1.399.969-2.475.969-1.937 0-3.336-1.292-3.336-3.122s1.291-3.122 3.121-3.122 3.012 1.291 3.012 3.122c-.107.107-.107.215-.107.323zm-5.058-.754h3.982c-.108-1.077-.861-1.722-1.937-1.722-1.076-.108-1.937.645-2.045 1.722z"/><path d="M216.599 339.429c-.107.108-.968-.538-1.936-1.399s-1.614-1.723-1.507-1.83.969.538 1.937 1.399c.968.969 1.614 1.723 1.506 1.83z"/></g><path d="M341.955 331.248l12.481-6.029-6.886-20.346-15.064-3.445-4.735-1.184c-2.044-.539-3.981-1.508-5.703-2.692-2.152-1.507-4.842-3.552-6.025-5.059-1.399-1.938-4.519-1.185-4.412.969 0 2.153 3.766 7.643 10.653 11.518 6.778 3.876-5.165 5.706-9.577 6.459-4.304.754-17.754 3.768-18.507 5.276-1.184 2.26 1.076 3.875 5.38 3.014 4.412-.861 17.539-2.476 17.862-.216v.108c-2.152 3.337-1.937 7.859.538 10.981 2.474 3.014 6.025 6.889 8.715 6.244 5.058-1.185 15.28-5.598 15.28-5.598z" class="F"/><path d="M341.201 295.507l11.729 39.724 91.137-27.667c19.584-5.921 30.451-26.913 24.103-46.398l-22.381-69.544-48.528 12.057 26.685 64.376-82.745 27.452z" class="B"/><g class="C"><path d="M446.113 306.81s-.108.108-.431.108l-1.291.431-5.057 1.615-85.758 26.052-.108-.216-12.589-39.185-.108-.216.216-.107 2.259-.754 80.486-26.698-.108.323-15.387-37.355-4.196-10.335-1.076-2.691-.323-.969a4.95 4.95 0 0 0 .43.861c.216.646.646 1.507 1.184 2.691l4.304 10.227 15.494 37.248.108.215-.215.108-82.638 27.559.216-.323 12.481 39.186-.322-.215 90.707-27.129c.538-.215.968-.323 1.291-.323.323-.108.431-.108.431-.108z"/><path d="M440.84 279.467c-.108 0-.646-.969-1.937-2.476-1.183-1.508-3.12-3.445-5.595-5.06s-4.95-2.584-6.887-3.122l-3.012-.754h.86c.538 0 1.292.216 2.26.431 1.937.431 4.519 1.4 7.102 3.122 2.475 1.722 4.411 3.66 5.595 5.275l1.291 1.938.323.646z"/></g><path d="M418.674 206.909c-.107 0-.322-2.584-.322-5.921 0-3.23.107-5.921.322-5.921.108 0 .323 2.583.323 5.921s-.107 5.921-.323 5.921zm18.293.969c-.108 0-1.076-2.477-1.937-5.598-.968-3.122-1.614-5.814-1.399-5.814.108 0 1.076 2.476 1.937 5.598.968 3.122 1.614 5.814 1.399 5.814zm-11.299 16.47c0 .108-2.582.108-5.488-.861-3.013-.861-5.165-2.153-5.057-2.261s2.367.862 5.272 1.723c2.798.969 5.273 1.292 5.273 1.399zm20.66 9.151c-.108 0 .107-2.584.645-5.598.538-3.122 1.076-5.598 1.292-5.49.107 0-.108 2.583-.646 5.598s-1.076 5.49-1.291 5.49zm-7.425 14.856c-.108.108-1.291-2.261-2.69-5.167l-2.152-5.383c.108-.108 1.291 2.261 2.69 5.167s2.367 5.275 2.152 5.383zm-3.014 12.918c-.107.108-2.367-.861-5.057-2.153-2.797-1.292-4.949-2.476-4.842-2.691.108-.108 2.367.861 5.057 2.153l4.842 2.691zm23.35-3.445c.108.108-.861 2.261-2.044 4.952l-2.152 4.845c-.108 0 .43-2.369 1.614-5.06s2.367-4.737 2.582-4.737zm-6.564 31.327c-.107 0-.538-2.691-.861-6.028l-.322-6.029c.107 0 .538 2.692.86 6.029.431 3.229.538 5.921.323 6.028zm-16.354 9.797c-.107.107-2.044-1.507-4.304-3.553s-3.981-3.875-3.874-3.983 2.045 1.507 4.304 3.553l3.874 3.983zm-28.407 2.906c.107.108-1.399 2.261-3.336 4.952s-3.658 4.737-3.766 4.629 1.399-2.26 3.336-4.952 3.658-4.736 3.766-4.629zm8.93-13.349c-.108.108-2.152-1.507-4.412-3.875-2.152-2.369-3.658-4.522-3.443-4.629.108-.108 1.722 1.938 3.874 4.306l3.981 4.198zm-21.412 3.015c0 .107-1.829.753-4.304.538s-4.196-.969-4.196-1.184c.107-.108 1.829.43 4.196.538 2.367.215 4.304 0 4.304.108zM381.874 315.1c-.108 0-.646-2.046-1.076-4.629s-.646-4.737-.538-4.737.645 2.045 1.076 4.629.753 4.737.538 4.737zm-16.032 8.074c-.108.107-2.475-1.292-5.38-3.122l-5.165-3.553c.107-.107 2.475 1.292 5.38 3.122 3.013 1.83 5.272 3.445 5.165 3.553zm5.811-28.636c.107.108-1.399 1.938-3.228 4.414l-3.121 4.414c-.107-.108.969-2.261 2.69-4.737s3.551-4.199 3.659-4.091zm-12.482 5.49c-.108.108-1.507-.43-3.121-1.292-1.721-.861-3.013-1.614-2.905-1.722s1.506.431 3.12 1.292c1.722.753 3.013 1.507 2.906 1.722z" class="E"/><path opacity=".008" d="M423.193 266.333l14.634 1.615c1.722.215 3.336.43 4.95 1.076 1.506.646 3.012 1.83 3.55 3.445s.108 3.66-1.398 4.521c-1.292.862-3.013.539-4.412-.215s-2.475-1.83-3.658-2.906c-2.152-1.831-4.735-3.122-7.425-3.876-1.183-.323-2.475-.538-3.551-1.292-1.076-.646-1.829-1.937-1.506-3.229" fill="#000"/><defs ><path id="B" d="M160.216 57.594c0 .108-5.702.323-12.804.323s-12.805-.108-12.805-.323c0-.108 5.703-.323 12.805-.323s12.804.215 12.804.323z"/><path id="C" d="M154.621 240.066c0-1.723 1.291-2.907 3.013-2.907 1.076 0 1.937.431 2.367 1.184l-.753.538c-.323-.538-.968-.861-1.506-.861-1.076 0-1.937.754-1.937 2.046s.861 2.045 1.937 2.045c.645 0 1.183-.215 1.506-.861l.753.538c-.43.754-1.291 1.184-2.367 1.184-1.722 0-3.013-1.184-3.013-2.906z"/><path id="D" d="M298.914 142.425c0 .107-37.122.323-82.96.323s-82.96-.108-82.96-.323 37.122-.323 82.96-.323l82.96.323z"/><path id="E" d="M298.914 154.912c0 .108-37.122.323-82.96.323s-82.96-.107-82.96-.323c0-.107 37.122-.323 82.96-.323l82.96.323z"/><path id="F" d="M298.914 180.103c0 .108-37.122.323-82.96.323s-82.96-.108-82.96-.323 37.122-.323 82.96-.323l82.96.323z"/></defs></svg>